<svg width="384" height="512" viewBox="0 0 384 512" fill="none" xmlns="http://www.w3.org/2000/svg">
<path d="M380.875 109.792L274.208 3.125C272.208 1.125 269.5 0 266.666 0H42.666C19.146 0 0 19.135 0 42.667V469.334C0 492.865 19.146 512 42.667 512H341.334C364.854 512 384 492.865 384 469.333V117.333C384 114.5 382.875 111.792 380.875 109.792ZM277.333 36.417L347.583 106.667H298.666C286.895 106.667 277.333 97.094 277.333 85.334V36.417ZM362.667 469.333C362.667 481.093 353.104 490.666 341.334 490.666H42.667C30.896 490.666 21.334 481.093 21.334 469.333V42.667C21.334 30.907 30.897 21.334 42.667 21.334H256V85.334C256 108.865 275.146 128 298.667 128H362.667V469.333Z" fill="white"/>
<path d="M309.333 298.667H74.667C68.771 298.667 64 303.438 64 309.334C64 315.23 68.771 320.001 74.667 320.001H309.334C315.23 320.001 320.001 315.23 320.001 309.334C320 303.438 315.229 298.667 309.333 298.667Z" fill="white"/>
<path d="M309.333 234.667H74.667C68.771 234.667 64 239.438 64 245.334C64 251.23 68.771 256.001 74.667 256.001H309.334C315.23 256.001 320.001 251.23 320.001 245.334C320 239.438 315.229 234.667 309.333 234.667Z" fill="white"/>
<path d="M309.333 362.667H74.667C68.771 362.667 64 367.438 64 373.334C64 379.23 68.771 384.001 74.667 384.001H309.334C315.23 384.001 320.001 379.23 320.001 373.334C320 367.438 315.229 362.667 309.333 362.667Z" fill="white"/>
<path d="M202.667 426.667H74.667C68.771 426.667 64 431.438 64 437.334C64 443.23 68.771 448.001 74.667 448.001H202.667C208.563 448.001 213.334 443.23 213.334 437.334C213.333 431.438 208.563 426.667 202.667 426.667Z" fill="white"/>
<path d="M170.667 181.333C170.667 187.229 175.438 192 181.334 192H309.334C315.23 192 320.001 187.229 320.001 181.333C320.001 175.437 315.23 170.666 309.334 170.666H181.334C175.438 170.667 170.667 175.438 170.667 181.333Z" fill="white"/>
<path d="M96 170.667H74.667C68.771 170.667 64 175.438 64 181.334C64 187.23 68.771 192.001 74.667 192.001H85.334C85.334 197.897 90.105 202.668 96.001 202.668C101.897 202.668 106.668 197.897 106.668 192.001V190.036C119.056 185.617 128 173.888 128 160C128 142.354 113.646 128 96 128C90.125 128 85.333 123.219 85.333 117.333C85.333 111.448 90.125 106.666 96 106.666H117.333C123.229 106.666 128 101.895 128 95.999C128 90.103 123.229 85.332 117.333 85.332H106.666C106.666 79.436 101.895 74.665 95.999 74.665C90.103 74.665 85.332 79.436 85.332 85.332V87.297C72.944 91.716 64 103.445 64 117.333C64 134.979 78.354 149.333 96 149.333C101.875 149.333 106.667 154.114 106.667 160C106.667 165.886 101.875 170.667 96 170.667Z" fill="white"/>
</svg>
