<svg width="483" height="322" viewBox="0 0 483 322" fill="none" xmlns="http://www.w3.org/2000/svg">
<path d="M472.309 33.8677H412.852C407.329 33.8677 402.852 38.3447 402.852 43.8677V52.5018H374.969C369.446 52.5018 364.969 56.9788 364.969 62.5018V65.3798C348.715 63.9608 343.369 60.8787 328.442 52.2707C316.962 45.6507 299.611 35.6458 268.364 21.5968C268.219 21.5308 268.073 21.4697 267.924 21.4117C257.753 17.4097 231.096 9.53575 202.625 22.4387L162.385 36.8467L128.466 2.92875C124.561 -0.97625 118.229 -0.97625 114.324 2.92875L2.96627 114.286C-0.635726 117.889 -1.32673 124.136 2.96627 128.429L193.253 318.716C196.298 321.762 203.428 322.683 207.396 318.716L309.061 217.052C311.704 217.28 314.447 217.403 317.29 217.403C343.416 217.403 366.526 199.481 379.747 179.947H472.309C477.832 179.947 482.309 175.47 482.309 169.947V43.8677C482.309 38.3447 477.832 33.8677 472.309 33.8677ZM121.394 24.1418L144.186 46.9338C137.411 51.1238 129.578 53.3657 121.394 53.3657C113.209 53.3657 105.377 51.1248 98.6023 46.9338L121.394 24.1418ZM46.9723 144.15L24.1803 121.357L46.9723 98.5648C51.1623 105.34 53.4043 113.173 53.4043 121.357C53.4043 129.541 51.1633 137.374 46.9723 144.15ZM200.325 297.502L177.537 274.714C191.45 266.128 209.198 266.128 223.112 274.714L200.325 297.502ZM237.52 260.308C215.422 244.278 185.228 244.278 163.13 260.308L61.3793 158.556C69.1883 147.816 73.4043 134.915 73.4043 121.357C73.4043 107.798 69.1893 94.8978 61.3793 84.1578L84.1963 61.3418C94.9363 69.1508 107.836 73.3668 121.395 73.3668C134.954 73.3668 147.854 69.1508 158.594 61.3418L180.223 82.9708C175.556 83.6598 171.005 85.1978 166.761 87.5628C159.593 91.5568 153.969 97.5378 150.467 104.774C139.187 106.863 128.744 112.324 120.552 120.515C98.3273 142.741 98.3273 178.904 120.553 201.13C131.665 212.242 146.262 217.799 160.86 217.799C175.457 217.799 190.055 212.243 201.168 201.13C208.398 193.9 213.463 185.014 216 175.33L249.764 186.789C245.963 204.397 249.856 222.921 260.357 237.471L237.52 260.308ZM176.722 161.995C176.81 162.027 176.898 162.059 176.987 162.089L196.983 168.876C195.473 175.691 192.056 181.957 187.026 186.988C172.598 201.414 149.122 201.416 134.696 186.988C120.268 172.561 120.268 149.086 134.696 134.658C138.176 131.176 142.283 128.455 146.758 126.61C148.604 141.972 159.665 155.665 176.722 161.995ZM274.766 223.061C270.906 216.771 268.722 209.592 268.377 202.265C273.167 205.728 279.021 209.121 286.013 211.814L274.766 223.061ZM364.968 165.96C355.49 181.498 337.108 197.401 317.29 197.401C313.582 197.401 310.107 197.137 306.858 196.667C306.845 196.665 306.832 196.663 306.819 196.661C285.223 193.524 273.606 181.25 269.777 176.39C269.573 176.09 268.704 174.953 268.575 174.764C267.41 172.682 265.5 171.008 263.064 170.181L183.556 143.196C170.868 138.434 164.161 127.569 167.235 116.733C167.237 116.726 167.239 116.719 167.241 116.712C167.244 116.704 167.246 116.695 167.248 116.687C168.677 111.697 171.959 107.558 176.495 105.031C181.001 102.52 186.21 101.897 191.178 103.274L280.771 131.665C286.037 133.336 291.657 130.418 293.325 125.153C294.993 119.888 292.078 114.268 286.813 112.599L215.558 90.0188L214.936 89.3968C214.93 89.3908 214.924 89.3838 214.917 89.3778L178.027 52.4878L209.735 41.1338C209.842 41.0948 209.974 41.0458 210.08 41.0028C210.107 40.9918 210.159 40.9718 210.185 40.9608C210.321 40.9058 210.455 40.8478 210.588 40.7868C232.024 30.9348 252.4 36.8317 260.387 39.9377C290.57 53.5187 306.68 62.8077 318.45 69.5947C334.814 79.0317 342.699 83.5788 364.968 85.4178V165.96V165.96ZM402.852 159.945H384.969V72.5018H402.852V159.945ZM462.309 159.945H422.852V53.8677H462.309V159.945Z" fill="white"/>
</svg>
