<svg width="390" height="512" viewBox="0 0 390 512" fill="none" xmlns="http://www.w3.org/2000/svg">
<path d="M275.655 202.803C309.601 171.854 355.507 129.997 359.691 30H390V0H0V30H30.309C34.493 129.997 80.399 171.854 114.345 202.803C137.116 223.564 150 236.271 150 256C150 275.729 137.116 288.436 114.345 309.197C80.399 340.146 34.493 382.003 30.309 482H0V512H390V482H359.691C355.507 382.003 309.601 340.146 275.655 309.197C252.884 288.436 240 275.729 240 256C240 236.271 252.884 223.564 275.655 202.803ZM180 368.438C175.367 369.394 170.79 370.785 166.323 372.633L74.446 410.652C89.45 372.502 113.616 350.459 134.557 331.367C157.927 310.06 180 289.935 180 256V368.438ZM255.443 331.367C276.384 350.459 300.549 372.502 315.554 410.651L223.677 372.632C219.21 370.784 214.633 369.393 210 368.437V256C210 289.935 232.073 310.06 255.443 331.367ZM73.919 100C66.666 81.101 61.657 58.282 60.346 30H329.653C328.342 58.282 323.334 81.101 316.08 100H73.919Z" fill="white"/>
</svg>
