<svg width="470" height="470" viewBox="0 0 470 470" fill="none" xmlns="http://www.w3.org/2000/svg">
<path d="M437.334 384.007H362.667C315.615 384.007 277.334 345.726 277.334 298.674C277.334 251.622 315.615 213.341 362.667 213.341H437.334C443.23 213.341 448.001 208.57 448.001 202.674V170.674C448.001 148.306 430.651 130.115 408.73 128.351L347.47 21.3509C341.793 11.4549 332.626 4.38193 321.657 1.44493C310.74 -1.47207 299.324 0.0599351 289.553 5.74693L79.55 128.007H42.667C19.136 128.007 0 147.142 0 170.674V426.674C0 450.205 19.135 469.341 42.667 469.341H405.334C428.865 469.341 448.001 450.206 448.001 426.674V394.674C448.001 388.778 443.23 384.007 437.334 384.007ZM360.699 87.4109L383.941 128.007H290.97L360.699 87.4109ZM121.95 128.007L300.292 24.1839C305.115 21.3609 310.75 20.6109 316.136 22.0489C321.584 23.5069 326.126 27.0279 328.949 31.9549L328.971 31.9939L164.061 128.007H121.95Z" fill="white"/>
<path d="M437.334 234.674H362.667C327.375 234.674 298.667 263.382 298.667 298.674C298.667 333.966 327.375 362.674 362.667 362.674H437.334C454.98 362.674 469.334 348.32 469.334 330.674V266.674C469.334 249.028 454.98 234.674 437.334 234.674ZM362.667 320.007C350.907 320.007 341.334 310.434 341.334 298.674C341.334 286.914 350.907 277.341 362.667 277.341C374.427 277.341 384 286.914 384 298.674C384.001 310.434 374.428 320.007 362.667 320.007Z" fill="white"/>
</svg>
