<svg width="14" height="14" viewBox="0 0 14 14" fill="none" xmlns="http://www.w3.org/2000/svg">
<path d="M13.6703 7.82123H13.3958V4.35833C13.3958 4.17619 13.2482 4.0286 13.0661 4.0286H12.8032V3.05954C12.8032 2.8774 12.6555 2.72981 12.4734 2.72981H12.0769V1.76082C12.0769 1.57868 11.9293 1.43109 11.7472 1.43109H2.25281C2.07074 1.43109 1.92309 1.57868 1.92309 1.76082V2.72981H1.52656C1.34449 2.72981 1.19684 2.8774 1.19684 3.05954V4.0286H0.933914C0.751839 4.0286 0.604188 4.17619 0.604188 4.35833V7.82123H0.329725C0.147651 7.82123 0 7.96882 0 8.15096V12.2392C0 12.4214 0.147651 12.5689 0.329725 12.5689H13.6703C13.8523 12.5689 14 12.4214 14 12.2392V8.15096C14 7.96882 13.8523 7.82123 13.6703 7.82123ZM2.58254 2.09054H11.4175V2.72981H2.58254V2.09054ZM1.85629 3.38926H12.1437V4.0286H1.85629V3.38926ZM1.26364 4.68805H12.7364V7.82123H10.2026C10.0442 7.82123 9.90824 7.93387 9.8787 8.08943L9.59988 9.5573H4.40018L4.12137 8.08943C4.09182 7.93387 3.95584 7.82123 3.79744 7.82123H1.26364V4.68805Z" fill="#FF877F"/>
</svg>
