<svg width="14" height="14" viewBox="0 0 14 14" fill="none" xmlns="http://www.w3.org/2000/svg">
<g clip-path="url(#clip0)">
<path d="M13.0492 0.412109H3.16382C2.61025 0.412109 2.1427 0.854127 2.1427 1.4077V3.48647H1.06579C0.705591 3.48647 0.399536 3.63855 0.204095 3.89272C0.00859075 4.14689 -0.0481907 4.48457 0.0442282 4.83272L2.10844 12.6127C2.13259 12.7038 2.16522 12.7952 2.20425 12.871C2.33054 13.2811 2.71283 13.5879 3.16382 13.5879H13.0492C13.6028 13.5879 14.0009 13.1248 14.0009 12.5713V1.4077C14.0009 0.854127 13.6028 0.412109 13.0492 0.412109ZM3.71124 4.17663H7.22479V6.30986H3.71124V4.17663ZM3.71124 7.62744H7.22479V9.76067H3.71124V7.62744ZM12.4324 12.3958H3.71124V11.0783H12.4324V12.3958ZM12.4324 9.76067H8.60512V4.17663H12.4324V9.76067ZM12.4324 2.85905H3.71124V1.54147H12.4324V2.85905Z" fill="#FF877F"/>
</g>
<defs>
<clipPath id="clip0">
<rect width="14" height="14" fill="white"/>
</clipPath>
</defs>
</svg>
