<svg width="17" height="19" viewBox="0 0 17 19" fill="none" xmlns="http://www.w3.org/2000/svg">
<path d="M10.8785 7.08673C10.1909 6.32447 9.08032 6.32572 8.39459 7.09212C7.70701 7.85977 7.70701 9.10559 8.39459 9.87407C8.42836 9.91139 10.0588 11.7258 10.6596 12.3931C10.7805 12.5279 10.9768 12.5279 11.0978 12.3931C11.6986 11.7258 13.3298 9.91139 13.3628 9.87407C14.0504 9.10559 14.0504 7.86018 13.3628 7.09212C12.6767 6.32572 11.5665 6.32447 10.8785 7.08673Z" fill="#FF877F"/>
<path d="M14.1012 0H4.737C3.47983 0 2.46014 1.13136 2.45643 2.53477H3.36479C4.27687 2.53477 5.01901 3.36919 5.01901 4.38857C5.01901 5.40795 4.27687 6.24279 3.36479 6.24279H2.45605V7.6462H3.36442C4.2765 7.6462 5.01863 8.48062 5.01863 9.5C5.01863 10.5194 4.2765 11.3538 3.36442 11.3538H2.45605V12.7788H3.36442C4.2765 12.7788 5.01863 13.6024 5.01863 14.6218C5.01863 15.6412 4.2765 16.4652 3.36442 16.4652H2.45605C2.46496 17.8686 3.48279 19 4.73662 19H14.1008C15.361 19 16.3814 17.8587 16.3814 16.4511V2.54929C16.3818 1.14131 15.3606 0 14.1012 0ZM14.8823 16.4553C14.8823 16.9496 14.5287 17.3453 14.086 17.3453H6.87916V1.65515H14.086C14.5287 1.65515 14.8823 2.06116 14.8823 2.55592V16.4553Z" fill="#FF877F"/>
<path d="M1.53358 5.40506H3.36479C3.87018 5.40506 4.28021 4.95425 4.28021 4.38899C4.28021 3.82414 3.87055 3.37292 3.36479 3.37292H1.53358C1.02819 3.37292 0.618164 3.82373 0.618164 4.38899C0.618164 4.95384 1.02819 5.40506 1.53358 5.40506Z" fill="#FF877F"/>
<path d="M1.53358 10.5372H3.36479C3.87018 10.5372 4.28021 10.076 4.28021 9.51078C4.28021 8.94593 3.87055 8.48434 3.36479 8.48434H1.53358C1.02819 8.48434 0.618164 8.94593 0.618164 9.51078C0.618164 10.0756 1.02819 10.5372 1.53358 10.5372Z" fill="#FF877F"/>
<path d="M4.27984 14.6222C4.27984 14.0569 3.87018 13.5958 3.36442 13.5958H1.53358C1.02819 13.5958 0.618164 14.0565 0.618164 14.6222C0.618164 15.187 1.02782 15.6486 1.53358 15.6486H3.36479C3.87018 15.6482 4.27984 15.187 4.27984 14.6222Z" fill="#FF877F"/>
<path d="M11 12.5C11 12.5 10.6676 8.50003 11.0009 7.00003C12.5001 5.5 14 7 14.0001 8.50001C14.0003 10 11 12.5 11 12.5Z" fill="#FFBE21"/>
</svg>
