<svg width="209" height="52" viewBox="0 0 209 52" fill="none" xmlns="http://www.w3.org/2000/svg">
<path fill-rule="evenodd" clip-rule="evenodd" d="M0 10C0 4.47715 4.47715 0 10 0H199C204.523 0 209 4.47715 209 10V14.6116C209 15.4022 208.291 16 207.5 16C202.253 16 198 20.2533 198 25.5C198 30.7467 202.253 35 207.5 35C208.291 35 209 35.5978 209 36.3884V42C209 47.5228 204.523 52 199 52H41.8458C40.8264 52 40 51.1736 40 50.1542C40 49.0496 39.1046 48.1542 38 48.1542C36.8954 48.1542 36 49.0496 36 50.1542C36 51.1736 35.1736 52 34.1542 52H10C4.47716 52 0 47.5228 0 42V35.4873C0 35.2153 0.228027 35 0.5 35C5.74671 35 10 30.7467 10 25.5C10 20.2533 5.74671 16 0.5 16C0.228026 16 0 15.7847 0 15.5127V10ZM36 2.04583C36 1.46824 36.4682 1 37.0458 1H38.9542C39.5318 1 40 1.46824 40 2.04583C40 3.1504 39.1046 4.04583 38 4.04583C36.8954 4.04583 36 3.1504 36 2.04583ZM38 10.5042C39.1046 10.5042 40 11.3996 40 12.5042V14.5958C40 15.7004 39.1046 16.5958 38 16.5958C36.8954 16.5958 36 15.7004 36 14.5958V12.5042C36 11.3996 36.8954 10.5042 38 10.5042ZM38 23.0542C39.1046 23.0542 40 23.9496 40 25.0542V27.1458C40 28.2504 39.1046 29.1458 38 29.1458C36.8954 29.1458 36 28.2504 36 27.1458V25.0542C36 23.9496 36.8954 23.0542 38 23.0542ZM38 35.6042C39.1046 35.6042 40 36.4996 40 37.6042V39.6958C40 40.8004 39.1046 41.6958 38 41.6958C36.8954 41.6958 36 40.8004 36 39.6958V37.6042C36 36.4996 36.8954 35.6042 38 35.6042Z" fill="#EF5DA8"/>
</svg>
