<svg width="19" height="19" viewBox="0 0 19 19" fill="none" xmlns="http://www.w3.org/2000/svg">
<path d="M7.4721 0.841109C8.584 -0.278941 10.3992 -0.278941 11.5206 0.832559L12.2143 1.52511C12.4804 1.79111 12.8415 1.94406 13.2217 1.94406H14.2005C15.7781 1.94406 17.0611 3.22561 17.0611 4.80261V5.78206C17.0611 6.16111 17.2131 6.52211 17.4792 6.78811L18.1635 7.47211C18.7052 8.00411 18.9998 8.72611 18.9998 9.48611C19.0093 10.2461 18.7147 10.9691 18.1825 11.5096L17.4792 12.2126C17.2131 12.4786 17.0611 12.8396 17.0611 13.2206V14.1981C17.0611 15.7751 15.7781 17.0586 14.2005 17.0586H13.2217C12.8415 17.0586 12.4804 17.2096 12.2143 17.4756L11.5301 18.1596C10.9694 18.7211 10.2376 18.9956 9.50584 18.9956C8.77407 18.9956 8.0423 18.7211 7.4816 18.1701L6.78785 17.4756C6.52175 17.2096 6.16062 17.0586 5.78049 17.0586H4.80163C3.22406 17.0586 1.94109 15.7751 1.94109 14.1981V13.2206C1.94109 12.8396 1.78904 12.4786 1.52294 12.2031L0.838694 11.5286C-0.273209 10.4181 -0.282712 8.60261 0.829191 7.48256L1.52294 6.78811C1.78904 6.52211 1.94109 6.16111 1.94109 5.77161V4.80261C1.94109 3.22561 3.22406 1.94406 4.80163 1.94406H5.78049C6.16062 1.94406 6.52175 1.79111 6.78785 1.52511L7.4721 0.841109ZM11.9482 11.1106C11.4826 11.1106 11.1119 11.4821 11.1119 11.9371C11.1119 12.4026 11.4826 12.7731 11.9482 12.7731C12.4044 12.7731 12.775 12.4026 12.775 11.9371C12.775 11.4821 12.4044 11.1106 11.9482 11.1106ZM12.5279 6.46511C12.2048 6.14306 11.6821 6.14306 11.359 6.46511L6.47424 11.3481C6.15112 11.6711 6.15112 12.2031 6.47424 12.5261C6.62629 12.6876 6.83537 12.7731 7.05395 12.7731C7.28203 12.7731 7.49111 12.6876 7.64316 12.5261L12.5279 7.64406C12.851 7.32106 12.851 6.78811 12.5279 6.46511ZM7.06345 6.22761C6.60729 6.22761 6.22715 6.59811 6.22715 7.05411C6.22715 7.52056 6.60729 7.89011 7.06345 7.89011C7.51962 7.89011 7.89025 7.52056 7.89025 7.05411C7.89025 6.59811 7.51962 6.22761 7.06345 6.22761Z" fill="#8B4E96"/>
</svg>
