<svg width="24" height="24" viewBox="0 0 24 24" fill="none" xmlns="http://www.w3.org/2000/svg">
<path d="M24 12C24 5.37242 18.6275 0 12 0C5.37297 0 0 5.37242 0 12C0 18.6274 5.37297 23.9999 12 23.9999C18.6275 24 24 18.6274 24 12Z" fill="#FEE050"/>
<path d="M19.0722 17.2618L17.6107 15.5347C16.8953 16.668 15.8464 17.5689 14.6016 18.1006L16.0533 19.8162C16.7588 20.6498 18.0063 20.7538 18.8401 20.0485C19.6734 19.3429 19.7775 18.0954 19.0722 17.2618Z" fill="#FB7598"/>
<path d="M17.5002 18.1368L16.4414 16.9233C16.3192 17.0337 16.1927 17.1396 16.0625 17.2407L17.1278 18.4618C17.1766 18.5178 17.2452 18.5465 17.314 18.5465C17.3716 18.5465 17.4295 18.5264 17.4764 18.4855C17.5794 18.3958 17.5901 18.2397 17.5002 18.1368Z" fill="#BA5771"/>
<path d="M12.0003 19.1258C9.05142 19.1258 6.37116 17.2725 5.33075 14.5139C5.23443 14.2585 5.36341 13.9733 5.61885 13.877C5.87421 13.7807 6.15941 13.9096 6.25581 14.1651C7.15189 16.5409 9.46042 18.1372 12.0003 18.1372C14.5402 18.1372 16.8487 16.5409 17.7449 14.1651C17.841 13.9096 18.1261 13.7806 18.3818 13.877C18.6372 13.9733 18.7662 14.2586 18.6699 14.5139C17.6295 17.2725 14.9491 19.1258 12.0003 19.1258Z" fill="#AF8400"/>
<path d="M6.23302 11.4118C5.96004 11.4118 5.73866 11.1904 5.73866 10.9174C5.73866 10.1694 5.13021 9.56097 4.38221 9.56097C3.63421 9.56097 3.02575 10.1694 3.02575 10.9174C3.02575 11.1904 2.80445 11.4118 2.53139 11.4118C2.25841 11.4118 2.03711 11.1904 2.03711 10.9174C2.03711 9.62432 3.0891 8.57233 4.38221 8.57233C5.67539 8.57233 6.72731 9.62432 6.72731 10.9174C6.72731 11.1905 6.50593 11.4118 6.23302 11.4118Z" fill="#1E252B"/>
<path d="M21.4685 11.4118C21.1954 11.4118 20.9741 11.1904 20.9741 10.9174C20.9741 10.1694 20.3656 9.56097 19.6176 9.56097C18.8696 9.56097 18.2612 10.1694 18.2612 10.9174C18.2612 11.1904 18.0399 11.4118 17.7668 11.4118C17.4939 11.4118 17.2725 11.1904 17.2725 10.9174C17.2725 9.62432 18.3245 8.57233 19.6176 8.57233C20.9107 8.57233 21.9627 9.62432 21.9627 10.9174C21.9627 11.1905 21.7414 11.4118 21.4685 11.4118Z" fill="#1E252B"/>
</svg>
