<svg width="24" height="24" viewBox="0 0 24 24" fill="none" xmlns="http://www.w3.org/2000/svg">
<path d="M24 12C24 5.37242 18.6275 0 12 0C5.37297 0 0 5.37242 0 12C0 18.6274 5.37297 23.9999 12 23.9999C18.6275 24 24 18.6274 24 12Z" fill="#FEE050"/>
<path d="M6.23302 11.4118C5.96004 11.4118 5.73866 11.1904 5.73866 10.9174C5.73866 10.1694 5.13021 9.56097 4.38221 9.56097C3.63421 9.56097 3.02575 10.1694 3.02575 10.9174C3.02575 11.1904 2.80445 11.4118 2.53139 11.4118C2.25841 11.4118 2.03711 11.1904 2.03711 10.9174C2.03711 9.62432 3.0891 8.57233 4.38221 8.57233C5.67539 8.57233 6.72731 9.62432 6.72731 10.9174C6.72731 11.1905 6.50593 11.4118 6.23302 11.4118Z" fill="#1E252B"/>
<path d="M21.4685 11.4118C21.1954 11.4118 20.9741 11.1904 20.9741 10.9174C20.9741 10.1694 20.3656 9.56097 19.6176 9.56097C18.8696 9.56097 18.2612 10.1694 18.2612 10.9174C18.2612 11.1904 18.0399 11.4118 17.7668 11.4118C17.4939 11.4118 17.2725 11.1904 17.2725 10.9174C17.2725 9.62432 18.3245 8.57233 19.6176 8.57233C20.9107 8.57233 21.9627 9.62432 21.9627 10.9174C21.9627 11.1905 21.7414 11.4118 21.4685 11.4118Z" fill="#1E252B"/>
</svg>
