<svg width="300" height="236" viewBox="0 0 300 236" fill="none" xmlns="http://www.w3.org/2000/svg">
<path d="M31.2002 182.192L27.5439 178.042L29.1189 171.965L32.4189 171.336C33.1689 171.277 33.9002 171.179 34.6127 171.061C40.9314 169.92 44.4189 166.439 44.4564 166.4C44.4564 166.4 46.3877 164.571 50.4377 159.733L55.3127 156.625L64.2565 178.455C63.2815 179.557 62.3627 180.658 61.6689 181.504C60.7689 182.625 60.469 183.077 60.4127 183.352C54.8065 187.777 49.3877 191.258 44.3252 193.717L31.2002 182.192Z" fill="white"/>
<path d="M55.1623 157.176L63.8436 178.357C62.9248 179.399 62.4561 180.737 61.7998 181.543C61.1248 182.271 60.1123 183.077 60.1123 183.077C54.6373 187.384 49.3498 190.806 44.3998 193.225L31.4623 181.897L27.9748 177.924L29.4373 172.28L32.4936 171.71C33.2436 171.651 33.9748 171.552 34.6873 171.415C40.9123 170.294 44.4748 166.911 44.7186 166.675C44.8686 166.537 46.7998 164.669 50.6998 160.028L55.1623 157.176ZM55.4998 156.035L50.2123 159.418C46.1436 164.276 44.2311 166.085 44.2123 166.105C44.1748 166.144 40.7436 169.546 34.5561 170.648C33.8623 170.766 33.1311 170.864 32.3811 170.923L28.8186 171.592L27.1123 178.121L30.9186 182.467L44.2686 194.149L44.2873 194.13C49.4998 191.632 55.0498 188.053 60.8061 183.49L60.8436 183.47L60.7873 183.411C60.6748 183.195 62.6998 180.737 64.6686 178.514L64.6873 178.495L55.4998 156.035Z" fill="black"/>
<path d="M44.2124 166.144C44.1562 166.065 39.4499 157.353 43.3687 153.99L43.4249 153.951C43.4249 153.951 43.4999 153.892 43.5937 153.892C43.9687 153.892 45.2437 154.088 46.8937 155.308C48.7499 156.665 50.2687 159.418 50.2875 159.457L50.3062 159.477L50.2875 159.497C46.1999 164.354 44.3062 166.164 44.2874 166.183L44.2499 166.223L44.2124 166.144Z" fill="black"/>
<path d="M60.7682 183.49C60.3932 183.097 57.1119 179.576 55.2744 174.797C54.2994 172.28 53.5494 169.527 52.8932 167.088C52.0307 163.902 51.2807 161.149 50.2494 159.497C47.0432 153.715 43.3682 153.99 43.3682 153.99C43.5744 153.813 43.8182 153.636 44.0619 153.498C47.7744 151.355 80.3056 135.759 80.6244 135.602L80.6806 135.582L77.4931 167.717C73.1244 172.811 66.9182 178.711 60.8807 183.51L60.8619 183.529L60.7682 183.49Z" fill="#F696BB"/>
<path d="M77.4192 172.457C77.3442 172.437 68.9629 169.684 66.9379 165.416C66.4317 164.335 66.3567 163.253 66.7129 162.171C66.7504 162.112 67.5004 161.267 69.4504 161.267C70.5754 161.267 71.8879 161.562 73.3317 162.152C74.9817 162.82 76.5567 163.686 78.0192 164.689L78.0379 164.708V164.728C78.0004 170.156 77.4754 172.398 77.4754 172.418L77.4567 172.457H77.4192Z" fill="black"/>
<path d="M21.5059 174.207C21.5434 174.148 22.9309 171.021 30.5621 171.021C31.1621 171.021 31.7621 170.982 32.3808 170.923H32.4183L32.4371 170.982C33.2808 174.876 32.7746 178.947 31.0121 182.487L30.9934 182.526L21.5059 174.207Z" fill="#FDC858"/>
<path d="M118.312 114.421L115.48 127.971H145.48C145.48 127.971 135.355 107.518 134.043 106.141C132.13 104.135 118.312 114.421 118.312 114.421Z" fill="black"/>
<path d="M137.063 119.77C134.775 119.77 132.938 117.823 132.938 115.443C132.938 113.044 134.794 111.117 137.063 111.117C139.331 111.117 141.188 113.064 141.188 115.443C141.206 117.843 139.35 119.77 137.063 119.77Z" fill="white"/>
<path d="M137.062 111.51C139.144 111.51 140.812 113.28 140.812 115.443C140.812 117.607 139.125 119.377 137.062 119.377C135 119.377 133.312 117.607 133.312 115.443C133.312 113.28 135 111.51 137.062 111.51ZM137.062 110.723C134.569 110.723 132.562 112.847 132.562 115.443C132.562 118.039 134.587 120.163 137.062 120.163C139.537 120.163 141.562 118.039 141.562 115.443C141.562 112.847 139.556 110.723 137.062 110.723Z" fill="black"/>
<path d="M128.925 124.746C126.019 124.746 122.813 122.327 120.563 118.413C117.244 112.67 116.7 106.711 119.288 104.528C120.844 103.211 122.794 102.562 125.044 102.562C127.969 102.562 130.388 103.683 130.407 103.702C132.75 104.863 134.1 106.357 134.757 108.521C135.488 110.959 135.375 114.263 134.382 118.924C133.613 122.622 131.625 124.746 128.925 124.746Z" fill="white"/>
<path d="M125.062 102.169V102.955C127.837 102.955 130.162 103.998 130.275 104.057C134.156 105.964 136.125 109.111 134.043 118.826C133.275 122.386 131.456 124.353 128.943 124.353C126.168 124.353 123.093 121.993 120.9 118.217C119.287 115.424 118.293 112.494 118.106 109.957C117.918 107.597 118.443 105.787 119.55 104.843C121.05 103.585 122.906 102.955 125.081 102.955L125.062 102.169ZM125.062 102.169C123.112 102.169 120.956 102.641 119.062 104.234C116.362 106.495 116.775 112.612 120.243 118.63C122.662 122.819 126 125.139 128.925 125.139C131.568 125.139 133.856 123.212 134.775 119.003C136.837 109.386 135.112 105.571 130.593 103.349C130.593 103.329 128.1 102.169 125.062 102.169Z" fill="black"/>
<path d="M130.594 103.329C134.831 105.433 136.631 108.914 135.113 117.312C128.625 114.401 128.063 105.158 128.063 105.158C128.063 105.158 123.938 110.664 117.375 110.31C117.113 107.616 117.675 105.413 119.081 104.233C123.9 100.182 130.594 103.329 130.594 103.329Z" fill="black"/>
<path d="M123.957 117.115C123.919 117.115 123.9 117.115 123.863 117.095C123.469 116.997 123.094 116.761 122.813 116.427C122.419 115.915 122.194 114.932 121.988 112.828C121.969 112.611 122.119 112.415 122.325 112.395C122.532 112.375 122.719 112.533 122.738 112.749C122.907 114.617 123.113 115.561 123.394 115.915C123.563 116.132 123.788 116.269 124.032 116.328C124.238 116.387 124.35 116.584 124.313 116.8C124.275 116.997 124.125 117.115 123.957 117.115Z" fill="black"/>
<path d="M125.626 113.673C125.457 113.673 125.288 113.555 125.251 113.359L125.157 112.887C125.119 112.67 125.251 112.474 125.457 112.415C125.663 112.375 125.851 112.513 125.907 112.729L126.001 113.201C126.038 113.418 125.907 113.614 125.701 113.673C125.682 113.673 125.644 113.673 125.626 113.673Z" fill="black"/>
<path d="M120.318 113.673C120.149 113.673 119.999 113.555 119.962 113.378L119.849 112.887C119.793 112.67 119.924 112.454 120.13 112.415C120.337 112.356 120.543 112.493 120.58 112.71L120.693 113.201C120.749 113.418 120.618 113.634 120.412 113.673C120.374 113.673 120.355 113.673 120.318 113.673Z" fill="black"/>
<path d="M125.643 119.259C125.436 119.259 125.268 119.082 125.268 118.865C125.268 118.649 125.436 118.472 125.643 118.472C125.718 118.472 125.793 118.472 125.849 118.452C126.468 118.334 126.899 117.685 126.786 117.036C126.749 116.82 126.88 116.623 127.086 116.584C127.293 116.545 127.48 116.682 127.518 116.899C127.705 117.98 127.011 119.023 125.98 119.219C125.868 119.259 125.755 119.259 125.643 119.259Z" fill="black"/>
<path d="M137.513 115.974C137.494 115.974 137.494 115.974 137.475 115.974L135.263 115.758C135.057 115.738 134.907 115.542 134.925 115.325C134.944 115.109 135.132 114.952 135.338 114.971L137.55 115.188C137.757 115.207 137.907 115.404 137.888 115.62C137.869 115.817 137.7 115.974 137.513 115.974Z" fill="black"/>
<path d="M72.9742 193.756C72.3742 191.966 71.3992 186.656 71.2305 185.673L72.3367 184.021C74.418 181.759 76.4992 178.79 77.7555 172.477C77.7555 172.437 78.318 169.448 78.318 164.708C78.318 164.63 77.9242 158.415 77.793 156.33L99.5805 169.841L99.5055 177.669C98.5492 183.529 97.143 188.938 95.343 193.736L72.9742 193.756Z" fill="white"/>
<path d="M78.2246 157.058L99.2059 170.077L99.1309 177.649C98.1934 183.372 96.8434 188.662 95.0809 193.363H73.2371C72.7496 191.73 71.9996 187.954 71.6059 185.771L72.6184 184.296C74.7184 181.995 76.8559 178.967 78.1121 172.575C78.1121 172.536 78.6934 169.507 78.6934 164.748V164.728V164.708C78.6934 164.63 78.3746 159.595 78.2246 157.058ZM77.3809 155.622V155.701C77.3809 155.799 77.9434 164.649 77.9434 164.728C77.9434 169.409 77.3809 172.378 77.3809 172.418C76.1434 178.652 74.0809 181.563 72.0371 183.785L70.8184 185.594V185.614C70.8371 185.673 72.0371 192.419 72.6934 194.13L72.7121 194.149H95.6059L95.6246 194.13C97.4809 189.252 98.9246 183.726 99.8996 177.728L99.9746 169.645L77.3809 155.622Z" fill="black"/>
<path d="M65.2121 194.11C65.2121 194.09 65.0621 191.239 68.2308 187.718C68.9246 186.951 69.6371 186.243 70.3121 185.555C70.9121 184.945 71.4933 184.375 72.0558 183.765L72.0746 183.726L72.0933 183.765C74.6996 186.656 76.5558 190.216 77.4371 194.09V194.149L65.2121 194.13V194.11Z" fill="#FDC858"/>
<path d="M132.543 194.09C128.531 194.09 124.162 193.795 119.025 190.354C112.725 186.125 106.856 178.2 101.081 166.085C101.062 166.99 100.875 171.631 99.8808 177.728V177.767H99.8433C99.8058 177.767 95.3433 177.334 90.3371 174.03C87.7496 172.319 86.0996 170.982 84.3558 169.546C82.6121 168.13 80.8309 166.675 78.0184 164.807C70.0309 159.556 66.6934 162.171 66.6934 162.171C67.9684 158.376 72.3184 146.89 79.6309 130.508C81.3184 126.732 85.2558 124.195 89.4183 124.195C97.2746 124.195 106.05 131.314 112.012 137.293C118.331 143.606 122.925 149.998 123.187 150.352H146.062V150.371C148.893 159.418 150.225 167.265 150 173.716C149.812 179.163 148.537 183.647 146.193 187.05C141.712 193.579 134.625 194.09 132.543 194.09Z" fill="#F696BB"/>
<path d="M101.043 166.321C101.043 166.321 101.024 166.321 101.043 166.321C100.818 166.321 100.668 166.124 100.668 165.908C101.043 156.999 99.5616 146.871 99.5429 146.772C99.5054 146.556 99.6554 146.359 99.8616 146.32C100.068 146.281 100.255 146.438 100.293 146.654C100.312 146.753 101.793 156.96 101.418 165.947C101.418 166.164 101.249 166.321 101.043 166.321Z" fill="black"/>
<path d="M128.869 160.028C128.738 160.028 128.625 159.969 128.55 159.831C126.75 156.665 124.781 153.479 122.869 150.607C122.756 150.43 122.794 150.175 122.963 150.057C123.131 149.939 123.375 149.978 123.488 150.155C125.419 153.046 127.388 156.252 129.206 159.418C129.319 159.595 129.263 159.851 129.075 159.949C129 160.008 128.944 160.028 128.869 160.028Z" fill="black"/>
<path d="M64.6684 154.128L64.5934 154.088C63.6559 153.616 58.7996 151.138 54.7496 148.857C54.5621 148.739 54.3559 148.601 54.1871 148.464L54.1309 148.424L54.1871 148.405C56.7371 147.146 59.7559 145.671 63.1684 144.019L63.2059 143.999V144.058C63.9371 148.464 64.5746 153.125 64.6871 154.029L64.7059 154.187L64.6684 154.128Z" fill="#FDC858"/>
<path d="M54.4488 172.477C53.9238 170.844 53.4551 169.192 53.0801 167.776V167.757V167.737C54.1863 165.869 55.1801 164.197 56.0613 162.761C56.9426 161.483 57.9926 160.795 59.0426 160.795C60.0551 160.795 60.9551 161.463 61.3488 162.506C61.5363 162.978 61.9863 164.59 60.4863 166.203C60.8988 166.065 61.2926 166.006 61.6676 166.006C63.4863 166.006 64.5738 167.383 64.6676 168.701C64.7613 169.979 63.9363 171.493 61.3676 171.906C59.4176 172.123 57.0926 172.319 54.4863 172.516H54.4676L54.4488 172.477Z" fill="#FDC858"/>
<path d="M128.024 176.076C127.105 176.076 126.243 175.505 125.774 174.62C125.23 173.578 125.287 172.319 125.943 171.12C125.324 171.513 124.668 171.729 124.03 171.729C122.662 171.729 121.499 170.785 121.237 169.487C120.955 168.032 121.893 166.675 123.768 165.849C128.099 164.197 133.255 162.506 134.249 162.191L134.399 162.132L134.362 162.289C134.062 163.332 132.524 168.76 131.024 173.342C130.349 175.073 129.262 176.076 128.024 176.076Z" fill="#FDC858"/>
<path d="M94.8553 134.146C93.6928 134.146 92.7553 133.36 92.4553 132.16C92.1928 131.078 92.474 129.485 94.124 128.443C94.0678 128.443 93.9928 128.443 93.9365 128.443C92.699 128.443 91.6678 127.892 91.0865 126.929C90.5803 126.103 90.5053 125.119 90.8803 124.293L90.899 124.274H90.9178C94.199 124.628 97.8553 126.122 101.793 128.718L101.83 128.738L101.793 128.777C100.218 130.351 98.7928 131.747 97.5553 132.927C96.6365 133.733 95.699 134.146 94.8553 134.146Z" fill="#FDC858"/>
<path d="M143.193 180.048C141.187 180.048 140.268 178.75 140.249 177.452C140.212 175.977 141.28 174.424 143.38 174.247C141.637 173.44 141.093 171.847 141.318 170.608C141.562 169.31 142.537 168.484 143.793 168.484C144.561 168.484 145.386 168.779 146.268 169.369C147.393 170.195 148.649 171.179 150.036 172.241L150.055 172.26V172.28C150.074 174.286 149.905 176.312 149.586 178.298V178.318H149.568C147.711 178.927 146.024 179.458 144.543 179.891C144.055 179.989 143.605 180.048 143.193 180.048Z" fill="#FDC858"/>
<path d="M108.711 179.576C107.68 178.101 106.63 176.43 105.58 174.64V174.62C105.618 172.988 105.655 171.493 105.711 170.176C105.955 167.501 107.324 166.537 108.524 166.537C109.349 166.537 110.155 166.97 110.68 167.698C111.28 168.524 111.449 169.605 111.186 170.766C111.899 169.94 112.799 169.487 113.736 169.487C114.899 169.487 115.93 170.195 116.286 171.277C116.718 172.536 116.136 173.971 114.711 175.191C113.061 176.469 111.055 177.944 108.786 179.596L108.749 179.616L108.711 179.576Z" fill="#FDC858"/>
<path d="M87.3934 171.946C86.2871 171.1 85.3309 170.353 84.3371 169.527L83.8496 169.133L83.8684 169.114C84.9559 166.518 85.9496 164.236 86.8309 162.309C87.6371 160.775 88.7059 159.929 89.8496 159.929C90.8059 159.929 91.6871 160.539 92.1184 161.503C92.6246 162.624 92.4559 163.961 91.6309 165.102C92.1746 164.846 92.6996 164.708 93.2246 164.708C94.6684 164.708 95.9246 165.751 96.1121 167.147C96.3559 168.976 94.7809 170.136 93.2246 170.608C91.5559 171.021 89.6246 171.474 87.4309 171.946H87.3934Z" fill="#FDC858"/>
<path d="M79.1254 154.324C78.0941 154.324 77.0441 153.636 76.1629 152.358C75.1504 150.745 74.0066 148.837 72.7316 146.674L72.7129 146.654V146.635C73.2379 145.356 73.8004 144.019 74.3629 142.662L74.3816 142.642H74.4004C77.0254 142.819 79.4441 143.016 81.4129 143.232C83.9816 143.645 84.8066 145.14 84.7129 146.418C84.6191 147.716 83.5316 149.113 81.7129 149.113C81.3379 149.113 80.9441 149.054 80.5316 148.916C82.0504 150.509 81.6004 152.141 81.4129 152.613C81.0379 153.656 80.1191 154.324 79.1254 154.324Z" fill="#FDC858"/>
<path d="M131.737 194.09C130.218 194.09 128.68 193.953 127.162 193.697H127.143V193.677C125.962 191.809 124.93 190.098 124.068 188.643C123.28 187.148 123.168 185.771 123.73 184.768C124.18 183.982 124.987 183.51 125.924 183.51C126.974 183.51 128.287 184.139 128.905 185.909C129.187 183.785 130.649 182.821 131.924 182.821C132.712 182.821 133.443 183.195 133.893 183.824C134.324 184.434 134.737 185.555 134.193 187.482C133.555 189.37 132.768 191.573 131.868 194.051L131.849 194.09H131.737Z" fill="#FDC858"/>
<path d="M66.8251 162.525C66.7876 162.525 66.7501 162.525 66.6938 162.506C66.5063 162.427 66.3938 162.211 66.4688 161.994C67.8938 157.786 71.4938 148.562 76.3126 137.391C76.4063 137.195 76.6126 137.096 76.8001 137.195C76.9876 137.293 77.0813 137.509 76.9876 137.706C72.1876 148.877 68.5876 158.081 67.1813 162.27C67.1251 162.427 66.9751 162.525 66.8251 162.525Z" fill="black"/>
<path d="M147.73 156.684H126.918C126.712 156.684 126.543 156.507 126.543 156.291C126.543 156.075 126.712 155.898 126.918 155.898H147.73C147.937 155.898 148.105 156.075 148.105 156.291C148.105 156.507 147.937 156.684 147.73 156.684Z" fill="black"/>
<path d="M92.4747 151.886C90.7497 150.607 88.9121 149.25 86.9997 148.09C80.9997 144.393 78.9184 144.275 76.7059 144.117C76.0872 144.078 75.4309 144.039 74.6809 143.901C73.7059 143.724 73.1059 143.39 72.8809 142.878C72.5622 142.19 73.0309 141.344 73.0309 141.325L73.1622 141.089L73.0122 140.872C71.9997 139.496 73.2184 138.414 73.3497 138.296L73.6122 138.08L73.4434 137.785C73.1809 137.313 73.1059 136.88 73.2184 136.506C73.4247 135.798 74.2122 135.405 74.2309 135.405L74.4559 135.307V135.051C74.4559 133.36 76.8184 132.317 80.6434 132.317C83.2122 132.317 86.1559 132.789 89.1747 133.655C91.3871 134.304 94.3684 135.385 98.0621 136.88L105.656 140.735L98.9996 155.544L92.4747 151.886Z" fill="white"/>
<path d="M80.6058 132.711C83.137 132.711 86.0433 133.163 89.0245 134.048C91.2183 134.697 94.1995 135.759 97.8745 137.254L105.112 140.931L98.8308 155.013L92.662 151.551C90.937 150.273 89.0995 148.916 87.1683 147.756C81.0933 144.019 78.9558 143.881 76.7245 143.744C76.1058 143.704 75.4683 143.665 74.737 143.527C74.1558 143.429 73.4245 143.213 73.2183 142.721C72.9933 142.229 73.3495 141.541 73.3495 141.541L73.612 141.089L73.312 140.656C72.9745 140.184 72.8995 139.751 73.1058 139.299C73.2745 138.906 73.5933 138.63 73.5933 138.63L74.1183 138.198L73.7808 137.608C73.5745 137.234 73.4995 136.919 73.5933 136.644C73.7245 136.192 74.212 135.857 74.3995 135.779L74.8308 135.562V135.051C74.7933 133.635 77.0808 132.711 80.6058 132.711ZM80.6058 131.924C76.7058 131.924 74.0433 133.006 74.0433 135.051C74.0433 135.051 71.9808 136.034 73.1058 138.001C73.1058 138.001 71.4183 139.378 72.6933 141.128C72.6933 141.128 71.2308 143.704 74.6058 144.294C77.9808 144.884 79.1058 143.704 86.7933 148.424C88.6683 149.585 90.4683 150.883 92.2683 152.22L99.1683 156.094L106.106 140.558L98.1745 136.526C94.9308 135.208 91.7245 134.028 89.2308 133.281C86.0995 132.357 83.0995 131.924 80.6058 131.924Z" fill="black"/>
<path d="M111.899 161.247C111.637 161.247 111.355 161.247 111.093 161.227C103.687 160.775 98.2117 156.704 92.943 152.771L92.2305 152.24L98.1742 136.467L98.2117 136.487C105.13 139.279 112.312 142.623 112.855 142.878C113.062 142.406 115.405 137.372 119.024 130.724C122.962 123.507 125.812 121.068 130.312 121.068C132.543 121.068 135.187 121.599 140.643 127.971C146.38 134.677 149.812 140.341 150.037 143.527C150.224 146.379 149.137 148.11 148.199 149.073C147.168 150.096 146.08 150.45 146.08 150.45H127.912C127.574 150.942 121.368 161.247 111.899 161.247Z" fill="#FDC858"/>
<path d="M127.856 150.784C127.781 150.784 127.725 150.765 127.669 150.725C127.5 150.607 127.444 150.371 127.537 150.175C128.944 147.795 131.062 144.176 133.706 137.45C133.781 137.254 134.006 137.155 134.194 137.234C134.381 137.313 134.475 137.549 134.4 137.745C131.737 144.53 129.6 148.169 128.194 150.588C128.1 150.725 127.987 150.784 127.856 150.784Z" fill="black"/>
<path d="M86.0628 136.034C86.0253 136.034 86.0066 136.034 85.9691 136.015C85.9128 135.995 79.4816 134.284 74.3816 135.818C74.1754 135.877 73.9691 135.759 73.9129 135.543C73.8566 135.326 73.9691 135.11 74.1754 135.051C79.4629 133.458 85.8753 135.169 86.1566 135.248C86.3628 135.307 86.4753 135.523 86.4191 135.72C86.3816 135.916 86.2316 136.034 86.0628 136.034Z" fill="black"/>
<path d="M85.1615 138.984C85.124 138.984 85.1052 138.984 85.0677 138.965C85.0115 138.945 79.4427 137.431 73.6115 138.571C73.4052 138.611 73.2177 138.473 73.1802 138.257C73.1427 138.04 73.274 137.844 73.4802 137.804C79.499 136.624 85.0302 138.139 85.274 138.198C85.4802 138.257 85.5927 138.473 85.5365 138.67C85.4802 138.866 85.3302 138.984 85.1615 138.984Z" fill="black"/>
<path d="M84.2253 141.934C84.2066 141.934 84.1878 141.934 84.1691 141.934C78.3191 140.912 75.2441 141.187 73.2378 141.541C73.0316 141.58 72.8441 141.423 72.8066 141.226C72.7691 141.01 72.9191 140.813 73.1066 140.774C75.1878 140.42 78.3378 140.125 84.3003 141.167C84.5066 141.207 84.6378 141.403 84.6003 141.62C84.5628 141.797 84.4128 141.934 84.2253 141.934Z" fill="black"/>
<path d="M256.688 153.99C256.481 153.813 256.238 153.636 255.994 153.498C252.281 151.355 219.769 135.759 219.431 135.602L219.375 135.582L222.563 167.717C226.913 172.811 233.138 178.731 239.175 183.51L239.25 183.529L239.288 183.49C239.644 183.116 242.925 179.576 244.781 174.797C245.756 172.26 246.506 169.507 247.163 167.088C248.025 163.902 248.775 161.149 249.806 159.497C252.3 155.19 255.206 153.99 256.688 153.99Z" fill="#6C79D9"/>
<path d="M221.98 164.728L221.999 164.689C223.462 163.666 225.055 162.82 226.687 162.152C228.13 161.562 229.443 161.267 230.568 161.267C232.499 161.267 233.268 162.112 233.287 162.152C233.662 163.233 233.587 164.335 233.062 165.416C231.018 169.664 222.655 172.418 222.58 172.457L222.543 172.477C222.543 172.477 222.018 170.136 221.98 164.728Z" fill="black"/>
<path d="M255.749 166.144C255.73 166.124 253.818 164.315 249.749 159.457L249.73 159.438L249.749 159.418C249.768 159.398 251.287 156.861 252.937 155.485C254.643 154.049 256.274 153.99 256.593 153.99C256.63 153.99 256.649 153.99 256.649 153.99H256.687C260.605 157.353 255.862 166.065 255.824 166.144L255.805 166.183L255.749 166.144Z" fill="black"/>
<path d="M192.168 129.741H201.543L203.981 110.664H189.73L192.168 129.741Z" fill="#FDC858"/>
<path d="M196.855 116.368C200.791 116.368 203.981 113.726 203.981 110.468C203.981 107.209 200.791 104.568 196.855 104.568C192.92 104.568 189.73 107.209 189.73 110.468C189.73 113.726 192.92 116.368 196.855 116.368Z" fill="#F696BB"/>
<path d="M196.855 110.664C196.649 110.664 196.48 110.487 196.48 110.271V99.8477C196.48 99.6313 196.649 99.4543 196.855 99.4543C197.062 99.4543 197.23 99.6313 197.23 99.8477V110.271C197.23 110.487 197.062 110.664 196.855 110.664Z" fill="black"/>
<path d="M201.524 130.016C201.074 130.016 200.718 129.839 200.549 129.485C200.362 129.112 200.437 128.62 200.737 128.187L200.962 127.873L200.643 127.637C200.643 127.637 200.006 127.165 200.006 126.535C200.006 126.142 200.268 125.729 200.774 125.316L201.318 124.903L200.699 124.647C200.699 124.647 200.006 124.352 199.912 123.762C199.818 123.271 200.156 122.641 200.868 121.953L201.187 121.638L200.849 121.343C200.849 121.343 200.156 120.753 200.156 120.006C200.156 119.593 200.381 119.18 200.849 118.806C201.262 118.452 202.762 117.548 203.306 117.233L203.456 117.135L203.681 115.856C204.243 116.151 204.599 116.623 204.749 117.253C204.974 118.216 204.618 119.259 204.299 119.613L203.943 119.986L204.374 120.242C204.393 120.242 204.806 120.517 204.937 121.088C205.087 121.678 204.899 122.386 204.412 123.231L204.224 123.546L204.506 123.762C204.506 123.762 204.937 124.116 205.012 124.726C205.068 125.218 204.881 125.768 204.431 126.339L204.243 126.575L204.431 126.811C204.449 126.83 204.768 127.283 204.618 127.892C204.449 128.581 203.718 129.21 202.518 129.741C202.162 129.938 201.824 130.016 201.524 130.016Z" fill="white"/>
<path d="M203.943 116.564C204.15 116.781 204.3 117.056 204.375 117.371C204.562 118.216 204.243 119.101 204.018 119.357L203.325 120.085L204.187 120.596C204.187 120.596 204.468 120.793 204.581 121.186C204.693 121.658 204.543 122.307 204.112 123.035L203.718 123.644L204.3 124.057C204.337 124.077 204.543 124.274 204.618 124.588C204.75 125.021 204.6 125.532 204.168 126.083L203.756 126.575L204.168 127.066C204.206 127.125 204.393 127.42 204.3 127.814C204.15 128.364 203.493 128.915 202.406 129.387C202.087 129.525 201.787 129.603 201.543 129.603C201.356 129.603 201.037 129.564 200.906 129.289C200.793 129.053 200.85 128.718 201.056 128.404L201.506 127.755L200.887 127.302C200.756 127.204 200.4 126.87 200.4 126.516C200.4 126.181 200.737 125.847 201.018 125.611L202.087 124.765L200.831 124.254C200.756 124.215 200.325 123.979 200.268 123.664C200.212 123.33 200.512 122.799 201.112 122.209L201.75 121.599L201.075 121.029C200.925 120.891 200.512 120.439 200.512 120.006C200.512 119.711 200.7 119.416 201.056 119.101C201.412 118.806 202.725 118 203.456 117.567L203.775 117.39L203.831 117.017L203.943 116.564ZM203.381 115.345L203.118 116.918C203.118 116.918 201.131 118.079 200.606 118.531C198.731 120.104 200.606 121.678 200.606 121.678C198.168 124.038 200.55 125.021 200.55 125.021C198.543 126.594 200.418 127.971 200.418 127.971C199.668 129.072 200.175 130.41 201.506 130.41C201.843 130.41 202.237 130.331 202.668 130.134C206.231 128.561 204.731 126.594 204.731 126.594C206.231 124.628 204.731 123.448 204.731 123.448C206.231 120.891 204.543 119.908 204.543 119.908C205.293 119.121 205.856 116.171 203.381 115.345Z" fill="black"/>
<path d="M201.189 122.071C201.039 122.071 200.889 121.973 200.832 121.796C200.776 121.599 200.87 121.363 201.076 121.304C201.095 121.304 202.895 120.675 203.833 119.573C203.964 119.416 204.208 119.396 204.358 119.554C204.508 119.691 204.526 119.947 204.376 120.104C203.289 121.343 201.376 122.012 201.282 122.032C201.264 122.071 201.226 122.071 201.189 122.071Z" fill="black"/>
<path d="M200.982 125.414C200.813 125.414 200.663 125.296 200.626 125.119C200.57 124.903 200.682 124.687 200.888 124.628C201.582 124.411 203.513 123.723 204.076 122.995C204.207 122.818 204.451 122.799 204.601 122.936C204.769 123.074 204.788 123.31 204.657 123.487C203.851 124.529 201.376 125.296 201.095 125.395C201.057 125.414 201.02 125.414 200.982 125.414Z" fill="black"/>
<path d="M200.982 128.423C200.813 128.423 200.663 128.305 200.626 128.128C200.57 127.912 200.682 127.696 200.888 127.637C200.907 127.637 203.082 127.007 204.113 126.083C204.263 125.945 204.507 125.965 204.638 126.142C204.77 126.319 204.751 126.555 204.582 126.693C203.401 127.715 201.17 128.384 201.057 128.404C201.057 128.423 201.02 128.423 200.982 128.423Z" fill="black"/>
<path d="M245.999 188.525C243.749 187.01 241.462 185.319 239.174 183.529L239.137 183.51L239.193 183.451C239.568 183.057 242.83 179.537 244.668 174.778C245.643 172.26 246.393 169.507 247.049 167.088C247.93 163.882 248.68 161.09 249.73 159.438L249.749 159.398L249.787 159.438C253.855 164.295 255.768 166.105 255.787 166.124C255.843 166.183 260.755 171.021 269.455 171.021C273.43 171.021 275.68 171.887 276.862 172.595C278.155 173.381 278.474 174.148 278.493 174.188L278.512 174.207L263.812 187.089L263.793 187.069C261.505 185.142 258.618 184.08 255.674 184.08H255.637C251.999 184.08 248.493 185.693 246.055 188.525L246.037 188.544L245.999 188.525Z" fill="#FF877F"/>
<path d="M255.694 194.149C252.357 192.517 249.094 190.629 246 188.525L245.963 188.505L246 188.466C248.475 185.614 252 183.982 255.657 183.982C258.619 183.982 261.525 185.044 263.832 186.991L263.869 187.03L255.732 194.169L255.694 194.149Z" fill="#6C79D9"/>
<path d="M215.138 194.149C213.6 188.21 208.444 184.08 202.594 184.06C202.219 184.06 201.825 184.08 201.413 184.119H201.394L201.375 184.08C200.888 182.015 200.475 179.871 200.119 177.728V177.708L200.138 177.688C203.775 175.525 221.869 164.689 222.019 164.689H222.057V164.728C222.057 169.409 222.619 172.378 222.619 172.418C223.857 178.652 225.919 181.563 227.963 183.785C228.525 184.414 229.107 184.985 229.725 185.575C230.4 186.243 231.113 186.951 231.807 187.738C234.975 191.258 234.825 194.09 234.825 194.13V194.169H215.138V194.149Z" fill="#FF877F"/>
<path d="M204.393 194.149C203.174 190.865 202.143 187.502 201.374 184.1L201.355 184.06H201.393C201.805 184.021 202.199 184.001 202.593 184.001C208.48 184.001 213.655 188.171 215.212 194.11L215.23 194.169H204.393V194.149Z" fill="#6C79D9"/>
<path d="M177.544 159.438C173.681 159.438 170.475 156.979 167.775 151.905C165.15 146.989 163.387 140.263 162.15 134.953C161.812 133.478 161.887 132.376 162.412 131.688C162.9 131.039 163.819 130.705 165.131 130.705C169.837 130.705 177.862 134.953 177.937 135.012L178.256 135.169L178.444 134.854C180.975 130.41 184.519 125.316 187.912 121.186C191.831 116.446 194.062 114.755 194.794 114.755C194.831 114.755 194.85 114.755 194.869 114.775C195.075 114.853 195.206 114.991 195.281 115.188C195.487 115.797 195.206 116.997 194.494 118.551C193.931 119.809 193.275 120.852 193.275 120.871L193.2 121.009L193.219 121.166C193.219 121.206 193.819 125.159 191.7 127.932L191.606 128.069L191.85 130.154H199.519C198.056 134.127 188.456 159.438 177.544 159.438Z" fill="white"/>
<path d="M194.775 115.148C194.85 115.188 194.888 115.227 194.925 115.306C195.244 116.25 193.931 119.042 192.956 120.635L192.806 120.891L192.844 121.186C192.844 121.225 193.406 125.021 191.4 127.637L191.194 127.892L191.231 128.227L191.419 129.8L191.494 130.488H192.15H198.938C198.075 132.809 195.825 138.63 192.675 144.373C189.038 151.04 183.45 159.005 177.506 159.005C173.775 159.005 170.7 156.606 168.075 151.669C165.469 146.792 163.725 140.105 162.488 134.815C162.169 133.458 162.225 132.475 162.675 131.885C163.088 131.334 163.913 131.059 165.094 131.059C169.706 131.059 177.656 135.267 177.731 135.307L178.35 135.641L178.706 135.012C181.238 130.587 184.763 125.493 188.138 121.402C191.963 116.879 194.194 115.188 194.775 115.148ZM194.794 114.362C192.469 114.362 183.563 125.1 178.106 134.658C178.106 134.658 169.988 130.311 165.131 130.311C162.6 130.311 160.969 131.491 161.794 135.051C164.7 147.461 168.731 159.831 177.544 159.831C189.731 159.831 200.044 129.741 200.044 129.741H192.169L191.981 128.168C194.231 125.218 193.575 121.088 193.575 121.088C193.575 121.088 197.231 115.188 194.981 114.401C194.925 114.381 194.869 114.362 194.794 114.362Z" fill="black"/>
<path d="M162.937 119.77C160.65 119.77 158.812 117.823 158.812 115.443C158.812 113.044 160.669 111.117 162.937 111.117C165.225 111.117 167.062 113.064 167.062 115.443C167.062 117.843 165.206 119.77 162.937 119.77Z" fill="white"/>
<path d="M162.938 111.51C165.019 111.51 166.688 113.28 166.688 115.443C166.688 117.607 165 119.377 162.938 119.377C160.875 119.377 159.188 117.607 159.188 115.443C159.188 113.28 160.856 111.51 162.938 111.51ZM162.938 110.723C160.444 110.723 158.438 112.847 158.438 115.443C158.438 118.039 160.463 120.163 162.938 120.163C165.412 120.163 167.438 118.039 167.438 115.443C167.438 112.847 165.431 110.723 162.938 110.723Z" fill="black"/>
<path d="M171.077 124.746C168.395 124.746 166.389 122.622 165.602 118.905C163.464 108.934 165.545 105.689 169.577 103.683C169.595 103.683 172.014 102.542 174.939 102.542C177.208 102.542 179.139 103.211 180.695 104.509C183.283 106.672 182.739 112.651 179.42 118.393C177.17 122.307 173.964 124.746 171.077 124.746Z" fill="white"/>
<path d="M174.938 102.955C177.113 102.955 178.969 103.584 180.469 104.843C181.594 105.787 182.101 107.596 181.913 109.956C181.707 112.493 180.713 115.424 179.119 118.216C176.944 122.012 173.851 124.352 171.076 124.352C168.544 124.352 166.726 122.386 165.976 118.826C163.894 109.111 165.863 105.964 169.744 104.056C169.838 103.997 172.144 102.955 174.938 102.955ZM174.938 102.168C171.901 102.168 169.426 103.348 169.426 103.348C164.907 105.571 163.182 109.386 165.244 119.003C166.144 123.212 168.432 125.139 171.094 125.139C174.019 125.139 177.357 122.799 179.776 118.629C183.244 112.611 183.657 106.515 180.957 104.233C179.044 102.64 176.869 102.168 174.938 102.168Z" fill="black"/>
<path d="M176.045 117.115C175.876 117.115 175.726 116.997 175.689 116.82C175.633 116.604 175.764 116.387 175.97 116.348C176.214 116.289 176.439 116.132 176.608 115.915C176.889 115.561 177.076 114.617 177.245 112.749C177.264 112.533 177.451 112.375 177.658 112.395C177.864 112.415 178.014 112.611 177.995 112.828C177.789 114.952 177.583 115.915 177.189 116.427C176.908 116.781 176.533 117.017 176.139 117.115C176.101 117.115 176.083 117.115 176.045 117.115Z" fill="black"/>
<path d="M174.375 113.673C174.356 113.673 174.319 113.673 174.3 113.673C174.094 113.634 173.963 113.418 174.019 113.201L174.113 112.729C174.15 112.513 174.356 112.375 174.563 112.415C174.769 112.454 174.9 112.67 174.844 112.887L174.75 113.359C174.713 113.555 174.544 113.673 174.375 113.673Z" fill="black"/>
<path d="M179.681 113.673C179.643 113.673 179.625 113.673 179.587 113.654C179.381 113.595 179.268 113.398 179.306 113.182L179.418 112.69C179.475 112.474 179.662 112.356 179.868 112.395C180.075 112.454 180.187 112.651 180.15 112.867L180.037 113.359C180 113.555 179.85 113.673 179.681 113.673Z" fill="black"/>
<path d="M174.356 119.259C174.244 119.259 174.131 119.259 174 119.239C172.969 119.042 172.275 118 172.462 116.918C172.5 116.702 172.687 116.564 172.893 116.604C173.1 116.643 173.231 116.84 173.194 117.056C173.137 117.371 173.212 117.685 173.381 117.961C173.569 118.236 173.831 118.413 174.131 118.472C174.187 118.492 174.262 118.492 174.337 118.492C174.543 118.492 174.712 118.669 174.712 118.885C174.712 119.101 174.562 119.259 174.356 119.259Z" fill="black"/>
<path d="M162.488 115.974C162.3 115.974 162.132 115.817 162.113 115.62C162.094 115.404 162.244 115.207 162.45 115.188L164.663 114.971C164.869 114.952 165.057 115.109 165.075 115.325C165.094 115.542 164.944 115.738 164.738 115.758L162.525 115.974C162.507 115.974 162.507 115.974 162.488 115.974Z" fill="black"/>
<path d="M187.294 102.798C185.794 100.359 180.994 100.084 178.65 102.857C174.244 101.067 169.407 103.329 169.407 103.329C165.169 105.433 163.369 108.914 164.888 117.312C171.375 114.401 171.938 105.158 171.938 105.158C171.938 105.158 175.875 110.409 182.175 110.31C182.194 110.31 182.213 110.31 182.213 110.31C182.344 110.31 182.475 110.31 182.607 110.291V110.271C187.069 109.819 189.3 106.043 187.294 102.798Z" fill="black"/>
<path d="M167.456 194.09C165.394 194.09 158.288 193.579 153.788 187.05C151.444 183.667 150.169 179.183 149.981 173.716C149.756 167.265 151.088 159.418 153.919 150.371V150.352H176.794C177.056 149.998 181.65 143.586 187.969 137.293C193.931 131.314 202.706 124.195 210.563 124.195C214.725 124.195 218.663 126.732 220.35 130.508C227.663 146.89 232.013 158.395 233.288 162.171C233.288 162.171 229.669 159.556 221.963 164.807C219.169 166.675 217.369 168.15 215.625 169.546C213.863 170.982 212.213 172.319 209.644 174.03C204.638 177.334 200.175 177.767 200.138 177.767H200.1V177.728C199.106 171.631 198.938 166.99 198.9 166.085C193.125 178.18 187.238 186.125 180.956 190.354C175.819 193.795 171.469 194.09 167.456 194.09Z" fill="#6C79D9"/>
<path d="M198.994 166.321C198.788 166.321 198.638 166.164 198.619 165.947C198.244 156.96 199.726 146.753 199.744 146.654C199.782 146.438 199.969 146.3 200.176 146.32C200.382 146.359 200.513 146.556 200.494 146.772C200.476 146.871 199.013 156.999 199.369 165.908C199.369 166.124 199.219 166.321 198.994 166.321C199.013 166.321 198.994 166.321 198.994 166.321Z" fill="black"/>
<path d="M171.169 160.028C171.113 160.028 171.038 160.008 170.982 159.969C170.813 159.851 170.738 159.615 170.85 159.438C172.65 156.271 174.638 153.066 176.569 150.175C176.682 149.998 176.925 149.958 177.094 150.076C177.263 150.194 177.3 150.45 177.188 150.627C175.275 153.498 173.307 156.684 171.507 159.851C171.413 159.969 171.3 160.028 171.169 160.028Z" fill="black"/>
<path d="M233.213 162.525C233.063 162.525 232.913 162.427 232.857 162.27C231.432 158.081 227.85 148.877 223.05 137.745C222.957 137.549 223.05 137.313 223.238 137.234C223.425 137.136 223.65 137.234 223.725 137.431C228.544 148.601 232.144 157.825 233.569 162.034C233.644 162.23 233.532 162.466 233.344 162.545C233.288 162.525 233.25 162.525 233.213 162.525Z" fill="black"/>
<path d="M173.045 156.684H152.232C152.026 156.684 151.857 156.507 151.857 156.291C151.857 156.075 152.026 155.898 152.232 155.898H173.045C173.251 155.898 173.42 156.075 173.42 156.291C173.42 156.507 173.251 156.684 173.045 156.684Z" fill="black"/>
<path d="M170.531 178.573C170.269 178.573 170.025 178.554 169.781 178.495C164.531 177.452 165.525 166.695 166.256 158.848C166.35 157.923 166.425 157.058 166.481 156.271C166.5 156.055 166.669 155.898 166.894 155.917C167.1 155.937 167.25 156.134 167.231 156.35C167.175 157.137 167.081 158.022 167.006 158.946C166.35 166.065 165.356 176.843 169.931 177.747C170.138 177.787 170.344 177.806 170.55 177.806C176.044 177.806 183.994 164.512 189.319 155.603C190.519 153.597 191.644 151.709 192.619 150.194C196.706 143.763 201.956 136.447 206.288 136.959C208.144 137.175 209.625 138.807 210.713 141.816C212.194 145.907 218.344 167.186 218.4 167.403C218.456 167.619 218.344 167.835 218.156 167.894C217.95 167.953 217.744 167.835 217.688 167.639C217.631 167.422 211.481 146.163 210 142.092C209.025 139.397 207.731 137.922 206.194 137.745C202.219 137.273 196.894 144.865 193.238 150.627C192.281 152.141 191.156 154.029 189.956 156.016C184.219 165.593 176.456 178.573 170.531 178.573Z" fill="black"/>
<path d="M246.918 167.894C246.843 167.894 246.768 167.875 246.693 167.816L230.756 156.016C230.587 155.898 230.549 155.642 230.662 155.465C230.774 155.288 231.018 155.249 231.187 155.367L247.124 167.167C247.293 167.285 247.331 167.54 247.218 167.717C247.143 167.835 247.031 167.894 246.918 167.894Z" fill="black"/>
<path d="M188.101 160.814C183.188 160.814 179.195 157.923 176.72 155.504C174.02 152.869 172.463 150.214 172.463 150.194C171.132 148.031 170.007 145.75 169.088 143.37L167.176 138.434L180.826 132.789L183.226 135.838C185.457 140.184 186.788 143.075 186.807 143.114L186.957 143.468L187.295 143.311C187.445 143.232 202.932 136.015 210.863 133.694C213.863 132.809 216.826 132.357 219.395 132.357C223.22 132.357 225.582 133.399 225.582 135.09V135.346L225.807 135.444C225.807 135.444 226.595 135.838 226.801 136.546C226.913 136.939 226.838 137.372 226.576 137.824L226.407 138.119L226.67 138.335C226.82 138.453 228.02 139.515 227.007 140.912L226.857 141.128L226.988 141.364C226.988 141.364 227.457 142.21 227.138 142.918C226.913 143.429 226.295 143.783 225.338 143.94C224.588 144.078 223.932 144.117 223.313 144.157C221.12 144.294 219.038 144.432 213.02 148.129C210.882 149.427 208.838 150.961 206.832 152.456C201.601 156.35 196.182 160.382 188.888 160.834C188.626 160.795 188.363 160.814 188.101 160.814Z" fill="white"/>
<path d="M219.394 132.711C222.919 132.711 225.206 133.635 225.206 135.051V135.562L225.638 135.779C225.825 135.877 226.313 136.192 226.444 136.644C226.519 136.919 226.463 137.234 226.256 137.608L225.919 138.198L226.444 138.63C226.444 138.63 226.763 138.906 226.931 139.299C227.138 139.751 227.063 140.184 226.725 140.656L226.406 141.069L226.669 141.521C226.669 141.521 227.025 142.21 226.8 142.701C226.575 143.193 225.844 143.409 225.281 143.508C224.55 143.645 223.913 143.685 223.294 143.724C221.044 143.862 218.925 143.999 212.85 147.736C210.713 149.054 208.631 150.588 206.644 152.082C201.45 155.957 196.088 159.949 188.906 160.382C188.663 160.401 188.4 160.401 188.138 160.401C183.356 160.401 179.475 157.589 177.038 155.229C174.356 152.633 172.819 149.998 172.819 149.958V149.939V149.919C171.506 147.795 170.381 145.514 169.481 143.173L167.7 138.591L180.731 133.183L182.944 135.975C185.156 140.282 186.488 143.173 186.488 143.193L186.806 143.881L187.481 143.567C187.631 143.488 203.081 136.29 210.994 133.969C213.938 133.163 216.844 132.711 219.394 132.711ZM219.394 131.924C216.9 131.924 213.9 132.357 210.769 133.281C202.706 135.641 187.144 142.918 187.144 142.918C187.144 142.918 185.813 140.007 183.544 135.602L180.938 132.298L166.688 138.198L168.75 143.508C169.669 145.907 170.812 148.208 172.144 150.391C172.144 150.391 178.369 161.208 188.119 161.208C188.381 161.208 188.644 161.208 188.925 161.188C199.125 160.559 205.538 153.164 213.225 148.444C220.913 143.724 222.038 144.904 225.413 144.314C228.788 143.724 227.325 141.148 227.325 141.148C228.6 139.397 226.913 138.021 226.913 138.021C228.038 136.054 225.975 135.071 225.975 135.071C225.956 133.006 223.294 131.924 219.394 131.924Z" fill="black"/>
<path d="M153.957 150.43C153.901 150.411 149.607 148.975 149.982 143.508C150.207 140.322 153.62 134.638 159.376 127.951C164.832 121.579 167.476 121.048 169.707 121.048C174.207 121.048 177.057 123.487 180.995 130.705C181.876 132.317 182.738 133.95 183.582 135.582L183.601 135.621L168.807 143.527C169.726 145.907 170.832 148.208 172.163 150.371L172.201 150.43H153.957Z" fill="#FF877F"/>
<path d="M213.957 136.034C213.789 136.034 213.639 135.916 213.601 135.739C213.545 135.523 213.676 135.307 213.864 135.267C214.126 135.189 220.539 133.497 225.845 135.071C226.051 135.13 226.164 135.346 226.107 135.562C226.051 135.779 225.845 135.897 225.639 135.838C220.539 134.304 214.126 136.015 214.051 136.034C214.014 136.034 213.995 136.034 213.957 136.034Z" fill="black"/>
<path d="M214.856 138.984C214.687 138.984 214.537 138.866 214.499 138.689C214.443 138.473 214.574 138.257 214.762 138.217C214.987 138.158 220.537 136.644 226.556 137.824C226.762 137.863 226.893 138.06 226.856 138.276C226.818 138.493 226.612 138.63 226.424 138.591C220.574 137.45 215.024 138.965 214.968 138.984C214.912 138.984 214.893 138.984 214.856 138.984Z" fill="black"/>
<path d="M215.793 141.934C215.605 141.934 215.455 141.797 215.418 141.6C215.38 141.384 215.53 141.187 215.718 141.148C221.68 140.105 224.83 140.4 226.912 140.754C227.118 140.794 227.249 140.99 227.212 141.207C227.174 141.423 226.987 141.561 226.78 141.521C224.755 141.167 221.68 140.892 215.849 141.915C215.83 141.934 215.812 141.934 215.793 141.934Z" fill="black"/>
<path d="M208.051 152.377C207.901 152.377 207.769 152.279 207.713 152.141L201.563 136.644C201.488 136.447 201.582 136.211 201.769 136.133C201.957 136.054 202.182 136.152 202.257 136.349L208.407 151.846C208.482 152.043 208.388 152.279 208.201 152.358C208.144 152.377 208.107 152.377 208.051 152.377Z" fill="black"/>
<path d="M169.295 144.117C169.145 144.117 169.014 144.039 168.957 143.881C168.151 141.993 167.064 139.279 166.52 137.745C166.445 137.549 166.539 137.313 166.745 137.234C166.932 137.155 167.157 137.254 167.232 137.47C167.776 138.984 168.864 141.679 169.67 143.567C169.745 143.763 169.67 143.999 169.482 144.078C169.389 144.098 169.351 144.117 169.295 144.117Z" fill="black"/>
<path d="M204.918 148.228C207.093 148.228 208.855 146.379 208.855 144.098C208.855 141.817 207.093 139.968 204.918 139.968C202.743 139.968 200.98 141.817 200.98 144.098C200.98 146.379 202.743 148.228 204.918 148.228Z" fill="white"/>
<path d="M204.918 148.621C202.537 148.621 200.605 146.595 200.605 144.098C200.605 141.6 202.537 139.574 204.918 139.574C207.299 139.574 209.23 141.6 209.23 144.098C209.23 146.595 207.299 148.621 204.918 148.621ZM204.918 140.361C202.949 140.361 201.355 142.033 201.355 144.098C201.355 146.163 202.949 147.834 204.918 147.834C206.887 147.834 208.48 146.163 208.48 144.098C208.48 142.033 206.887 140.361 204.918 140.361Z" fill="black"/>
<path d="M141.9 170.058C141.731 170.058 141.544 170.038 141.375 170.018C140.588 169.881 139.894 169.409 139.444 168.72C138.994 168.032 138.806 167.206 138.938 166.38C139.181 164.866 140.438 163.784 141.881 163.784C142.05 163.784 142.238 163.804 142.406 163.823L142.8 163.902L142.838 163.469C142.856 163.233 142.913 163.017 142.969 162.781C143.381 161.483 144.525 160.618 145.819 160.618C146.138 160.618 146.456 160.677 146.756 160.775L147.056 160.873L147.206 160.578C147.506 159.969 147.994 159.457 148.575 159.162C148.988 158.946 149.419 158.848 149.888 158.848C151.05 158.848 152.081 159.516 152.588 160.618L152.738 160.932L153.056 160.814C153.3 160.716 153.563 160.657 153.825 160.637C153.919 160.637 154.013 160.618 154.106 160.618C155.663 160.618 156.938 161.837 157.088 163.469L157.125 163.902L157.519 163.823C157.688 163.784 157.856 163.784 158.025 163.764C159.675 163.764 161.025 165.18 161.025 166.911C161.025 168.642 159.675 170.058 158.025 170.058H141.9Z" fill="white"/>
<path d="M149.888 159.241C150.901 159.241 151.801 159.831 152.251 160.795L152.551 161.444L153.188 161.188C153.394 161.109 153.619 161.05 153.863 161.031C153.938 161.031 154.032 161.011 154.107 161.011C155.457 161.011 156.582 162.073 156.713 163.509L156.788 164.354L157.594 164.197C157.744 164.177 157.894 164.158 158.044 164.158C159.488 164.158 160.669 165.397 160.669 166.911C160.669 168.425 159.488 169.664 158.044 169.664H141.919C141.769 169.664 141.619 169.645 141.469 169.625C140.776 169.507 140.176 169.094 139.782 168.504C139.388 167.894 139.219 167.167 139.351 166.439C139.576 165.121 140.663 164.158 141.938 164.158C142.088 164.158 142.238 164.177 142.388 164.197L143.194 164.335L143.269 163.489C143.288 163.292 143.326 163.096 143.382 162.899C143.738 161.758 144.732 161.011 145.876 161.011C146.157 161.011 146.419 161.05 146.682 161.149L147.301 161.365L147.582 160.755C147.844 160.224 148.257 159.772 148.782 159.516C149.101 159.339 149.476 159.241 149.888 159.241ZM149.888 158.454C149.401 158.454 148.894 158.572 148.426 158.808C147.769 159.143 147.226 159.713 146.888 160.401C146.532 160.283 146.194 160.224 145.838 160.224C144.413 160.224 143.101 161.168 142.632 162.663C142.557 162.919 142.501 163.174 142.482 163.43C142.294 163.391 142.088 163.371 141.901 163.371C140.288 163.371 138.863 164.59 138.582 166.301C138.263 168.229 139.482 170.058 141.319 170.392C141.507 170.431 141.713 170.451 141.901 170.451H158.026C159.882 170.451 161.401 168.858 161.401 166.911C161.401 164.964 159.882 163.371 158.026 163.371C157.838 163.371 157.632 163.391 157.444 163.43C157.276 161.601 155.813 160.224 154.088 160.224C153.976 160.224 153.882 160.224 153.769 160.244C153.469 160.264 153.188 160.342 152.907 160.441C152.326 159.182 151.126 158.454 149.888 158.454Z" fill="black"/>
<path d="M141.731 193.658L136.256 167.442H163.65L158.175 193.658H141.731Z" fill="white"/>
<path d="M163.182 167.835L157.875 193.264H142.013L136.707 167.835H163.182ZM164.119 167.049H135.807L141.432 194.051H158.494L164.119 167.049Z" fill="black"/>
<path d="M147.169 193.658L144.281 167.442H155.625L152.737 193.658H147.169Z" fill="white"/>
<path d="M155.213 167.835L152.4 193.264H147.525L144.713 167.835H155.213ZM156.057 167.049H143.869L146.85 194.051H153.075L156.057 167.049Z" fill="black"/>
</svg>
