<svg width="419" height="301" viewBox="0 0 419 301" fill="none" xmlns="http://www.w3.org/2000/svg">
<path d="M277.587 133.995L277.535 133.97L277.561 133.92C277.561 133.92 276.906 132.942 277.901 129.38C278.32 127.749 278.87 125.216 279.865 123.836C281.699 121.378 284.16 121.629 284.972 121.629C285.26 121.629 285.679 121.729 285.862 121.78C285.915 121.805 285.993 121.805 286.046 121.855C287.329 122.532 288.036 124.263 287.905 127.599C287.748 131.487 286.124 137.106 284.841 139.589C284.867 139.564 279.865 135.024 277.587 133.995Z" fill="black"/>
<path d="M280.31 101.989H242.81L274.889 83.377C280.755 79.9657 288.402 82.8001 290.34 89.096C292.356 95.5424 287.328 101.989 280.31 101.989Z" fill="black"/>
<path d="M308.147 180.399C307.99 180.399 307.833 180.399 307.702 180.399C297.122 180.274 284.29 171.645 275.386 164.446C265.749 156.645 258.495 148.769 258.417 148.694L258.391 148.669L276.486 133.418H276.512C280.467 134.672 285.835 138.234 292.958 144.254C294.608 145.659 296.022 146.888 297.305 147.967C302.909 152.783 304.978 154.563 306.864 154.563C306.968 154.563 307.073 154.563 307.178 154.538C309.325 154.313 315.322 148.192 320.612 142.774C324.593 138.711 328.337 134.848 330.275 133.644C330.825 133.318 331.48 133.142 332.187 133.142C337.058 133.142 344.443 140.918 344.521 140.993L357.615 156.871L351.618 166.077H351.592C347.847 167.331 343.762 169.187 339.415 171.144C329.856 175.508 319.015 180.399 308.147 180.399Z" fill="#6C79D9"/>
<path d="M287.539 229.613C287.513 229.111 287.487 228.81 287.487 228.81C287.487 228.76 286.963 223.442 286.413 220.382C284.501 221.185 282.773 222.289 280.966 223.467C278.792 224.872 276.304 226.477 273.005 227.832C271.276 228.534 269.208 228.911 266.851 228.911C263.08 228.911 259.859 227.982 259.833 227.982H259.806V227.957C259.754 220.232 257.397 209.396 255.328 199.814C254.569 196.377 253.888 193.142 253.312 190.207C248.781 166.754 245.272 144.806 245.246 144.58V144.53L268.239 139.087V139.162C268.239 139.463 268.134 169.538 282.773 189.906C294.924 206.837 301.261 216.971 301.628 220.081C301.654 220.131 301.994 221.436 300.449 223.267C297.883 226.327 292.069 228.459 287.644 229.688L287.591 229.713L287.539 229.613Z" fill="#6C79D9"/>
<path d="M287.538 229.613C287.512 229.111 287.486 228.81 287.486 228.81L286.412 220.282L286.438 220.257C289.398 218.927 292.278 218.225 294.949 218.225C299.218 218.225 301.548 219.981 301.575 220.006V220.031C301.601 220.081 301.941 221.386 300.396 223.217C297.83 226.277 292.016 228.409 287.591 229.638L287.538 229.663V229.613Z" fill="black"/>
<path d="M270.516 160.809C270.385 160.809 270.254 160.759 270.15 160.659L264.284 155.266C264.074 155.065 264.074 154.764 264.257 154.563C264.467 154.363 264.781 154.363 264.991 154.538L270.857 159.931C271.066 160.132 271.066 160.433 270.883 160.634C270.778 160.759 270.647 160.809 270.516 160.809Z" fill="black"/>
<path d="M335.043 145.283C331.822 141.796 330.512 138.861 330.093 136.98C329.648 134.923 330.146 133.694 330.146 133.694V133.669H330.172C330.722 133.343 331.35 133.167 332.084 133.167C336.954 133.167 344.339 140.943 344.418 141.019L342.978 145.584C343.004 145.584 343.135 146.462 335.043 145.283Z" fill="black"/>
<path d="M393.386 178.669C393.229 178.669 393.072 178.593 392.967 178.468C392.81 178.242 392.863 177.941 393.098 177.766C395.141 176.386 396.503 174.304 396.922 171.946C397.341 169.588 396.765 167.206 395.324 165.249L363.742 122.607C363.585 122.382 363.637 122.081 363.873 121.905C364.109 121.754 364.449 121.805 364.606 122.03L396.188 164.672C397.812 166.854 398.441 169.488 397.969 172.122C397.498 174.756 396.005 177.038 393.727 178.593C393.596 178.644 393.491 178.669 393.386 178.669Z" fill="black"/>
<path d="M368.72 143.226C368.563 143.226 368.406 143.151 368.301 143.025C368.144 142.799 368.196 142.498 368.432 142.323L375.45 137.557C375.686 137.406 376 137.457 376.183 137.682C376.34 137.908 376.288 138.209 376.052 138.385L369.034 143.151C368.929 143.201 368.824 143.226 368.72 143.226Z" fill="black"/>
<path d="M380.714 159.43C380.557 159.43 380.4 159.354 380.295 159.229C380.138 159.003 380.19 158.702 380.426 158.527L387.444 153.736C387.68 153.585 387.994 153.635 388.177 153.861C388.335 154.087 388.282 154.388 388.046 154.563L381.028 159.354C380.923 159.405 380.819 159.43 380.714 159.43Z" fill="black"/>
<path d="M359.974 197.632C358.219 197.607 356.569 196.954 355.339 195.725C354.108 194.521 353.453 192.941 353.479 191.26C353.479 190.784 353.532 190.307 353.663 189.856L360.052 164.647C360.105 164.421 360.34 164.271 360.576 164.271C360.812 164.271 361.021 164.446 361.074 164.672L366.494 190.081C367.202 193.493 364.897 196.829 361.362 197.506C360.838 197.581 360.393 197.632 359.974 197.632ZM360.498 167.08L354.658 190.107C354.553 190.483 354.527 190.884 354.527 191.285C354.501 192.69 355.051 194.02 356.098 195.048C357.146 196.051 358.507 196.628 359.974 196.628C360.34 196.628 360.707 196.603 361.152 196.503C364.111 195.926 366.049 193.142 365.447 190.282L360.498 167.08Z" fill="black"/>
<path d="M375.45 183.108C374.298 183.108 373.224 182.707 372.386 181.955C372.15 181.729 371.915 181.503 371.731 181.202L360.209 165.048C360.078 164.848 360.104 164.572 360.261 164.421C360.445 164.246 360.706 164.221 360.916 164.346L377.938 175.182C380.007 176.511 380.556 179.195 379.195 181.177C379.038 181.378 378.907 181.528 378.776 181.704C377.938 182.557 376.838 183.058 375.633 183.108C375.581 183.108 375.528 183.108 375.45 183.108ZM362.592 166.604L372.596 180.625C372.596 180.625 372.596 180.65 372.622 180.65C372.753 180.851 372.936 181.026 373.119 181.202C373.774 181.804 374.664 182.105 375.607 182.08C376.524 182.055 377.388 181.679 378.016 181.026C378.121 180.901 378.252 180.751 378.357 180.6C379.404 179.095 378.985 177.038 377.388 176.01L362.592 166.604Z" fill="black"/>
<path d="M347.715 179.296C346.511 179.296 345.437 179.07 344.73 178.844C344.442 178.769 344.311 178.493 344.39 178.217C344.468 177.941 344.756 177.816 345.044 177.891C346.301 178.267 348.737 178.719 350.989 177.515C352.848 176.511 354.184 174.58 354.943 171.746C356.645 165.349 360.312 164.321 360.469 164.296C360.757 164.221 361.045 164.371 361.123 164.647C361.202 164.923 361.045 165.199 360.757 165.249C360.704 165.274 357.51 166.227 355.965 171.996C355.127 175.107 353.634 177.264 351.513 178.393C350.229 179.07 348.894 179.296 347.715 179.296Z" fill="black"/>
<path d="M297.988 260.114H243.387C237.652 260.114 232.965 255.624 232.965 250.131C232.965 249.855 233.201 249.629 233.489 249.629C233.777 249.629 234.012 249.855 234.012 250.131C234.012 255.072 238.229 259.111 243.387 259.111H297.988C298.276 259.111 298.512 259.337 298.512 259.613C298.512 259.888 298.276 260.114 297.988 260.114Z" fill="black"/>
<path d="M277.953 260.114C277.665 260.114 277.43 259.888 277.43 259.613V251.36C277.43 251.084 277.665 250.858 277.953 250.858C278.242 250.858 278.477 251.084 278.477 251.36V259.613C278.477 259.888 278.242 260.114 277.953 260.114Z" fill="black"/>
<path d="M257.212 260.114C256.924 260.114 256.688 259.888 256.688 259.613V251.36C256.688 251.084 256.924 250.858 257.212 250.858C257.5 250.858 257.736 251.084 257.736 251.36V259.613C257.736 259.888 257.5 260.114 257.212 260.114Z" fill="black"/>
<path d="M246.556 251.812V251.761C246.556 248.024 248.965 245.967 251.741 243.609C254.176 241.553 256.926 239.195 258.654 235.257C259.414 233.526 259.78 231.118 259.78 227.932V227.857L259.859 227.882C259.885 227.882 263.106 228.81 266.851 228.81C269.208 228.81 271.251 228.459 272.979 227.757C276.279 226.402 278.74 224.822 280.914 223.392C282.747 222.213 284.475 221.085 286.439 220.282L286.492 220.257V220.332C287.015 223.392 287.565 228.785 287.565 228.835C287.565 228.961 288.691 241.578 287.461 251.786V251.837L246.556 251.812Z" fill="#FF877F"/>
<path d="M380.871 167.607C378.384 167.607 375.608 167.03 372.413 166.378C369.192 165.7 365.526 164.948 361.126 164.547C360.707 164.522 360.288 164.496 359.869 164.496C357.565 164.496 354.867 165.023 351.62 166.102L351.568 166.127V166.077C351.541 166.027 350.18 159.806 346.775 155.391C344.576 152.532 341.826 150.575 339.39 148.819C337.662 147.59 336.143 146.512 335.148 145.333L335.096 145.283L344.497 140.993C357.355 135.776 363.09 134.171 363.143 134.171H363.169L386.397 166.378L386.345 166.403C384.695 167.231 382.94 167.607 380.871 167.607Z" fill="#FF877F"/>
<path d="M258.103 237.514C258.025 237.514 257.946 237.489 257.868 237.464L233.356 225.123C231.811 224.345 230.659 223.041 230.135 221.436C229.611 219.83 229.769 218.1 230.607 216.595C230.816 216.168 231.078 215.792 231.392 215.491C233.697 212.857 237.86 212.481 240.636 214.663C241.029 214.989 241.37 215.315 241.658 215.667L258.522 236.711C258.679 236.887 258.653 237.163 258.496 237.338C258.391 237.464 258.26 237.514 258.103 237.514ZM236.446 214.237C234.849 214.237 233.251 214.889 232.152 216.143C231.89 216.394 231.68 216.695 231.523 217.046C230.816 218.325 230.685 219.755 231.13 221.11C231.575 222.464 232.544 223.568 233.828 224.22L256.218 235.507L240.793 216.269C240.558 215.968 240.27 215.692 239.929 215.416C238.934 214.613 237.677 214.237 236.446 214.237Z" fill="black"/>
<path d="M241.422 242.104C239.615 242.104 237.939 240.951 237.415 239.195C237.336 238.919 237.284 238.693 237.258 238.492C237.153 237.414 237.494 236.36 238.201 235.558C238.908 234.73 239.929 234.228 241.029 234.128C241.448 234.103 241.788 234.103 242.076 234.153L258.208 236.686C258.444 236.737 258.627 236.912 258.653 237.163C258.679 237.389 258.522 237.614 258.286 237.665L242.574 241.954C242.181 242.054 241.788 242.104 241.422 242.104ZM241.474 235.106C241.369 235.106 241.265 235.106 241.134 235.131C240.296 235.207 239.562 235.583 239.012 236.21C238.463 236.837 238.227 237.614 238.305 238.417C238.332 238.543 238.358 238.743 238.41 238.969C238.882 240.549 240.61 241.477 242.26 241.026L255.72 237.364L241.893 235.181C241.788 235.131 241.631 235.106 241.474 235.106Z" fill="black"/>
<path d="M257.449 237.088C257.37 237.088 257.292 237.063 257.239 237.038L257.213 237.013C253.259 235.257 247.838 232.874 251.007 224.947C253.364 219.053 250.902 216.544 250.797 216.444C250.588 216.243 250.588 215.917 250.797 215.742C251.007 215.541 251.321 215.541 251.53 215.742C251.661 215.867 254.568 218.752 251.976 225.299C249.174 232.347 253.468 234.253 257.658 236.084L257.685 236.109C257.946 236.235 258.051 236.536 257.946 236.787C257.842 236.987 257.658 237.088 257.449 237.088Z" fill="black"/>
<path d="M289.475 219.78C289.266 219.78 289.056 219.655 288.978 219.454C285.364 209.897 281.619 204.053 278.031 198.384C272.453 189.63 266.692 180.575 260.983 157.799C260.905 157.523 261.088 157.247 261.376 157.197C261.664 157.122 261.952 157.298 262.004 157.573C267.687 180.199 273.396 189.178 278.948 197.882C282.588 203.576 286.333 209.471 289.999 219.128C290.104 219.379 289.947 219.68 289.685 219.78C289.606 219.78 289.528 219.78 289.475 219.78Z" fill="black"/>
<path d="M273.057 228.283C272.822 228.283 272.612 228.133 272.534 227.882C269.784 215.993 267.872 210.299 265.254 202.422C264.52 200.19 263.735 197.882 262.871 195.198C258.969 183.209 256.769 174.003 254.229 162.164C254.176 161.888 254.36 161.637 254.648 161.562C254.936 161.512 255.198 161.687 255.276 161.963C257.79 173.777 259.99 182.933 263.892 194.897C264.756 197.581 265.542 199.889 266.275 202.121C268.92 210.023 270.832 215.742 273.581 227.681C273.634 227.957 273.476 228.208 273.188 228.283C273.136 228.283 273.084 228.283 273.057 228.283Z" fill="black"/>
<path d="M307.361 164.647C301.941 164.647 295.106 159.204 285.809 151.829C282.169 148.945 278.031 145.659 273.553 142.348C273.318 142.172 273.292 141.871 273.449 141.646C273.606 141.42 273.946 141.395 274.182 141.545C278.686 144.856 282.824 148.142 286.49 151.052C296.022 158.627 302.883 164.095 307.99 163.619C313.935 163.067 318.517 160.032 326.871 154.538C330.014 152.482 333.575 150.124 337.896 147.465C338.132 147.314 338.472 147.39 338.629 147.615C338.786 147.841 338.708 148.167 338.472 148.318C334.151 150.977 330.59 153.309 327.473 155.391C319.277 160.784 314.327 164.045 308.095 164.622C307.833 164.647 307.597 164.647 307.361 164.647Z" fill="black"/>
<path d="M309.299 173.125C298.981 173.125 286.071 163.092 272.427 152.507C271.275 151.604 270.123 150.726 268.97 149.823C268.735 149.647 268.708 149.321 268.892 149.12C269.075 148.895 269.416 148.87 269.625 149.045C270.777 149.948 271.956 150.851 273.082 151.729C286.725 162.339 299.636 172.348 309.64 172.122C318.229 171.921 332.213 165.023 341.457 160.433C343.919 159.229 346.04 158.175 347.638 157.448C347.899 157.323 348.214 157.448 348.345 157.699C348.476 157.95 348.345 158.251 348.083 158.376C346.512 159.078 344.39 160.132 341.955 161.336C332.606 165.951 318.517 172.924 309.666 173.125C309.535 173.125 309.404 173.125 309.299 173.125Z" fill="black"/>
<path d="M355.31 165.525C355.074 165.525 354.865 165.374 354.786 165.124L353.53 159.731C353.477 159.455 353.634 159.204 353.922 159.129C354.21 159.079 354.472 159.229 354.551 159.505L355.808 164.898C355.86 165.174 355.703 165.425 355.415 165.5C355.389 165.525 355.336 165.525 355.31 165.525Z" fill="black"/>
<path d="M360.653 165.224C360.365 165.224 360.129 164.998 360.129 164.722L360.234 159.079C360.234 158.803 360.469 158.577 360.757 158.577C361.046 158.577 361.281 158.803 361.281 159.079L361.176 164.722C361.176 164.998 360.941 165.224 360.653 165.224Z" fill="black"/>
<path d="M366.127 165.625C366.075 165.625 366.022 165.625 365.97 165.6C365.708 165.525 365.551 165.224 365.63 164.973L367.227 160.358C367.306 160.107 367.62 159.956 367.882 160.032C368.144 160.107 368.301 160.408 368.222 160.659L366.625 165.274C366.546 165.5 366.337 165.625 366.127 165.625Z" fill="black"/>
<path d="M262.764 239.872C262.686 239.872 262.633 239.847 262.555 239.822L257.16 237.514C256.898 237.389 256.767 237.113 256.898 236.862C257.003 236.611 257.317 236.486 257.579 236.611L262.974 238.919C263.235 239.044 263.366 239.32 263.235 239.571C263.157 239.772 262.974 239.872 262.764 239.872Z" fill="black"/>
<path d="M264.912 234.203C264.886 234.203 264.86 234.203 264.834 234.203L259.36 233.526C259.072 233.501 258.863 233.25 258.915 232.974C258.941 232.698 259.203 232.497 259.491 232.548L264.965 233.225C265.253 233.25 265.462 233.501 265.41 233.777C265.41 234.028 265.174 234.203 264.912 234.203Z" fill="black"/>
<path d="M258.733 244.512C258.602 244.512 258.471 244.462 258.392 244.387L254.674 241.176C254.464 241.001 254.438 240.675 254.648 240.474C254.831 240.273 255.171 240.248 255.381 240.449L259.099 243.66C259.309 243.835 259.335 244.161 259.126 244.362C259.021 244.462 258.864 244.512 258.733 244.512Z" fill="black"/>
<path d="M364.792 147.239C362.985 147.239 361.152 146.938 359.319 146.311C355.077 144.881 351.253 141.871 349.813 138.811C349.682 138.56 349.813 138.259 350.075 138.159C350.337 138.059 350.651 138.159 350.756 138.41C352.065 141.244 355.653 144.029 359.633 145.358C362.383 146.286 366.547 146.938 370.737 144.856C370.999 144.731 371.313 144.831 371.444 145.082C371.575 145.333 371.47 145.634 371.208 145.759C369.27 146.738 367.071 147.239 364.792 147.239Z" fill="black"/>
<path d="M274.181 252.263C274.155 252.263 274.129 252.263 274.129 252.263C273.841 252.238 273.631 251.987 273.684 251.711C274.758 243.208 281.592 239.395 287.877 239.395C288.165 239.395 288.401 239.621 288.401 239.897C288.401 240.173 288.165 240.399 287.877 240.399C282.038 240.399 275.726 243.935 274.731 251.812C274.679 252.088 274.443 252.263 274.181 252.263Z" fill="black"/>
<path d="M211.124 182.782C210.364 182.782 209.631 182.356 209.553 182.331L209.264 182.155L208.976 182.331C208.479 182.632 208.034 182.782 207.641 182.782C206.646 182.782 206.148 181.854 206.07 181.653L205.86 181.252L205.101 181.503C204.813 181.553 204.551 181.603 204.315 181.603C202.482 181.603 202.246 179.722 202.22 179.145L202.194 178.493L201.539 178.694C201.461 178.719 201.225 178.769 200.963 178.769C200.518 178.769 200.177 178.618 199.916 178.317C199.418 177.766 198.973 176.436 199.549 173.251C200.78 166.428 205.651 160.96 212.957 153.385L214.031 152.858L230.476 160.634L229.481 161.461L223.825 166.277L222.961 167.005C221.127 168.535 219.687 169.739 218.928 170.542C214.869 174.705 214.162 177.189 213.193 180.65L213.166 180.776C212.747 182.105 212.067 182.782 211.124 182.782Z" fill="white"/>
<path d="M214.004 153.385L229.481 160.734L229.088 161.06L223.458 165.876L222.593 166.603C220.76 168.134 219.294 169.363 218.534 170.165C214.371 174.404 213.637 177.088 212.695 180.5L212.668 180.625C212.223 182.281 211.411 182.281 211.176 182.281C210.678 182.281 210.128 182.03 209.892 181.904L209.343 181.578L208.793 181.904C208.4 182.13 208.033 182.255 207.745 182.255C207.064 182.255 206.671 181.503 206.645 181.428L206.252 180.625L205.362 180.901L205.074 181.001C204.838 181.051 204.629 181.077 204.419 181.077C203.084 181.077 202.874 179.697 202.848 179.12L202.796 177.816L201.486 178.217C201.434 178.242 201.277 178.292 201.067 178.292C200.779 178.292 200.57 178.192 200.413 178.016C199.601 177.088 199.967 174.455 200.151 173.351C201.355 166.679 206.148 161.286 213.375 153.811L214.004 153.385ZM214.004 152.256L212.616 152.933C205.205 160.583 200.255 166.127 198.998 173.1C198.501 175.809 198.658 177.665 199.47 178.593C199.836 179.02 200.334 179.22 200.936 179.22C201.277 179.22 201.565 179.145 201.696 179.12C201.722 179.572 201.958 182.055 204.315 182.055C204.603 182.055 204.917 182.03 205.257 181.954L205.598 181.854C205.729 182.105 206.357 183.259 207.667 183.259C208.164 183.259 208.714 183.083 209.29 182.732C209.447 182.832 210.233 183.284 211.123 183.284C211.961 183.284 213.087 182.857 213.637 180.901L213.663 180.776C214.606 177.389 215.287 174.931 219.268 170.868C220.027 170.115 221.441 168.911 223.274 167.381L224.138 166.654L229.769 161.838L231.366 160.508L214.004 152.256Z" fill="black"/>
<path d="M232.859 169.438C229.769 169.438 225.841 167.807 224.06 166.654L224.008 166.629L229.638 161.838C229.298 161.687 227.543 160.96 220.839 158.527C215.235 156.495 212.642 153.084 212.616 153.058L212.59 153.033L212.616 153.008C213.375 152.231 214.161 151.428 214.973 150.575C215.732 149.798 216.518 148.995 217.33 148.142C227.098 138.034 234.116 121.504 236.525 110.417V110.392L244.539 105.576L251.321 109.99V110.015C251.347 110.166 252.735 124.338 248.362 139.413C245.691 148.644 236.944 168.159 235.137 169.087C234.483 169.312 233.723 169.438 232.859 169.438Z" fill="#FF877F"/>
<path d="M232.859 169.438C229.769 169.438 225.841 167.807 224.06 166.654L224.008 166.629L229.638 161.838C229.638 161.838 233.54 163.393 234.876 165.45C236.211 167.506 235.164 169.037 235.164 169.062V169.087H235.137C234.483 169.312 233.723 169.438 232.859 169.438Z" fill="black"/>
<path d="M248.467 164.973C246.372 153.084 245.037 144.63 245.011 144.53L248.258 106.278L248.337 106.353C248.415 106.429 257.816 114.681 285.994 121.805C285.994 121.805 282.249 120.651 280.338 126.144C278.793 130.509 277.719 133.845 277.719 133.845C273.424 146.637 265.699 154.538 259.99 158.777C253.81 163.393 248.598 164.998 248.546 164.998L248.494 165.023L248.467 164.973Z" fill="#FF877F"/>
<path d="M247.995 109.238C245.455 109.238 243.386 107.256 243.386 104.823C243.386 102.39 245.455 100.409 247.995 100.409C250.535 100.409 252.604 102.39 252.604 104.823C252.604 107.256 250.535 109.238 247.995 109.238Z" fill="white"/>
<path d="M247.995 100.885C250.247 100.885 252.08 102.641 252.08 104.798C252.08 106.955 250.247 108.711 247.995 108.711C245.743 108.711 243.91 106.955 243.91 104.798C243.91 102.641 245.717 100.885 247.995 100.885ZM247.995 99.8818C245.167 99.8818 242.862 102.089 242.862 104.798C242.862 107.507 245.167 109.715 247.995 109.715C250.823 109.715 253.128 107.507 253.128 104.798C253.128 102.089 250.823 99.8818 247.995 99.8818Z" fill="black"/>
<path d="M237.808 112.925C234.22 112.925 230.633 109.514 228.852 104.397C226.547 97.7999 227.359 91.6545 230.711 90.0993C231.994 89.4973 233.408 89.1963 234.901 89.1963C239.353 89.1963 243.15 91.9053 243.202 91.9304C245.507 93.6611 246.659 95.4671 246.869 97.825C247.104 100.459 246.188 103.77 243.962 108.26C242.469 111.27 240.296 112.925 237.808 112.925Z" fill="white"/>
<path d="M234.928 88.6946V89.698C239.118 89.698 242.732 92.2063 242.889 92.3066C246.66 95.1411 248.074 98.7531 243.491 108.009C242.077 110.843 240.061 112.423 237.808 112.423C234.456 112.423 231.052 109.138 229.35 104.246C227.176 98.0006 227.883 91.9806 230.947 90.5508C232.178 89.9739 233.487 89.698 234.902 89.698L234.928 88.6946ZM234.928 88.6946C233.487 88.6946 231.995 88.9706 230.502 89.6478C226.941 91.3033 225.945 97.5992 228.355 104.572C230.266 110.066 234.116 113.427 237.808 113.427C240.296 113.427 242.732 111.897 244.434 108.435C249.043 99.1544 248.022 94.8651 243.517 91.504C243.543 91.5291 239.615 88.6946 234.928 88.6946Z" fill="black"/>
<path d="M232.964 104.046C232.886 104.046 232.807 104.021 232.728 103.995C232.309 103.77 231.943 103.419 231.707 103.017C231.393 102.365 231.367 101.312 231.655 99.1042C231.681 98.8283 231.943 98.6276 232.231 98.6778C232.519 98.7029 232.728 98.9537 232.676 99.2296C232.519 100.509 232.362 102.039 232.624 102.566C232.755 102.791 232.964 102.992 233.2 103.118C233.462 103.243 233.54 103.544 233.409 103.795C233.331 103.945 233.147 104.046 232.964 104.046Z" fill="black"/>
<path d="M235.634 100.96C235.346 100.96 235.11 100.735 235.11 100.459V99.932C235.11 99.6561 235.346 99.4303 235.634 99.4303C235.922 99.4303 236.158 99.6561 236.158 99.932V100.459C236.158 100.735 235.922 100.96 235.634 100.96Z" fill="black"/>
<path d="M229.716 99.6561C229.428 99.6561 229.192 99.4303 229.192 99.1544V98.6527C229.192 98.3768 229.428 98.1511 229.716 98.1511C230.004 98.1511 230.24 98.3768 230.24 98.6527V99.1544C230.24 99.4303 230.004 99.6561 229.716 99.6561Z" fill="black"/>
<path d="M234.719 106.654C234.692 106.654 234.64 106.654 234.614 106.654C234.457 106.654 234.3 106.629 234.195 106.579C233.907 106.504 233.75 106.228 233.802 105.977C233.881 105.701 234.169 105.551 234.43 105.601C234.509 105.626 234.588 105.626 234.64 105.626C235.321 105.651 235.897 105.174 235.923 104.522C235.949 104.246 236.185 104.046 236.473 104.046C236.761 104.071 236.971 104.296 236.971 104.572C236.892 105.751 235.897 106.654 234.719 106.654Z" fill="black"/>
<path d="M209.525 182.657C209.237 182.657 209.002 182.456 209.002 182.18C208.74 176.185 212.144 170.065 212.275 169.814C212.406 169.563 212.72 169.488 212.982 169.613C213.244 169.739 213.323 170.04 213.192 170.291C213.165 170.341 209.787 176.436 210.023 182.155C210.049 182.406 209.84 182.657 209.525 182.657C209.552 182.657 209.525 182.657 209.525 182.657Z" fill="black"/>
<path d="M205.493 181.879C205.231 181.879 204.996 181.679 204.97 181.428C204.42 174.881 208.898 168.008 209.081 167.732C209.238 167.506 209.552 167.431 209.814 167.582C210.05 167.732 210.129 168.033 209.971 168.284C209.919 168.359 205.493 175.182 206.017 181.378C206.043 181.653 205.834 181.904 205.546 181.929C205.52 181.879 205.52 181.879 205.493 181.879Z" fill="black"/>
<path d="M202.272 179.321H202.246C201.958 179.296 201.748 179.07 201.748 178.794C202.298 171.018 205.729 166.102 205.859 165.901C206.017 165.675 206.357 165.6 206.593 165.776C206.828 165.926 206.907 166.252 206.724 166.478C206.697 166.528 203.319 171.394 202.769 178.869C202.769 179.12 202.534 179.321 202.272 179.321Z" fill="black"/>
<path d="M248.834 105.852C248.782 105.852 248.729 105.852 248.677 105.827L246.242 105.049C245.98 104.974 245.823 104.673 245.901 104.422C245.98 104.171 246.294 104.021 246.556 104.096L248.991 104.873C249.253 104.949 249.41 105.25 249.332 105.5C249.253 105.726 249.044 105.852 248.834 105.852Z" fill="black"/>
<path d="M227.569 94.514C234.038 97.0976 241.03 92.9588 241.03 92.9588C240.218 97.0725 240.218 102.741 245.063 106.88C245.063 106.88 246.896 103.619 247.21 98.3768C247.524 93.1344 241.475 90.0241 237.782 89.3468C234.09 88.6696 229.193 88.3435 227.569 94.514Z" fill="black"/>
<path d="M245.508 147.841C245.456 147.841 245.377 147.841 245.325 147.816C245.063 147.716 244.906 147.44 245.01 147.164C246.294 143.828 247.21 141.219 247.76 139.238C248.912 135.199 249.75 131.136 250.222 127.097C250.248 126.821 250.51 126.621 250.798 126.646C251.086 126.671 251.295 126.922 251.269 127.198C250.772 131.286 249.934 135.4 248.755 139.488C248.179 141.52 247.263 144.129 245.953 147.515C245.927 147.716 245.717 147.841 245.508 147.841Z" fill="black"/>
<path d="M242.625 154.864C242.547 154.864 242.495 154.839 242.416 154.814C237.728 152.883 235.188 147.916 236.55 143.201C237.283 140.692 238.985 138.585 241.342 137.281C243.725 135.977 246.475 135.651 249.094 136.353C249.382 136.428 249.539 136.704 249.46 136.98C249.382 137.256 249.094 137.406 248.806 137.331C246.449 136.704 243.961 137.005 241.84 138.159C239.719 139.313 238.174 141.194 237.545 143.477C236.34 147.691 238.619 152.181 242.835 153.886C243.097 153.987 243.228 154.288 243.123 154.538C243.018 154.739 242.835 154.864 242.625 154.864Z" fill="black"/>
<path d="M210.024 41.0113C208.007 32.1318 194.887 34.3893 199.418 44.7989C203.608 53.1516 208.924 62.7334 209.945 64.5896C209.971 64.6398 209.998 64.715 210.024 64.7401C210.05 64.6899 210.076 64.6398 210.102 64.5896C211.124 62.7585 216.44 53.1767 220.63 44.7989C225.16 34.3893 212.04 32.1318 210.024 41.0113Z" fill="#6C79D9"/>
<path d="M210.023 73.9457C208.792 68.5277 200.779 69.9073 203.529 76.2534C206.069 81.3704 209.342 87.2148 209.945 88.3435C209.971 88.3686 209.971 88.4188 209.997 88.4439C210.023 88.4188 210.023 88.3937 210.049 88.3435C210.678 87.2148 213.925 81.3704 216.465 76.2534C219.267 69.9073 211.254 68.5277 210.023 73.9457Z" fill="#FF877F"/>
<path d="M96.5279 111.52C96.3969 111.52 96.266 111.47 96.1874 111.395C93.1235 108.711 90.9499 106.629 90.9237 106.604C90.7142 106.404 90.7142 106.103 90.9237 105.902C91.1332 105.701 91.4475 105.701 91.657 105.902C91.6832 105.927 93.8306 107.984 96.8683 110.643C97.0778 110.818 97.104 111.144 96.8945 111.345C96.8159 111.47 96.6588 111.52 96.5279 111.52Z" fill="black"/>
<path d="M99.4866 106.88C99.3557 106.88 99.2248 106.83 99.12 106.755C96.0561 104.071 93.8825 101.989 93.8563 101.964C93.6468 101.763 93.6468 101.462 93.8563 101.261C94.0658 101.061 94.3801 101.061 94.5896 101.261C94.6158 101.286 96.7632 103.343 99.8009 106.002C100.01 106.178 100.037 106.504 99.8271 106.704C99.7747 106.83 99.6176 106.88 99.4866 106.88Z" fill="black"/>
<path d="M104.592 96.8216C104.461 96.8216 104.33 96.7715 104.252 96.6962C101.188 94.0123 99.0144 91.9304 98.9882 91.9053C98.7787 91.7047 98.7787 91.4037 98.9882 91.203C99.1977 91.0023 99.5119 91.0023 99.7214 91.203C99.7476 91.2281 101.895 93.2849 104.933 95.9437C105.142 96.1193 105.168 96.4454 104.959 96.6461C104.88 96.7715 104.723 96.8216 104.592 96.8216Z" fill="black"/>
<path d="M102.027 101.863C101.896 101.863 101.765 101.813 101.686 101.738C98.6225 99.0541 96.4489 96.9721 96.4228 96.9471C96.2132 96.7464 96.2132 96.4454 96.4228 96.2447C96.6323 96.0441 96.9465 96.0441 97.156 96.2447C97.1822 96.2698 99.3296 98.3266 102.367 100.985C102.577 101.161 102.603 101.487 102.394 101.688C102.315 101.813 102.158 101.863 102.027 101.863Z" fill="black"/>
<path d="M107.16 92.8334C107.029 92.8334 106.898 92.7832 106.793 92.6829L101.686 87.7917C101.477 87.591 101.477 87.29 101.686 87.0893C101.896 86.8887 102.21 86.8887 102.42 87.0893L107.526 91.9806C107.736 92.1812 107.736 92.4822 107.526 92.6829C107.421 92.7832 107.291 92.8334 107.16 92.8334Z" fill="black"/>
<path d="M179.673 101.236C166.396 91.9555 153.564 91.4538 142.277 95.8183C129.629 100.71 119.782 104.572 106.767 91.1779L95.7422 111.019C95.7422 111.019 107.579 122.607 120.489 123.385C138.533 124.463 146.86 109.714 163.804 115.132L179.673 101.236Z" fill="#F696BB"/>
<path d="M103.179 117.616C103.101 117.616 103.022 117.591 102.944 117.566C102.682 117.44 102.603 117.139 102.734 116.888L113.759 97.0474C113.89 96.7966 114.204 96.7213 114.466 96.8467C114.728 96.9722 114.807 97.2732 114.676 97.524L103.651 117.365C103.546 117.515 103.363 117.616 103.179 117.616Z" fill="black"/>
<path d="M95.5054 111.295C95.4269 111.295 95.3483 111.27 95.2697 111.245C95.0079 111.119 94.9293 110.818 95.0602 110.567L106.085 90.7264C106.216 90.4756 106.53 90.4003 106.792 90.5258C107.054 90.6512 107.133 90.9522 107.002 91.203L95.9768 111.044C95.8721 111.194 95.6888 111.295 95.5054 111.295Z" fill="black"/>
<path d="M117.451 220.031C117.818 216.946 124.155 206.787 136.306 189.856C150.919 169.488 150.84 139.413 150.84 139.112V139.037L173.833 144.48V144.53C173.807 144.756 170.271 166.704 165.767 190.157C165.191 193.092 164.484 196.327 163.751 199.764C161.682 209.32 159.299 220.182 159.273 227.907V227.932H159.246C159.22 227.932 155.999 228.86 152.228 228.86C149.871 228.86 147.802 228.509 146.074 227.782C142.774 226.427 140.313 224.822 138.113 223.417C136.306 222.238 134.604 221.135 132.666 220.332C132.614 220.382 117.451 220.081 117.451 220.031Z" fill="#F696BB"/>
<path d="M131.409 229.663C126.983 228.434 121.17 226.302 118.603 223.242C117.058 221.385 117.425 220.106 117.425 220.056V220.031C117.451 220.006 119.782 218.25 124.05 218.25C126.721 218.25 129.602 218.927 132.561 220.282L132.587 220.307L131.514 228.86C131.514 228.86 131.487 229.136 131.461 229.638V229.688L131.409 229.663Z" fill="black"/>
<path d="M175.614 260.114H121.013C120.725 260.114 120.489 259.888 120.489 259.612C120.489 259.337 120.725 259.111 121.013 259.111H175.614C180.773 259.111 184.989 255.072 184.989 250.131C184.989 249.855 185.225 249.629 185.513 249.629C185.801 249.629 186.037 249.855 186.037 250.131C186.037 255.624 181.349 260.114 175.614 260.114Z" fill="black"/>
<path d="M141.046 260.114C140.758 260.114 140.522 259.888 140.522 259.612V251.36C140.522 251.084 140.758 250.858 141.046 250.858C141.334 250.858 141.57 251.084 141.57 251.36V259.612C141.57 259.888 141.334 260.114 141.046 260.114Z" fill="black"/>
<path d="M161.786 260.114C161.498 260.114 161.263 259.888 161.263 259.612V251.36C161.263 251.084 161.498 250.858 161.786 250.858C162.075 250.858 162.31 251.084 162.31 251.36V259.612C162.31 259.888 162.075 260.114 161.786 260.114Z" fill="black"/>
<path d="M131.54 251.812V251.761C130.31 241.552 131.436 228.936 131.436 228.81C131.436 228.76 131.986 223.367 132.509 220.307V220.232L132.562 220.257C134.526 221.084 136.254 222.188 138.087 223.367C140.261 224.772 142.749 226.377 146.022 227.732C147.75 228.434 149.793 228.785 152.15 228.785C155.895 228.785 159.09 227.857 159.142 227.857L159.221 227.832V227.907C159.194 231.043 159.587 233.526 160.347 235.231C162.101 239.195 164.851 241.527 167.26 243.584C170.036 245.942 172.445 247.999 172.445 251.736V251.786L131.54 251.812Z" fill="#FDC858"/>
<path d="M161.21 237.665C161.053 237.665 160.922 237.614 160.818 237.489C160.661 237.313 160.661 237.037 160.791 236.862L177.682 215.817C177.97 215.466 178.311 215.14 178.704 214.814C181.506 212.631 185.67 213.008 187.974 215.641C188.262 215.942 188.524 216.319 188.76 216.745C189.572 218.225 189.755 219.956 189.231 221.561C188.707 223.166 187.555 224.471 186.01 225.248L161.472 237.589C161.368 237.639 161.289 237.665 161.21 237.665ZM182.894 214.387C181.663 214.387 180.406 214.789 179.385 215.591C179.044 215.867 178.782 216.143 178.52 216.444L163.096 235.683L185.513 224.395C186.822 223.743 187.791 222.64 188.236 221.285C188.681 219.931 188.55 218.476 187.843 217.222C187.66 216.87 187.45 216.569 187.215 216.319C186.089 215.039 184.491 214.387 182.894 214.387Z" fill="black"/>
<path d="M177.892 242.23C177.525 242.23 177.132 242.18 176.766 242.079L161.053 237.79C160.817 237.715 160.66 237.514 160.686 237.288C160.713 237.063 160.87 236.862 161.132 236.812L177.263 234.278C177.551 234.228 177.918 234.228 178.311 234.253C179.437 234.354 180.432 234.855 181.139 235.683C181.846 236.511 182.186 237.539 182.082 238.618C182.055 238.818 182.003 239.044 181.925 239.32C181.375 241.076 179.699 242.23 177.892 242.23ZM163.567 237.439L177.027 241.101C178.677 241.552 180.406 240.624 180.877 239.044C180.929 238.818 180.982 238.643 180.982 238.492C181.06 237.715 180.798 236.937 180.275 236.31C179.751 235.683 178.992 235.307 178.154 235.231C177.839 235.206 177.604 235.206 177.368 235.257L163.567 237.439Z" fill="black"/>
<path d="M161.866 237.213C161.656 237.213 161.473 237.113 161.394 236.912C161.263 236.661 161.394 236.36 161.656 236.235L161.682 236.21C165.846 234.379 170.167 232.472 167.365 225.424C164.772 218.877 167.679 215.993 167.81 215.867C168.02 215.667 168.334 215.667 168.543 215.867C168.753 216.068 168.753 216.369 168.543 216.57C168.439 216.67 166.003 219.178 168.36 225.073C171.503 232.999 166.108 235.382 162.154 237.138L162.127 237.163C162.023 237.188 161.944 237.213 161.866 237.213Z" fill="black"/>
<path d="M110.853 180.399C99.9849 180.399 89.1171 175.483 79.5587 171.169C75.2377 169.212 71.1525 167.356 67.3815 166.102L67.3291 166.077V166.027C67.3815 165.801 68.5337 160.257 71.9381 155.818C74.164 152.933 76.9923 150.776 79.5063 148.895C81.2347 147.59 82.7274 146.462 83.7225 145.308L77.3851 142.423L88.6457 133.644L88.6719 133.669C90.6098 134.873 94.3808 138.711 98.3613 142.774C103.651 148.167 109.648 154.313 111.795 154.538C111.9 154.538 112.005 154.564 112.11 154.564C113.995 154.564 116.09 152.758 121.668 147.967C122.925 146.888 124.365 145.659 126.015 144.254C133.112 138.234 138.507 134.672 142.461 133.418H142.487L160.583 148.669L160.557 148.694C160.478 148.769 153.25 156.645 143.587 164.446C127.456 177.515 117.112 180.324 111.272 180.399C111.167 180.399 111.01 180.399 110.853 180.399C110.879 180.399 110.879 180.399 110.853 180.399Z" fill="#F696BB"/>
<path d="M59.0527 154.313L74.5034 140.993C74.5819 140.918 81.9668 133.142 86.8377 133.142C87.5709 133.142 88.1994 133.318 88.7494 133.644H88.7755V133.669C88.7755 133.669 89.116 134.923 88.6708 136.98C88.278 138.861 87.1257 141.846 83.9047 145.308C75.158 149.973 71.1514 155.366 69.3182 159.053C67.3542 163.067 67.4589 166.002 67.4589 166.027V166.202L59.0527 154.313Z" fill="black"/>
<path d="M152.227 220.809C152.201 220.809 152.149 220.809 152.123 220.809C151.887 220.758 151.73 220.583 151.704 220.357L150.682 208.744L139.369 209.722C139.134 209.747 138.898 209.596 138.819 209.396C138.741 209.17 138.819 208.944 139.003 208.819L147.173 203.426L142.067 195.575C141.962 195.399 141.962 195.173 142.093 194.998C142.224 194.822 142.459 194.772 142.669 194.822L152.489 197.807L158.198 188.1C158.303 187.899 158.539 187.799 158.774 187.849C159.01 187.899 159.167 188.1 159.167 188.301L159.691 197.682L164.169 196.101C164.431 196.001 164.745 196.152 164.85 196.402C164.955 196.653 164.797 196.954 164.536 197.055L159.403 198.861C159.246 198.911 159.062 198.886 158.931 198.81C158.801 198.735 158.696 198.585 158.696 198.409L158.251 190.081L153.196 198.66C153.065 198.861 152.83 198.961 152.594 198.886L143.743 196.177L148.352 203.275C148.509 203.501 148.43 203.802 148.195 203.953L141.255 208.543L151.101 207.69C151.232 207.69 151.389 207.715 151.494 207.815C151.599 207.891 151.677 208.016 151.677 208.167L152.594 218.501L157.674 208.769C157.753 208.618 157.91 208.518 158.093 208.493C158.277 208.468 158.46 208.568 158.565 208.693L161.393 212.456C161.55 212.682 161.498 212.983 161.262 213.158C161.026 213.309 160.712 213.258 160.529 213.033L158.198 209.947L152.673 220.533C152.594 220.708 152.411 220.809 152.227 220.809Z" fill="black"/>
<path d="M147.122 190.132C146.965 190.132 146.808 190.056 146.703 189.931L140.732 182.205C140.549 181.98 140.601 181.679 140.837 181.503C141.073 181.327 141.387 181.378 141.57 181.603L146.677 188.2L147.174 178.794C147.174 178.543 147.384 178.343 147.62 178.317L156.445 177.214L148.196 172.95C148.065 172.874 147.96 172.749 147.934 172.598C147.908 172.448 147.96 172.297 148.065 172.172L152.7 167.406L146.677 168.259C146.389 168.309 146.127 168.109 146.075 167.833C146.022 167.557 146.232 167.306 146.52 167.256L154.009 166.202C154.219 166.177 154.455 166.277 154.559 166.453C154.664 166.629 154.638 166.879 154.481 167.03L149.296 172.373L158.383 177.063C158.592 177.164 158.697 177.389 158.645 177.59C158.592 177.816 158.435 177.966 158.199 177.991L148.196 179.246L147.646 189.63C147.646 189.831 147.489 190.031 147.279 190.081C147.227 190.132 147.174 190.132 147.122 190.132Z" fill="black"/>
<path d="M125.464 206.06C125.203 206.06 124.993 205.884 124.941 205.633C124.888 205.357 125.098 205.106 125.386 205.056L135.154 203.702L128.633 200.993C128.371 200.892 128.24 200.591 128.371 200.341C128.476 200.09 128.79 199.964 129.052 200.09L137.275 203.501C137.485 203.601 137.615 203.802 137.589 204.028C137.563 204.254 137.38 204.429 137.144 204.454L125.543 206.06C125.517 206.06 125.491 206.06 125.464 206.06Z" fill="black"/>
<path d="M143.875 227.305C143.613 227.305 143.377 227.104 143.351 226.854L142.199 216.72L138.218 223.417C138.087 223.668 137.747 223.743 137.511 223.593C137.249 223.467 137.171 223.141 137.328 222.915L142.12 214.864C142.225 214.663 142.46 214.588 142.67 214.613C142.879 214.663 143.063 214.839 143.089 215.039L144.424 226.703C144.451 226.979 144.241 227.23 143.953 227.255C143.901 227.305 143.901 227.305 143.875 227.305Z" fill="black"/>
<path d="M119.126 171.57C118.969 171.57 118.812 171.495 118.707 171.369L111.218 161.737L101.685 168.384C101.502 168.51 101.24 168.51 101.057 168.384C100.874 168.259 100.795 168.008 100.874 167.808L104.173 159.229L96.0027 155.818C95.7932 155.742 95.6885 155.542 95.6885 155.316C95.7147 155.115 95.8456 154.915 96.0551 154.865L102.942 152.933L102.523 147.59C102.497 147.314 102.707 147.064 102.995 147.064C103.283 147.038 103.545 147.239 103.545 147.515L103.99 153.259C104.016 153.485 103.859 153.711 103.623 153.786L97.7311 155.441L105.037 158.502C105.299 158.602 105.404 158.878 105.325 159.129L102.445 166.604L111.008 160.634C111.244 160.483 111.558 160.508 111.741 160.734L118.367 169.237L116.979 158.502C116.953 158.251 117.136 158 117.398 157.95L125.202 156.42L117.241 152.03C116.979 151.905 116.9 151.579 117.057 151.353C117.188 151.102 117.529 151.027 117.765 151.177L126.93 156.219C127.113 156.319 127.218 156.52 127.192 156.746C127.166 156.946 126.983 157.122 126.773 157.147L118.079 158.853L119.65 171.018C119.676 171.244 119.545 171.47 119.336 171.545C119.257 171.57 119.179 171.57 119.126 171.57Z" fill="black"/>
<path d="M79.4524 171.57C79.1643 171.57 78.9286 171.369 78.9286 171.093L78.7715 166.98C78.7715 166.854 78.8239 166.704 78.9286 166.603C79.0334 166.503 79.1643 166.453 79.2953 166.453H89.6132L81.076 161.185C80.9451 161.11 80.8665 160.985 80.8403 160.859C80.8142 160.734 80.8403 160.583 80.9189 160.483L86.942 152.155L77.0955 156.319C76.9646 156.369 76.8075 156.369 76.6765 156.319C76.5456 156.269 76.4408 156.144 76.3885 156.018L75.0267 152.155C74.922 151.905 75.0791 151.604 75.3671 151.528C75.629 151.428 75.9433 151.579 76.0218 151.854L77.2003 155.191L88.2252 150.525C88.4347 150.425 88.6966 150.5 88.8537 150.676C89.0108 150.851 89.0108 151.102 88.8799 151.278L82.1235 160.634L91.7082 166.553C91.8915 166.679 91.9962 166.904 91.9177 167.105C91.8391 167.331 91.6558 167.456 91.4201 167.456H79.8714L80.0023 171.043C79.9761 171.319 79.7666 171.57 79.4524 171.57Z" fill="black"/>
<path d="M107.421 180.7C107.395 180.7 107.369 180.7 107.343 180.7C107.055 180.65 106.871 180.399 106.924 180.123L108.39 171.645L101.084 179.396C100.9 179.597 100.56 179.622 100.351 179.421C100.141 179.245 100.115 178.919 100.324 178.719L108.835 169.689C108.992 169.513 109.254 169.488 109.464 169.563C109.673 169.664 109.778 169.889 109.752 170.09L107.997 180.249C107.893 180.525 107.683 180.7 107.421 180.7Z" fill="black"/>
<path d="M142.67 165.65C142.434 165.65 142.225 165.5 142.172 165.299L140.942 161.436L131.147 165.098C130.938 165.174 130.702 165.123 130.545 164.948C130.414 164.772 130.388 164.547 130.519 164.346L137.459 154.363L130.179 151.152C129.969 151.052 129.838 150.826 129.89 150.6C129.943 150.375 130.126 150.199 130.362 150.199L139.03 149.497L138.794 142.222C138.794 141.947 139.004 141.721 139.292 141.696C139.58 141.696 139.816 141.896 139.842 142.172L140.104 149.923C140.104 150.199 139.894 150.425 139.632 150.45L132.431 151.052L138.454 153.711C138.585 153.761 138.689 153.886 138.742 154.037C138.794 154.187 138.768 154.338 138.663 154.463L132.3 163.593L141.073 160.308C141.203 160.257 141.361 160.257 141.492 160.333C141.622 160.383 141.727 160.508 141.753 160.634L143.141 165.023C143.22 165.299 143.063 165.575 142.801 165.65C142.775 165.65 142.722 165.65 142.67 165.65Z" fill="black"/>
<path d="M25.6115 178.669C25.5068 178.669 25.402 178.644 25.2973 178.568C23.019 177.013 21.5263 174.731 21.0549 172.097C20.5835 169.463 21.212 166.829 22.8357 164.647L54.4178 122.005C54.5749 121.78 54.9154 121.729 55.1511 121.88C55.3867 122.03 55.4391 122.357 55.282 122.582L23.6998 165.224C22.2595 167.18 21.6834 169.563 22.1024 171.921C22.5214 174.279 23.8832 176.361 25.9258 177.741C26.1615 177.891 26.2138 178.217 26.0567 178.443C25.9258 178.593 25.7687 178.669 25.6115 178.669Z" fill="black"/>
<path d="M50.2798 143.226C50.1751 143.226 50.0703 143.201 49.9656 143.125L42.9473 138.36C42.7116 138.209 42.6593 137.883 42.8164 137.657C42.9735 137.432 43.3139 137.381 43.5496 137.532L50.5679 142.298C50.8036 142.448 50.856 142.774 50.6988 143C50.5941 143.151 50.437 143.226 50.2798 143.226Z" fill="black"/>
<path d="M38.2857 159.43C38.1809 159.43 38.0762 159.405 37.9714 159.329L30.9532 154.538C30.7175 154.388 30.6651 154.062 30.8222 153.836C30.9794 153.61 31.3198 153.56 31.5555 153.711L38.5737 158.502C38.8094 158.652 38.8618 158.978 38.7047 159.204C38.5999 159.354 38.4428 159.43 38.2857 159.43Z" fill="black"/>
<path d="M131.671 139.739L131.723 139.714C136.149 136.378 139.684 134.321 142.513 133.418H142.539L150.814 140.391C150.84 139.589 150.84 139.162 150.84 139.137V139.062L173.833 144.505V144.555C173.807 144.656 172 155.943 169.355 170.868L169.329 170.943L131.671 139.739Z" fill="#FDC858"/>
<path d="M173.728 160.659C171.921 160.659 170.167 160.032 168.805 158.878L140.365 135.049C138.873 133.794 137.956 132.039 137.825 130.132C137.694 128.226 138.349 126.37 139.658 124.94L139.92 124.639C141.334 123.084 143.403 122.181 145.55 122.181C147.357 122.181 149.112 122.808 150.474 123.962L178.913 147.791C182.03 150.4 182.344 154.915 179.62 157.9L179.358 158.201C177.944 159.756 175.875 160.659 173.728 160.659Z" fill="#FDC858"/>
<path d="M181.82 149.12C180.013 149.12 178.259 148.493 176.897 147.34L150.238 125.015C147.122 122.407 146.807 117.892 149.531 114.907L149.793 114.606C151.207 113.051 153.276 112.148 155.423 112.148C157.23 112.148 158.985 112.775 160.346 113.929L187.005 136.253C188.498 137.507 189.414 139.263 189.545 141.169C189.676 143.075 189.022 144.932 187.712 146.361L187.45 146.662C186.036 148.243 183.967 149.12 181.82 149.12Z" fill="#FDC858"/>
<path d="M172.969 124.614C171.162 124.614 169.407 123.987 168.045 122.833L161.341 117.214C158.225 114.606 157.911 110.091 160.634 107.106L160.896 106.805C162.31 105.25 164.379 104.347 166.527 104.347C168.333 104.347 170.088 104.974 171.45 106.128L178.154 111.746C181.27 114.355 181.584 118.87 178.861 121.855L178.599 122.156C177.185 123.711 175.142 124.614 172.969 124.614Z" fill="#FDC858"/>
<path d="M59.0271 197.632C58.5819 197.632 58.1629 197.581 57.6392 197.506C54.1039 196.829 51.7994 193.493 52.5065 190.081L57.9273 164.672C57.9796 164.446 58.1891 164.271 58.4248 164.271C58.6605 164.271 58.8962 164.421 58.9486 164.647L65.3383 189.856C65.4431 190.307 65.5216 190.809 65.5216 191.285C65.5478 192.941 64.8931 194.521 63.6623 195.75C62.4315 196.954 60.7817 197.606 59.0271 197.632ZM58.5034 167.08L53.554 190.282C52.9516 193.142 54.8895 195.951 57.8487 196.503C58.2939 196.578 58.6605 196.628 59.0271 196.628C60.4936 196.628 61.8816 196.051 62.9029 195.048C63.9242 194.045 64.5003 192.715 64.4741 191.311C64.4741 190.909 64.4217 190.483 64.3432 190.107L58.5034 167.08Z" fill="black"/>
<path d="M43.5507 183.108C43.4983 183.108 43.4459 183.108 43.3674 183.108C42.1627 183.058 41.0367 182.582 40.2249 181.729C40.0677 181.553 39.9368 181.403 39.7797 181.202C38.3917 179.22 38.9417 176.537 41.0105 175.207L58.0324 164.371C58.2419 164.246 58.5299 164.271 58.6871 164.446C58.8704 164.622 58.8966 164.873 58.7394 165.073L47.2169 181.227C47.0336 181.528 46.7979 181.754 46.5622 181.955C45.7766 182.682 44.6767 183.108 43.5507 183.108ZM56.4088 166.603L41.6128 176.01C40.0154 177.038 39.5964 179.095 40.6701 180.6C40.7748 180.751 40.9057 180.876 41.0367 181.026C41.639 181.654 42.5032 182.03 43.4197 182.055C44.3363 182.08 45.2267 181.779 45.9076 181.177C46.0909 181.001 46.2742 180.826 46.3789 180.625C46.3789 180.625 46.3789 180.6 46.4051 180.6L56.4088 166.603Z" fill="black"/>
<path d="M172.262 142.95C172.131 142.95 172.026 142.9 171.922 142.825L148.379 123.26C148.17 123.084 148.143 122.758 148.327 122.557C148.51 122.357 148.85 122.331 149.06 122.507L172.602 142.072C172.812 142.248 172.838 142.574 172.655 142.774C172.55 142.9 172.419 142.95 172.262 142.95Z" fill="black"/>
<path d="M166.762 120.074C166.631 120.074 166.526 120.024 166.421 119.948L158.617 113.452C158.408 113.276 158.382 112.95 158.565 112.75C158.748 112.549 159.089 112.524 159.298 112.699L167.102 119.196C167.312 119.372 167.338 119.698 167.154 119.898C167.05 120.024 166.919 120.074 166.762 120.074Z" fill="black"/>
<path d="M71.2819 179.296C70.1034 179.296 68.794 179.07 67.5109 178.393C65.3897 177.264 63.897 175.107 63.059 171.996C62.2472 168.961 60.9902 167.281 60.0736 166.428C59.0785 165.5 58.2928 165.274 58.2667 165.274C57.9786 165.199 57.8215 164.923 57.9 164.647C57.9786 164.371 58.2667 164.221 58.5285 164.296C58.6857 164.346 62.3519 165.349 64.0541 171.746C64.8135 174.58 66.1229 176.511 68.0084 177.515C70.2606 178.719 72.696 178.267 73.953 177.891C74.2411 177.816 74.5291 177.966 74.6077 178.217C74.6862 178.493 74.5291 178.769 74.2672 178.844C73.5602 179.07 72.4865 179.296 71.2819 179.296Z" fill="black"/>
<path d="M171.319 160.784C171.188 160.784 171.083 160.734 170.979 160.659L139.528 134.547C139.318 134.371 139.292 134.045 139.475 133.845C139.658 133.644 139.999 133.619 140.208 133.794L171.66 159.906C171.869 160.082 171.895 160.408 171.712 160.609C171.607 160.734 171.476 160.784 171.319 160.784Z" fill="black"/>
<path d="M135.652 143.477C135.495 143.477 135.338 143.401 135.233 143.276C135.05 143.05 135.102 142.749 135.338 142.574L143.037 136.905C143.273 136.729 143.587 136.779 143.77 137.005C143.954 137.231 143.901 137.532 143.666 137.708L135.967 143.376C135.888 143.452 135.757 143.477 135.652 143.477Z" fill="black"/>
<path d="M141.989 148.644C141.858 148.644 141.701 148.594 141.596 148.493C141.386 148.293 141.412 147.967 141.622 147.791L148.614 141.595C148.824 141.395 149.164 141.42 149.347 141.62C149.557 141.821 149.531 142.147 149.321 142.323L142.329 148.518C142.251 148.594 142.12 148.644 141.989 148.644Z" fill="black"/>
<path d="M148.195 153.786C148.064 153.786 147.933 153.736 147.828 153.66C147.619 153.485 147.592 153.159 147.802 152.958L154.244 146.236C154.427 146.035 154.768 146.01 154.977 146.211C155.187 146.386 155.213 146.712 155.003 146.913L148.561 153.61C148.483 153.736 148.326 153.786 148.195 153.786Z" fill="black"/>
<path d="M155.031 159.455C154.926 159.455 154.847 159.43 154.769 159.379C154.533 159.229 154.455 158.928 154.586 158.677L159.666 150.751C159.823 150.525 160.137 150.45 160.399 150.575C160.635 150.726 160.713 151.027 160.583 151.278L155.502 159.204C155.371 159.379 155.214 159.455 155.031 159.455Z" fill="black"/>
<path d="M161.08 164.471C161.028 164.471 160.949 164.471 160.897 164.446C160.635 164.346 160.478 164.07 160.583 163.794L164.092 154.664C164.196 154.413 164.485 154.263 164.773 154.363C165.034 154.463 165.192 154.739 165.087 155.015L161.578 164.145C161.499 164.346 161.29 164.471 161.08 164.471Z" fill="black"/>
<path d="M166.474 169.012C166.448 169.012 166.396 169.012 166.369 169.012C166.081 168.961 165.898 168.685 165.95 168.41L168.124 158.351C168.176 158.075 168.464 157.9 168.752 157.95C169.04 158 169.224 158.276 169.171 158.552L166.998 168.61C166.945 168.861 166.71 169.012 166.474 169.012Z" fill="black"/>
<path d="M169.172 171.319C169.041 171.319 168.936 171.269 168.831 171.194L131.436 140.09C131.226 139.915 131.2 139.589 131.383 139.388C131.567 139.187 131.907 139.162 132.117 139.338L169.512 170.441C169.722 170.617 169.748 170.943 169.565 171.144C169.46 171.269 169.329 171.319 169.172 171.319Z" fill="black"/>
<path d="M207.667 182.983C206.724 182.983 206.069 181.754 205.676 180.725C205.467 180.199 205.31 179.672 205.126 179.17C204.184 176.411 203.372 174.053 199.915 170.516C199.156 169.739 197.715 168.51 195.882 166.98L195.07 166.302L194.232 165.048L204.55 152.381L205.807 153.284C213.14 160.884 218.063 166.378 219.268 173.2C219.844 176.386 219.399 177.715 218.901 178.267C218.639 178.568 218.273 178.719 217.854 178.719C217.566 178.719 217.356 178.669 217.277 178.643L216.623 178.443L216.597 179.095C216.597 179.245 216.544 179.797 216.309 180.349C215.968 181.152 215.34 181.553 214.475 181.553C214.24 181.553 213.978 181.528 213.69 181.453L213.297 181.378L213.114 181.704C213.009 181.904 212.38 182.857 211.228 182.857C210.704 182.857 210.154 182.682 209.526 182.306L209.159 182.08L208.871 182.381C208.845 182.456 208.295 182.983 207.667 182.983Z" fill="white"/>
<path d="M204.682 153.084L205.494 153.66C212.748 161.185 217.592 166.603 218.797 173.301C219.006 174.404 219.373 177.038 218.535 177.966C218.378 178.167 218.168 178.242 217.88 178.242C217.671 178.242 217.514 178.192 217.461 178.192L216.152 177.791L216.1 179.12C216.1 179.246 216.047 179.722 215.864 180.199C215.523 180.976 214.974 181.077 214.528 181.077C214.319 181.077 214.109 181.052 213.874 181.001L213.114 180.851L212.721 181.503C212.669 181.603 212.171 182.406 211.281 182.406C210.862 182.406 210.391 182.256 209.867 181.929L209.16 181.503L208.558 182.08C208.4 182.23 208.034 182.506 207.693 182.506C207.196 182.506 206.646 181.779 206.201 180.575C206.017 180.048 205.834 179.521 205.651 179.045C204.734 176.361 203.87 173.828 200.335 170.19C199.549 169.388 198.109 168.159 196.249 166.629L195.516 166.001L194.914 165.098L204.682 153.084ZM204.472 151.679L193.604 165.023L194.678 166.629L195.542 167.356C197.376 168.886 198.79 170.09 199.549 170.843C202.927 174.304 203.739 176.637 204.629 179.321C204.813 179.822 204.97 180.349 205.179 180.876C205.808 182.607 206.646 183.46 207.641 183.46C208.453 183.46 209.108 182.858 209.265 182.732C209.946 183.159 210.626 183.359 211.229 183.359C212.695 183.359 213.455 182.18 213.586 181.955C213.9 182.03 214.214 182.055 214.476 182.055C215.838 182.055 216.492 181.227 216.78 180.55C217.042 179.948 217.095 179.321 217.095 179.12C217.226 179.17 217.488 179.22 217.854 179.22C218.456 179.22 218.954 178.995 219.321 178.593C220.132 177.665 220.29 175.834 219.792 173.1C218.535 166.127 213.586 160.583 206.148 152.883L204.472 151.679Z" fill="black"/>
<path d="M194.678 166.629C188.707 161.612 176.321 151.202 171.005 139.89C164.301 125.617 167.469 110.116 167.496 109.965V109.94L174.278 105.526L182.291 110.342V110.367C184.675 121.453 191.719 137.983 201.487 148.092C202.299 148.92 203.058 149.722 203.818 150.5C204.629 151.328 205.415 152.13 206.174 152.933L206.201 152.958L194.704 166.679L194.678 166.629Z" fill="#FDC858"/>
<path d="M181.271 154.664C181.14 154.664 180.983 154.614 180.878 154.488C176.164 149.447 172.708 144.605 170.587 140.09C166.344 131.06 165.951 121.679 166.37 115.383C166.396 115.107 166.632 114.907 166.92 114.907C167.208 114.932 167.418 115.158 167.418 115.434C166.999 121.604 167.365 130.81 171.529 139.639C173.624 144.079 177.029 148.819 181.664 153.786C181.847 153.987 181.847 154.313 181.611 154.488C181.533 154.614 181.402 154.664 181.271 154.664Z" fill="black"/>
<path d="M38.1293 167.607C36.0604 167.607 34.3059 167.205 32.6823 166.378L32.6299 166.353L55.8582 134.146H55.8844C55.9368 134.171 61.698 135.751 74.5299 140.968L83.9312 145.258L83.8788 145.308C82.8837 146.487 81.3648 147.64 79.5841 148.97C77.0701 150.851 74.2418 153.008 72.0421 155.893C68.6377 160.308 67.4593 166.001 67.4331 166.077V166.127L67.3807 166.102C64.1334 165.023 61.4361 164.496 59.1316 164.496C58.6864 164.496 58.2674 164.522 57.8746 164.547C53.4751 164.948 49.8089 165.7 46.5878 166.378C43.3929 167.03 40.6171 167.607 38.1293 167.607Z" fill="#FDC858"/>
<path d="M170.821 109.238C168.281 109.238 166.212 107.256 166.212 104.823C166.212 102.39 168.281 100.409 170.821 100.409C173.361 100.409 175.43 102.39 175.43 104.823C175.43 107.256 173.361 109.238 170.821 109.238Z" fill="white"/>
<path d="M170.821 100.885C173.073 100.885 174.906 102.641 174.906 104.798C174.906 106.955 173.073 108.711 170.821 108.711C168.569 108.711 166.736 106.955 166.736 104.798C166.736 102.641 168.569 100.885 170.821 100.885ZM170.821 99.8818C167.993 99.8818 165.688 102.089 165.688 104.798C165.688 107.507 167.993 109.715 170.821 109.715C173.649 109.715 175.954 107.507 175.954 104.798C175.954 102.089 173.649 99.8818 170.821 99.8818Z" fill="black"/>
<path d="M180.982 112.925C178.52 112.925 176.321 111.27 174.828 108.235C170.088 98.6778 171.607 94.8902 175.587 91.9304C175.614 91.9053 179.437 89.2214 183.863 89.2214C185.355 89.2214 186.77 89.5224 188.053 90.1244C191.405 91.6796 192.217 97.825 189.912 104.422C188.157 109.514 184.57 112.925 180.982 112.925Z" fill="white"/>
<path d="M183.863 89.698C185.277 89.698 186.612 89.9739 187.817 90.5508C190.881 91.9806 191.588 98.0006 189.415 104.246C187.712 109.138 184.308 112.423 180.956 112.423C178.704 112.423 176.687 110.868 175.273 108.009C170.69 98.7531 172.078 95.1411 175.876 92.3066C176.059 92.2063 179.673 89.698 183.863 89.698ZM183.863 88.6946C179.175 88.6946 175.247 91.5291 175.247 91.5291C170.743 94.8902 169.748 99.1795 174.331 108.46C176.033 111.897 178.468 113.452 180.956 113.452C184.648 113.452 188.498 110.091 190.41 104.597C192.819 97.6494 191.824 91.3284 188.262 89.6729C186.822 88.9706 185.303 88.6946 183.863 88.6946Z" fill="black"/>
<path d="M188.288 89.6729C181.95 86.7131 175.246 91.5542 175.246 91.5542C172.444 93.6361 171.004 96.0942 171.423 99.9069L191.038 92.9839C190.488 91.4037 189.545 90.2499 188.288 89.6729Z" fill="black"/>
<path d="M175.98 90.6261C178.467 90.6261 180.484 88.6945 180.484 86.3117C180.484 83.929 178.467 81.9974 175.98 81.9974C173.492 81.9974 171.476 83.929 171.476 86.3117C171.476 88.6945 173.492 90.6261 175.98 90.6261Z" fill="black"/>
<path d="M186.115 104.046C185.931 104.046 185.748 103.945 185.643 103.77C185.512 103.519 185.591 103.218 185.853 103.092C186.115 102.967 186.324 102.766 186.455 102.516C186.717 102.014 186.56 100.484 186.403 99.2046C186.377 98.9287 186.56 98.6778 186.848 98.6527C187.136 98.6277 187.398 98.8032 187.424 99.0792C187.712 101.286 187.686 102.34 187.372 102.967C187.136 103.393 186.769 103.745 186.324 103.97C186.272 104.021 186.193 104.046 186.115 104.046Z" fill="black"/>
<path d="M183.444 100.96C183.156 100.96 182.92 100.735 182.92 100.459V99.932C182.92 99.6561 183.156 99.4303 183.444 99.4303C183.732 99.4303 183.967 99.6561 183.967 99.932V100.459C183.967 100.735 183.732 100.96 183.444 100.96Z" fill="black"/>
<path d="M189.363 99.6561C189.075 99.6561 188.839 99.4303 188.839 99.1544V98.6527C188.839 98.3768 189.075 98.1511 189.363 98.1511C189.651 98.1511 189.886 98.3768 189.886 98.6527V99.1544C189.886 99.4303 189.651 99.6561 189.363 99.6561Z" fill="black"/>
<path d="M184.36 106.654C183.155 106.654 182.16 105.751 182.107 104.598C182.081 104.322 182.317 104.096 182.605 104.071C182.893 104.046 183.129 104.271 183.155 104.547C183.181 105.2 183.757 105.701 184.438 105.651C184.491 105.651 184.569 105.626 184.648 105.626C184.936 105.551 185.224 105.726 185.276 106.002C185.355 106.278 185.171 106.554 184.883 106.604C184.779 106.629 184.621 106.679 184.464 106.679C184.438 106.654 184.412 106.654 184.36 106.654Z" fill="black"/>
<path d="M169.721 105.852C169.512 105.852 169.302 105.726 169.224 105.5C169.145 105.25 169.276 104.949 169.564 104.873L172.785 103.845C173.047 103.77 173.361 103.895 173.44 104.171C173.518 104.422 173.387 104.723 173.099 104.798L169.878 105.827C169.826 105.852 169.774 105.852 169.721 105.852Z" fill="black"/>
<path d="M187.58 161.035C187.476 161.035 187.345 161.01 187.266 160.935C187.031 160.759 187.004 160.458 187.188 160.232L199.234 145.835C199.417 145.609 199.732 145.584 199.967 145.759C200.203 145.935 200.229 146.236 200.046 146.462L188 160.859C187.895 160.96 187.738 161.035 187.58 161.035Z" fill="black"/>
<path d="M209.264 182.657C209.264 182.657 209.238 182.657 209.264 182.657C208.95 182.657 208.741 182.406 208.741 182.13C209.003 176.411 205.624 170.341 205.572 170.266C205.441 170.015 205.52 169.714 205.781 169.588C206.043 169.463 206.358 169.538 206.489 169.789C206.646 170.04 210.024 176.185 209.762 182.155C209.788 182.456 209.552 182.657 209.264 182.657Z" fill="black"/>
<path d="M213.297 181.879C213.271 181.879 213.271 181.879 213.245 181.879C212.957 181.854 212.747 181.603 212.773 181.327C213.297 175.132 208.871 168.309 208.819 168.234C208.662 168.008 208.74 167.682 208.976 167.532C209.212 167.381 209.552 167.456 209.709 167.682C209.893 167.983 214.371 174.856 213.821 181.378C213.795 181.679 213.559 181.879 213.297 181.879Z" fill="black"/>
<path d="M216.624 179.296C216.362 179.296 216.126 179.095 216.1 178.819C215.576 171.344 212.198 166.478 212.145 166.428C211.988 166.202 212.041 165.876 212.276 165.726C212.512 165.575 212.853 165.625 213.01 165.851C213.167 166.052 216.571 170.968 217.121 178.744C217.147 179.02 216.912 179.271 216.624 179.271C216.65 179.296 216.65 179.296 216.624 179.296Z" fill="black"/>
<path d="M63.7404 165.525C63.7142 165.525 63.6619 165.525 63.6357 165.525C63.3476 165.475 63.1643 165.199 63.2429 164.923L64.4999 159.53C64.5522 159.254 64.8403 159.079 65.1284 159.154C65.4164 159.204 65.5997 159.48 65.5212 159.756L64.2642 165.149C64.1856 165.374 63.9761 165.525 63.7404 165.525Z" fill="black"/>
<path d="M58.399 165.224C58.1109 165.224 57.8753 164.998 57.8753 164.722L57.7705 159.079C57.7705 158.803 58.0062 158.577 58.2943 158.577C58.5823 158.577 58.818 158.803 58.818 159.079L58.9228 164.722C58.9228 164.998 58.6871 165.224 58.399 165.224Z" fill="black"/>
<path d="M52.9252 165.625C52.7157 165.625 52.5062 165.5 52.4277 165.274L50.804 160.659C50.6993 160.408 50.8564 160.107 51.1445 160.032C51.4064 159.931 51.7206 160.082 51.7992 160.358L53.4228 164.973C53.5276 165.224 53.3704 165.525 53.0824 165.6C53.03 165.625 52.9776 165.625 52.9252 165.625Z" fill="black"/>
<path d="M156.261 239.872C156.052 239.872 155.868 239.772 155.79 239.571C155.659 239.32 155.79 239.019 156.052 238.919L161.42 236.611C161.682 236.486 161.996 236.611 162.101 236.862C162.232 237.113 162.101 237.414 161.839 237.514L156.471 239.822C156.418 239.847 156.34 239.872 156.261 239.872Z" fill="black"/>
<path d="M154.114 234.203C153.852 234.203 153.617 234.027 153.59 233.777C153.564 233.501 153.747 233.25 154.036 233.225L159.509 232.548C159.797 232.522 160.059 232.698 160.085 232.974C160.111 233.25 159.928 233.501 159.64 233.526L154.166 234.203C154.166 234.203 154.14 234.203 154.114 234.203Z" fill="black"/>
<path d="M160.294 244.512C160.163 244.512 160.006 244.462 159.901 244.337C159.718 244.136 159.718 243.81 159.927 243.634L163.646 240.424C163.855 240.248 164.196 240.248 164.379 240.449C164.562 240.649 164.562 240.976 164.353 241.151L160.634 244.362C160.556 244.462 160.425 244.512 160.294 244.512Z" fill="black"/>
<path d="M144.686 252.263C144.424 252.263 144.188 252.087 144.162 251.812C143.167 243.91 136.83 240.399 131.016 240.399C130.728 240.399 130.492 240.173 130.492 239.897C130.492 239.621 130.728 239.395 131.016 239.395C137.301 239.395 144.136 243.208 145.21 251.711C145.236 251.987 145.052 252.238 144.764 252.263C144.738 252.263 144.712 252.263 144.686 252.263Z" fill="black"/>
<path d="M54.025 147.239C51.7467 147.239 49.547 146.737 47.5567 145.759C47.2948 145.634 47.1901 145.333 47.321 145.082C47.452 144.831 47.7662 144.731 48.0281 144.856C52.2181 146.938 56.3819 146.286 59.1316 145.358C63.1383 144.028 66.6998 141.219 68.0091 138.41C68.1139 138.159 68.4281 138.034 68.69 138.159C68.9519 138.284 69.0828 138.56 68.9519 138.811C67.5377 141.871 63.7144 144.881 59.4458 146.311C57.6913 146.913 55.8319 147.239 54.025 147.239Z" fill="black"/>
<path d="M148.484 160.809C148.353 160.809 148.196 160.759 148.091 160.659C147.881 160.458 147.908 160.132 148.117 159.956L151.652 156.746C151.862 156.545 152.202 156.57 152.386 156.771C152.569 156.971 152.569 157.298 152.359 157.473L148.824 160.684C148.746 160.759 148.615 160.809 148.484 160.809Z" fill="black"/>
</svg>
