<svg width="502" height="319" viewBox="0 0 502 319" fill="none" xmlns="http://www.w3.org/2000/svg">
<circle cx="70.5" cy="41.5" r="1.5" fill="#D4C0E2"/>
<circle cx="70.5" cy="205.5" r="1.5" fill="#D4C0E2"/>
<circle cx="70.5" cy="123.5" r="1.5" fill="#D4C0E2"/>
<circle cx="70.5" cy="287.5" r="1.5" fill="#D4C0E2"/>
<circle cx="292.5" cy="41.5" r="1.5" fill="#D4C0E2"/>
<circle cx="292.5" cy="205.5" r="1.5" fill="#D4C0E2"/>
<circle cx="292.5" cy="123.5" r="1.5" fill="#D4C0E2"/>
<circle cx="292.5" cy="287.5" r="1.5" fill="#D4C0E2"/>
<circle cx="70.5" cy="1.5" r="1.5" fill="#D4C0E2"/>
<circle cx="70.5" cy="165.5" r="1.5" fill="#D4C0E2"/>
<circle cx="70.5" cy="83.5" r="1.5" fill="#D4C0E2"/>
<circle cx="70.5" cy="247.5" r="1.5" fill="#D4C0E2"/>
<circle cx="292.5" cy="1.5" r="1.5" fill="#D4C0E2"/>
<circle cx="292.5" cy="165.5" r="1.5" fill="#D4C0E2"/>
<circle cx="292.5" cy="83.5" r="1.5" fill="#D4C0E2"/>
<circle cx="292.5" cy="247.5" r="1.5" fill="#D4C0E2"/>
<circle cx="70.5" cy="61.5" r="1.5" fill="#D4C0E2"/>
<circle cx="70.5" cy="225.5" r="1.5" fill="#D4C0E2"/>
<circle cx="70.5" cy="143.5" r="1.5" fill="#D4C0E2"/>
<circle cx="70.5" cy="307.5" r="1.5" fill="#D4C0E2"/>
<circle cx="292.5" cy="61.5" r="1.5" fill="#D4C0E2"/>
<circle cx="292.5" cy="225.5" r="1.5" fill="#D4C0E2"/>
<circle cx="292.5" cy="143.5" r="1.5" fill="#D4C0E2"/>
<circle cx="292.5" cy="307.5" r="1.5" fill="#D4C0E2"/>
<circle cx="70.5" cy="21.5" r="1.5" fill="#D4C0E2"/>
<circle cx="70.5" cy="185.5" r="1.5" fill="#D4C0E2"/>
<circle cx="70.5" cy="103.5" r="1.5" fill="#D4C0E2"/>
<circle cx="70.5" cy="267.5" r="1.5" fill="#D4C0E2"/>
<circle cx="292.5" cy="21.5" r="1.5" fill="#D4C0E2"/>
<circle cx="292.5" cy="185.5" r="1.5" fill="#D4C0E2"/>
<circle cx="292.5" cy="103.5" r="1.5" fill="#D4C0E2"/>
<circle cx="292.5" cy="267.5" r="1.5" fill="#D4C0E2"/>
<circle cx="181.5" cy="41.5" r="1.5" fill="#D4C0E2"/>
<circle cx="181.5" cy="205.5" r="1.5" fill="#D4C0E2"/>
<circle cx="181.5" cy="123.5" r="1.5" fill="#D4C0E2"/>
<circle cx="181.5" cy="287.5" r="1.5" fill="#D4C0E2"/>
<circle cx="403.5" cy="41.5" r="1.5" fill="#D4C0E2"/>
<circle cx="403.5" cy="205.5" r="1.5" fill="#D4C0E2"/>
<circle cx="403.5" cy="123.5" r="1.5" fill="#D4C0E2"/>
<circle cx="403.5" cy="287.5" r="1.5" fill="#D4C0E2"/>
<circle cx="181.5" cy="1.5" r="1.5" fill="#D4C0E2"/>
<circle cx="181.5" cy="165.5" r="1.5" fill="#D4C0E2"/>
<circle cx="181.5" cy="83.5" r="1.5" fill="#D4C0E2"/>
<circle cx="181.5" cy="247.5" r="1.5" fill="#D4C0E2"/>
<circle cx="403.5" cy="1.5" r="1.5" fill="#D4C0E2"/>
<circle cx="403.5" cy="165.5" r="1.5" fill="#D4C0E2"/>
<circle cx="403.5" cy="83.5" r="1.5" fill="#D4C0E2"/>
<circle cx="403.5" cy="247.5" r="1.5" fill="#D4C0E2"/>
<circle cx="181.5" cy="61.5" r="1.5" fill="#D4C0E2"/>
<circle cx="181.5" cy="225.5" r="1.5" fill="#D4C0E2"/>
<circle cx="181.5" cy="143.5" r="1.5" fill="#D4C0E2"/>
<circle cx="181.5" cy="307.5" r="1.5" fill="#D4C0E2"/>
<circle cx="403.5" cy="61.5" r="1.5" fill="#D4C0E2"/>
<circle cx="403.5" cy="225.5" r="1.5" fill="#D4C0E2"/>
<circle cx="403.5" cy="143.5" r="1.5" fill="#D4C0E2"/>
<circle cx="403.5" cy="307.5" r="1.5" fill="#D4C0E2"/>
<circle cx="181.5" cy="21.5" r="1.5" fill="#D4C0E2"/>
<circle cx="181.5" cy="185.5" r="1.5" fill="#D4C0E2"/>
<circle cx="181.5" cy="103.5" r="1.5" fill="#D4C0E2"/>
<circle cx="181.5" cy="267.5" r="1.5" fill="#D4C0E2"/>
<circle cx="403.5" cy="21.5" r="1.5" fill="#D4C0E2"/>
<circle cx="403.5" cy="185.5" r="1.5" fill="#D4C0E2"/>
<circle cx="403.5" cy="103.5" r="1.5" fill="#D4C0E2"/>
<circle cx="403.5" cy="267.5" r="1.5" fill="#D4C0E2"/>
<circle cx="70.5" cy="51.5" r="1.5" fill="#D4C0E2"/>
<circle cx="70.5" cy="215.5" r="1.5" fill="#D4C0E2"/>
<circle cx="70.5" cy="133.5" r="1.5" fill="#D4C0E2"/>
<circle cx="70.5" cy="297.5" r="1.5" fill="#D4C0E2"/>
<circle cx="292.5" cy="51.5" r="1.5" fill="#D4C0E2"/>
<circle cx="292.5" cy="215.5" r="1.5" fill="#D4C0E2"/>
<circle cx="292.5" cy="133.5" r="1.5" fill="#D4C0E2"/>
<circle cx="292.5" cy="297.5" r="1.5" fill="#D4C0E2"/>
<circle cx="70.5" cy="11.5" r="1.5" fill="#D4C0E2"/>
<circle cx="70.5" cy="175.5" r="1.5" fill="#D4C0E2"/>
<circle cx="70.5" cy="93.5" r="1.5" fill="#D4C0E2"/>
<circle cx="70.5" cy="257.5" r="1.5" fill="#D4C0E2"/>
<circle cx="292.5" cy="11.5" r="1.5" fill="#D4C0E2"/>
<circle cx="292.5" cy="175.5" r="1.5" fill="#D4C0E2"/>
<circle cx="292.5" cy="93.5" r="1.5" fill="#D4C0E2"/>
<circle cx="292.5" cy="257.5" r="1.5" fill="#D4C0E2"/>
<circle cx="70.5" cy="71.5" r="1.5" fill="#D4C0E2"/>
<circle cx="70.5" cy="235.5" r="1.5" fill="#D4C0E2"/>
<circle cx="70.5" cy="153.5" r="1.5" fill="#D4C0E2"/>
<circle cx="70.5" cy="317.5" r="1.5" fill="#D4C0E2"/>
<circle cx="292.5" cy="71.5" r="1.5" fill="#D4C0E2"/>
<circle cx="292.5" cy="235.5" r="1.5" fill="#D4C0E2"/>
<circle cx="292.5" cy="153.5" r="1.5" fill="#D4C0E2"/>
<circle cx="292.5" cy="317.5" r="1.5" fill="#D4C0E2"/>
<circle cx="70.5" cy="31.5" r="1.5" fill="#D4C0E2"/>
<circle cx="70.5" cy="195.5" r="1.5" fill="#D4C0E2"/>
<circle cx="70.5" cy="113.5" r="1.5" fill="#D4C0E2"/>
<circle cx="70.5" cy="277.5" r="1.5" fill="#D4C0E2"/>
<circle cx="292.5" cy="31.5" r="1.5" fill="#D4C0E2"/>
<circle cx="292.5" cy="195.5" r="1.5" fill="#D4C0E2"/>
<circle cx="292.5" cy="113.5" r="1.5" fill="#D4C0E2"/>
<circle cx="292.5" cy="277.5" r="1.5" fill="#D4C0E2"/>
<circle cx="181.5" cy="51.5" r="1.5" fill="#D4C0E2"/>
<circle cx="181.5" cy="215.5" r="1.5" fill="#D4C0E2"/>
<circle cx="181.5" cy="133.5" r="1.5" fill="#D4C0E2"/>
<circle cx="181.5" cy="297.5" r="1.5" fill="#D4C0E2"/>
<circle cx="403.5" cy="51.5" r="1.5" fill="#D4C0E2"/>
<circle cx="403.5" cy="215.5" r="1.5" fill="#D4C0E2"/>
<circle cx="403.5" cy="133.5" r="1.5" fill="#D4C0E2"/>
<circle cx="403.5" cy="297.5" r="1.5" fill="#D4C0E2"/>
<circle cx="181.5" cy="11.5" r="1.5" fill="#D4C0E2"/>
<circle cx="181.5" cy="175.5" r="1.5" fill="#D4C0E2"/>
<circle cx="181.5" cy="93.5" r="1.5" fill="#D4C0E2"/>
<circle cx="181.5" cy="257.5" r="1.5" fill="#D4C0E2"/>
<circle cx="403.5" cy="11.5" r="1.5" fill="#D4C0E2"/>
<circle cx="403.5" cy="175.5" r="1.5" fill="#D4C0E2"/>
<circle cx="403.5" cy="93.5" r="1.5" fill="#D4C0E2"/>
<circle cx="403.5" cy="257.5" r="1.5" fill="#D4C0E2"/>
<circle cx="181.5" cy="71.5" r="1.5" fill="#D4C0E2"/>
<circle cx="181.5" cy="235.5" r="1.5" fill="#D4C0E2"/>
<circle cx="181.5" cy="153.5" r="1.5" fill="#D4C0E2"/>
<circle cx="181.5" cy="317.5" r="1.5" fill="#D4C0E2"/>
<circle cx="403.5" cy="71.5" r="1.5" fill="#D4C0E2"/>
<circle cx="403.5" cy="235.5" r="1.5" fill="#D4C0E2"/>
<circle cx="403.5" cy="153.5" r="1.5" fill="#D4C0E2"/>
<circle cx="403.5" cy="317.5" r="1.5" fill="#D4C0E2"/>
<circle cx="181.5" cy="31.5" r="1.5" fill="#D4C0E2"/>
<circle cx="181.5" cy="195.5" r="1.5" fill="#D4C0E2"/>
<circle cx="181.5" cy="113.5" r="1.5" fill="#D4C0E2"/>
<circle cx="181.5" cy="277.5" r="1.5" fill="#D4C0E2"/>
<circle cx="403.5" cy="31.5" r="1.5" fill="#D4C0E2"/>
<circle cx="403.5" cy="195.5" r="1.5" fill="#D4C0E2"/>
<circle cx="403.5" cy="113.5" r="1.5" fill="#D4C0E2"/>
<circle cx="403.5" cy="277.5" r="1.5" fill="#D4C0E2"/>
<circle cx="125.5" cy="41.5" r="1.5" fill="#D4C0E2"/>
<circle cx="125.5" cy="205.5" r="1.5" fill="#D4C0E2"/>
<circle cx="125.5" cy="123.5" r="1.5" fill="#D4C0E2"/>
<circle cx="125.5" cy="287.5" r="1.5" fill="#D4C0E2"/>
<circle cx="347.5" cy="41.5" r="1.5" fill="#D4C0E2"/>
<circle cx="347.5" cy="205.5" r="1.5" fill="#D4C0E2"/>
<circle cx="347.5" cy="123.5" r="1.5" fill="#D4C0E2"/>
<circle cx="347.5" cy="287.5" r="1.5" fill="#D4C0E2"/>
<circle cx="125.5" cy="1.5" r="1.5" fill="#D4C0E2"/>
<circle cx="125.5" cy="165.5" r="1.5" fill="#D4C0E2"/>
<circle cx="125.5" cy="83.5" r="1.5" fill="#D4C0E2"/>
<circle cx="125.5" cy="247.5" r="1.5" fill="#D4C0E2"/>
<circle cx="347.5" cy="1.5" r="1.5" fill="#D4C0E2"/>
<circle cx="347.5" cy="165.5" r="1.5" fill="#D4C0E2"/>
<circle cx="347.5" cy="83.5" r="1.5" fill="#D4C0E2"/>
<circle cx="347.5" cy="247.5" r="1.5" fill="#D4C0E2"/>
<circle cx="125.5" cy="61.5" r="1.5" fill="#D4C0E2"/>
<circle cx="125.5" cy="225.5" r="1.5" fill="#D4C0E2"/>
<circle cx="125.5" cy="143.5" r="1.5" fill="#D4C0E2"/>
<circle cx="125.5" cy="307.5" r="1.5" fill="#D4C0E2"/>
<circle cx="347.5" cy="61.5" r="1.5" fill="#D4C0E2"/>
<circle cx="347.5" cy="225.5" r="1.5" fill="#D4C0E2"/>
<circle cx="347.5" cy="143.5" r="1.5" fill="#D4C0E2"/>
<circle cx="347.5" cy="307.5" r="1.5" fill="#D4C0E2"/>
<circle cx="125.5" cy="21.5" r="1.5" fill="#D4C0E2"/>
<circle cx="125.5" cy="185.5" r="1.5" fill="#D4C0E2"/>
<circle cx="125.5" cy="103.5" r="1.5" fill="#D4C0E2"/>
<circle cx="125.5" cy="267.5" r="1.5" fill="#D4C0E2"/>
<circle cx="347.5" cy="21.5" r="1.5" fill="#D4C0E2"/>
<circle cx="347.5" cy="185.5" r="1.5" fill="#D4C0E2"/>
<circle cx="347.5" cy="103.5" r="1.5" fill="#D4C0E2"/>
<circle cx="347.5" cy="267.5" r="1.5" fill="#D4C0E2"/>
<circle cx="236.5" cy="41.5" r="1.5" fill="#D4C0E2"/>
<circle cx="236.5" cy="205.5" r="1.5" fill="#D4C0E2"/>
<circle cx="236.5" cy="123.5" r="1.5" fill="#D4C0E2"/>
<circle cx="236.5" cy="287.5" r="1.5" fill="#D4C0E2"/>
<circle cx="458.5" cy="41.5" r="1.5" fill="#D4C0E2"/>
<circle cx="458.5" cy="205.5" r="1.5" fill="#D4C0E2"/>
<circle cx="458.5" cy="123.5" r="1.5" fill="#D4C0E2"/>
<circle cx="458.5" cy="287.5" r="1.5" fill="#D4C0E2"/>
<circle cx="236.5" cy="1.5" r="1.5" fill="#D4C0E2"/>
<circle cx="236.5" cy="165.5" r="1.5" fill="#D4C0E2"/>
<circle cx="236.5" cy="83.5" r="1.5" fill="#D4C0E2"/>
<circle cx="236.5" cy="247.5" r="1.5" fill="#D4C0E2"/>
<circle cx="458.5" cy="1.5" r="1.5" fill="#D4C0E2"/>
<circle cx="458.5" cy="165.5" r="1.5" fill="#D4C0E2"/>
<circle cx="458.5" cy="83.5" r="1.5" fill="#D4C0E2"/>
<circle cx="458.5" cy="247.5" r="1.5" fill="#D4C0E2"/>
<circle cx="236.5" cy="61.5" r="1.5" fill="#D4C0E2"/>
<circle cx="236.5" cy="225.5" r="1.5" fill="#D4C0E2"/>
<circle cx="236.5" cy="143.5" r="1.5" fill="#D4C0E2"/>
<circle cx="236.5" cy="307.5" r="1.5" fill="#D4C0E2"/>
<circle cx="458.5" cy="61.5" r="1.5" fill="#D4C0E2"/>
<circle cx="458.5" cy="225.5" r="1.5" fill="#D4C0E2"/>
<circle cx="458.5" cy="143.5" r="1.5" fill="#D4C0E2"/>
<circle cx="458.5" cy="307.5" r="1.5" fill="#D4C0E2"/>
<circle cx="236.5" cy="21.5" r="1.5" fill="#D4C0E2"/>
<circle cx="236.5" cy="185.5" r="1.5" fill="#D4C0E2"/>
<circle cx="236.5" cy="103.5" r="1.5" fill="#D4C0E2"/>
<circle cx="236.5" cy="267.5" r="1.5" fill="#D4C0E2"/>
<circle cx="458.5" cy="21.5" r="1.5" fill="#D4C0E2"/>
<circle cx="458.5" cy="185.5" r="1.5" fill="#D4C0E2"/>
<circle cx="458.5" cy="103.5" r="1.5" fill="#D4C0E2"/>
<circle cx="458.5" cy="267.5" r="1.5" fill="#D4C0E2"/>
<circle cx="125.5" cy="51.5" r="1.5" fill="#D4C0E2"/>
<circle cx="125.5" cy="215.5" r="1.5" fill="#D4C0E2"/>
<circle cx="125.5" cy="133.5" r="1.5" fill="#D4C0E2"/>
<circle cx="125.5" cy="297.5" r="1.5" fill="#D4C0E2"/>
<circle cx="347.5" cy="51.5" r="1.5" fill="#D4C0E2"/>
<circle cx="347.5" cy="215.5" r="1.5" fill="#D4C0E2"/>
<circle cx="347.5" cy="133.5" r="1.5" fill="#D4C0E2"/>
<circle cx="347.5" cy="297.5" r="1.5" fill="#D4C0E2"/>
<circle cx="125.5" cy="11.5" r="1.5" fill="#D4C0E2"/>
<circle cx="125.5" cy="175.5" r="1.5" fill="#D4C0E2"/>
<circle cx="125.5" cy="93.5" r="1.5" fill="#D4C0E2"/>
<circle cx="125.5" cy="257.5" r="1.5" fill="#D4C0E2"/>
<circle cx="347.5" cy="11.5" r="1.5" fill="#D4C0E2"/>
<circle cx="347.5" cy="175.5" r="1.5" fill="#D4C0E2"/>
<circle cx="347.5" cy="93.5" r="1.5" fill="#D4C0E2"/>
<circle cx="347.5" cy="257.5" r="1.5" fill="#D4C0E2"/>
<circle cx="125.5" cy="71.5" r="1.5" fill="#D4C0E2"/>
<circle cx="125.5" cy="235.5" r="1.5" fill="#D4C0E2"/>
<circle cx="125.5" cy="153.5" r="1.5" fill="#D4C0E2"/>
<circle cx="125.5" cy="317.5" r="1.5" fill="#D4C0E2"/>
<circle cx="347.5" cy="71.5" r="1.5" fill="#D4C0E2"/>
<circle cx="347.5" cy="235.5" r="1.5" fill="#D4C0E2"/>
<circle cx="347.5" cy="153.5" r="1.5" fill="#D4C0E2"/>
<circle cx="347.5" cy="317.5" r="1.5" fill="#D4C0E2"/>
<circle cx="125.5" cy="31.5" r="1.5" fill="#D4C0E2"/>
<circle cx="125.5" cy="195.5" r="1.5" fill="#D4C0E2"/>
<circle cx="125.5" cy="113.5" r="1.5" fill="#D4C0E2"/>
<circle cx="125.5" cy="277.5" r="1.5" fill="#D4C0E2"/>
<circle cx="347.5" cy="31.5" r="1.5" fill="#D4C0E2"/>
<circle cx="347.5" cy="195.5" r="1.5" fill="#D4C0E2"/>
<circle cx="347.5" cy="113.5" r="1.5" fill="#D4C0E2"/>
<circle cx="347.5" cy="277.5" r="1.5" fill="#D4C0E2"/>
<circle cx="236.5" cy="51.5" r="1.5" fill="#D4C0E2"/>
<circle cx="236.5" cy="215.5" r="1.5" fill="#D4C0E2"/>
<circle cx="236.5" cy="133.5" r="1.5" fill="#D4C0E2"/>
<circle cx="236.5" cy="297.5" r="1.5" fill="#D4C0E2"/>
<circle cx="458.5" cy="51.5" r="1.5" fill="#D4C0E2"/>
<circle cx="458.5" cy="215.5" r="1.5" fill="#D4C0E2"/>
<circle cx="458.5" cy="133.5" r="1.5" fill="#D4C0E2"/>
<circle cx="458.5" cy="297.5" r="1.5" fill="#D4C0E2"/>
<circle cx="236.5" cy="11.5" r="1.5" fill="#D4C0E2"/>
<circle cx="236.5" cy="175.5" r="1.5" fill="#D4C0E2"/>
<circle cx="236.5" cy="93.5" r="1.5" fill="#D4C0E2"/>
<circle cx="236.5" cy="257.5" r="1.5" fill="#D4C0E2"/>
<circle cx="458.5" cy="11.5" r="1.5" fill="#D4C0E2"/>
<circle cx="458.5" cy="175.5" r="1.5" fill="#D4C0E2"/>
<circle cx="458.5" cy="93.5" r="1.5" fill="#D4C0E2"/>
<circle cx="458.5" cy="257.5" r="1.5" fill="#D4C0E2"/>
<circle cx="236.5" cy="71.5" r="1.5" fill="#D4C0E2"/>
<circle cx="236.5" cy="235.5" r="1.5" fill="#D4C0E2"/>
<circle cx="236.5" cy="153.5" r="1.5" fill="#D4C0E2"/>
<circle cx="236.5" cy="317.5" r="1.5" fill="#D4C0E2"/>
<circle cx="458.5" cy="71.5" r="1.5" fill="#D4C0E2"/>
<circle cx="458.5" cy="235.5" r="1.5" fill="#D4C0E2"/>
<circle cx="458.5" cy="153.5" r="1.5" fill="#D4C0E2"/>
<circle cx="458.5" cy="317.5" r="1.5" fill="#D4C0E2"/>
<circle cx="236.5" cy="31.5" r="1.5" fill="#D4C0E2"/>
<circle cx="236.5" cy="195.5" r="1.5" fill="#D4C0E2"/>
<circle cx="236.5" cy="113.5" r="1.5" fill="#D4C0E2"/>
<circle cx="236.5" cy="277.5" r="1.5" fill="#D4C0E2"/>
<circle cx="458.5" cy="31.5" r="1.5" fill="#D4C0E2"/>
<circle cx="458.5" cy="195.5" r="1.5" fill="#D4C0E2"/>
<circle cx="458.5" cy="113.5" r="1.5" fill="#D4C0E2"/>
<circle cx="458.5" cy="277.5" r="1.5" fill="#D4C0E2"/>
<circle cx="98.5" cy="41.5" r="1.5" fill="#D4C0E2"/>
<circle cx="98.5" cy="205.5" r="1.5" fill="#D4C0E2"/>
<circle cx="98.5" cy="123.5" r="1.5" fill="#D4C0E2"/>
<circle cx="98.5" cy="287.5" r="1.5" fill="#D4C0E2"/>
<circle cx="320.5" cy="41.5" r="1.5" fill="#D4C0E2"/>
<circle cx="320.5" cy="205.5" r="1.5" fill="#D4C0E2"/>
<circle cx="320.5" cy="123.5" r="1.5" fill="#D4C0E2"/>
<circle cx="320.5" cy="287.5" r="1.5" fill="#D4C0E2"/>
<circle cx="98.5" cy="1.5" r="1.5" fill="#D4C0E2"/>
<circle cx="98.5" cy="165.5" r="1.5" fill="#D4C0E2"/>
<circle cx="98.5" cy="83.5" r="1.5" fill="#D4C0E2"/>
<circle cx="98.5" cy="247.5" r="1.5" fill="#D4C0E2"/>
<circle cx="320.5" cy="1.5" r="1.5" fill="#D4C0E2"/>
<circle cx="320.5" cy="165.5" r="1.5" fill="#D4C0E2"/>
<circle cx="320.5" cy="83.5" r="1.5" fill="#D4C0E2"/>
<circle cx="320.5" cy="247.5" r="1.5" fill="#D4C0E2"/>
<circle cx="98.5" cy="61.5" r="1.5" fill="#D4C0E2"/>
<circle cx="98.5" cy="225.5" r="1.5" fill="#D4C0E2"/>
<circle cx="98.5" cy="143.5" r="1.5" fill="#D4C0E2"/>
<circle cx="98.5" cy="307.5" r="1.5" fill="#D4C0E2"/>
<circle cx="320.5" cy="61.5" r="1.5" fill="#D4C0E2"/>
<circle cx="320.5" cy="225.5" r="1.5" fill="#D4C0E2"/>
<circle cx="320.5" cy="143.5" r="1.5" fill="#D4C0E2"/>
<circle cx="320.5" cy="307.5" r="1.5" fill="#D4C0E2"/>
<circle cx="98.5" cy="21.5" r="1.5" fill="#D4C0E2"/>
<circle cx="98.5" cy="185.5" r="1.5" fill="#D4C0E2"/>
<circle cx="98.5" cy="103.5" r="1.5" fill="#D4C0E2"/>
<circle cx="98.5" cy="267.5" r="1.5" fill="#D4C0E2"/>
<circle cx="320.5" cy="21.5" r="1.5" fill="#D4C0E2"/>
<circle cx="320.5" cy="185.5" r="1.5" fill="#D4C0E2"/>
<circle cx="320.5" cy="103.5" r="1.5" fill="#D4C0E2"/>
<circle cx="320.5" cy="267.5" r="1.5" fill="#D4C0E2"/>
<circle cx="209.5" cy="41.5" r="1.5" fill="#D4C0E2"/>
<circle cx="209.5" cy="205.5" r="1.5" fill="#D4C0E2"/>
<circle cx="209.5" cy="123.5" r="1.5" fill="#D4C0E2"/>
<circle cx="209.5" cy="287.5" r="1.5" fill="#D4C0E2"/>
<circle cx="431.5" cy="41.5" r="1.5" fill="#D4C0E2"/>
<circle cx="431.5" cy="205.5" r="1.5" fill="#D4C0E2"/>
<circle cx="431.5" cy="123.5" r="1.5" fill="#D4C0E2"/>
<circle cx="431.5" cy="287.5" r="1.5" fill="#D4C0E2"/>
<circle cx="209.5" cy="1.5" r="1.5" fill="#D4C0E2"/>
<circle cx="209.5" cy="165.5" r="1.5" fill="#D4C0E2"/>
<circle cx="209.5" cy="83.5" r="1.5" fill="#D4C0E2"/>
<circle cx="209.5" cy="247.5" r="1.5" fill="#D4C0E2"/>
<circle cx="431.5" cy="1.5" r="1.5" fill="#D4C0E2"/>
<circle cx="431.5" cy="165.5" r="1.5" fill="#D4C0E2"/>
<circle cx="431.5" cy="83.5" r="1.5" fill="#D4C0E2"/>
<circle cx="431.5" cy="247.5" r="1.5" fill="#D4C0E2"/>
<circle cx="209.5" cy="61.5" r="1.5" fill="#D4C0E2"/>
<circle cx="209.5" cy="225.5" r="1.5" fill="#D4C0E2"/>
<circle cx="209.5" cy="143.5" r="1.5" fill="#D4C0E2"/>
<circle cx="209.5" cy="307.5" r="1.5" fill="#D4C0E2"/>
<circle cx="431.5" cy="61.5" r="1.5" fill="#D4C0E2"/>
<circle cx="431.5" cy="225.5" r="1.5" fill="#D4C0E2"/>
<circle cx="431.5" cy="143.5" r="1.5" fill="#D4C0E2"/>
<circle cx="431.5" cy="307.5" r="1.5" fill="#D4C0E2"/>
<circle cx="209.5" cy="21.5" r="1.5" fill="#D4C0E2"/>
<circle cx="209.5" cy="185.5" r="1.5" fill="#D4C0E2"/>
<circle cx="209.5" cy="103.5" r="1.5" fill="#D4C0E2"/>
<circle cx="209.5" cy="267.5" r="1.5" fill="#D4C0E2"/>
<circle cx="431.5" cy="21.5" r="1.5" fill="#D4C0E2"/>
<circle cx="431.5" cy="185.5" r="1.5" fill="#D4C0E2"/>
<circle cx="431.5" cy="103.5" r="1.5" fill="#D4C0E2"/>
<circle cx="431.5" cy="267.5" r="1.5" fill="#D4C0E2"/>
<circle cx="98.5" cy="51.5" r="1.5" fill="#D4C0E2"/>
<circle cx="98.5" cy="215.5" r="1.5" fill="#D4C0E2"/>
<circle cx="98.5" cy="133.5" r="1.5" fill="#D4C0E2"/>
<circle cx="98.5" cy="297.5" r="1.5" fill="#D4C0E2"/>
<circle cx="320.5" cy="51.5" r="1.5" fill="#D4C0E2"/>
<circle cx="320.5" cy="215.5" r="1.5" fill="#D4C0E2"/>
<circle cx="320.5" cy="133.5" r="1.5" fill="#D4C0E2"/>
<circle cx="320.5" cy="297.5" r="1.5" fill="#D4C0E2"/>
<circle cx="98.5" cy="11.5" r="1.5" fill="#D4C0E2"/>
<circle cx="98.5" cy="175.5" r="1.5" fill="#D4C0E2"/>
<circle cx="98.5" cy="93.5" r="1.5" fill="#D4C0E2"/>
<circle cx="98.5" cy="257.5" r="1.5" fill="#D4C0E2"/>
<circle cx="320.5" cy="11.5" r="1.5" fill="#D4C0E2"/>
<circle cx="320.5" cy="175.5" r="1.5" fill="#D4C0E2"/>
<circle cx="320.5" cy="93.5" r="1.5" fill="#D4C0E2"/>
<circle cx="320.5" cy="257.5" r="1.5" fill="#D4C0E2"/>
<circle cx="98.5" cy="71.5" r="1.5" fill="#D4C0E2"/>
<circle cx="98.5" cy="235.5" r="1.5" fill="#D4C0E2"/>
<circle cx="98.5" cy="153.5" r="1.5" fill="#D4C0E2"/>
<circle cx="98.5" cy="317.5" r="1.5" fill="#D4C0E2"/>
<circle cx="320.5" cy="71.5" r="1.5" fill="#D4C0E2"/>
<circle cx="320.5" cy="235.5" r="1.5" fill="#D4C0E2"/>
<circle cx="320.5" cy="153.5" r="1.5" fill="#D4C0E2"/>
<circle cx="320.5" cy="317.5" r="1.5" fill="#D4C0E2"/>
<circle cx="98.5" cy="31.5" r="1.5" fill="#D4C0E2"/>
<circle cx="98.5" cy="195.5" r="1.5" fill="#D4C0E2"/>
<circle cx="98.5" cy="113.5" r="1.5" fill="#D4C0E2"/>
<circle cx="98.5" cy="277.5" r="1.5" fill="#D4C0E2"/>
<circle cx="320.5" cy="31.5" r="1.5" fill="#D4C0E2"/>
<circle cx="320.5" cy="195.5" r="1.5" fill="#D4C0E2"/>
<circle cx="320.5" cy="113.5" r="1.5" fill="#D4C0E2"/>
<circle cx="320.5" cy="277.5" r="1.5" fill="#D4C0E2"/>
<circle cx="209.5" cy="51.5" r="1.5" fill="#D4C0E2"/>
<circle cx="209.5" cy="215.5" r="1.5" fill="#D4C0E2"/>
<circle cx="209.5" cy="133.5" r="1.5" fill="#D4C0E2"/>
<circle cx="209.5" cy="297.5" r="1.5" fill="#D4C0E2"/>
<circle cx="431.5" cy="51.5" r="1.5" fill="#D4C0E2"/>
<circle cx="431.5" cy="215.5" r="1.5" fill="#D4C0E2"/>
<circle cx="431.5" cy="133.5" r="1.5" fill="#D4C0E2"/>
<circle cx="431.5" cy="297.5" r="1.5" fill="#D4C0E2"/>
<circle cx="209.5" cy="11.5" r="1.5" fill="#D4C0E2"/>
<circle cx="209.5" cy="175.5" r="1.5" fill="#D4C0E2"/>
<circle cx="209.5" cy="93.5" r="1.5" fill="#D4C0E2"/>
<circle cx="209.5" cy="257.5" r="1.5" fill="#D4C0E2"/>
<circle cx="431.5" cy="11.5" r="1.5" fill="#D4C0E2"/>
<circle cx="431.5" cy="175.5" r="1.5" fill="#D4C0E2"/>
<circle cx="431.5" cy="93.5" r="1.5" fill="#D4C0E2"/>
<circle cx="431.5" cy="257.5" r="1.5" fill="#D4C0E2"/>
<circle cx="209.5" cy="71.5" r="1.5" fill="#D4C0E2"/>
<circle cx="209.5" cy="235.5" r="1.5" fill="#D4C0E2"/>
<circle cx="209.5" cy="153.5" r="1.5" fill="#D4C0E2"/>
<circle cx="209.5" cy="317.5" r="1.5" fill="#D4C0E2"/>
<circle cx="431.5" cy="71.5" r="1.5" fill="#D4C0E2"/>
<circle cx="431.5" cy="235.5" r="1.5" fill="#D4C0E2"/>
<circle cx="431.5" cy="153.5" r="1.5" fill="#D4C0E2"/>
<circle cx="431.5" cy="317.5" r="1.5" fill="#D4C0E2"/>
<circle cx="209.5" cy="31.5" r="1.5" fill="#D4C0E2"/>
<circle cx="209.5" cy="195.5" r="1.5" fill="#D4C0E2"/>
<circle cx="209.5" cy="113.5" r="1.5" fill="#D4C0E2"/>
<circle cx="209.5" cy="277.5" r="1.5" fill="#D4C0E2"/>
<circle cx="431.5" cy="31.5" r="1.5" fill="#D4C0E2"/>
<circle cx="431.5" cy="195.5" r="1.5" fill="#D4C0E2"/>
<circle cx="431.5" cy="113.5" r="1.5" fill="#D4C0E2"/>
<circle cx="431.5" cy="277.5" r="1.5" fill="#D4C0E2"/>
<circle cx="153.5" cy="41.5" r="1.5" fill="#D4C0E2"/>
<circle cx="153.5" cy="205.5" r="1.5" fill="#D4C0E2"/>
<circle cx="153.5" cy="123.5" r="1.5" fill="#D4C0E2"/>
<circle cx="153.5" cy="287.5" r="1.5" fill="#D4C0E2"/>
<circle cx="375.5" cy="41.5" r="1.5" fill="#D4C0E2"/>
<circle cx="375.5" cy="205.5" r="1.5" fill="#D4C0E2"/>
<circle cx="375.5" cy="123.5" r="1.5" fill="#D4C0E2"/>
<circle cx="375.5" cy="287.5" r="1.5" fill="#D4C0E2"/>
<circle cx="153.5" cy="1.5" r="1.5" fill="#D4C0E2"/>
<circle cx="153.5" cy="165.5" r="1.5" fill="#D4C0E2"/>
<circle cx="153.5" cy="83.5" r="1.5" fill="#D4C0E2"/>
<circle cx="153.5" cy="247.5" r="1.5" fill="#D4C0E2"/>
<circle cx="375.5" cy="1.5" r="1.5" fill="#D4C0E2"/>
<circle cx="375.5" cy="165.5" r="1.5" fill="#D4C0E2"/>
<circle cx="375.5" cy="83.5" r="1.5" fill="#D4C0E2"/>
<circle cx="375.5" cy="247.5" r="1.5" fill="#D4C0E2"/>
<circle cx="153.5" cy="61.5" r="1.5" fill="#D4C0E2"/>
<circle cx="153.5" cy="225.5" r="1.5" fill="#D4C0E2"/>
<circle cx="153.5" cy="143.5" r="1.5" fill="#D4C0E2"/>
<circle cx="153.5" cy="307.5" r="1.5" fill="#D4C0E2"/>
<circle cx="375.5" cy="61.5" r="1.5" fill="#D4C0E2"/>
<circle cx="375.5" cy="225.5" r="1.5" fill="#D4C0E2"/>
<circle cx="375.5" cy="143.5" r="1.5" fill="#D4C0E2"/>
<circle cx="375.5" cy="307.5" r="1.5" fill="#D4C0E2"/>
<circle cx="153.5" cy="21.5" r="1.5" fill="#D4C0E2"/>
<circle cx="153.5" cy="185.5" r="1.5" fill="#D4C0E2"/>
<circle cx="153.5" cy="103.5" r="1.5" fill="#D4C0E2"/>
<circle cx="153.5" cy="267.5" r="1.5" fill="#D4C0E2"/>
<circle cx="375.5" cy="21.5" r="1.5" fill="#D4C0E2"/>
<circle cx="375.5" cy="185.5" r="1.5" fill="#D4C0E2"/>
<circle cx="375.5" cy="103.5" r="1.5" fill="#D4C0E2"/>
<circle cx="375.5" cy="267.5" r="1.5" fill="#D4C0E2"/>
<circle cx="264.5" cy="41.5" r="1.5" fill="#D4C0E2"/>
<circle cx="264.5" cy="205.5" r="1.5" fill="#D4C0E2"/>
<circle cx="264.5" cy="123.5" r="1.5" fill="#D4C0E2"/>
<circle cx="264.5" cy="287.5" r="1.5" fill="#D4C0E2"/>
<circle cx="486.5" cy="41.5" r="1.5" fill="#D4C0E2"/>
<circle cx="486.5" cy="205.5" r="1.5" fill="#D4C0E2"/>
<circle cx="486.5" cy="123.5" r="1.5" fill="#D4C0E2"/>
<circle cx="486.5" cy="287.5" r="1.5" fill="#D4C0E2"/>
<circle cx="264.5" cy="1.5" r="1.5" fill="#D4C0E2"/>
<circle cx="264.5" cy="165.5" r="1.5" fill="#D4C0E2"/>
<circle cx="264.5" cy="83.5" r="1.5" fill="#D4C0E2"/>
<circle cx="264.5" cy="247.5" r="1.5" fill="#D4C0E2"/>
<circle cx="486.5" cy="1.5" r="1.5" fill="#D4C0E2"/>
<circle cx="486.5" cy="165.5" r="1.5" fill="#D4C0E2"/>
<circle cx="486.5" cy="83.5" r="1.5" fill="#D4C0E2"/>
<circle cx="486.5" cy="247.5" r="1.5" fill="#D4C0E2"/>
<circle cx="264.5" cy="61.5" r="1.5" fill="#D4C0E2"/>
<circle cx="264.5" cy="225.5" r="1.5" fill="#D4C0E2"/>
<circle cx="264.5" cy="143.5" r="1.5" fill="#D4C0E2"/>
<circle cx="264.5" cy="307.5" r="1.5" fill="#D4C0E2"/>
<circle cx="486.5" cy="61.5" r="1.5" fill="#D4C0E2"/>
<circle cx="486.5" cy="225.5" r="1.5" fill="#D4C0E2"/>
<circle cx="486.5" cy="143.5" r="1.5" fill="#D4C0E2"/>
<circle cx="486.5" cy="307.5" r="1.5" fill="#D4C0E2"/>
<circle cx="264.5" cy="21.5" r="1.5" fill="#D4C0E2"/>
<circle cx="264.5" cy="185.5" r="1.5" fill="#D4C0E2"/>
<circle cx="264.5" cy="103.5" r="1.5" fill="#D4C0E2"/>
<circle cx="264.5" cy="267.5" r="1.5" fill="#D4C0E2"/>
<circle cx="486.5" cy="21.5" r="1.5" fill="#D4C0E2"/>
<circle cx="486.5" cy="185.5" r="1.5" fill="#D4C0E2"/>
<circle cx="486.5" cy="103.5" r="1.5" fill="#D4C0E2"/>
<circle cx="486.5" cy="267.5" r="1.5" fill="#D4C0E2"/>
<circle cx="153.5" cy="51.5" r="1.5" fill="#D4C0E2"/>
<circle cx="153.5" cy="215.5" r="1.5" fill="#D4C0E2"/>
<circle cx="153.5" cy="133.5" r="1.5" fill="#D4C0E2"/>
<circle cx="153.5" cy="297.5" r="1.5" fill="#D4C0E2"/>
<circle cx="375.5" cy="51.5" r="1.5" fill="#D4C0E2"/>
<circle cx="375.5" cy="215.5" r="1.5" fill="#D4C0E2"/>
<circle cx="375.5" cy="133.5" r="1.5" fill="#D4C0E2"/>
<circle cx="375.5" cy="297.5" r="1.5" fill="#D4C0E2"/>
<circle cx="153.5" cy="11.5" r="1.5" fill="#D4C0E2"/>
<circle cx="153.5" cy="175.5" r="1.5" fill="#D4C0E2"/>
<circle cx="153.5" cy="93.5" r="1.5" fill="#D4C0E2"/>
<circle cx="153.5" cy="257.5" r="1.5" fill="#D4C0E2"/>
<circle cx="375.5" cy="11.5" r="1.5" fill="#D4C0E2"/>
<circle cx="375.5" cy="175.5" r="1.5" fill="#D4C0E2"/>
<circle cx="375.5" cy="93.5" r="1.5" fill="#D4C0E2"/>
<circle cx="375.5" cy="257.5" r="1.5" fill="#D4C0E2"/>
<circle cx="153.5" cy="71.5" r="1.5" fill="#D4C0E2"/>
<circle cx="153.5" cy="235.5" r="1.5" fill="#D4C0E2"/>
<circle cx="153.5" cy="153.5" r="1.5" fill="#D4C0E2"/>
<circle cx="153.5" cy="317.5" r="1.5" fill="#D4C0E2"/>
<circle cx="375.5" cy="71.5" r="1.5" fill="#D4C0E2"/>
<circle cx="375.5" cy="235.5" r="1.5" fill="#D4C0E2"/>
<circle cx="375.5" cy="153.5" r="1.5" fill="#D4C0E2"/>
<circle cx="375.5" cy="317.5" r="1.5" fill="#D4C0E2"/>
<circle cx="153.5" cy="31.5" r="1.5" fill="#D4C0E2"/>
<circle cx="153.5" cy="195.5" r="1.5" fill="#D4C0E2"/>
<circle cx="153.5" cy="113.5" r="1.5" fill="#D4C0E2"/>
<circle cx="153.5" cy="277.5" r="1.5" fill="#D4C0E2"/>
<circle cx="375.5" cy="31.5" r="1.5" fill="#D4C0E2"/>
<circle cx="375.5" cy="195.5" r="1.5" fill="#D4C0E2"/>
<circle cx="375.5" cy="113.5" r="1.5" fill="#D4C0E2"/>
<circle cx="375.5" cy="277.5" r="1.5" fill="#D4C0E2"/>
<circle cx="264.5" cy="51.5" r="1.5" fill="#D4C0E2"/>
<circle cx="264.5" cy="215.5" r="1.5" fill="#D4C0E2"/>
<circle cx="264.5" cy="133.5" r="1.5" fill="#D4C0E2"/>
<circle cx="264.5" cy="297.5" r="1.5" fill="#D4C0E2"/>
<circle cx="486.5" cy="51.5" r="1.5" fill="#D4C0E2"/>
<circle cx="486.5" cy="215.5" r="1.5" fill="#D4C0E2"/>
<circle cx="486.5" cy="133.5" r="1.5" fill="#D4C0E2"/>
<circle cx="486.5" cy="297.5" r="1.5" fill="#D4C0E2"/>
<circle cx="264.5" cy="11.5" r="1.5" fill="#D4C0E2"/>
<circle cx="264.5" cy="175.5" r="1.5" fill="#D4C0E2"/>
<circle cx="264.5" cy="93.5" r="1.5" fill="#D4C0E2"/>
<circle cx="264.5" cy="257.5" r="1.5" fill="#D4C0E2"/>
<circle cx="486.5" cy="11.5" r="1.5" fill="#D4C0E2"/>
<circle cx="486.5" cy="175.5" r="1.5" fill="#D4C0E2"/>
<circle cx="486.5" cy="93.5" r="1.5" fill="#D4C0E2"/>
<circle cx="486.5" cy="257.5" r="1.5" fill="#D4C0E2"/>
<circle cx="264.5" cy="71.5" r="1.5" fill="#D4C0E2"/>
<circle cx="264.5" cy="235.5" r="1.5" fill="#D4C0E2"/>
<circle cx="264.5" cy="153.5" r="1.5" fill="#D4C0E2"/>
<circle cx="264.5" cy="317.5" r="1.5" fill="#D4C0E2"/>
<circle cx="486.5" cy="71.5" r="1.5" fill="#D4C0E2"/>
<circle cx="486.5" cy="235.5" r="1.5" fill="#D4C0E2"/>
<circle cx="486.5" cy="153.5" r="1.5" fill="#D4C0E2"/>
<circle cx="486.5" cy="317.5" r="1.5" fill="#D4C0E2"/>
<circle cx="264.5" cy="31.5" r="1.5" fill="#D4C0E2"/>
<circle cx="264.5" cy="195.5" r="1.5" fill="#D4C0E2"/>
<circle cx="264.5" cy="113.5" r="1.5" fill="#D4C0E2"/>
<circle cx="264.5" cy="277.5" r="1.5" fill="#D4C0E2"/>
<circle cx="486.5" cy="31.5" r="1.5" fill="#D4C0E2"/>
<circle cx="486.5" cy="195.5" r="1.5" fill="#D4C0E2"/>
<circle cx="486.5" cy="113.5" r="1.5" fill="#D4C0E2"/>
<circle cx="486.5" cy="277.5" r="1.5" fill="#D4C0E2"/>
<circle cx="84.5" cy="41.5" r="1.5" fill="#D4C0E2"/>
<circle cx="84.5" cy="205.5" r="1.5" fill="#D4C0E2"/>
<circle cx="84.5" cy="123.5" r="1.5" fill="#D4C0E2"/>
<circle cx="84.5" cy="287.5" r="1.5" fill="#D4C0E2"/>
<circle cx="306.5" cy="41.5" r="1.5" fill="#D4C0E2"/>
<circle cx="306.5" cy="205.5" r="1.5" fill="#D4C0E2"/>
<circle cx="306.5" cy="123.5" r="1.5" fill="#D4C0E2"/>
<circle cx="306.5" cy="287.5" r="1.5" fill="#D4C0E2"/>
<circle cx="84.5" cy="1.5" r="1.5" fill="#D4C0E2"/>
<circle cx="84.5" cy="165.5" r="1.5" fill="#D4C0E2"/>
<circle cx="84.5" cy="83.5" r="1.5" fill="#D4C0E2"/>
<circle cx="84.5" cy="247.5" r="1.5" fill="#D4C0E2"/>
<circle cx="306.5" cy="1.5" r="1.5" fill="#D4C0E2"/>
<circle cx="306.5" cy="165.5" r="1.5" fill="#D4C0E2"/>
<circle cx="306.5" cy="83.5" r="1.5" fill="#D4C0E2"/>
<circle cx="306.5" cy="247.5" r="1.5" fill="#D4C0E2"/>
<circle cx="84.5" cy="61.5" r="1.5" fill="#D4C0E2"/>
<circle cx="84.5" cy="225.5" r="1.5" fill="#D4C0E2"/>
<circle cx="84.5" cy="143.5" r="1.5" fill="#D4C0E2"/>
<circle cx="84.5" cy="307.5" r="1.5" fill="#D4C0E2"/>
<circle cx="306.5" cy="61.5" r="1.5" fill="#D4C0E2"/>
<circle cx="306.5" cy="225.5" r="1.5" fill="#D4C0E2"/>
<circle cx="306.5" cy="143.5" r="1.5" fill="#D4C0E2"/>
<circle cx="306.5" cy="307.5" r="1.5" fill="#D4C0E2"/>
<circle cx="84.5" cy="21.5" r="1.5" fill="#D4C0E2"/>
<circle cx="84.5" cy="185.5" r="1.5" fill="#D4C0E2"/>
<circle cx="84.5" cy="103.5" r="1.5" fill="#D4C0E2"/>
<circle cx="84.5" cy="267.5" r="1.5" fill="#D4C0E2"/>
<circle cx="306.5" cy="21.5" r="1.5" fill="#D4C0E2"/>
<circle cx="306.5" cy="185.5" r="1.5" fill="#D4C0E2"/>
<circle cx="306.5" cy="103.5" r="1.5" fill="#D4C0E2"/>
<circle cx="306.5" cy="267.5" r="1.5" fill="#D4C0E2"/>
<circle cx="195.5" cy="41.5" r="1.5" fill="#D4C0E2"/>
<circle cx="195.5" cy="205.5" r="1.5" fill="#D4C0E2"/>
<circle cx="195.5" cy="123.5" r="1.5" fill="#D4C0E2"/>
<circle cx="195.5" cy="287.5" r="1.5" fill="#D4C0E2"/>
<circle cx="417.5" cy="41.5" r="1.5" fill="#D4C0E2"/>
<circle cx="417.5" cy="205.5" r="1.5" fill="#D4C0E2"/>
<circle cx="417.5" cy="123.5" r="1.5" fill="#D4C0E2"/>
<circle cx="417.5" cy="287.5" r="1.5" fill="#D4C0E2"/>
<circle cx="195.5" cy="1.5" r="1.5" fill="#D4C0E2"/>
<circle cx="195.5" cy="165.5" r="1.5" fill="#D4C0E2"/>
<circle cx="195.5" cy="83.5" r="1.5" fill="#D4C0E2"/>
<circle cx="195.5" cy="247.5" r="1.5" fill="#D4C0E2"/>
<circle cx="417.5" cy="1.5" r="1.5" fill="#D4C0E2"/>
<circle cx="417.5" cy="165.5" r="1.5" fill="#D4C0E2"/>
<circle cx="417.5" cy="83.5" r="1.5" fill="#D4C0E2"/>
<circle cx="417.5" cy="247.5" r="1.5" fill="#D4C0E2"/>
<circle cx="195.5" cy="61.5" r="1.5" fill="#D4C0E2"/>
<circle cx="195.5" cy="225.5" r="1.5" fill="#D4C0E2"/>
<circle cx="195.5" cy="143.5" r="1.5" fill="#D4C0E2"/>
<circle cx="195.5" cy="307.5" r="1.5" fill="#D4C0E2"/>
<circle cx="417.5" cy="61.5" r="1.5" fill="#D4C0E2"/>
<circle cx="417.5" cy="225.5" r="1.5" fill="#D4C0E2"/>
<circle cx="417.5" cy="143.5" r="1.5" fill="#D4C0E2"/>
<circle cx="417.5" cy="307.5" r="1.5" fill="#D4C0E2"/>
<circle cx="195.5" cy="21.5" r="1.5" fill="#D4C0E2"/>
<circle cx="195.5" cy="185.5" r="1.5" fill="#D4C0E2"/>
<circle cx="195.5" cy="103.5" r="1.5" fill="#D4C0E2"/>
<circle cx="195.5" cy="267.5" r="1.5" fill="#D4C0E2"/>
<circle cx="417.5" cy="21.5" r="1.5" fill="#D4C0E2"/>
<circle cx="417.5" cy="185.5" r="1.5" fill="#D4C0E2"/>
<circle cx="417.5" cy="103.5" r="1.5" fill="#D4C0E2"/>
<circle cx="417.5" cy="267.5" r="1.5" fill="#D4C0E2"/>
<circle cx="84.5" cy="51.5" r="1.5" fill="#D4C0E2"/>
<circle cx="84.5" cy="215.5" r="1.5" fill="#D4C0E2"/>
<circle cx="84.5" cy="133.5" r="1.5" fill="#D4C0E2"/>
<circle cx="84.5" cy="297.5" r="1.5" fill="#D4C0E2"/>
<circle cx="306.5" cy="51.5" r="1.5" fill="#D4C0E2"/>
<circle cx="306.5" cy="215.5" r="1.5" fill="#D4C0E2"/>
<circle cx="306.5" cy="133.5" r="1.5" fill="#D4C0E2"/>
<circle cx="306.5" cy="297.5" r="1.5" fill="#D4C0E2"/>
<circle cx="84.5" cy="11.5" r="1.5" fill="#D4C0E2"/>
<circle cx="84.5" cy="175.5" r="1.5" fill="#D4C0E2"/>
<circle cx="84.5" cy="93.5" r="1.5" fill="#D4C0E2"/>
<circle cx="84.5" cy="257.5" r="1.5" fill="#D4C0E2"/>
<circle cx="306.5" cy="11.5" r="1.5" fill="#D4C0E2"/>
<circle cx="306.5" cy="175.5" r="1.5" fill="#D4C0E2"/>
<circle cx="306.5" cy="93.5" r="1.5" fill="#D4C0E2"/>
<circle cx="306.5" cy="257.5" r="1.5" fill="#D4C0E2"/>
<circle cx="84.5" cy="71.5" r="1.5" fill="#D4C0E2"/>
<circle cx="84.5" cy="235.5" r="1.5" fill="#D4C0E2"/>
<circle cx="84.5" cy="153.5" r="1.5" fill="#D4C0E2"/>
<circle cx="84.5" cy="317.5" r="1.5" fill="#D4C0E2"/>
<circle cx="306.5" cy="71.5" r="1.5" fill="#D4C0E2"/>
<circle cx="306.5" cy="235.5" r="1.5" fill="#D4C0E2"/>
<circle cx="306.5" cy="153.5" r="1.5" fill="#D4C0E2"/>
<circle cx="306.5" cy="317.5" r="1.5" fill="#D4C0E2"/>
<circle cx="84.5" cy="31.5" r="1.5" fill="#D4C0E2"/>
<circle cx="84.5" cy="195.5" r="1.5" fill="#D4C0E2"/>
<circle cx="84.5" cy="113.5" r="1.5" fill="#D4C0E2"/>
<circle cx="84.5" cy="277.5" r="1.5" fill="#D4C0E2"/>
<circle cx="306.5" cy="31.5" r="1.5" fill="#D4C0E2"/>
<circle cx="306.5" cy="195.5" r="1.5" fill="#D4C0E2"/>
<circle cx="306.5" cy="113.5" r="1.5" fill="#D4C0E2"/>
<circle cx="306.5" cy="277.5" r="1.5" fill="#D4C0E2"/>
<circle cx="195.5" cy="51.5" r="1.5" fill="#D4C0E2"/>
<circle cx="195.5" cy="215.5" r="1.5" fill="#D4C0E2"/>
<circle cx="195.5" cy="133.5" r="1.5" fill="#D4C0E2"/>
<circle cx="195.5" cy="297.5" r="1.5" fill="#D4C0E2"/>
<circle cx="417.5" cy="51.5" r="1.5" fill="#D4C0E2"/>
<circle cx="417.5" cy="215.5" r="1.5" fill="#D4C0E2"/>
<circle cx="417.5" cy="133.5" r="1.5" fill="#D4C0E2"/>
<circle cx="417.5" cy="297.5" r="1.5" fill="#D4C0E2"/>
<circle cx="195.5" cy="11.5" r="1.5" fill="#D4C0E2"/>
<circle cx="195.5" cy="175.5" r="1.5" fill="#D4C0E2"/>
<circle cx="195.5" cy="93.5" r="1.5" fill="#D4C0E2"/>
<circle cx="195.5" cy="257.5" r="1.5" fill="#D4C0E2"/>
<circle cx="417.5" cy="11.5" r="1.5" fill="#D4C0E2"/>
<circle cx="417.5" cy="175.5" r="1.5" fill="#D4C0E2"/>
<circle cx="417.5" cy="93.5" r="1.5" fill="#D4C0E2"/>
<circle cx="417.5" cy="257.5" r="1.5" fill="#D4C0E2"/>
<circle cx="195.5" cy="71.5" r="1.5" fill="#D4C0E2"/>
<circle cx="195.5" cy="235.5" r="1.5" fill="#D4C0E2"/>
<circle cx="195.5" cy="153.5" r="1.5" fill="#D4C0E2"/>
<circle cx="195.5" cy="317.5" r="1.5" fill="#D4C0E2"/>
<circle cx="417.5" cy="71.5" r="1.5" fill="#D4C0E2"/>
<circle cx="417.5" cy="235.5" r="1.5" fill="#D4C0E2"/>
<circle cx="417.5" cy="153.5" r="1.5" fill="#D4C0E2"/>
<circle cx="417.5" cy="317.5" r="1.5" fill="#D4C0E2"/>
<circle cx="195.5" cy="31.5" r="1.5" fill="#D4C0E2"/>
<circle cx="195.5" cy="195.5" r="1.5" fill="#D4C0E2"/>
<circle cx="195.5" cy="113.5" r="1.5" fill="#D4C0E2"/>
<circle cx="195.5" cy="277.5" r="1.5" fill="#D4C0E2"/>
<circle cx="417.5" cy="31.5" r="1.5" fill="#D4C0E2"/>
<circle cx="417.5" cy="195.5" r="1.5" fill="#D4C0E2"/>
<circle cx="417.5" cy="113.5" r="1.5" fill="#D4C0E2"/>
<circle cx="417.5" cy="277.5" r="1.5" fill="#D4C0E2"/>
<circle cx="139.5" cy="41.5" r="1.5" fill="#D4C0E2"/>
<circle cx="139.5" cy="205.5" r="1.5" fill="#D4C0E2"/>
<circle cx="139.5" cy="123.5" r="1.5" fill="#D4C0E2"/>
<circle cx="139.5" cy="287.5" r="1.5" fill="#D4C0E2"/>
<circle cx="361.5" cy="41.5" r="1.5" fill="#D4C0E2"/>
<circle cx="361.5" cy="205.5" r="1.5" fill="#D4C0E2"/>
<circle cx="361.5" cy="123.5" r="1.5" fill="#D4C0E2"/>
<circle cx="361.5" cy="287.5" r="1.5" fill="#D4C0E2"/>
<circle cx="139.5" cy="1.5" r="1.5" fill="#D4C0E2"/>
<circle cx="139.5" cy="165.5" r="1.5" fill="#D4C0E2"/>
<circle cx="139.5" cy="83.5" r="1.5" fill="#D4C0E2"/>
<circle cx="139.5" cy="247.5" r="1.5" fill="#D4C0E2"/>
<circle cx="361.5" cy="1.5" r="1.5" fill="#D4C0E2"/>
<circle cx="361.5" cy="165.5" r="1.5" fill="#D4C0E2"/>
<circle cx="361.5" cy="83.5" r="1.5" fill="#D4C0E2"/>
<circle cx="361.5" cy="247.5" r="1.5" fill="#D4C0E2"/>
<circle cx="139.5" cy="61.5" r="1.5" fill="#D4C0E2"/>
<circle cx="139.5" cy="225.5" r="1.5" fill="#D4C0E2"/>
<circle cx="139.5" cy="143.5" r="1.5" fill="#D4C0E2"/>
<circle cx="139.5" cy="307.5" r="1.5" fill="#D4C0E2"/>
<circle cx="361.5" cy="61.5" r="1.5" fill="#D4C0E2"/>
<circle cx="361.5" cy="225.5" r="1.5" fill="#D4C0E2"/>
<circle cx="361.5" cy="143.5" r="1.5" fill="#D4C0E2"/>
<circle cx="361.5" cy="307.5" r="1.5" fill="#D4C0E2"/>
<circle cx="139.5" cy="21.5" r="1.5" fill="#D4C0E2"/>
<circle cx="139.5" cy="185.5" r="1.5" fill="#D4C0E2"/>
<circle cx="139.5" cy="103.5" r="1.5" fill="#D4C0E2"/>
<circle cx="139.5" cy="267.5" r="1.5" fill="#D4C0E2"/>
<circle cx="361.5" cy="21.5" r="1.5" fill="#D4C0E2"/>
<circle cx="361.5" cy="185.5" r="1.5" fill="#D4C0E2"/>
<circle cx="361.5" cy="103.5" r="1.5" fill="#D4C0E2"/>
<circle cx="361.5" cy="267.5" r="1.5" fill="#D4C0E2"/>
<circle cx="250.5" cy="41.5" r="1.5" fill="#D4C0E2"/>
<circle cx="250.5" cy="205.5" r="1.5" fill="#D4C0E2"/>
<circle cx="250.5" cy="123.5" r="1.5" fill="#D4C0E2"/>
<circle cx="250.5" cy="287.5" r="1.5" fill="#D4C0E2"/>
<circle cx="472.5" cy="41.5" r="1.5" fill="#D4C0E2"/>
<circle cx="472.5" cy="205.5" r="1.5" fill="#D4C0E2"/>
<circle cx="472.5" cy="123.5" r="1.5" fill="#D4C0E2"/>
<circle cx="472.5" cy="287.5" r="1.5" fill="#D4C0E2"/>
<circle cx="250.5" cy="1.5" r="1.5" fill="#D4C0E2"/>
<circle cx="250.5" cy="165.5" r="1.5" fill="#D4C0E2"/>
<circle cx="250.5" cy="83.5" r="1.5" fill="#D4C0E2"/>
<circle cx="250.5" cy="247.5" r="1.5" fill="#D4C0E2"/>
<circle cx="472.5" cy="1.5" r="1.5" fill="#D4C0E2"/>
<circle cx="472.5" cy="165.5" r="1.5" fill="#D4C0E2"/>
<circle cx="472.5" cy="83.5" r="1.5" fill="#D4C0E2"/>
<circle cx="472.5" cy="247.5" r="1.5" fill="#D4C0E2"/>
<circle cx="250.5" cy="61.5" r="1.5" fill="#D4C0E2"/>
<circle cx="250.5" cy="225.5" r="1.5" fill="#D4C0E2"/>
<circle cx="250.5" cy="143.5" r="1.5" fill="#D4C0E2"/>
<circle cx="250.5" cy="307.5" r="1.5" fill="#D4C0E2"/>
<circle cx="472.5" cy="61.5" r="1.5" fill="#D4C0E2"/>
<circle cx="472.5" cy="225.5" r="1.5" fill="#D4C0E2"/>
<circle cx="472.5" cy="143.5" r="1.5" fill="#D4C0E2"/>
<circle cx="472.5" cy="307.5" r="1.5" fill="#D4C0E2"/>
<circle cx="250.5" cy="21.5" r="1.5" fill="#D4C0E2"/>
<circle cx="250.5" cy="185.5" r="1.5" fill="#D4C0E2"/>
<circle cx="250.5" cy="103.5" r="1.5" fill="#D4C0E2"/>
<circle cx="250.5" cy="267.5" r="1.5" fill="#D4C0E2"/>
<circle cx="472.5" cy="21.5" r="1.5" fill="#D4C0E2"/>
<circle cx="472.5" cy="185.5" r="1.5" fill="#D4C0E2"/>
<circle cx="472.5" cy="103.5" r="1.5" fill="#D4C0E2"/>
<circle cx="472.5" cy="267.5" r="1.5" fill="#D4C0E2"/>
<circle cx="139.5" cy="51.5" r="1.5" fill="#D4C0E2"/>
<circle cx="139.5" cy="215.5" r="1.5" fill="#D4C0E2"/>
<circle cx="139.5" cy="133.5" r="1.5" fill="#D4C0E2"/>
<circle cx="139.5" cy="297.5" r="1.5" fill="#D4C0E2"/>
<circle cx="361.5" cy="51.5" r="1.5" fill="#D4C0E2"/>
<circle cx="361.5" cy="215.5" r="1.5" fill="#D4C0E2"/>
<circle cx="361.5" cy="133.5" r="1.5" fill="#D4C0E2"/>
<circle cx="361.5" cy="297.5" r="1.5" fill="#D4C0E2"/>
<circle cx="139.5" cy="11.5" r="1.5" fill="#D4C0E2"/>
<circle cx="139.5" cy="175.5" r="1.5" fill="#D4C0E2"/>
<circle cx="139.5" cy="93.5" r="1.5" fill="#D4C0E2"/>
<circle cx="139.5" cy="257.5" r="1.5" fill="#D4C0E2"/>
<circle cx="361.5" cy="11.5" r="1.5" fill="#D4C0E2"/>
<circle cx="361.5" cy="175.5" r="1.5" fill="#D4C0E2"/>
<circle cx="361.5" cy="93.5" r="1.5" fill="#D4C0E2"/>
<circle cx="361.5" cy="257.5" r="1.5" fill="#D4C0E2"/>
<circle cx="139.5" cy="71.5" r="1.5" fill="#D4C0E2"/>
<circle cx="139.5" cy="235.5" r="1.5" fill="#D4C0E2"/>
<circle cx="139.5" cy="153.5" r="1.5" fill="#D4C0E2"/>
<circle cx="139.5" cy="317.5" r="1.5" fill="#D4C0E2"/>
<circle cx="361.5" cy="71.5" r="1.5" fill="#D4C0E2"/>
<circle cx="361.5" cy="235.5" r="1.5" fill="#D4C0E2"/>
<circle cx="361.5" cy="153.5" r="1.5" fill="#D4C0E2"/>
<circle cx="361.5" cy="317.5" r="1.5" fill="#D4C0E2"/>
<circle cx="139.5" cy="31.5" r="1.5" fill="#D4C0E2"/>
<circle cx="139.5" cy="195.5" r="1.5" fill="#D4C0E2"/>
<circle cx="139.5" cy="113.5" r="1.5" fill="#D4C0E2"/>
<circle cx="139.5" cy="277.5" r="1.5" fill="#D4C0E2"/>
<circle cx="361.5" cy="31.5" r="1.5" fill="#D4C0E2"/>
<circle cx="361.5" cy="195.5" r="1.5" fill="#D4C0E2"/>
<circle cx="361.5" cy="113.5" r="1.5" fill="#D4C0E2"/>
<circle cx="361.5" cy="277.5" r="1.5" fill="#D4C0E2"/>
<circle cx="250.5" cy="51.5" r="1.5" fill="#D4C0E2"/>
<circle cx="250.5" cy="215.5" r="1.5" fill="#D4C0E2"/>
<circle cx="250.5" cy="133.5" r="1.5" fill="#D4C0E2"/>
<circle cx="250.5" cy="297.5" r="1.5" fill="#D4C0E2"/>
<circle cx="472.5" cy="51.5" r="1.5" fill="#D4C0E2"/>
<circle cx="472.5" cy="215.5" r="1.5" fill="#D4C0E2"/>
<circle cx="472.5" cy="133.5" r="1.5" fill="#D4C0E2"/>
<circle cx="472.5" cy="297.5" r="1.5" fill="#D4C0E2"/>
<circle cx="250.5" cy="11.5" r="1.5" fill="#D4C0E2"/>
<circle cx="250.5" cy="175.5" r="1.5" fill="#D4C0E2"/>
<circle cx="250.5" cy="93.5" r="1.5" fill="#D4C0E2"/>
<circle cx="250.5" cy="257.5" r="1.5" fill="#D4C0E2"/>
<circle cx="472.5" cy="11.5" r="1.5" fill="#D4C0E2"/>
<circle cx="472.5" cy="175.5" r="1.5" fill="#D4C0E2"/>
<circle cx="472.5" cy="93.5" r="1.5" fill="#D4C0E2"/>
<circle cx="472.5" cy="257.5" r="1.5" fill="#D4C0E2"/>
<circle cx="250.5" cy="71.5" r="1.5" fill="#D4C0E2"/>
<circle cx="250.5" cy="235.5" r="1.5" fill="#D4C0E2"/>
<circle cx="250.5" cy="153.5" r="1.5" fill="#D4C0E2"/>
<circle cx="250.5" cy="317.5" r="1.5" fill="#D4C0E2"/>
<circle cx="472.5" cy="71.5" r="1.5" fill="#D4C0E2"/>
<circle cx="472.5" cy="235.5" r="1.5" fill="#D4C0E2"/>
<circle cx="472.5" cy="153.5" r="1.5" fill="#D4C0E2"/>
<circle cx="472.5" cy="317.5" r="1.5" fill="#D4C0E2"/>
<circle cx="250.5" cy="31.5" r="1.5" fill="#D4C0E2"/>
<circle cx="250.5" cy="195.5" r="1.5" fill="#D4C0E2"/>
<circle cx="250.5" cy="113.5" r="1.5" fill="#D4C0E2"/>
<circle cx="250.5" cy="277.5" r="1.5" fill="#D4C0E2"/>
<circle cx="472.5" cy="31.5" r="1.5" fill="#D4C0E2"/>
<circle cx="472.5" cy="195.5" r="1.5" fill="#D4C0E2"/>
<circle cx="472.5" cy="113.5" r="1.5" fill="#D4C0E2"/>
<circle cx="472.5" cy="277.5" r="1.5" fill="#D4C0E2"/>
<circle cx="112.5" cy="41.5" r="1.5" fill="#D4C0E2"/>
<circle cx="112.5" cy="205.5" r="1.5" fill="#D4C0E2"/>
<circle cx="112.5" cy="123.5" r="1.5" fill="#D4C0E2"/>
<circle cx="112.5" cy="287.5" r="1.5" fill="#D4C0E2"/>
<circle cx="334.5" cy="41.5" r="1.5" fill="#D4C0E2"/>
<circle cx="334.5" cy="205.5" r="1.5" fill="#D4C0E2"/>
<circle cx="334.5" cy="123.5" r="1.5" fill="#D4C0E2"/>
<circle cx="334.5" cy="287.5" r="1.5" fill="#D4C0E2"/>
<circle cx="112.5" cy="1.5" r="1.5" fill="#D4C0E2"/>
<circle cx="112.5" cy="165.5" r="1.5" fill="#D4C0E2"/>
<circle cx="112.5" cy="83.5" r="1.5" fill="#D4C0E2"/>
<circle cx="112.5" cy="247.5" r="1.5" fill="#D4C0E2"/>
<circle cx="334.5" cy="1.5" r="1.5" fill="#D4C0E2"/>
<circle cx="334.5" cy="165.5" r="1.5" fill="#D4C0E2"/>
<circle cx="334.5" cy="83.5" r="1.5" fill="#D4C0E2"/>
<circle cx="334.5" cy="247.5" r="1.5" fill="#D4C0E2"/>
<circle cx="112.5" cy="61.5" r="1.5" fill="#D4C0E2"/>
<circle cx="112.5" cy="225.5" r="1.5" fill="#D4C0E2"/>
<circle cx="112.5" cy="143.5" r="1.5" fill="#D4C0E2"/>
<circle cx="112.5" cy="307.5" r="1.5" fill="#D4C0E2"/>
<circle cx="334.5" cy="61.5" r="1.5" fill="#D4C0E2"/>
<circle cx="334.5" cy="225.5" r="1.5" fill="#D4C0E2"/>
<circle cx="334.5" cy="143.5" r="1.5" fill="#D4C0E2"/>
<circle cx="334.5" cy="307.5" r="1.5" fill="#D4C0E2"/>
<circle cx="112.5" cy="21.5" r="1.5" fill="#D4C0E2"/>
<circle cx="112.5" cy="185.5" r="1.5" fill="#D4C0E2"/>
<circle cx="112.5" cy="103.5" r="1.5" fill="#D4C0E2"/>
<circle cx="112.5" cy="267.5" r="1.5" fill="#D4C0E2"/>
<circle cx="334.5" cy="21.5" r="1.5" fill="#D4C0E2"/>
<circle cx="334.5" cy="185.5" r="1.5" fill="#D4C0E2"/>
<circle cx="334.5" cy="103.5" r="1.5" fill="#D4C0E2"/>
<circle cx="334.5" cy="267.5" r="1.5" fill="#D4C0E2"/>
<circle cx="222.5" cy="41.5" r="1.5" fill="#D4C0E2"/>
<circle cx="222.5" cy="205.5" r="1.5" fill="#D4C0E2"/>
<circle cx="222.5" cy="123.5" r="1.5" fill="#D4C0E2"/>
<circle cx="222.5" cy="287.5" r="1.5" fill="#D4C0E2"/>
<circle cx="444.5" cy="41.5" r="1.5" fill="#D4C0E2"/>
<circle cx="444.5" cy="205.5" r="1.5" fill="#D4C0E2"/>
<circle cx="444.5" cy="123.5" r="1.5" fill="#D4C0E2"/>
<circle cx="444.5" cy="287.5" r="1.5" fill="#D4C0E2"/>
<circle cx="222.5" cy="1.5" r="1.5" fill="#D4C0E2"/>
<circle cx="222.5" cy="165.5" r="1.5" fill="#D4C0E2"/>
<circle cx="222.5" cy="83.5" r="1.5" fill="#D4C0E2"/>
<circle cx="222.5" cy="247.5" r="1.5" fill="#D4C0E2"/>
<circle cx="444.5" cy="1.5" r="1.5" fill="#D4C0E2"/>
<circle cx="444.5" cy="165.5" r="1.5" fill="#D4C0E2"/>
<circle cx="444.5" cy="83.5" r="1.5" fill="#D4C0E2"/>
<circle cx="444.5" cy="247.5" r="1.5" fill="#D4C0E2"/>
<circle cx="222.5" cy="61.5" r="1.5" fill="#D4C0E2"/>
<circle cx="222.5" cy="225.5" r="1.5" fill="#D4C0E2"/>
<circle cx="222.5" cy="143.5" r="1.5" fill="#D4C0E2"/>
<circle cx="222.5" cy="307.5" r="1.5" fill="#D4C0E2"/>
<circle cx="444.5" cy="61.5" r="1.5" fill="#D4C0E2"/>
<circle cx="444.5" cy="225.5" r="1.5" fill="#D4C0E2"/>
<circle cx="444.5" cy="143.5" r="1.5" fill="#D4C0E2"/>
<circle cx="444.5" cy="307.5" r="1.5" fill="#D4C0E2"/>
<circle cx="222.5" cy="21.5" r="1.5" fill="#D4C0E2"/>
<circle cx="222.5" cy="185.5" r="1.5" fill="#D4C0E2"/>
<circle cx="222.5" cy="103.5" r="1.5" fill="#D4C0E2"/>
<circle cx="222.5" cy="267.5" r="1.5" fill="#D4C0E2"/>
<circle cx="444.5" cy="21.5" r="1.5" fill="#D4C0E2"/>
<circle cx="444.5" cy="185.5" r="1.5" fill="#D4C0E2"/>
<circle cx="444.5" cy="103.5" r="1.5" fill="#D4C0E2"/>
<circle cx="444.5" cy="267.5" r="1.5" fill="#D4C0E2"/>
<circle cx="112.5" cy="51.5" r="1.5" fill="#D4C0E2"/>
<circle cx="112.5" cy="215.5" r="1.5" fill="#D4C0E2"/>
<circle cx="112.5" cy="133.5" r="1.5" fill="#D4C0E2"/>
<circle cx="112.5" cy="297.5" r="1.5" fill="#D4C0E2"/>
<circle cx="334.5" cy="51.5" r="1.5" fill="#D4C0E2"/>
<circle cx="334.5" cy="215.5" r="1.5" fill="#D4C0E2"/>
<circle cx="334.5" cy="133.5" r="1.5" fill="#D4C0E2"/>
<circle cx="334.5" cy="297.5" r="1.5" fill="#D4C0E2"/>
<circle cx="112.5" cy="11.5" r="1.5" fill="#D4C0E2"/>
<circle cx="112.5" cy="175.5" r="1.5" fill="#D4C0E2"/>
<circle cx="112.5" cy="93.5" r="1.5" fill="#D4C0E2"/>
<circle cx="112.5" cy="257.5" r="1.5" fill="#D4C0E2"/>
<circle cx="334.5" cy="11.5" r="1.5" fill="#D4C0E2"/>
<circle cx="334.5" cy="175.5" r="1.5" fill="#D4C0E2"/>
<circle cx="334.5" cy="93.5" r="1.5" fill="#D4C0E2"/>
<circle cx="334.5" cy="257.5" r="1.5" fill="#D4C0E2"/>
<circle cx="112.5" cy="71.5" r="1.5" fill="#D4C0E2"/>
<circle cx="112.5" cy="235.5" r="1.5" fill="#D4C0E2"/>
<circle cx="112.5" cy="153.5" r="1.5" fill="#D4C0E2"/>
<circle cx="112.5" cy="317.5" r="1.5" fill="#D4C0E2"/>
<circle cx="334.5" cy="71.5" r="1.5" fill="#D4C0E2"/>
<circle cx="334.5" cy="235.5" r="1.5" fill="#D4C0E2"/>
<circle cx="334.5" cy="153.5" r="1.5" fill="#D4C0E2"/>
<circle cx="334.5" cy="317.5" r="1.5" fill="#D4C0E2"/>
<circle cx="112.5" cy="31.5" r="1.5" fill="#D4C0E2"/>
<circle cx="112.5" cy="195.5" r="1.5" fill="#D4C0E2"/>
<circle cx="112.5" cy="113.5" r="1.5" fill="#D4C0E2"/>
<circle cx="112.5" cy="277.5" r="1.5" fill="#D4C0E2"/>
<circle cx="334.5" cy="31.5" r="1.5" fill="#D4C0E2"/>
<circle cx="334.5" cy="195.5" r="1.5" fill="#D4C0E2"/>
<circle cx="334.5" cy="113.5" r="1.5" fill="#D4C0E2"/>
<circle cx="334.5" cy="277.5" r="1.5" fill="#D4C0E2"/>
<circle cx="222.5" cy="51.5" r="1.5" fill="#D4C0E2"/>
<circle cx="222.5" cy="215.5" r="1.5" fill="#D4C0E2"/>
<circle cx="222.5" cy="133.5" r="1.5" fill="#D4C0E2"/>
<circle cx="222.5" cy="297.5" r="1.5" fill="#D4C0E2"/>
<circle cx="444.5" cy="51.5" r="1.5" fill="#D4C0E2"/>
<circle cx="444.5" cy="215.5" r="1.5" fill="#D4C0E2"/>
<circle cx="444.5" cy="133.5" r="1.5" fill="#D4C0E2"/>
<circle cx="444.5" cy="297.5" r="1.5" fill="#D4C0E2"/>
<circle cx="222.5" cy="11.5" r="1.5" fill="#D4C0E2"/>
<circle cx="222.5" cy="175.5" r="1.5" fill="#D4C0E2"/>
<circle cx="222.5" cy="93.5" r="1.5" fill="#D4C0E2"/>
<circle cx="222.5" cy="257.5" r="1.5" fill="#D4C0E2"/>
<circle cx="444.5" cy="11.5" r="1.5" fill="#D4C0E2"/>
<circle cx="444.5" cy="175.5" r="1.5" fill="#D4C0E2"/>
<circle cx="444.5" cy="93.5" r="1.5" fill="#D4C0E2"/>
<circle cx="444.5" cy="257.5" r="1.5" fill="#D4C0E2"/>
<circle cx="222.5" cy="71.5" r="1.5" fill="#D4C0E2"/>
<circle cx="222.5" cy="235.5" r="1.5" fill="#D4C0E2"/>
<circle cx="222.5" cy="153.5" r="1.5" fill="#D4C0E2"/>
<circle cx="222.5" cy="317.5" r="1.5" fill="#D4C0E2"/>
<circle cx="444.5" cy="71.5" r="1.5" fill="#D4C0E2"/>
<circle cx="444.5" cy="235.5" r="1.5" fill="#D4C0E2"/>
<circle cx="444.5" cy="153.5" r="1.5" fill="#D4C0E2"/>
<circle cx="444.5" cy="317.5" r="1.5" fill="#D4C0E2"/>
<circle cx="222.5" cy="31.5" r="1.5" fill="#D4C0E2"/>
<circle cx="222.5" cy="195.5" r="1.5" fill="#D4C0E2"/>
<circle cx="222.5" cy="113.5" r="1.5" fill="#D4C0E2"/>
<circle cx="222.5" cy="277.5" r="1.5" fill="#D4C0E2"/>
<circle cx="444.5" cy="31.5" r="1.5" fill="#D4C0E2"/>
<circle cx="444.5" cy="195.5" r="1.5" fill="#D4C0E2"/>
<circle cx="444.5" cy="113.5" r="1.5" fill="#D4C0E2"/>
<circle cx="444.5" cy="277.5" r="1.5" fill="#D4C0E2"/>
<circle cx="167.5" cy="41.5" r="1.5" fill="#D4C0E2"/>
<circle cx="167.5" cy="205.5" r="1.5" fill="#D4C0E2"/>
<circle cx="167.5" cy="123.5" r="1.5" fill="#D4C0E2"/>
<circle cx="167.5" cy="287.5" r="1.5" fill="#D4C0E2"/>
<circle cx="389.5" cy="41.5" r="1.5" fill="#D4C0E2"/>
<circle cx="389.5" cy="205.5" r="1.5" fill="#D4C0E2"/>
<circle cx="389.5" cy="123.5" r="1.5" fill="#D4C0E2"/>
<circle cx="389.5" cy="287.5" r="1.5" fill="#D4C0E2"/>
<circle cx="167.5" cy="1.5" r="1.5" fill="#D4C0E2"/>
<circle cx="167.5" cy="165.5" r="1.5" fill="#D4C0E2"/>
<circle cx="167.5" cy="83.5" r="1.5" fill="#D4C0E2"/>
<circle cx="167.5" cy="247.5" r="1.5" fill="#D4C0E2"/>
<circle cx="389.5" cy="1.5" r="1.5" fill="#D4C0E2"/>
<circle cx="389.5" cy="165.5" r="1.5" fill="#D4C0E2"/>
<circle cx="389.5" cy="83.5" r="1.5" fill="#D4C0E2"/>
<circle cx="389.5" cy="247.5" r="1.5" fill="#D4C0E2"/>
<circle cx="167.5" cy="61.5" r="1.5" fill="#D4C0E2"/>
<circle cx="167.5" cy="225.5" r="1.5" fill="#D4C0E2"/>
<circle cx="167.5" cy="143.5" r="1.5" fill="#D4C0E2"/>
<circle cx="167.5" cy="307.5" r="1.5" fill="#D4C0E2"/>
<circle cx="389.5" cy="61.5" r="1.5" fill="#D4C0E2"/>
<circle cx="389.5" cy="225.5" r="1.5" fill="#D4C0E2"/>
<circle cx="389.5" cy="143.5" r="1.5" fill="#D4C0E2"/>
<circle cx="389.5" cy="307.5" r="1.5" fill="#D4C0E2"/>
<circle cx="167.5" cy="21.5" r="1.5" fill="#D4C0E2"/>
<circle cx="167.5" cy="185.5" r="1.5" fill="#D4C0E2"/>
<circle cx="167.5" cy="103.5" r="1.5" fill="#D4C0E2"/>
<circle cx="167.5" cy="267.5" r="1.5" fill="#D4C0E2"/>
<circle cx="389.5" cy="21.5" r="1.5" fill="#D4C0E2"/>
<circle cx="389.5" cy="185.5" r="1.5" fill="#D4C0E2"/>
<circle cx="389.5" cy="103.5" r="1.5" fill="#D4C0E2"/>
<circle cx="389.5" cy="267.5" r="1.5" fill="#D4C0E2"/>
<circle cx="278.5" cy="41.5" r="1.5" fill="#D4C0E2"/>
<circle cx="278.5" cy="205.5" r="1.5" fill="#D4C0E2"/>
<circle cx="278.5" cy="123.5" r="1.5" fill="#D4C0E2"/>
<circle cx="278.5" cy="287.5" r="1.5" fill="#D4C0E2"/>
<circle cx="500.5" cy="41.5" r="1.5" fill="#D4C0E2"/>
<circle cx="500.5" cy="205.5" r="1.5" fill="#D4C0E2"/>
<circle cx="500.5" cy="123.5" r="1.5" fill="#D4C0E2"/>
<circle cx="500.5" cy="287.5" r="1.5" fill="#D4C0E2"/>
<circle cx="278.5" cy="1.5" r="1.5" fill="#D4C0E2"/>
<circle cx="278.5" cy="165.5" r="1.5" fill="#D4C0E2"/>
<circle cx="278.5" cy="83.5" r="1.5" fill="#D4C0E2"/>
<circle cx="278.5" cy="247.5" r="1.5" fill="#D4C0E2"/>
<circle cx="500.5" cy="1.5" r="1.5" fill="#D4C0E2"/>
<circle cx="500.5" cy="165.5" r="1.5" fill="#D4C0E2"/>
<circle cx="500.5" cy="83.5" r="1.5" fill="#D4C0E2"/>
<circle cx="500.5" cy="247.5" r="1.5" fill="#D4C0E2"/>
<circle cx="278.5" cy="61.5" r="1.5" fill="#D4C0E2"/>
<circle cx="278.5" cy="225.5" r="1.5" fill="#D4C0E2"/>
<circle cx="278.5" cy="143.5" r="1.5" fill="#D4C0E2"/>
<circle cx="278.5" cy="307.5" r="1.5" fill="#D4C0E2"/>
<circle cx="500.5" cy="61.5" r="1.5" fill="#D4C0E2"/>
<circle cx="500.5" cy="225.5" r="1.5" fill="#D4C0E2"/>
<circle cx="500.5" cy="143.5" r="1.5" fill="#D4C0E2"/>
<circle cx="500.5" cy="307.5" r="1.5" fill="#D4C0E2"/>
<circle cx="278.5" cy="21.5" r="1.5" fill="#D4C0E2"/>
<circle cx="278.5" cy="185.5" r="1.5" fill="#D4C0E2"/>
<circle cx="278.5" cy="103.5" r="1.5" fill="#D4C0E2"/>
<circle cx="278.5" cy="267.5" r="1.5" fill="#D4C0E2"/>
<circle cx="500.5" cy="21.5" r="1.5" fill="#D4C0E2"/>
<circle cx="500.5" cy="185.5" r="1.5" fill="#D4C0E2"/>
<circle cx="500.5" cy="103.5" r="1.5" fill="#D4C0E2"/>
<circle cx="500.5" cy="267.5" r="1.5" fill="#D4C0E2"/>
<circle cx="167.5" cy="51.5" r="1.5" fill="#D4C0E2"/>
<circle cx="167.5" cy="215.5" r="1.5" fill="#D4C0E2"/>
<circle cx="167.5" cy="133.5" r="1.5" fill="#D4C0E2"/>
<circle cx="167.5" cy="297.5" r="1.5" fill="#D4C0E2"/>
<circle cx="389.5" cy="51.5" r="1.5" fill="#D4C0E2"/>
<circle cx="389.5" cy="215.5" r="1.5" fill="#D4C0E2"/>
<circle cx="389.5" cy="133.5" r="1.5" fill="#D4C0E2"/>
<circle cx="389.5" cy="297.5" r="1.5" fill="#D4C0E2"/>
<circle cx="167.5" cy="11.5" r="1.5" fill="#D4C0E2"/>
<circle cx="167.5" cy="175.5" r="1.5" fill="#D4C0E2"/>
<circle cx="167.5" cy="93.5" r="1.5" fill="#D4C0E2"/>
<circle cx="167.5" cy="257.5" r="1.5" fill="#D4C0E2"/>
<circle cx="389.5" cy="11.5" r="1.5" fill="#D4C0E2"/>
<circle cx="389.5" cy="175.5" r="1.5" fill="#D4C0E2"/>
<circle cx="389.5" cy="93.5" r="1.5" fill="#D4C0E2"/>
<circle cx="389.5" cy="257.5" r="1.5" fill="#D4C0E2"/>
<circle cx="167.5" cy="71.5" r="1.5" fill="#D4C0E2"/>
<circle cx="167.5" cy="235.5" r="1.5" fill="#D4C0E2"/>
<circle cx="167.5" cy="153.5" r="1.5" fill="#D4C0E2"/>
<circle cx="167.5" cy="317.5" r="1.5" fill="#D4C0E2"/>
<circle cx="389.5" cy="71.5" r="1.5" fill="#D4C0E2"/>
<circle cx="389.5" cy="235.5" r="1.5" fill="#D4C0E2"/>
<circle cx="389.5" cy="153.5" r="1.5" fill="#D4C0E2"/>
<circle cx="389.5" cy="317.5" r="1.5" fill="#D4C0E2"/>
<circle cx="167.5" cy="31.5" r="1.5" fill="#D4C0E2"/>
<circle cx="167.5" cy="195.5" r="1.5" fill="#D4C0E2"/>
<circle cx="167.5" cy="113.5" r="1.5" fill="#D4C0E2"/>
<circle cx="167.5" cy="277.5" r="1.5" fill="#D4C0E2"/>
<circle cx="389.5" cy="31.5" r="1.5" fill="#D4C0E2"/>
<circle cx="389.5" cy="195.5" r="1.5" fill="#D4C0E2"/>
<circle cx="389.5" cy="113.5" r="1.5" fill="#D4C0E2"/>
<circle cx="389.5" cy="277.5" r="1.5" fill="#D4C0E2"/>
<circle cx="278.5" cy="51.5" r="1.5" fill="#D4C0E2"/>
<circle cx="278.5" cy="215.5" r="1.5" fill="#D4C0E2"/>
<circle cx="278.5" cy="133.5" r="1.5" fill="#D4C0E2"/>
<circle cx="278.5" cy="297.5" r="1.5" fill="#D4C0E2"/>
<circle cx="500.5" cy="51.5" r="1.5" fill="#D4C0E2"/>
<circle cx="500.5" cy="215.5" r="1.5" fill="#D4C0E2"/>
<circle cx="500.5" cy="133.5" r="1.5" fill="#D4C0E2"/>
<circle cx="500.5" cy="297.5" r="1.5" fill="#D4C0E2"/>
<circle cx="278.5" cy="11.5" r="1.5" fill="#D4C0E2"/>
<circle cx="278.5" cy="175.5" r="1.5" fill="#D4C0E2"/>
<circle cx="278.5" cy="93.5" r="1.5" fill="#D4C0E2"/>
<circle cx="278.5" cy="257.5" r="1.5" fill="#D4C0E2"/>
<circle cx="500.5" cy="11.5" r="1.5" fill="#D4C0E2"/>
<circle cx="500.5" cy="175.5" r="1.5" fill="#D4C0E2"/>
<circle cx="500.5" cy="93.5" r="1.5" fill="#D4C0E2"/>
<circle cx="500.5" cy="257.5" r="1.5" fill="#D4C0E2"/>
<circle cx="278.5" cy="71.5" r="1.5" fill="#D4C0E2"/>
<circle cx="278.5" cy="235.5" r="1.5" fill="#D4C0E2"/>
<circle cx="278.5" cy="153.5" r="1.5" fill="#D4C0E2"/>
<circle cx="278.5" cy="317.5" r="1.5" fill="#D4C0E2"/>
<circle cx="500.5" cy="71.5" r="1.5" fill="#D4C0E2"/>
<circle cx="500.5" cy="235.5" r="1.5" fill="#D4C0E2"/>
<circle cx="500.5" cy="153.5" r="1.5" fill="#D4C0E2"/>
<circle cx="500.5" cy="317.5" r="1.5" fill="#D4C0E2"/>
<circle cx="278.5" cy="31.5" r="1.5" fill="#D4C0E2"/>
<circle cx="278.5" cy="195.5" r="1.5" fill="#D4C0E2"/>
<circle cx="278.5" cy="113.5" r="1.5" fill="#D4C0E2"/>
<circle cx="278.5" cy="277.5" r="1.5" fill="#D4C0E2"/>
<circle cx="500.5" cy="31.5" r="1.5" fill="#D4C0E2"/>
<circle cx="500.5" cy="195.5" r="1.5" fill="#D4C0E2"/>
<circle cx="500.5" cy="113.5" r="1.5" fill="#D4C0E2"/>
<circle cx="500.5" cy="277.5" r="1.5" fill="#D4C0E2"/>
<path d="M38.5 3V308.5" stroke="#D4C0E2"/>
<g filter="url(#filter0_d)">
<rect x="9" y="22" width="393" height="56" rx="10" fill="white"/>
</g>
<g filter="url(#filter1_d)">
<rect x="9" y="98" width="393" height="56" rx="10" fill="white"/>
</g>
<g opacity="0.8" filter="url(#filter2_b)">
<rect x="12" y="174" width="393" height="56" rx="10" fill="white"/>
<rect x="12.5" y="174.5" width="392" height="55" rx="9.5" stroke="white"/>
</g>
<g opacity="0.6" filter="url(#filter3_b)">
<rect x="12" y="250" width="393" height="56" rx="10" fill="white"/>
</g>
<ellipse cx="42.5" cy="50" rx="13.5" ry="12" fill="#F3E2FF"/>
<ellipse cx="42.5" cy="126" rx="13.5" ry="12" fill="#F3E2FF"/>
<ellipse opacity="0.8" cx="42.5" cy="201" rx="13.5" ry="12" fill="#F3E2FF"/>
<ellipse opacity="0.6" cx="42.5" cy="277" rx="13.5" ry="12" fill="#F3E2FF"/>
<path d="M42.022 45.884L39.502 47.954L38.242 46.46L42.22 43.256H44.182V56H42.022V45.884Z" fill="#8862B3"/>
<path d="M39.104 129.24L43.472 124.952C43.824 124.611 44.1013 124.269 44.304 123.928C44.5173 123.576 44.624 123.176 44.624 122.728C44.624 122.195 44.448 121.773 44.096 121.464C43.7547 121.144 43.328 120.984 42.816 120.984C42.272 120.984 41.8347 121.171 41.504 121.544C41.1733 121.907 40.9707 122.365 40.896 122.92L39.024 122.632C39.0773 122.163 39.2107 121.731 39.424 121.336C39.6373 120.941 39.9093 120.6 40.24 120.312C40.5707 120.024 40.9547 119.8 41.392 119.64C41.84 119.469 42.3253 119.384 42.848 119.384C43.3387 119.384 43.808 119.453 44.256 119.592C44.7147 119.731 45.12 119.944 45.472 120.232C45.824 120.509 46.1013 120.856 46.304 121.272C46.5173 121.677 46.624 122.152 46.624 122.696C46.624 123.059 46.576 123.4 46.48 123.72C46.384 124.029 46.2507 124.323 46.08 124.6C45.92 124.877 45.728 125.144 45.504 125.4C45.2907 125.645 45.056 125.885 44.8 126.12L41.536 129.24H46.64V131H39.104V129.24Z" fill="#8862B3"/>
<path opacity="0.8" d="M41.392 199.328H41.904C42.192 199.328 42.4747 199.307 42.752 199.264C43.04 199.211 43.3013 199.12 43.536 198.992C43.7707 198.864 43.9573 198.693 44.096 198.48C44.2453 198.256 44.32 197.968 44.32 197.616C44.32 197.36 44.272 197.131 44.176 196.928C44.08 196.725 43.9467 196.555 43.776 196.416C43.616 196.277 43.424 196.171 43.2 196.096C42.9867 196.021 42.7627 195.984 42.528 195.984C42.0587 195.984 41.6693 196.117 41.36 196.384C41.0507 196.651 40.8373 197.003 40.72 197.44L38.912 196.976C39.008 196.592 39.168 196.245 39.392 195.936C39.6267 195.616 39.904 195.344 40.224 195.12C40.5547 194.885 40.9227 194.704 41.328 194.576C41.7333 194.448 42.16 194.384 42.608 194.384C43.0987 194.384 43.5627 194.453 44 194.592C44.448 194.72 44.8373 194.917 45.168 195.184C45.5093 195.44 45.776 195.76 45.968 196.144C46.16 196.528 46.256 196.976 46.256 197.488C46.256 198.096 46.0693 198.64 45.696 199.12C45.3333 199.589 44.8427 199.899 44.224 200.048V200.08C44.9173 200.219 45.4773 200.533 45.904 201.024C46.3413 201.504 46.56 202.096 46.56 202.8C46.56 203.387 46.4427 203.899 46.208 204.336C45.984 204.773 45.68 205.136 45.296 205.424C44.9227 205.712 44.5013 205.925 44.032 206.064C43.5627 206.213 43.088 206.288 42.608 206.288C42.128 206.288 41.6747 206.235 41.248 206.128C40.8213 206.032 40.4267 205.877 40.064 205.664C39.712 205.451 39.3973 205.173 39.12 204.832C38.8533 204.491 38.6453 204.085 38.496 203.616L40.288 203.056C40.4267 203.504 40.6827 203.883 41.056 204.192C41.44 204.501 41.936 204.656 42.544 204.656C42.7893 204.656 43.0347 204.624 43.28 204.56C43.536 204.485 43.76 204.373 43.952 204.224C44.1547 204.075 44.3147 203.883 44.432 203.648C44.56 203.413 44.624 203.125 44.624 202.784C44.624 202.421 44.5333 202.117 44.352 201.872C44.1813 201.616 43.9627 201.419 43.696 201.28C43.4293 201.131 43.1307 201.024 42.8 200.96C42.48 200.896 42.1707 200.864 41.872 200.864H41.392V199.328Z" fill="#8862B3"/>
<path opacity="0.6" d="M43.568 279.648H38.336V277.952L43.152 270.672H45.456V278H47.04V279.648H45.456V282H43.568V279.648ZM43.568 272.928H43.536L40.32 278H43.568V272.928Z" fill="#8862B3"/>
<path d="M89.99 58H87.13L95.112 39.592H97.452L105.356 58H102.444L100.572 53.476H91.836L89.99 58ZM92.746 51.214H99.636L96.204 42.582L92.746 51.214ZM110.294 64.24H107.85V45.676H110.242V47.6H110.32C110.719 46.9413 111.3 46.404 112.062 45.988C112.842 45.5547 113.744 45.338 114.766 45.338C115.685 45.338 116.517 45.5027 117.262 45.832C118.025 46.1613 118.675 46.6207 119.212 47.21C119.767 47.7993 120.192 48.4927 120.486 49.29C120.781 50.07 120.928 50.9107 120.928 51.812C120.928 52.7133 120.781 53.5627 120.486 54.36C120.192 55.1573 119.776 55.8507 119.238 56.44C118.701 57.0293 118.051 57.4973 117.288 57.844C116.526 58.1733 115.668 58.338 114.714 58.338C113.83 58.338 112.998 58.1473 112.218 57.766C111.438 57.3847 110.823 56.8473 110.372 56.154H110.294V64.24ZM118.406 51.812C118.406 51.24 118.32 50.6853 118.146 50.148C117.973 49.6107 117.713 49.134 117.366 48.718C117.02 48.302 116.586 47.9727 116.066 47.73C115.564 47.4873 114.974 47.366 114.298 47.366C113.674 47.366 113.102 47.4873 112.582 47.73C112.08 47.9727 111.646 48.302 111.282 48.718C110.918 49.134 110.632 49.6107 110.424 50.148C110.234 50.6853 110.138 51.2487 110.138 51.838C110.138 52.4273 110.234 52.9907 110.424 53.528C110.632 54.0653 110.918 54.542 111.282 54.958C111.646 55.3567 112.08 55.6773 112.582 55.92C113.102 56.1627 113.674 56.284 114.298 56.284C114.974 56.284 115.564 56.1627 116.066 55.92C116.586 55.66 117.02 55.322 117.366 54.906C117.713 54.49 117.973 54.0133 118.146 53.476C118.32 52.9387 118.406 52.384 118.406 51.812ZM127.033 64.24H124.589V45.676H126.981V47.6H127.059C127.458 46.9413 128.038 46.404 128.801 45.988C129.581 45.5547 130.482 45.338 131.505 45.338C132.424 45.338 133.256 45.5027 134.001 45.832C134.764 46.1613 135.414 46.6207 135.951 47.21C136.506 47.7993 136.93 48.4927 137.225 49.29C137.52 50.07 137.667 50.9107 137.667 51.812C137.667 52.7133 137.52 53.5627 137.225 54.36C136.93 55.1573 136.514 55.8507 135.977 56.44C135.44 57.0293 134.79 57.4973 134.027 57.844C133.264 58.1733 132.406 58.338 131.453 58.338C130.569 58.338 129.737 58.1473 128.957 57.766C128.177 57.3847 127.562 56.8473 127.111 56.154H127.033V64.24ZM135.145 51.812C135.145 51.24 135.058 50.6853 134.885 50.148C134.712 49.6107 134.452 49.134 134.105 48.718C133.758 48.302 133.325 47.9727 132.805 47.73C132.302 47.4873 131.713 47.366 131.037 47.366C130.413 47.366 129.841 47.4873 129.321 47.73C128.818 47.9727 128.385 48.302 128.021 48.718C127.657 49.134 127.371 49.6107 127.163 50.148C126.972 50.6853 126.877 51.2487 126.877 51.838C126.877 52.4273 126.972 52.9907 127.163 53.528C127.371 54.0653 127.657 54.542 128.021 54.958C128.385 55.3567 128.818 55.6773 129.321 55.92C129.841 56.1627 130.413 56.284 131.037 56.284C131.713 56.284 132.302 56.1627 132.805 55.92C133.325 55.66 133.758 55.322 134.105 54.906C134.452 54.49 134.712 54.0133 134.885 53.476C135.058 52.9387 135.145 52.384 135.145 51.812ZM141.327 48.328C141.327 47.9987 141.319 47.574 141.301 47.054C141.284 46.534 141.258 46.0747 141.223 45.676H143.537C143.572 45.988 143.598 46.352 143.615 46.768C143.633 47.1667 143.641 47.496 143.641 47.756H143.719C144.066 47.028 144.569 46.4473 145.227 46.014C145.903 45.5633 146.657 45.338 147.489 45.338C147.871 45.338 148.191 45.3727 148.451 45.442L148.347 47.704C148.001 47.6173 147.628 47.574 147.229 47.574C146.64 47.574 146.129 47.6867 145.695 47.912C145.262 48.12 144.898 48.406 144.603 48.77C144.326 49.134 144.118 49.5587 143.979 50.044C143.841 50.512 143.771 51.006 143.771 51.526V58H141.327V48.328ZM163.03 51.812C163.03 52.7653 162.857 53.6407 162.51 54.438C162.181 55.2353 161.713 55.9287 161.106 56.518C160.517 57.09 159.815 57.5407 159 57.87C158.186 58.182 157.31 58.338 156.374 58.338C155.438 58.338 154.563 58.182 153.748 57.87C152.934 57.5407 152.232 57.09 151.642 56.518C151.053 55.9287 150.585 55.2353 150.238 54.438C149.909 53.6407 149.744 52.7653 149.744 51.812C149.744 50.8587 149.909 49.992 150.238 49.212C150.585 48.4147 151.053 47.73 151.642 47.158C152.232 46.586 152.934 46.144 153.748 45.832C154.563 45.5027 155.438 45.338 156.374 45.338C157.31 45.338 158.186 45.5027 159 45.832C159.815 46.144 160.517 46.586 161.106 47.158C161.713 47.73 162.181 48.4147 162.51 49.212C162.857 49.992 163.03 50.8587 163.03 51.812ZM160.482 51.812C160.482 51.2227 160.387 50.6593 160.196 50.122C160.023 49.5847 159.763 49.1167 159.416 48.718C159.07 48.302 158.636 47.9727 158.116 47.73C157.614 47.4873 157.033 47.366 156.374 47.366C155.716 47.366 155.126 47.4873 154.606 47.73C154.104 47.9727 153.679 48.302 153.332 48.718C152.986 49.1167 152.717 49.5847 152.526 50.122C152.353 50.6593 152.266 51.2227 152.266 51.812C152.266 52.4013 152.353 52.9647 152.526 53.502C152.717 54.0393 152.986 54.516 153.332 54.932C153.679 55.348 154.104 55.6773 154.606 55.92C155.126 56.1627 155.716 56.284 156.374 56.284C157.033 56.284 157.614 56.1627 158.116 55.92C158.636 55.6773 159.07 55.348 159.416 54.932C159.763 54.516 160.023 54.0393 160.196 53.502C160.387 52.9647 160.482 52.4013 160.482 51.812ZM172.477 58H169.825L164.807 45.676H167.511L171.125 55.374H171.177L174.817 45.676H177.417L172.477 58ZM187.711 50.018C187.711 49.0993 187.434 48.4233 186.879 47.99C186.324 47.5393 185.588 47.314 184.669 47.314C183.976 47.314 183.317 47.4527 182.693 47.73C182.086 47.99 181.575 48.328 181.159 48.744L179.859 47.184C180.466 46.612 181.202 46.1613 182.069 45.832C182.953 45.5027 183.898 45.338 184.903 45.338C185.787 45.338 186.55 45.468 187.191 45.728C187.85 45.9707 188.387 46.3087 188.803 46.742C189.219 47.1753 189.531 47.6867 189.739 48.276C189.947 48.8653 190.051 49.498 190.051 50.174V55.556C190.051 55.972 190.06 56.414 190.077 56.882C190.112 57.3327 190.164 57.7053 190.233 58H188.023C187.884 57.4107 187.815 56.8213 187.815 56.232H187.737C187.286 56.8907 186.714 57.402 186.021 57.766C185.345 58.13 184.539 58.312 183.603 58.312C183.118 58.312 182.606 58.2427 182.069 58.104C181.549 57.9827 181.072 57.7747 180.639 57.48C180.206 57.1853 179.842 56.7953 179.547 56.31C179.27 55.8247 179.131 55.2267 179.131 54.516C179.131 53.58 179.382 52.8433 179.885 52.306C180.388 51.7513 181.046 51.3353 181.861 51.058C182.676 50.7633 183.594 50.5727 184.617 50.486C185.64 50.3993 186.671 50.356 187.711 50.356V50.018ZM187.113 52.124C186.506 52.124 185.874 52.15 185.215 52.202C184.574 52.254 183.984 52.358 183.447 52.514C182.927 52.67 182.494 52.904 182.147 53.216C181.8 53.528 181.627 53.944 181.627 54.464C181.627 54.828 181.696 55.1313 181.835 55.374C181.991 55.6167 182.19 55.816 182.433 55.972C182.676 56.128 182.944 56.2407 183.239 56.31C183.534 56.362 183.837 56.388 184.149 56.388C185.293 56.388 186.168 56.05 186.775 55.374C187.399 54.6807 187.711 53.814 187.711 52.774V52.124H187.113ZM196.889 58H194.445V38.344H196.889V58Z" fill="#30242A"/>
<path d="M88.236 116.592H93.852C94.84 116.592 95.7413 116.696 96.556 116.904C97.3707 117.095 98.064 117.398 98.636 117.814C99.208 118.23 99.65 118.759 99.962 119.4C100.274 120.041 100.43 120.813 100.43 121.714C100.43 122.633 100.257 123.421 99.91 124.08C99.5807 124.739 99.1127 125.276 98.506 125.692C97.9167 126.108 97.206 126.42 96.374 126.628C95.5593 126.819 94.6753 126.914 93.722 126.914H90.81V135H88.236V116.592ZM90.81 124.73H93.54C94.164 124.73 94.736 124.678 95.256 124.574C95.7933 124.453 96.2527 124.279 96.634 124.054C97.0153 123.811 97.31 123.499 97.518 123.118C97.726 122.737 97.83 122.269 97.83 121.714C97.83 121.159 97.7173 120.7 97.492 120.336C97.284 119.955 96.9893 119.651 96.608 119.426C96.244 119.183 95.802 119.019 95.282 118.932C94.762 118.828 94.1987 118.776 93.592 118.776H90.81V124.73ZM110.052 127.018C110.052 126.099 109.774 125.423 109.22 124.99C108.665 124.539 107.928 124.314 107.01 124.314C106.316 124.314 105.658 124.453 105.034 124.73C104.427 124.99 103.916 125.328 103.5 125.744L102.2 124.184C102.806 123.612 103.543 123.161 104.41 122.832C105.294 122.503 106.238 122.338 107.244 122.338C108.128 122.338 108.89 122.468 109.532 122.728C110.19 122.971 110.728 123.309 111.144 123.742C111.56 124.175 111.872 124.687 112.08 125.276C112.288 125.865 112.392 126.498 112.392 127.174V132.556C112.392 132.972 112.4 133.414 112.418 133.882C112.452 134.333 112.504 134.705 112.574 135H110.364C110.225 134.411 110.156 133.821 110.156 133.232H110.078C109.627 133.891 109.055 134.402 108.362 134.766C107.686 135.13 106.88 135.312 105.944 135.312C105.458 135.312 104.947 135.243 104.41 135.104C103.89 134.983 103.413 134.775 102.98 134.48C102.546 134.185 102.182 133.795 101.888 133.31C101.61 132.825 101.472 132.227 101.472 131.516C101.472 130.58 101.723 129.843 102.226 129.306C102.728 128.751 103.387 128.335 104.202 128.058C105.016 127.763 105.935 127.573 106.958 127.486C107.98 127.399 109.012 127.356 110.052 127.356V127.018ZM109.454 129.124C108.847 129.124 108.214 129.15 107.556 129.202C106.914 129.254 106.325 129.358 105.788 129.514C105.268 129.67 104.834 129.904 104.488 130.216C104.141 130.528 103.968 130.944 103.968 131.464C103.968 131.828 104.037 132.131 104.176 132.374C104.332 132.617 104.531 132.816 104.774 132.972C105.016 133.128 105.285 133.241 105.58 133.31C105.874 133.362 106.178 133.388 106.49 133.388C107.634 133.388 108.509 133.05 109.116 132.374C109.74 131.681 110.052 130.814 110.052 129.774V129.124H109.454ZM121.413 132.348H121.465L124.871 122.676H127.471L121.491 137.912C121.283 138.432 121.058 138.891 120.815 139.29C120.573 139.706 120.287 140.053 119.957 140.33C119.628 140.625 119.238 140.85 118.787 141.006C118.354 141.162 117.834 141.24 117.227 141.24C116.967 141.24 116.699 141.223 116.421 141.188C116.161 141.171 115.893 141.127 115.615 141.058L115.849 138.9C116.265 139.039 116.673 139.108 117.071 139.108C117.713 139.108 118.189 138.926 118.501 138.562C118.813 138.215 119.099 137.713 119.359 137.054L120.139 135L114.861 122.676H117.591L121.413 132.348ZM132.487 124.704C132.799 124.045 133.293 123.491 133.969 123.04C134.662 122.572 135.477 122.338 136.413 122.338C137.245 122.338 137.99 122.529 138.649 122.91C139.325 123.291 139.854 123.924 140.235 124.808C140.651 124.011 141.232 123.404 141.977 122.988C142.722 122.555 143.537 122.338 144.421 122.338C145.218 122.338 145.903 122.477 146.475 122.754C147.047 123.014 147.524 123.369 147.905 123.82C148.286 124.271 148.564 124.799 148.737 125.406C148.928 126.013 149.023 126.663 149.023 127.356V135H146.579V128.162C146.579 127.659 146.536 127.183 146.449 126.732C146.362 126.281 146.215 125.883 146.007 125.536C145.799 125.189 145.522 124.912 145.175 124.704C144.828 124.496 144.386 124.392 143.849 124.392C143.294 124.392 142.818 124.513 142.419 124.756C142.02 124.981 141.691 125.285 141.431 125.666C141.188 126.03 141.006 126.446 140.885 126.914C140.781 127.382 140.729 127.859 140.729 128.344V135H138.285V127.668C138.285 127.183 138.242 126.741 138.155 126.342C138.068 125.943 137.921 125.605 137.713 125.328C137.505 125.033 137.236 124.808 136.907 124.652C136.578 124.479 136.17 124.392 135.685 124.392C134.784 124.392 134.03 124.765 133.423 125.51C132.834 126.238 132.539 127.217 132.539 128.448V135H130.095V125.328C130.095 124.999 130.086 124.574 130.069 124.054C130.052 123.534 130.026 123.075 129.991 122.676H132.305C132.34 122.988 132.366 123.343 132.383 123.742C132.4 124.123 132.409 124.444 132.409 124.704H132.487ZM162.432 127.746C162.414 127.261 162.328 126.81 162.172 126.394C162.033 125.961 161.816 125.588 161.522 125.276C161.244 124.964 160.889 124.721 160.456 124.548C160.04 124.357 159.546 124.262 158.974 124.262C158.454 124.262 157.96 124.357 157.492 124.548C157.041 124.721 156.642 124.964 156.296 125.276C155.966 125.588 155.689 125.961 155.464 126.394C155.256 126.81 155.134 127.261 155.1 127.746H162.432ZM164.902 128.734C164.902 128.873 164.902 129.011 164.902 129.15C164.902 129.289 164.893 129.427 164.876 129.566H155.1C155.117 130.086 155.23 130.58 155.438 131.048C155.663 131.499 155.958 131.897 156.322 132.244C156.686 132.573 157.102 132.833 157.57 133.024C158.055 133.215 158.566 133.31 159.104 133.31C159.936 133.31 160.655 133.128 161.262 132.764C161.868 132.4 162.345 131.958 162.692 131.438L164.408 132.816C163.749 133.683 162.969 134.324 162.068 134.74C161.184 135.139 160.196 135.338 159.104 135.338C158.168 135.338 157.301 135.182 156.504 134.87C155.706 134.558 155.022 134.125 154.45 133.57C153.878 132.998 153.427 132.313 153.098 131.516C152.768 130.719 152.604 129.835 152.604 128.864C152.604 127.911 152.76 127.035 153.072 126.238C153.401 125.423 153.852 124.73 154.424 124.158C154.996 123.586 155.672 123.144 156.452 122.832C157.232 122.503 158.072 122.338 158.974 122.338C159.875 122.338 160.69 122.485 161.418 122.78C162.163 123.075 162.787 123.499 163.29 124.054C163.81 124.609 164.208 125.285 164.486 126.082C164.763 126.862 164.902 127.746 164.902 128.734ZM170.784 122.676C170.819 122.988 170.845 123.343 170.862 123.742C170.879 124.123 170.888 124.444 170.888 124.704H170.966C171.122 124.375 171.33 124.071 171.59 123.794C171.867 123.499 172.179 123.248 172.526 123.04C172.873 122.815 173.254 122.641 173.67 122.52C174.086 122.399 174.519 122.338 174.97 122.338C175.767 122.338 176.452 122.477 177.024 122.754C177.596 123.014 178.073 123.369 178.454 123.82C178.835 124.271 179.113 124.799 179.286 125.406C179.477 126.013 179.572 126.663 179.572 127.356V135H177.128V128.162C177.128 127.659 177.085 127.183 176.998 126.732C176.929 126.281 176.79 125.883 176.582 125.536C176.374 125.189 176.088 124.912 175.724 124.704C175.36 124.496 174.892 124.392 174.32 124.392C173.349 124.392 172.552 124.765 171.928 125.51C171.321 126.238 171.018 127.217 171.018 128.448V135H168.574V125.328C168.574 124.999 168.565 124.574 168.548 124.054C168.531 123.534 168.505 123.075 168.47 122.676H170.784ZM189.999 124.678H186.723V131.1C186.723 131.845 186.861 132.383 187.139 132.712C187.416 133.024 187.858 133.18 188.465 133.18C188.69 133.18 188.933 133.154 189.193 133.102C189.453 133.05 189.687 132.972 189.895 132.868L189.973 134.87C189.678 134.974 189.349 135.052 188.985 135.104C188.638 135.173 188.274 135.208 187.893 135.208C186.731 135.208 185.839 134.887 185.215 134.246C184.608 133.605 184.305 132.643 184.305 131.36V124.678H181.939V122.676H184.305V119.14H186.723V122.676H189.999V124.678Z" fill="#30242A"/>
<path opacity="0.8" d="M90.81 210H88.236V191.592H94.138C95.022 191.592 95.8627 191.687 96.66 191.878C97.4573 192.051 98.1507 192.337 98.74 192.736C99.3467 193.135 99.8233 193.663 100.17 194.322C100.517 194.963 100.69 195.752 100.69 196.688C100.69 198.04 100.274 199.132 99.442 199.964C98.61 200.796 97.5353 201.325 96.218 201.55L101.366 210H98.246L93.566 201.81H90.81V210ZM90.81 199.652H93.774C94.3807 199.652 94.944 199.6 95.464 199.496C95.984 199.392 96.4347 199.227 96.816 199.002C97.2147 198.759 97.5267 198.456 97.752 198.092C97.9773 197.711 98.09 197.243 98.09 196.688C98.09 196.133 97.9773 195.674 97.752 195.31C97.5267 194.929 97.2233 194.625 96.842 194.4C96.478 194.175 96.0447 194.019 95.542 193.932C95.0393 193.828 94.5107 193.776 93.956 193.776H90.81V199.652ZM113.054 202.746C113.037 202.261 112.95 201.81 112.794 201.394C112.655 200.961 112.439 200.588 112.144 200.276C111.867 199.964 111.511 199.721 111.078 199.548C110.662 199.357 110.168 199.262 109.596 199.262C109.076 199.262 108.582 199.357 108.114 199.548C107.663 199.721 107.265 199.964 106.918 200.276C106.589 200.588 106.311 200.961 106.086 201.394C105.878 201.81 105.757 202.261 105.722 202.746H113.054ZM115.524 203.734C115.524 203.873 115.524 204.011 115.524 204.15C115.524 204.289 115.515 204.427 115.498 204.566H105.722C105.739 205.086 105.852 205.58 106.06 206.048C106.285 206.499 106.58 206.897 106.944 207.244C107.308 207.573 107.724 207.833 108.192 208.024C108.677 208.215 109.189 208.31 109.726 208.31C110.558 208.31 111.277 208.128 111.884 207.764C112.491 207.4 112.967 206.958 113.314 206.438L115.03 207.816C114.371 208.683 113.591 209.324 112.69 209.74C111.806 210.139 110.818 210.338 109.726 210.338C108.79 210.338 107.923 210.182 107.126 209.87C106.329 209.558 105.644 209.125 105.072 208.57C104.5 207.998 104.049 207.313 103.72 206.516C103.391 205.719 103.226 204.835 103.226 203.864C103.226 202.911 103.382 202.035 103.694 201.238C104.023 200.423 104.474 199.73 105.046 199.158C105.618 198.586 106.294 198.144 107.074 197.832C107.854 197.503 108.695 197.338 109.596 197.338C110.497 197.338 111.312 197.485 112.04 197.78C112.785 198.075 113.409 198.499 113.912 199.054C114.432 199.609 114.831 200.285 115.108 201.082C115.385 201.862 115.524 202.746 115.524 203.734ZM127.828 200.796C127.568 200.397 127.178 200.068 126.658 199.808C126.138 199.531 125.584 199.392 124.994 199.392C124.353 199.392 123.781 199.513 123.278 199.756C122.793 199.999 122.377 200.328 122.03 200.744C121.684 201.143 121.415 201.611 121.224 202.148C121.051 202.685 120.964 203.249 120.964 203.838C120.964 204.427 121.051 204.991 121.224 205.528C121.415 206.065 121.684 206.542 122.03 206.958C122.377 207.357 122.802 207.677 123.304 207.92C123.807 208.163 124.379 208.284 125.02 208.284C125.644 208.284 126.208 208.163 126.71 207.92C127.23 207.677 127.655 207.348 127.984 206.932L129.622 208.414C129.102 209.021 128.452 209.497 127.672 209.844C126.892 210.173 126.008 210.338 125.02 210.338C124.067 210.338 123.183 210.182 122.368 209.87C121.571 209.558 120.878 209.125 120.288 208.57C119.699 207.998 119.231 207.313 118.884 206.516C118.555 205.719 118.39 204.826 118.39 203.838C118.39 202.867 118.555 201.983 118.884 201.186C119.214 200.389 119.673 199.704 120.262 199.132C120.852 198.56 121.545 198.118 122.342 197.806C123.157 197.494 124.032 197.338 124.968 197.338C125.835 197.338 126.693 197.511 127.542 197.858C128.409 198.205 129.094 198.707 129.596 199.366L127.828 200.796ZM144.784 203.812C144.784 204.765 144.611 205.641 144.264 206.438C143.935 207.235 143.467 207.929 142.86 208.518C142.271 209.09 141.569 209.541 140.754 209.87C139.939 210.182 139.064 210.338 138.128 210.338C137.192 210.338 136.317 210.182 135.502 209.87C134.687 209.541 133.985 209.09 133.396 208.518C132.807 207.929 132.339 207.235 131.992 206.438C131.663 205.641 131.498 204.765 131.498 203.812C131.498 202.859 131.663 201.992 131.992 201.212C132.339 200.415 132.807 199.73 133.396 199.158C133.985 198.586 134.687 198.144 135.502 197.832C136.317 197.503 137.192 197.338 138.128 197.338C139.064 197.338 139.939 197.503 140.754 197.832C141.569 198.144 142.271 198.586 142.86 199.158C143.467 199.73 143.935 200.415 144.264 201.212C144.611 201.992 144.784 202.859 144.784 203.812ZM142.236 203.812C142.236 203.223 142.141 202.659 141.95 202.122C141.777 201.585 141.517 201.117 141.17 200.718C140.823 200.302 140.39 199.973 139.87 199.73C139.367 199.487 138.787 199.366 138.128 199.366C137.469 199.366 136.88 199.487 136.36 199.73C135.857 199.973 135.433 200.302 135.086 200.718C134.739 201.117 134.471 201.585 134.28 202.122C134.107 202.659 134.02 203.223 134.02 203.812C134.02 204.401 134.107 204.965 134.28 205.502C134.471 206.039 134.739 206.516 135.086 206.932C135.433 207.348 135.857 207.677 136.36 207.92C136.88 208.163 137.469 208.284 138.128 208.284C138.787 208.284 139.367 208.163 139.87 207.92C140.39 207.677 140.823 207.348 141.17 206.932C141.517 206.516 141.777 206.039 141.95 205.502C142.141 204.965 142.236 204.401 142.236 203.812ZM150.643 197.676C150.678 197.988 150.704 198.343 150.721 198.742C150.738 199.123 150.747 199.444 150.747 199.704H150.825C150.981 199.375 151.189 199.071 151.449 198.794C151.726 198.499 152.038 198.248 152.385 198.04C152.732 197.815 153.113 197.641 153.529 197.52C153.945 197.399 154.378 197.338 154.829 197.338C155.626 197.338 156.311 197.477 156.883 197.754C157.455 198.014 157.932 198.369 158.313 198.82C158.694 199.271 158.972 199.799 159.145 200.406C159.336 201.013 159.431 201.663 159.431 202.356V210H156.987V203.162C156.987 202.659 156.944 202.183 156.857 201.732C156.788 201.281 156.649 200.883 156.441 200.536C156.233 200.189 155.947 199.912 155.583 199.704C155.219 199.496 154.751 199.392 154.179 199.392C153.208 199.392 152.411 199.765 151.787 200.51C151.18 201.238 150.877 202.217 150.877 203.448V210H148.433V200.328C148.433 199.999 148.424 199.574 148.407 199.054C148.39 198.534 148.364 198.075 148.329 197.676H150.643ZM172.458 200.796C172.198 200.397 171.808 200.068 171.288 199.808C170.768 199.531 170.213 199.392 169.624 199.392C168.983 199.392 168.411 199.513 167.908 199.756C167.423 199.999 167.007 200.328 166.66 200.744C166.313 201.143 166.045 201.611 165.854 202.148C165.681 202.685 165.594 203.249 165.594 203.838C165.594 204.427 165.681 204.991 165.854 205.528C166.045 206.065 166.313 206.542 166.66 206.958C167.007 207.357 167.431 207.677 167.934 207.92C168.437 208.163 169.009 208.284 169.65 208.284C170.274 208.284 170.837 208.163 171.34 207.92C171.86 207.677 172.285 207.348 172.614 206.932L174.252 208.414C173.732 209.021 173.082 209.497 172.302 209.844C171.522 210.173 170.638 210.338 169.65 210.338C168.697 210.338 167.813 210.182 166.998 209.87C166.201 209.558 165.507 209.125 164.918 208.57C164.329 207.998 163.861 207.313 163.514 206.516C163.185 205.719 163.02 204.826 163.02 203.838C163.02 202.867 163.185 201.983 163.514 201.186C163.843 200.389 164.303 199.704 164.892 199.132C165.481 198.56 166.175 198.118 166.972 197.806C167.787 197.494 168.662 197.338 169.598 197.338C170.465 197.338 171.323 197.511 172.172 197.858C173.039 198.205 173.723 198.707 174.226 199.366L172.458 200.796ZM179.404 210H176.96V197.676H179.404V210ZM179.82 193.23C179.82 193.681 179.655 194.053 179.326 194.348C179.014 194.643 178.632 194.79 178.182 194.79C177.731 194.79 177.35 194.643 177.038 194.348C176.726 194.036 176.57 193.663 176.57 193.23C176.57 192.779 176.726 192.407 177.038 192.112C177.35 191.8 177.731 191.644 178.182 191.644C178.632 191.644 179.014 191.8 179.326 192.112C179.655 192.407 179.82 192.779 179.82 193.23ZM186.418 210H183.974V190.344H186.418V210ZM193.432 210H190.988V190.344H193.432V210ZM200.42 210H197.976V197.676H200.42V210ZM200.836 193.23C200.836 193.681 200.671 194.053 200.342 194.348C200.03 194.643 199.649 194.79 199.198 194.79C198.747 194.79 198.366 194.643 198.054 194.348C197.742 194.036 197.586 193.663 197.586 193.23C197.586 192.779 197.742 192.407 198.054 192.112C198.366 191.8 198.747 191.644 199.198 191.644C199.649 191.644 200.03 191.8 200.342 192.112C200.671 192.407 200.836 192.779 200.836 193.23ZM212.608 202.018C212.608 201.099 212.331 200.423 211.776 199.99C211.222 199.539 210.485 199.314 209.566 199.314C208.873 199.314 208.214 199.453 207.59 199.73C206.984 199.99 206.472 200.328 206.056 200.744L204.756 199.184C205.363 198.612 206.1 198.161 206.966 197.832C207.85 197.503 208.795 197.338 209.8 197.338C210.684 197.338 211.447 197.468 212.088 197.728C212.747 197.971 213.284 198.309 213.7 198.742C214.116 199.175 214.428 199.687 214.636 200.276C214.844 200.865 214.948 201.498 214.948 202.174V207.556C214.948 207.972 214.957 208.414 214.974 208.882C215.009 209.333 215.061 209.705 215.13 210H212.92C212.782 209.411 212.712 208.821 212.712 208.232H212.634C212.184 208.891 211.612 209.402 210.918 209.766C210.242 210.13 209.436 210.312 208.5 210.312C208.015 210.312 207.504 210.243 206.966 210.104C206.446 209.983 205.97 209.775 205.536 209.48C205.103 209.185 204.739 208.795 204.444 208.31C204.167 207.825 204.028 207.227 204.028 206.516C204.028 205.58 204.28 204.843 204.782 204.306C205.285 203.751 205.944 203.335 206.758 203.058C207.573 202.763 208.492 202.573 209.514 202.486C210.537 202.399 211.568 202.356 212.608 202.356V202.018ZM212.01 204.124C211.404 204.124 210.771 204.15 210.112 204.202C209.471 204.254 208.882 204.358 208.344 204.514C207.824 204.67 207.391 204.904 207.044 205.216C206.698 205.528 206.524 205.944 206.524 206.464C206.524 206.828 206.594 207.131 206.732 207.374C206.888 207.617 207.088 207.816 207.33 207.972C207.573 208.128 207.842 208.241 208.136 208.31C208.431 208.362 208.734 208.388 209.046 208.388C210.19 208.388 211.066 208.05 211.672 207.374C212.296 206.681 212.608 205.814 212.608 204.774V204.124H212.01ZM225.068 199.678H221.792V206.1C221.792 206.845 221.931 207.383 222.208 207.712C222.486 208.024 222.928 208.18 223.534 208.18C223.76 208.18 224.002 208.154 224.262 208.102C224.522 208.05 224.756 207.972 224.964 207.868L225.042 209.87C224.748 209.974 224.418 210.052 224.054 210.104C223.708 210.173 223.344 210.208 222.962 210.208C221.801 210.208 220.908 209.887 220.284 209.246C219.678 208.605 219.374 207.643 219.374 206.36V199.678H217.008V197.676H219.374V194.14H221.792V197.676H225.068V199.678ZM230.323 210H227.879V197.676H230.323V210ZM230.739 193.23C230.739 193.681 230.574 194.053 230.245 194.348C229.933 194.643 229.552 194.79 229.101 194.79C228.65 194.79 228.269 194.643 227.957 194.348C227.645 194.036 227.489 193.663 227.489 193.23C227.489 192.779 227.645 192.407 227.957 192.112C228.269 191.8 228.65 191.644 229.101 191.644C229.552 191.644 229.933 191.8 230.245 192.112C230.574 192.407 230.739 192.779 230.739 193.23ZM247.321 203.812C247.321 204.765 247.148 205.641 246.801 206.438C246.472 207.235 246.004 207.929 245.397 208.518C244.808 209.09 244.106 209.541 243.291 209.87C242.477 210.182 241.601 210.338 240.665 210.338C239.729 210.338 238.854 210.182 238.039 209.87C237.225 209.541 236.523 209.09 235.933 208.518C235.344 207.929 234.876 207.235 234.529 206.438C234.2 205.641 234.035 204.765 234.035 203.812C234.035 202.859 234.2 201.992 234.529 201.212C234.876 200.415 235.344 199.73 235.933 199.158C236.523 198.586 237.225 198.144 238.039 197.832C238.854 197.503 239.729 197.338 240.665 197.338C241.601 197.338 242.477 197.503 243.291 197.832C244.106 198.144 244.808 198.586 245.397 199.158C246.004 199.73 246.472 200.415 246.801 201.212C247.148 201.992 247.321 202.859 247.321 203.812ZM244.773 203.812C244.773 203.223 244.678 202.659 244.487 202.122C244.314 201.585 244.054 201.117 243.707 200.718C243.361 200.302 242.927 199.973 242.407 199.73C241.905 199.487 241.324 199.366 240.665 199.366C240.007 199.366 239.417 199.487 238.897 199.73C238.395 199.973 237.97 200.302 237.623 200.718C237.277 201.117 237.008 201.585 236.817 202.122C236.644 202.659 236.557 203.223 236.557 203.812C236.557 204.401 236.644 204.965 236.817 205.502C237.008 206.039 237.277 206.516 237.623 206.932C237.97 207.348 238.395 207.677 238.897 207.92C239.417 208.163 240.007 208.284 240.665 208.284C241.324 208.284 241.905 208.163 242.407 207.92C242.927 207.677 243.361 207.348 243.707 206.932C244.054 206.516 244.314 206.039 244.487 205.502C244.678 204.965 244.773 204.401 244.773 203.812ZM253.181 197.676C253.215 197.988 253.241 198.343 253.259 198.742C253.276 199.123 253.285 199.444 253.285 199.704H253.363C253.519 199.375 253.727 199.071 253.987 198.794C254.264 198.499 254.576 198.248 254.923 198.04C255.269 197.815 255.651 197.641 256.067 197.52C256.483 197.399 256.916 197.338 257.367 197.338C258.164 197.338 258.849 197.477 259.421 197.754C259.993 198.014 260.469 198.369 260.851 198.82C261.232 199.271 261.509 199.799 261.683 200.406C261.873 201.013 261.969 201.663 261.969 202.356V210H259.525V203.162C259.525 202.659 259.481 202.183 259.395 201.732C259.325 201.281 259.187 200.883 258.979 200.536C258.771 200.189 258.485 199.912 258.121 199.704C257.757 199.496 257.289 199.392 256.717 199.392C255.746 199.392 254.949 199.765 254.325 200.51C253.718 201.238 253.415 202.217 253.415 203.448V210H250.971V200.328C250.971 199.999 250.962 199.574 250.945 199.054C250.927 198.534 250.901 198.075 250.867 197.676H253.181Z" fill="#30242A"/>
<path opacity="0.6" d="M89.99 285H87.13L95.112 266.592H97.452L105.356 285H102.444L100.572 280.476H91.836L89.99 285ZM92.746 278.214H99.636L96.204 269.582L92.746 278.214ZM116.482 275.796C116.222 275.397 115.832 275.068 115.312 274.808C114.792 274.531 114.238 274.392 113.648 274.392C113.007 274.392 112.435 274.513 111.932 274.756C111.447 274.999 111.031 275.328 110.684 275.744C110.338 276.143 110.069 276.611 109.878 277.148C109.705 277.685 109.618 278.249 109.618 278.838C109.618 279.427 109.705 279.991 109.878 280.528C110.069 281.065 110.338 281.542 110.684 281.958C111.031 282.357 111.456 282.677 111.958 282.92C112.461 283.163 113.033 283.284 113.674 283.284C114.298 283.284 114.862 283.163 115.364 282.92C115.884 282.677 116.309 282.348 116.638 281.932L118.276 283.414C117.756 284.021 117.106 284.497 116.326 284.844C115.546 285.173 114.662 285.338 113.674 285.338C112.721 285.338 111.837 285.182 111.022 284.87C110.225 284.558 109.532 284.125 108.942 283.57C108.353 282.998 107.885 282.313 107.538 281.516C107.209 280.719 107.044 279.826 107.044 278.838C107.044 277.867 107.209 276.983 107.538 276.186C107.868 275.389 108.327 274.704 108.916 274.132C109.506 273.56 110.199 273.118 110.996 272.806C111.811 272.494 112.686 272.338 113.622 272.338C114.489 272.338 115.347 272.511 116.196 272.858C117.063 273.205 117.748 273.707 118.25 274.366L116.482 275.796ZM129.59 275.796C129.33 275.397 128.94 275.068 128.42 274.808C127.9 274.531 127.345 274.392 126.756 274.392C126.115 274.392 125.543 274.513 125.04 274.756C124.555 274.999 124.139 275.328 123.792 275.744C123.445 276.143 123.177 276.611 122.986 277.148C122.813 277.685 122.726 278.249 122.726 278.838C122.726 279.427 122.813 279.991 122.986 280.528C123.177 281.065 123.445 281.542 123.792 281.958C124.139 282.357 124.563 282.677 125.066 282.92C125.569 283.163 126.141 283.284 126.782 283.284C127.406 283.284 127.969 283.163 128.472 282.92C128.992 282.677 129.417 282.348 129.746 281.932L131.384 283.414C130.864 284.021 130.214 284.497 129.434 284.844C128.654 285.173 127.77 285.338 126.782 285.338C125.829 285.338 124.945 285.182 124.13 284.87C123.333 284.558 122.639 284.125 122.05 283.57C121.461 282.998 120.993 282.313 120.646 281.516C120.317 280.719 120.152 279.826 120.152 278.838C120.152 277.867 120.317 276.983 120.646 276.186C120.975 275.389 121.435 274.704 122.024 274.132C122.613 273.56 123.307 273.118 124.104 272.806C124.919 272.494 125.794 272.338 126.73 272.338C127.597 272.338 128.455 272.511 129.304 272.858C130.171 273.205 130.855 273.707 131.358 274.366L129.59 275.796ZM146.546 278.812C146.546 279.765 146.372 280.641 146.026 281.438C145.696 282.235 145.228 282.929 144.622 283.518C144.032 284.09 143.33 284.541 142.516 284.87C141.701 285.182 140.826 285.338 139.89 285.338C138.954 285.338 138.078 285.182 137.264 284.87C136.449 284.541 135.747 284.09 135.158 283.518C134.568 282.929 134.1 282.235 133.754 281.438C133.424 280.641 133.26 279.765 133.26 278.812C133.26 277.859 133.424 276.992 133.754 276.212C134.1 275.415 134.568 274.73 135.158 274.158C135.747 273.586 136.449 273.144 137.264 272.832C138.078 272.503 138.954 272.338 139.89 272.338C140.826 272.338 141.701 272.503 142.516 272.832C143.33 273.144 144.032 273.586 144.622 274.158C145.228 274.73 145.696 275.415 146.026 276.212C146.372 276.992 146.546 277.859 146.546 278.812ZM143.998 278.812C143.998 278.223 143.902 277.659 143.712 277.122C143.538 276.585 143.278 276.117 142.932 275.718C142.585 275.302 142.152 274.973 141.632 274.73C141.129 274.487 140.548 274.366 139.89 274.366C139.231 274.366 138.642 274.487 138.122 274.73C137.619 274.973 137.194 275.302 136.848 275.718C136.501 276.117 136.232 276.585 136.042 277.122C135.868 277.659 135.782 278.223 135.782 278.812C135.782 279.401 135.868 279.965 136.042 280.502C136.232 281.039 136.501 281.516 136.848 281.932C137.194 282.348 137.619 282.677 138.122 282.92C138.642 283.163 139.231 283.284 139.89 283.284C140.548 283.284 141.129 283.163 141.632 282.92C142.152 282.677 142.585 282.348 142.932 281.932C143.278 281.516 143.538 281.039 143.712 280.502C143.902 279.965 143.998 279.401 143.998 278.812ZM158.879 285C158.844 284.688 158.818 284.341 158.801 283.96C158.783 283.561 158.775 283.232 158.775 282.972H158.723C158.411 283.631 157.882 284.194 157.137 284.662C156.409 285.113 155.594 285.338 154.693 285.338C153.895 285.338 153.202 285.208 152.613 284.948C152.041 284.688 151.564 284.333 151.183 283.882C150.819 283.414 150.541 282.877 150.351 282.27C150.177 281.663 150.091 281.013 150.091 280.32V272.676H152.535V279.488C152.535 279.991 152.569 280.476 152.639 280.944C152.725 281.395 152.873 281.793 153.081 282.14C153.289 282.487 153.575 282.764 153.939 282.972C154.303 283.18 154.771 283.284 155.343 283.284C156.331 283.284 157.128 282.92 157.735 282.192C158.341 281.447 158.645 280.459 158.645 279.228V272.676H161.089V282.348C161.089 282.677 161.097 283.102 161.115 283.622C161.132 284.142 161.158 284.601 161.193 285H158.879ZM167.798 272.676C167.832 272.988 167.858 273.343 167.876 273.742C167.893 274.123 167.902 274.444 167.902 274.704H167.98C168.136 274.375 168.344 274.071 168.604 273.794C168.881 273.499 169.193 273.248 169.54 273.04C169.886 272.815 170.268 272.641 170.684 272.52C171.1 272.399 171.533 272.338 171.984 272.338C172.781 272.338 173.466 272.477 174.038 272.754C174.61 273.014 175.086 273.369 175.468 273.82C175.849 274.271 176.126 274.799 176.3 275.406C176.49 276.013 176.586 276.663 176.586 277.356V285H174.142V278.162C174.142 277.659 174.098 277.183 174.012 276.732C173.942 276.281 173.804 275.883 173.596 275.536C173.388 275.189 173.102 274.912 172.738 274.704C172.374 274.496 171.906 274.392 171.334 274.392C170.363 274.392 169.566 274.765 168.942 275.51C168.335 276.238 168.032 277.217 168.032 278.448V285H165.588V275.328C165.588 274.999 165.579 274.574 165.562 274.054C165.544 273.534 165.518 273.075 165.484 272.676H167.798ZM187.012 274.678H183.736V281.1C183.736 281.845 183.875 282.383 184.152 282.712C184.43 283.024 184.872 283.18 185.478 283.18C185.704 283.18 185.946 283.154 186.206 283.102C186.466 283.05 186.7 282.972 186.908 282.868L186.986 284.87C186.692 284.974 186.362 285.052 185.998 285.104C185.652 285.173 185.288 285.208 184.906 285.208C183.745 285.208 182.852 284.887 182.228 284.246C181.622 283.605 181.318 282.643 181.318 281.36V274.678H178.952V272.676H181.318V269.14H183.736V272.676H187.012V274.678ZM192.267 285H189.823V272.676H192.267V285ZM192.683 268.23C192.683 268.681 192.518 269.053 192.189 269.348C191.877 269.643 191.496 269.79 191.045 269.79C190.594 269.79 190.213 269.643 189.901 269.348C189.589 269.036 189.433 268.663 189.433 268.23C189.433 267.779 189.589 267.407 189.901 267.112C190.213 266.8 190.594 266.644 191.045 266.644C191.496 266.644 191.877 266.8 192.189 267.112C192.518 267.407 192.683 267.779 192.683 268.23ZM198.996 272.676C199.03 272.988 199.056 273.343 199.074 273.742C199.091 274.123 199.1 274.444 199.1 274.704H199.178C199.334 274.375 199.542 274.071 199.802 273.794C200.079 273.499 200.391 273.248 200.738 273.04C201.084 272.815 201.466 272.641 201.882 272.52C202.298 272.399 202.731 272.338 203.182 272.338C203.979 272.338 204.664 272.477 205.236 272.754C205.808 273.014 206.284 273.369 206.666 273.82C207.047 274.271 207.324 274.799 207.498 275.406C207.688 276.013 207.784 276.663 207.784 277.356V285H205.34V278.162C205.34 277.659 205.296 277.183 205.21 276.732C205.14 276.281 205.002 275.883 204.794 275.536C204.586 275.189 204.3 274.912 203.936 274.704C203.572 274.496 203.104 274.392 202.532 274.392C201.561 274.392 200.764 274.765 200.14 275.51C199.533 276.238 199.23 277.217 199.23 278.448V285H196.786V275.328C196.786 274.999 196.777 274.574 196.76 274.054C196.742 273.534 196.716 273.075 196.682 272.676H198.996ZM213.14 287.106C213.678 287.713 214.345 288.198 215.142 288.562C215.957 288.926 216.789 289.108 217.638 289.108C218.453 289.108 219.138 288.987 219.692 288.744C220.247 288.519 220.689 288.198 221.018 287.782C221.365 287.383 221.608 286.907 221.746 286.352C221.902 285.797 221.98 285.199 221.98 284.558V282.972H221.928C221.478 283.665 220.862 284.194 220.082 284.558C219.302 284.922 218.47 285.104 217.586 285.104C216.65 285.104 215.792 284.939 215.012 284.61C214.25 284.281 213.6 283.83 213.062 283.258C212.525 282.686 212.109 282.019 211.814 281.256C211.52 280.476 211.372 279.644 211.372 278.76C211.372 277.876 211.52 277.044 211.814 276.264C212.109 275.484 212.525 274.808 213.062 274.236C213.6 273.647 214.25 273.187 215.012 272.858C215.775 272.511 216.624 272.338 217.56 272.338C218.444 272.338 219.285 272.529 220.082 272.91C220.897 273.291 221.538 273.872 222.006 274.652H222.058V272.676H224.424V284.376C224.424 285.277 224.312 286.135 224.086 286.95C223.861 287.782 223.48 288.51 222.942 289.134C222.405 289.775 221.703 290.287 220.836 290.668C219.97 291.049 218.895 291.24 217.612 291.24C216.538 291.24 215.454 291.041 214.362 290.642C213.288 290.261 212.36 289.715 211.58 289.004L213.14 287.106ZM213.894 278.708C213.894 279.28 213.981 279.826 214.154 280.346C214.345 280.866 214.614 281.325 214.96 281.724C215.324 282.123 215.758 282.443 216.26 282.686C216.763 282.929 217.335 283.05 217.976 283.05C218.6 283.05 219.172 282.937 219.692 282.712C220.212 282.487 220.654 282.183 221.018 281.802C221.382 281.403 221.66 280.944 221.85 280.424C222.058 279.887 222.162 279.315 222.162 278.708C222.162 278.119 222.058 277.564 221.85 277.044C221.66 276.524 221.374 276.065 220.992 275.666C220.628 275.267 220.186 274.955 219.666 274.73C219.164 274.487 218.6 274.366 217.976 274.366C217.335 274.366 216.763 274.487 216.26 274.73C215.758 274.955 215.324 275.267 214.96 275.666C214.614 276.047 214.345 276.507 214.154 277.044C213.981 277.564 213.894 278.119 213.894 278.708Z" fill="#30242A"/>
<defs>
<filter id="filter0_d" x="0" y="17" width="411" height="74" filterUnits="userSpaceOnUse" color-interpolation-filters="sRGB">
<feFlood flood-opacity="0" result="BackgroundImageFix"/>
<feColorMatrix in="SourceAlpha" type="matrix" values="0 0 0 0 0 0 0 0 0 0 0 0 0 0 0 0 0 0 127 0"/>
<feMorphology radius="1" operator="dilate" in="SourceAlpha" result="effect1_dropShadow"/>
<feOffset dy="4"/>
<feGaussianBlur stdDeviation="4"/>
<feColorMatrix type="matrix" values="0 0 0 0 0 0 0 0 0 0 0 0 0 0 0 0 0 0 0.25 0"/>
<feBlend mode="normal" in2="BackgroundImageFix" result="effect1_dropShadow"/>
<feBlend mode="normal" in="SourceGraphic" in2="effect1_dropShadow" result="shape"/>
</filter>
<filter id="filter1_d" x="0" y="93" width="411" height="74" filterUnits="userSpaceOnUse" color-interpolation-filters="sRGB">
<feFlood flood-opacity="0" result="BackgroundImageFix"/>
<feColorMatrix in="SourceAlpha" type="matrix" values="0 0 0 0 0 0 0 0 0 0 0 0 0 0 0 0 0 0 127 0"/>
<feMorphology radius="1" operator="dilate" in="SourceAlpha" result="effect1_dropShadow"/>
<feOffset dy="4"/>
<feGaussianBlur stdDeviation="4"/>
<feColorMatrix type="matrix" values="0 0 0 0 0 0 0 0 0 0 0 0 0 0 0 0 0 0 0.25 0"/>
<feBlend mode="normal" in2="BackgroundImageFix" result="effect1_dropShadow"/>
<feBlend mode="normal" in="SourceGraphic" in2="effect1_dropShadow" result="shape"/>
</filter>
<filter id="filter2_b" x="-8" y="154" width="433" height="96" filterUnits="userSpaceOnUse" color-interpolation-filters="sRGB">
<feFlood flood-opacity="0" result="BackgroundImageFix"/>
<feGaussianBlur in="BackgroundImage" stdDeviation="10"/>
<feComposite in2="SourceAlpha" operator="in" result="effect1_backgroundBlur"/>
<feBlend mode="normal" in="SourceGraphic" in2="effect1_backgroundBlur" result="shape"/>
</filter>
<filter id="filter3_b" x="-8" y="230" width="433" height="96" filterUnits="userSpaceOnUse" color-interpolation-filters="sRGB">
<feFlood flood-opacity="0" result="BackgroundImageFix"/>
<feGaussianBlur in="BackgroundImage" stdDeviation="10"/>
<feComposite in2="SourceAlpha" operator="in" result="effect1_backgroundBlur"/>
<feBlend mode="normal" in="SourceGraphic" in2="effect1_backgroundBlur" result="shape"/>
</filter>
</defs>
</svg>
