<svg width="21" height="18" viewBox="0 0 21 18" fill="none" xmlns="http://www.w3.org/2000/svg">
<path d="M10.5 18L19.2216 9.78136C20.3684 8.70067 21 7.26199 21 5.72987C21 4.19775 20.3684 2.75903 19.2216 1.67838C18.0733 0.595975 16.5465 4.06724e-05 14.9221 4.06724e-05C13.4757 4.06724e-05 12.0629 0.506365 10.9304 1.43807L10.5 1.81763L10.0556 1.42627C8.93713 0.506284 7.52464 0 6.07786 0C4.45345 0 2.92669 0.595894 1.77844 1.67833C0.631624 2.75903 0 4.19771 0 5.72983C0 7.26194 0.631624 8.70099 1.7784 9.78132L10.5 18Z" fill="#FF877F"/>
</svg>
