<svg width="18" height="18" viewBox="0 0 18 18" fill="none" xmlns="http://www.w3.org/2000/svg">
<g clip-path="url(#clip0)">
<path d="M7.10137 3.77721C8.32767 3.33192 9.67148 3.33192 10.8978 3.77721L12.1058 2.56919L13.4798 1.19489C12.1168 0.411454 10.5722 -0.000854492 9.00011 -0.000854492C7.42802 -0.000854492 5.88341 0.411454 4.52044 1.19489L5.8944 2.56919L7.10137 3.77721ZM4.14488 6.29666C4.21594 6.17089 4.28949 6.04795 4.36339 5.93852C4.36339 5.93852 4.37051 5.9261 4.37833 5.91473C4.44584 5.81347 4.5247 5.70439 4.61779 5.58536L4.64197 5.55409L4.65368 5.53989C4.73895 5.4333 4.82778 5.3267 4.91909 5.23006L4.939 5.20944V5.20766L4.95036 5.19523C5.05198 5.08864 5.14791 4.9927 5.24384 4.90495C5.33977 4.81719 5.44566 4.72731 5.56362 4.63244L5.61371 4.59336C5.72563 4.50667 5.83294 4.43061 5.9413 4.3592L5.97327 4.33931L5.97505 4.33753L5.98962 4.32864C6.09834 4.25758 6.19889 4.19754 6.29517 4.14353L5.54337 3.38816L5.30957 3.15437L5.07649 2.92272L3.80805 1.65394L3.77253 1.6795C3.7402 1.70189 3.70787 1.72393 3.67625 1.74738C3.63361 1.77865 3.59524 1.80884 3.55687 1.83833L3.50285 1.88062C3.26124 2.06786 3.02817 2.26789 2.80965 2.47503C2.72616 2.55391 2.64516 2.6335 2.56486 2.71557C2.50837 2.77384 2.45115 2.83282 2.39608 2.89322C2.32502 2.96997 2.25396 3.0485 2.18787 3.12702C2.08128 3.25031 1.97896 3.37573 1.88232 3.50115L1.82689 3.57221C1.8006 3.60774 1.77359 3.64044 1.74765 3.67561C1.72171 3.71079 1.69899 3.74417 1.67661 3.77899L1.65564 3.80954L4.14703 6.30094L4.14488 6.29666ZM11.7007 4.1439C11.7814 4.18867 11.8667 4.23981 11.9637 4.30093L12.0234 4.33931C12.2267 4.47237 12.4216 4.61796 12.6068 4.77526C12.6263 4.79125 12.6451 4.80796 12.6647 4.82573C12.7542 4.90389 12.8423 4.98773 12.928 5.0723C13.0136 5.15686 13.0999 5.24995 13.1767 5.33771L13.2225 5.39101C13.3812 5.57667 13.5278 5.77237 13.6613 5.9769L13.6986 6.03624C13.759 6.13288 13.8113 6.21743 13.8564 6.29844L14.8448 5.30965L16.3467 3.80813L16.33 3.78432C16.3037 3.74631 16.2778 3.70794 16.2508 3.67099C16.2291 3.64186 16.2074 3.61414 16.1854 3.58679L16.1385 3.52637C16.0177 3.36897 15.8919 3.21514 15.7647 3.07053C15.7072 3.00515 15.6492 2.94049 15.5899 2.87724C15.5451 2.82963 15.5021 2.78237 15.4567 2.73511C15.3946 2.67116 15.3318 2.60805 15.2683 2.54575C15.0907 2.37556 14.913 2.21389 14.7354 2.06573L14.7063 2.04192L14.6885 2.027C14.5851 1.94279 14.4803 1.86071 14.3737 1.78219C14.3346 1.75305 14.2966 1.72534 14.2575 1.69798L14.1921 1.65038L12.6899 3.15259L11.7007 4.1439ZM3.7775 10.8982C3.33172 9.67212 3.33172 8.32824 3.7775 7.10215L2.56948 5.89411L1.19481 4.51839C0.411333 5.88187 -0.000976563 7.42693 -0.000976562 8.99947C-0.000976563 10.572 0.411333 12.1171 1.19481 13.4806L2.5684 12.1052L3.7775 10.8982ZM13.8557 11.7023C13.8283 11.7502 13.7985 11.801 13.7686 11.8511C13.7633 11.8596 13.7555 11.8717 13.7487 11.8831L13.7466 11.8856L13.7381 11.9001L13.6432 12.0497C13.6315 12.0679 13.6208 12.0853 13.6077 12.1069C13.5433 12.2029 13.4751 12.2953 13.4044 12.3873C13.3892 12.4075 13.3721 12.4285 13.3554 12.4495C13.29 12.5322 13.2254 12.609 13.1589 12.684C13.1415 12.7049 13.1326 12.7149 13.1234 12.7245C13.0495 12.8055 12.9702 12.8875 12.8896 12.9675L12.847 13.0076L12.8281 13.0258C12.7613 13.089 12.6924 13.1515 12.621 13.2126L12.5648 13.2613C12.4771 13.3345 12.389 13.4034 12.2984 13.4717L12.2572 13.5008L12.2348 13.5168C12.1605 13.5704 12.0859 13.6198 12.0099 13.6699L11.9928 13.6809C11.9711 13.6955 11.948 13.7094 11.9264 13.7239C11.8525 13.7691 11.7768 13.8142 11.7004 13.8572L12.6892 14.8467L14.1911 16.3482L14.2113 16.334C14.2493 16.308 14.2874 16.2814 14.3243 16.254C14.3534 16.2331 14.3812 16.2114 14.4082 16.1894L14.4661 16.145C15.0989 15.6598 15.6649 15.0933 16.1495 14.4601L16.1904 14.4079C16.211 14.3827 16.2305 14.3557 16.2515 14.329C16.2785 14.2914 16.3041 14.2537 16.3304 14.216L16.3463 14.1929L14.8445 12.6911L13.8557 11.7023ZM16.8047 4.52015L15.43 5.89625L14.222 7.10427C14.6678 8.33036 14.6678 9.67425 14.222 10.9003L15.43 12.1084L16.8047 13.4837C17.5883 12.1203 18.0006 10.5752 18.0006 9.00266C18.0006 7.4301 17.5883 5.88502 16.8047 4.52158V4.52015ZM10.8974 14.2213C9.67157 14.6671 8.32791 14.6671 7.10207 14.2213L5.89405 15.4294L4.51903 16.8044C5.88229 17.5876 7.42702 17.9997 8.99922 17.9997C10.5714 17.9997 12.1161 17.5876 13.4794 16.8044L12.1055 15.4294L10.8974 14.2213ZM6.29979 13.8557C6.27741 13.844 6.25468 13.8302 6.23194 13.817L6.19889 13.7982C6.15803 13.7733 6.12072 13.7516 6.08413 13.7296C6.04753 13.7076 6.00952 13.6827 5.97292 13.6586L5.94592 13.6415C5.91963 13.6241 5.89262 13.606 5.86668 13.5885C5.82866 13.5626 5.79171 13.5367 5.75654 13.5107L5.72882 13.4912C5.7036 13.4731 5.67909 13.4557 5.65422 13.4358C5.62935 13.4159 5.60021 13.3942 5.57392 13.3733L5.55117 13.3555L5.51565 13.3278C5.49327 13.31 5.47158 13.2922 5.45061 13.2752C5.42965 13.2581 5.40194 13.2336 5.37636 13.2119L5.34971 13.1881L5.33516 13.1757C5.30816 13.153 5.28079 13.1284 5.25414 13.1046C5.22749 13.0808 5.21009 13.0634 5.18735 13.0414L5.15182 13.0091C5.09391 12.9533 5.04097 12.8993 4.98732 12.8442L4.96173 12.8179C4.93899 12.7937 4.91589 12.7696 4.89315 12.7447C4.87042 12.7198 4.84093 12.6864 4.81428 12.6555L4.8022 12.642L4.78373 12.6204C4.76348 12.5973 4.74356 12.5745 4.72331 12.5493C4.70306 12.5241 4.68318 12.5003 4.66328 12.4758L4.63769 12.4423L4.61139 12.4093C4.5954 12.3883 4.57871 12.3677 4.56307 12.3475C4.54744 12.3272 4.52754 12.2981 4.50942 12.2739L4.48242 12.2348L4.45508 12.1993L4.41314 12.14C4.38436 12.0977 4.35913 12.0576 4.33249 12.0163C4.31365 11.9879 4.29127 11.9538 4.27066 11.9201C4.24614 11.8806 4.22092 11.8383 4.19641 11.7964C4.17793 11.7651 4.16087 11.7324 4.14204 11.7019L3.15182 12.6907L1.65102 14.1926L1.67377 14.226C1.69615 14.2579 1.71745 14.2899 1.74019 14.3201C1.77998 14.3752 1.82227 14.4267 1.86384 14.4814L1.90151 14.5301C2.3751 15.1365 2.92435 15.6798 3.5359 16.1467L3.59666 16.1944L3.67091 16.2515C3.71497 16.2835 3.75902 16.3144 3.80344 16.3446L3.80805 16.3478L5.30922 14.8463L6.29979 13.8557Z" fill="#FF877F"/>
</g>
<defs>
<clipPath id="clip0">
<rect width="18" height="18" fill="white"/>
</clipPath>
</defs>
</svg>
