<svg width="18" height="18" viewBox="0 0 18 18" fill="none" xmlns="http://www.w3.org/2000/svg">
<path d="M9 2.25C12.7279 2.25 15.75 5.27208 15.75 9C15.75 12.7279 12.7279 15.75 9 15.75C7.71798 15.75 6.48701 15.3913 5.42297 14.7252C4.9896 14.454 4.58822 14.1342 4.22675 13.7727C3.86473 13.4106 3.54461 13.0085 3.27312 12.5744C2.60813 11.5109 2.25 10.2809 2.25 9C2.25 8.79448 2.25921 8.58998 2.27751 8.38692C2.31471 7.97438 2.67929 7.6701 3.09183 7.7073C3.50437 7.74449 3.80865 8.10908 3.77145 8.52162C3.75718 8.6799 3.75 8.83946 3.75 9C3.75 9.99763 4.02799 10.9524 4.54494 11.7791C4.75623 12.117 5.00551 12.4301 5.28747 12.7121C5.56901 12.9937 5.88156 13.2426 6.21884 13.4538C7.046 13.9715 8.00153 14.25 9 14.25C11.8995 14.25 14.25 11.8995 14.25 9C14.25 6.10051 11.8995 3.75 9 3.75C7.59648 3.75 6.28819 4.30455 5.32346 5.25153L6.37328 5.25256C6.7875 5.25256 7.12328 5.58835 7.12328 6.00256C7.12328 6.38719 6.83375 6.70419 6.46075 6.74752L6.37328 6.75256H3.37223C2.98761 6.75256 2.6706 6.46303 2.62728 6.09003L2.62223 6.00256V3.00263C2.62223 2.58842 2.95802 2.25263 3.37223 2.25263C3.75686 2.25263 4.07386 2.54216 4.11719 2.91517L4.12223 3.00263L4.12192 4.33384C5.37457 3.02368 7.12168 2.25 9 2.25ZM8.4375 5.25C8.72213 5.25 8.95759 5.46175 8.99486 5.73621L9 5.8125V9H10.6875C10.998 9 11.25 9.252 11.25 9.5625C11.25 9.84713 11.0382 10.0826 10.7638 10.1199L10.6875 10.125H8.4375C8.15287 10.125 7.91741 9.91325 7.88014 9.63879L7.875 9.5625V5.8125C7.875 5.502 8.127 5.25 8.4375 5.25Z" fill="#FF877F"/>
</svg>
