<svg width="14" height="14" viewBox="0 0 14 14" fill="none" xmlns="http://www.w3.org/2000/svg">
<path d="M13.7541 5.50308L12.0024 4.0754V1.79215C12.0024 1.53503 11.7932 1.32582 11.5361 1.32582H10.4338C10.1767 1.32582 9.96752 1.53503 9.96752 1.79215V2.4169L7.62687 0.509246C7.45755 0.371299 7.23439 0.295288 6.99852 0.295288C6.76358 0.295288 6.54148 0.370833 6.37309 0.508059L0.245883 5.50303C-0.0325128 5.72988 -0.01581 5.92747 0.01891 6.02506C0.0535452 6.12244 0.165082 6.28582 0.52271 6.28582H1.36171V12.8545C1.36171 13.3233 1.74206 13.7046 2.20958 13.7046H4.85915C5.32272 13.7046 5.68581 13.3312 5.68581 12.8545V10.1608C5.68581 9.92994 5.89799 9.71971 6.13094 9.71971H7.91146C8.13351 9.71971 8.31419 9.9176 8.31419 10.1608V12.8545C8.31419 13.3153 8.71218 13.7046 9.18325 13.7046H11.7904C12.2579 13.7046 12.6383 13.3233 12.6383 12.8545V6.28582H13.4773C13.8349 6.28582 13.9464 6.12244 13.9811 6.02506C14.0158 5.92747 14.0325 5.72988 13.7541 5.50308Z" fill="#FF877F"/>
</svg>
