<svg width="220" height="150" viewBox="0 0 220 150" fill="none" xmlns="http://www.w3.org/2000/svg">
<g clip-path="url(#clip0)">
<path opacity="0.24" d="M206.057 53.4374C203.176 69.1026 202.129 84.9987 202.931 100.863C203.514 112.648 204.372 126.276 194.731 134.234C184.208 142.93 167.811 139.608 153.576 140.199C134.622 140.985 116.824 149.668 97.8598 149.99C85.4573 150.211 73.3443 146.815 61.8141 142.694C47.1727 137.454 32.6654 130.704 22.4807 119.842C17.639 114.692 14.881 109.635 13.3978 104.469C11.4943 97.7892 11.7132 90.9015 12.2853 83.263C12.4054 81.6657 12.5431 79.9917 12.6773 78.3081C13.984 62.4401 7.75448 46.5625 16.8374 31.5794C25.7579 16.8839 45.7177 10.814 64.1802 9.40512C82.6427 7.99626 101.585 9.87154 119.451 5.43413C126.161 3.75053 132.666 1.19159 139.58 0.341799C146.001 -0.444093 152.527 0.268321 158.929 1.19159C169.058 2.65475 179.271 4.65782 188.241 9.16232C197.21 13.6668 204.881 20.9827 207.31 29.9853C209.348 37.6429 207.487 45.6648 206.057 53.4374Z" fill="#A568FF"/>
<path d="M202.875 81.8861C202.795 82.2026 202.633 82.4972 202.402 82.7455C202.269 82.8867 202.101 82.9964 201.911 83.0649C201.243 83.2982 200.523 82.9148 199.926 82.5474C198.609 81.774 197.343 80.9324 196.133 80.0268C195.427 79.4709 194.516 78.7489 194.488 77.9087C194.465 77.5944 194.561 77.2823 194.76 77.0238C194.991 76.7232 195.3 76.4787 195.661 76.3116C196.021 76.1444 196.421 76.0599 196.826 76.0654C197.632 76.0737 198.424 76.2543 199.139 76.5925C200.295 77.0456 201.301 77.7622 202.059 78.6723C202.439 79.125 202.709 79.6457 202.849 80.1998C202.99 80.7539 202.999 81.3287 202.875 81.8861Z" fill="#A568FF"/>
<path d="M202.4 82.7455C202.268 82.8867 202.1 82.9964 201.909 83.065C201.242 83.2982 200.522 82.9148 199.925 82.5474C198.608 81.774 197.342 80.9324 196.132 80.0268C195.426 79.4709 194.515 78.7489 194.486 77.9087C194.972 77.4846 195.62 77.2475 196.294 77.2474C197.104 77.2573 197.899 77.4378 198.618 77.7746C199.772 78.2324 200.778 78.9481 201.542 79.8543C202.221 80.6857 202.527 81.7184 202.4 82.7455Z" fill="url(#paint0_linear)"/>
<path d="M13.2479 83.8796C13.0989 84.1256 13.2479 83.6081 13.2479 83.8796V83.8796Z" fill="#FECB9C"/>
<path d="M85.5519 55.5907C84.7114 57.0315 82.1935 56.8686 81.0952 58.1273C80.6185 58.6672 80.4949 59.4051 80.3889 60.0952C79.9016 63.3154 79.3966 66.5261 78.8951 69.7368C80.2689 70.5003 81.6956 71.3341 82.4019 72.6535C83.1082 73.9729 82.6597 75.8482 81.1376 76.3306C79.4919 76.8098 77.984 75.4552 76.5149 74.631C74.8021 73.647 72.097 73.5384 71.1294 75.1613C72.097 75.6789 73.0894 76.2315 73.7286 77.0781C74.3678 77.9247 74.5585 79.1419 73.8628 79.9534C72.8457 81.097 70.8575 80.7265 69.3496 80.161C67.8416 79.5955 66.0335 78.9917 64.7269 79.8799C65.7421 80.5885 66.5889 81.4752 67.2166 82.4867C67.5944 83.0777 67.8664 83.8381 67.4461 84.4035C67.0259 84.969 66.1006 84.969 65.3272 84.8444C61.7534 84.2438 58.515 82.0778 54.9271 81.9309C54.7095 81.9181 54.4913 81.9181 54.2738 81.9309C50.5622 82.0299 47.5039 84.4035 44.308 86.1255C44.1821 86.198 44.0511 86.2631 43.916 86.3204C41.4872 87.6088 38.8554 88.5546 36.1114 89.1253C34.6812 89.4224 33.2545 89.2115 31.856 89.5917C30.2633 90.023 28.9602 90.9463 27.6677 91.8919C22.533 95.6872 17.3099 99.5975 13.3971 104.469C11.4936 97.7893 11.7126 90.9015 12.2847 83.263C13.2205 82.8957 13.9692 82.5986 14.0504 82.5506C17.7467 80.5571 21.4535 78.5722 25.171 76.5957C25.4439 76.4267 25.7475 76.3024 26.068 76.2283C27.1027 76.0686 27.8902 76.9535 28.434 77.7906C30.2563 75.3913 32.866 73.4969 35.5464 71.8996C38.5093 70.1041 41.6241 68.5292 44.7282 66.9414C47.5816 65.4782 50.4492 64.0279 53.3061 62.5615C56.4845 60.9642 59.7087 59.3157 63.1483 58.1848C66.0865 57.2264 69.173 56.6354 72.0547 55.5396C74.9929 54.4438 77.0588 53.3991 80.177 52.9327C81.3883 52.7602 83.3554 52.527 84.3936 53.0924C85.4319 53.6579 86.1099 54.6035 85.5519 55.5907Z" fill="#FECB9C"/>
<path d="M57.6958 80.3367C57.4769 81.097 56.375 81.3813 55.4639 81.4804C55.3486 81.5136 55.2421 81.5679 55.151 81.6399C55.0599 81.7118 54.9861 81.8 54.9342 81.8989C54.7167 81.8861 54.4984 81.8861 54.2809 81.8989C50.5693 81.9979 47.5111 84.3716 44.3151 86.0935C44.1892 86.166 44.0582 86.2311 43.9231 86.2884C43.637 85.4546 43.6512 83.0681 45.5935 77.5829C45.9466 76.6245 46.3421 75.3466 46.6529 74.4201C46.8342 73.8068 47.0999 73.2164 47.444 72.6631C48.6584 70.9616 50.5289 69.7295 52.6917 69.2064C52.8871 69.1357 53.0965 69.1024 53.3067 69.1084C53.517 69.1145 53.7236 69.1598 53.9136 69.2416C54.3233 69.462 54.3762 69.9667 54.242 70.3629C54.1078 70.759 53.8183 71.1104 53.6699 71.5066C53.059 72.9921 54.3762 74.4808 55.3968 75.797C56.2403 76.8574 56.9388 78.0063 57.4769 79.2185C57.6765 79.5616 57.753 79.9524 57.6958 80.3367Z" fill="url(#paint1_linear)"/>
<path d="M89.0325 62.4254L77.9076 50.4019C77.2705 49.7132 76.1368 49.6223 75.3755 50.1987L47.5072 71.3005C46.7459 71.8769 46.6454 72.9025 47.2825 73.5912L58.4074 85.6147C59.0446 86.3033 60.1782 86.3943 60.9395 85.8179L88.8078 64.7161C89.5691 64.1396 89.6697 63.1141 89.0325 62.4254Z" fill="#A568FF"/>
<path d="M89.0325 62.4254L77.9076 50.4019C77.2705 49.7132 76.1368 49.6223 75.3755 50.1987L47.5072 71.3005C46.7459 71.8769 46.6454 72.9025 47.2825 73.5912L58.4074 85.6147C59.0446 86.3033 60.1782 86.3943 60.9395 85.8179L88.8078 64.7161C89.5691 64.1396 89.6697 63.1141 89.0325 62.4254Z" fill="url(#paint2_linear)"/>
<path d="M86.8329 63.2737L76.4493 52.0512C75.8797 51.4356 74.8663 51.3543 74.1858 51.8696L50.2495 69.994C49.569 70.5093 49.4791 71.4261 50.0487 72.0417L60.4324 83.2641C61.002 83.8797 62.0154 83.961 62.6959 83.4458L86.6321 65.3213C87.3126 64.806 87.4025 63.8893 86.8329 63.2737Z" fill="#FFFBFF"/>
<path d="M31.082 68.8582C32.5185 67.6409 34.074 66.5438 35.7294 65.5804C37.5208 64.6372 39.3912 63.8222 41.3232 63.1429C44.9677 61.7724 48.6157 60.3955 52.3908 59.3668C53.5385 59.0473 54.6933 58.7726 55.8481 58.4946L65.8316 56.0731C66.1459 56.9772 65.6055 57.9356 65.0017 58.7087C63.1174 61.1212 60.4779 62.9682 57.4231 64.0119C56.5579 64.3058 55.6574 64.5422 54.9229 65.0629C54.3888 65.4964 53.9146 65.9866 53.5103 66.5229C51.3031 69.0786 48.0718 71.0242 46.8005 74.0559C46.3732 75.0623 46.1754 76.1612 45.5433 77.0717C44.837 78.0717 43.7069 78.7362 42.6016 79.3655C38.3638 81.7903 33.9989 84.2406 29.1255 85.3651C28.5499 85.543 27.9303 85.5696 27.3386 85.4418C26.7614 85.2136 26.2651 84.8454 25.9048 84.378C24.6053 82.9947 23.2033 81.6465 21.992 80.1993C20.8266 78.8032 21.3846 77.9279 22.5676 76.7363C25.2474 73.974 28.0897 71.3441 31.082 68.8582Z" fill="#FECB9C"/>
<path d="M75.6726 68.0248L68.4727 59.9556L64.0347 63.1963L71.2347 71.2654L75.6726 68.0248Z" fill="#FFFBFF"/>
<path d="M203.012 105.747C199.014 100.275 193.332 96.0194 187.742 91.8472C186.463 90.8887 185.16 89.9783 183.557 89.547C182.169 89.1668 180.732 89.3777 179.298 89.0806C176.504 88.4969 173.826 87.5271 171.359 86.2053L171.116 86.0712C167.937 84.3492 164.861 81.9756 161.15 81.8765C160.438 81.857 159.726 81.9193 159.031 82.0618C156.015 82.6145 153.2 84.2981 150.114 84.8029C149.365 84.9275 148.454 84.9275 147.995 84.362C147.536 83.7966 147.857 83.0458 148.225 82.4452C148.854 81.4309 149.706 80.5438 150.728 79.8383C149.422 78.9502 147.6 79.5668 146.106 80.1195C144.612 80.6722 142.595 81.0555 141.593 79.9118C140.886 79.11 141.059 77.8928 141.713 77.0366C142.366 76.1804 143.358 75.6469 144.312 75.1198C143.358 73.4969 140.639 73.6055 138.926 74.5895C137.471 75.4137 135.963 76.7682 134.318 76.289C132.796 75.8194 132.358 73.9154 133.039 72.612C133.721 71.3085 135.158 70.4587 136.546 69.6952C136.045 66.4846 135.554 63.2739 135.052 60.0537C134.957 59.3636 134.819 58.6256 134.346 58.0857C133.248 56.8079 130.73 56.99 129.903 55.5492C129.345 54.5652 129.999 53.6323 131.044 53.0541C132.089 52.4759 134.049 52.7346 135.246 52.8944C138.386 53.3608 140.438 54.4055 143.39 55.5012C146.258 56.597 149.358 57.188 152.282 58.1464C155.722 59.2774 158.943 60.913 162.139 62.5232C164.996 63.9895 167.849 65.4399 170.717 66.9031C173.831 68.5004 176.932 70.0658 179.898 71.8612C182.579 73.4586 185.196 75.353 187.025 77.7522C187.555 76.9152 188.342 76.0303 189.387 76.19C189.705 76.2633 190.005 76.3877 190.274 76.5574C193.987 78.5381 197.698 80.5231 201.408 82.5123C201.666 82.6465 202.588 83.2215 202.726 83.4547C202.436 90.7865 202.182 98.4889 203.012 105.747Z" fill="#FECB9C"/>
<path d="M195.157 78.8608L193.494 78.0685C193.416 78.0207 193.322 77.9992 193.229 78.0078C193.145 78.0349 193.076 78.0897 193.035 78.1611C192.747 78.6259 192.558 79.1351 192.477 79.6627C191.935 81.8662 190.824 83.9224 189.235 85.6623C188.345 86.6366 187.268 87.5791 186.957 88.8026C186.646 90.0262 187.158 91.2785 187.995 92.2433C188.832 93.2081 189.998 93.9269 191.131 94.5658C192.265 95.2048 193.465 95.8437 194.437 96.7127C197.082 95.1473 198.537 92.3998 199.642 89.7195C199.698 89.5789 199.811 89.4 199.995 89.432C200.071 89.4532 200.137 89.4971 200.182 89.5566C201.051 90.4767 201.556 91.6874 202.654 92.3967L203.064 83.8637C203.092 83.6848 203.065 83.5025 202.986 83.3365C202.863 83.1776 202.691 83.0545 202.492 82.9819C200.235 81.9145 198.083 80.6736 196.061 79.2729" fill="url(#paint3_linear)"/>
<path d="M202.168 83.8796C202.168 83.6081 202.331 84.1256 202.168 83.8796V83.8796Z" fill="#FECB9C"/>
<path d="M177.017 83.9659C177.05 84.4024 176.97 84.84 176.784 85.2438C176.321 86.0424 175.152 86.2277 174.16 86.2661C173.226 86.2971 172.291 86.28 171.359 86.2149L171.116 86.0808C167.937 84.3588 164.862 81.9852 161.15 81.8861C160.438 81.8666 159.726 81.9289 159.031 82.0714C158.32 81.6245 157.668 81.1045 157.089 80.522C156.25 79.6474 155.635 78.6162 155.287 77.5019C154.939 76.3875 154.867 75.2175 155.076 74.0751C155.81 70.2639 161.786 65.4782 165.204 69.9923C166.251 71.4359 167.484 72.7614 168.877 73.941C171.038 75.7619 174.301 76.2156 175.961 78.6276C176.989 80.1898 177.017 82.1066 177.017 83.9659Z" fill="url(#paint4_linear)"/>
<path d="M157.016 85.6123L168.141 73.5888C168.778 72.9001 168.678 71.8746 167.917 71.2981L140.048 50.1963C139.287 49.6199 138.153 49.7109 137.516 50.3996L126.391 62.4231C125.754 63.1117 125.855 64.1373 126.616 64.7137L154.484 85.8155C155.245 86.392 156.379 86.301 157.016 85.6123Z" fill="#A568FF"/>
<path d="M157.016 85.6123L168.141 73.5888C168.778 72.9001 168.678 71.8746 167.917 71.2981L140.048 50.1963C139.287 49.6199 138.153 49.7109 137.516 50.3996L126.391 62.4231C125.754 63.1117 125.855 64.1373 126.616 64.7137L154.484 85.8155C155.245 86.392 156.379 86.301 157.016 85.6123Z" fill="url(#paint5_linear)"/>
<path d="M154.989 83.2562L165.373 72.0337C165.943 71.4181 165.853 70.5014 165.172 69.9861L141.236 51.8616C140.555 51.3464 139.542 51.4277 138.972 52.0433L128.589 63.2657C128.019 63.8813 128.109 64.7981 128.79 65.3134L152.726 83.4378C153.406 83.9531 154.42 83.8718 154.989 83.2562Z" fill="#FFFBFF"/>
<path d="M184.348 68.8582C182.912 67.6417 181.358 66.5447 179.704 65.5804C177.911 64.6372 176.04 63.8222 174.107 63.1429C170.466 61.7724 166.814 60.3955 163.039 59.3668C161.895 59.0473 160.736 58.7726 159.582 58.4946L149.598 56.0731C149.284 56.9772 149.824 57.9356 150.428 58.7087C152.312 61.1212 154.952 62.9682 158.007 64.0119C158.872 64.3058 159.772 64.5422 160.51 65.0629C161.044 65.4971 161.518 65.9873 161.923 66.5229C164.13 69.0786 167.361 71.0242 168.65 74.0559C169.078 75.0623 169.276 76.1612 169.911 77.0717C170.617 78.0717 171.744 78.7362 172.849 79.3655C177.105 81.7903 181.452 84.2406 186.325 85.3651C186.901 85.543 187.521 85.5696 188.112 85.4418C188.69 85.2128 189.187 84.8448 189.55 84.378C190.846 82.9947 192.251 81.6465 193.459 80.1993C194.624 78.8032 194.066 77.9279 192.883 76.7363C190.197 73.9735 187.347 71.3436 184.348 68.8582Z" fill="#FECB9C"/>
<path d="M144.191 71.2586L151.391 63.1895L146.953 59.9488L139.753 68.018L144.191 71.2586Z" fill="#FFFBFF"/>
<path d="M89.8213 57.1497L89.0762 56.2073C90.5378 55.3292 92.0894 54.5804 93.7094 53.971L94.2144 55.0348C92.6796 55.6127 91.2086 56.3209 89.8213 57.1497ZM123.561 55.2009C122.016 54.6047 120.432 54.0947 118.818 53.6739L119.171 52.5621C120.836 52.9956 122.469 53.5216 124.062 54.1371L123.561 55.2009ZM98.9572 53.5269L98.6041 52.4088C100.278 51.9932 101.982 51.6815 103.703 51.4759L103.869 52.626C102.211 52.8234 100.57 53.1244 98.9572 53.5269ZM113.906 52.7155C112.248 52.4941 110.574 52.3756 108.898 52.3609V51.2012C110.634 51.218 112.366 51.3418 114.082 51.5718L113.906 52.7155Z" fill="#A568FF"/>
<path d="M195.422 78.5573C195.422 78.5573 188.232 89.4544 187.741 91.8472C187.25 94.24 192.488 97.9522 193.635 97.9522C194.783 97.9522 201.38 82.5506 201.38 82.5506C201.38 82.5506 199.886 79.7138 195.422 78.5573Z" fill="#A568FF"/>
<path d="M195.603 78.6116C195.603 78.6116 188.519 89.6141 188.032 92.0292C187.545 94.4444 192.775 98.1311 193.922 98.1311C195.07 98.1311 201.437 82.6337 201.437 82.6337C201.437 82.6337 200.067 79.7649 195.603 78.6116Z" fill="url(#paint6_linear)"/>
<path opacity="0.24" d="M68.6104 73.8483C72.3454 73.8483 75.3732 71.1093 75.3732 67.7305C75.3732 64.3517 72.3454 61.6127 68.6104 61.6127C64.8754 61.6127 61.8477 64.3517 61.8477 67.7305C61.8477 71.1093 64.8754 73.8483 68.6104 73.8483Z" fill="#A568FF"/>
<path opacity="0.24" d="M147.44 73.4777C151.175 73.4777 154.203 70.7387 154.203 67.3599C154.203 63.9811 151.175 61.2421 147.44 61.2421C143.706 61.2421 140.678 63.9811 140.678 67.3599C140.678 70.7387 143.706 73.4777 147.44 73.4777Z" fill="#A568FF"/>
<path d="M100.368 38.837H98.2283C98.1062 38.0398 97.4702 37.2995 96.5395 36.844H100.368C100.599 36.844 100.789 36.7158 100.789 36.5592C100.789 36.4026 100.599 36.2745 100.368 36.2745H91.4563C91.2247 36.2745 91.0352 36.4026 91.0352 36.5592C91.0352 36.7158 91.2247 36.844 91.4563 36.844H94.0084C95.7435 36.844 97.1754 37.7266 97.3818 38.837H91.4563C91.2247 38.837 91.0352 38.9652 91.0352 39.1218C91.0352 39.2784 91.2247 39.4065 91.4563 39.4065H97.3818C97.1712 40.5596 95.7225 41.4252 94.0084 41.4281H91.4605C91.2247 41.4309 91.0352 41.5619 91.0394 41.7213C91.0394 41.7982 91.0899 41.8722 91.1699 41.9263L97.5418 46.0008C97.7103 46.109 97.9756 46.1033 98.1356 45.9894C98.2957 45.8726 98.2872 45.6933 98.1188 45.5822L92.5134 41.9975H94.0042C96.2026 41.9975 98.0177 40.8586 98.2283 39.4065H100.368C100.599 39.4065 100.789 39.2784 100.789 39.1218C100.789 38.9652 100.599 38.837 100.368 38.837Z" fill="#A568FF"/>
<path d="M131.254 38.837H129.115C128.993 38.0398 128.357 37.2995 127.426 36.844H131.254C131.486 36.844 131.676 36.7158 131.676 36.5592C131.676 36.4026 131.486 36.2745 131.254 36.2745H122.343C122.111 36.2745 121.922 36.4026 121.922 36.5592C121.922 36.7158 122.111 36.844 122.343 36.844H124.895C126.63 36.844 128.062 37.7266 128.269 38.837H122.343C122.111 38.837 121.922 38.9652 121.922 39.1218C121.922 39.2784 122.111 39.4065 122.343 39.4065H128.269C128.058 40.5596 126.609 41.4252 124.895 41.4281H122.347C122.111 41.4309 121.922 41.5619 121.926 41.7213C121.926 41.7982 121.977 41.8722 122.057 41.9263L128.429 46.0008C128.597 46.109 128.862 46.1033 129.022 45.9894C129.182 45.8726 129.174 45.6933 129.006 45.5822L123.4 41.9975H124.891C127.089 41.9975 128.904 40.8586 129.115 39.4065H131.254C131.486 39.4065 131.676 39.2784 131.676 39.1218C131.676 38.9652 131.486 38.837 131.254 38.837Z" fill="#A568FF"/>
<path d="M110.663 61.8763H108.523C108.401 61.079 107.765 60.3387 106.834 59.8832H110.663C110.894 59.8832 111.084 59.755 111.084 59.5984C111.084 59.4418 110.894 59.3137 110.663 59.3137H101.751C101.52 59.3137 101.33 59.4418 101.33 59.5984C101.33 59.755 101.52 59.8832 101.751 59.8832H104.303C106.038 59.8832 107.47 60.7658 107.677 61.8763H101.751C101.52 61.8763 101.33 62.0044 101.33 62.161C101.33 62.3176 101.52 62.4457 101.751 62.4457H107.677C107.466 63.5989 106.017 64.4644 104.303 64.4673H101.755C101.52 64.4701 101.33 64.6011 101.334 64.7605C101.334 64.8374 101.385 64.9114 101.465 64.9655L107.837 69.04C108.005 69.1482 108.271 69.1425 108.431 69.0286C108.591 68.9119 108.582 68.7325 108.414 68.6214L102.808 65.0367H104.299C106.498 65.0367 108.313 63.8978 108.523 62.4457H110.663C110.894 62.4457 111.084 62.3176 111.084 62.161C111.084 62.0044 110.894 61.8763 110.663 61.8763Z" fill="#A568FF"/>
</g>
<defs>
<linearGradient id="paint0_linear" x1="199.914" y1="77.9279" x2="197.46" y2="82.8141" gradientUnits="userSpaceOnUse">
<stop stop-color="#010101" stop-opacity="0"/>
<stop offset="0.95" stop-color="#010101"/>
</linearGradient>
<linearGradient id="paint1_linear" x1="1048.77" y1="4533.67" x2="5874.2" y2="3645.13" gradientUnits="userSpaceOnUse">
<stop stop-color="#010101" stop-opacity="0"/>
<stop offset="0.95" stop-color="#010101"/>
</linearGradient>
<linearGradient id="paint2_linear" x1="4510.01" y1="8380.86" x2="-1259.19" y2="7687.23" gradientUnits="userSpaceOnUse">
<stop stop-color="#010101" stop-opacity="0"/>
<stop offset="0.95" stop-color="#010101"/>
</linearGradient>
<linearGradient id="paint3_linear" x1="7742.11" y1="4295.44" x2="10741.2" y2="6764.53" gradientUnits="userSpaceOnUse">
<stop stop-color="#010101" stop-opacity="0"/>
<stop offset="0.95" stop-color="#010101"/>
</linearGradient>
<linearGradient id="paint4_linear" x1="8816.19" y1="5284.44" x2="15639.5" y2="-397.849" gradientUnits="userSpaceOnUse">
<stop stop-color="#010101" stop-opacity="0"/>
<stop offset="0.95" stop-color="#010101"/>
</linearGradient>
<linearGradient id="paint5_linear" x1="7336.9" y1="8917.72" x2="14505.9" y2="6697.47" gradientUnits="userSpaceOnUse">
<stop stop-color="#010101" stop-opacity="0"/>
<stop offset="0.95" stop-color="#010101"/>
</linearGradient>
<linearGradient id="paint6_linear" x1="7212.28" y1="5279.98" x2="7505.92" y2="7217.55" gradientUnits="userSpaceOnUse">
<stop stop-color="#010101" stop-opacity="0"/>
<stop offset="0.95" stop-color="#010101"/>
</linearGradient>
<clipPath id="clip0">
<rect width="220" height="150" fill="white"/>
</clipPath>
</defs>
</svg>
