<svg width="27" height="27" viewBox="0 0 27 27" fill="none" xmlns="http://www.w3.org/2000/svg">
<path d="M19.6875 3.65289C19.4543 3.65289 19.2656 3.8416 19.2656 4.07477C19.2656 4.30798 19.4543 4.49664 19.6875 4.49664C21.1719 4.49664 22.3794 5.70418 22.3794 7.18858C22.3794 7.42176 22.5681 7.61046 22.8013 7.61046C23.0345 7.61046 23.2231 7.42176 23.2231 7.18858C23.2231 5.23906 21.637 3.65289 19.6875 3.65289Z" fill="#FF877F"/>
<path d="M3.77539 7.18858C3.77539 7.42176 3.96405 7.61046 4.19727 7.61046C4.43044 7.61046 4.61914 7.42176 4.61914 7.18858C4.61914 5.70418 5.82667 4.49664 7.31104 4.49664C7.54425 4.49664 7.73292 4.30798 7.73292 4.07477C7.73292 3.8416 7.54425 3.65289 7.31104 3.65289C5.36151 3.65289 3.77539 5.23906 3.77539 7.18858Z" fill="#FF877F"/>
<path d="M20.3105 0.539124C20.0773 0.539124 19.8887 0.727828 19.8887 0.960999C19.8887 1.19417 20.0773 1.38287 20.3105 1.38287C23.1685 1.38287 25.4937 3.7077 25.4937 6.56565C25.4937 6.79886 25.6824 6.98753 25.9156 6.98753C26.1488 6.98753 26.3375 6.79886 26.3375 6.56565C26.3375 3.24258 23.6336 0.539124 20.3105 0.539124Z" fill="#FF877F"/>
<path d="M7.11055 0.960999C7.11055 0.727828 6.92185 0.539124 6.68868 0.539124C3.36557 0.539124 0.662109 3.24258 0.662109 6.56565C0.662109 6.79886 0.850814 6.98753 1.08398 6.98753C1.31715 6.98753 1.50586 6.79886 1.50586 6.56565C1.50586 3.7077 3.83069 1.38287 6.68868 1.38287C6.92185 1.38287 7.11055 1.19417 7.11055 0.960999Z" fill="#FF877F"/>
<path d="M21.8489 19.4915C21.7949 19.33 21.6931 19.1976 21.5695 19.0923C21.5795 18.8352 21.5858 18.5766 21.5858 18.3156C21.5858 12.5697 19.2059 7.70349 15.9181 6.03464C15.9671 5.8361 15.9959 5.62959 15.9959 5.41587C15.9959 3.99103 14.8408 2.83594 13.416 2.83594C11.9912 2.83594 10.8361 3.99103 10.8361 5.41587C10.8361 5.62959 10.8649 5.8361 10.9139 6.03464C7.62606 7.70349 5.24618 12.5697 5.24618 18.3156C5.24618 18.5766 5.25251 18.8352 5.26246 19.0923C5.1389 19.1976 5.03714 19.33 4.98314 19.4915L3.76076 23.1477C3.56281 23.7398 4.0035 24.3516 4.62792 24.3516H10.5868C10.95 25.5711 12.0784 26.4609 13.416 26.4609C14.7536 26.4609 15.882 25.5711 16.2452 24.3516H22.2041C22.8285 24.3516 23.2692 23.7398 23.0712 23.1477L21.8489 19.4915ZM11.3031 6.80148L11.9125 6.49216L11.7488 5.82868C11.7133 5.68469 11.696 5.54965 11.696 5.41587C11.696 4.4675 12.4676 3.69593 13.416 3.69593C14.3644 3.69593 15.136 4.4675 15.136 5.41587C15.136 5.54965 15.1187 5.68469 15.0832 5.82868L14.9195 6.49216L15.5289 6.80148C18.5888 8.35465 20.7258 13.0894 20.7258 18.3156C20.7258 18.4921 20.7233 18.6708 20.7182 18.851H6.11381C6.10874 18.6708 6.10617 18.4921 6.10617 18.3156C6.10617 13.0894 8.24322 8.35465 11.3031 6.80148ZM13.416 25.6172C12.5527 25.6172 11.8089 25.096 11.4828 24.3516H15.3492C15.0231 25.096 14.2793 25.6172 13.416 25.6172ZM22.2615 23.4785C22.2403 23.5078 22.2149 23.5078 22.2041 23.5078H16.3691H10.4629H4.62792C4.61708 23.5078 4.59168 23.5078 4.57055 23.4785C4.54958 23.4493 4.55755 23.4255 4.56097 23.4153L5.78335 19.7591C5.79301 19.7303 5.81989 19.7109 5.85035 19.7109H20.9817C21.0121 19.7109 21.039 19.7303 21.0486 19.759L22.271 23.4153C22.2744 23.4255 22.2824 23.4493 22.2615 23.4785Z" fill="#FF877F"/>
</svg>
