<svg width="18" height="18" viewBox="0 0 18 18" fill="none" xmlns="http://www.w3.org/2000/svg">
<g clip-path="url(#clip0)">
<path d="M0.760745 10.3599L1.94041 10.3673C2.1168 11.275 2.46592 12.157 2.99512 12.9581L2.15723 13.7887C1.85588 14.0863 1.85588 14.5678 2.14988 14.8691L3.05392 15.7842C3.35159 16.0855 3.83301 16.0855 4.13435 15.7915L4.97224 14.961C5.76603 15.4975 6.64435 15.8613 7.55206 16.0451L7.54471 17.2248C7.54104 17.6474 7.88281 17.9891 8.30543 17.9928L9.59166 18.0002C10.0143 18.0038 10.356 17.6621 10.3597 17.2395L10.3671 16.0598C11.2748 15.8834 12.1568 15.5343 12.9579 15.0051L13.7885 15.843C14.0861 16.1443 14.5675 16.1443 14.8689 15.8503L15.784 14.9463C16.0853 14.6486 16.0853 14.1672 15.7913 13.8658L14.9608 13.028C15.4973 12.2342 15.8611 11.3559 16.0449 10.4481L17.2245 10.4555C17.6472 10.4592 17.9889 10.1174 17.9926 9.69477L18 8.40854C18.0036 7.98592 17.6619 7.64415 17.2392 7.64047L16.0596 7.63312C15.8832 6.72541 15.5341 5.84342 15.0049 5.04228L15.8428 4.21174C16.1441 3.91407 16.1441 3.43265 15.8501 3.1313L14.9461 2.21624C14.6484 1.91489 14.167 1.91489 13.8656 2.20889L13.0277 3.03943C12.234 2.50289 11.3556 2.13907 10.4479 1.95532L10.4553 0.775658C10.4589 0.353039 10.1172 0.0112678 9.69456 0.00759289L8.40832 0.000242984C7.9857 -0.00343197 7.64393 0.338339 7.64026 0.760959L7.62923 1.94062C6.71785 2.11702 5.83586 2.46614 5.03839 2.99533L4.20785 2.15744C3.91018 1.85609 3.42876 1.85609 3.12742 2.15009L2.21603 3.05413C1.91468 3.3518 1.91468 3.83322 2.20868 4.13457L3.03922 4.97246C2.50267 5.76625 2.13885 6.64456 1.9551 7.55227L0.775445 7.54492C0.352825 7.54125 0.0110542 7.88302 0.00737927 8.30564L2.93614e-05 9.59187C-0.00364559 10.0108 0.338125 10.3563 0.760745 10.3599ZM6.58922 6.56371C7.93426 5.23338 10.0988 5.2444 11.4291 6.58944C12.7595 7.93447 12.7484 10.099 11.4034 11.4293C10.0584 12.7597 7.89383 12.7487 6.5635 11.4036C5.23316 10.0586 5.24419 7.89404 6.58922 6.56371Z" fill="#FF877F"/>
</g>
<defs>
<clipPath id="clip0">
<rect width="18" height="18" fill="white"/>
</clipPath>
</defs>
</svg>
