<svg width="18" height="18" viewBox="0 0 18 18" fill="none" xmlns="http://www.w3.org/2000/svg">
<path d="M5.8319 1.45512C2.28536 1.85742 -0.314196 5.34348 0.259104 8.93286C0.672204 11.4966 2.61998 13.6012 5.10182 14.1638C5.29766 14.2101 5.4863 14.2706 5.52554 14.3028C5.56118 14.3348 5.9066 14.7515 6.29108 15.2321C6.67574 15.7129 7.08164 16.1971 7.19198 16.3075C7.41626 16.5317 7.6229 16.6244 7.76528 16.5602C7.80794 16.5388 8.31014 15.937 8.87624 15.2213L9.9089 13.918H10.6744C11.618 13.9144 12.3196 13.8645 12.7788 13.772C14.6589 13.3875 16.3041 12.1376 17.1552 10.4425C18.2946 8.16354 17.9493 5.48928 16.2649 3.56292C15.2358 2.38068 13.7332 1.61514 12.1378 1.45134C11.6967 1.40868 6.23078 1.40868 5.8319 1.45512ZM12.658 2.0853C14.1891 2.42352 15.4675 3.27816 16.3079 4.53168C17.1982 5.8599 17.4795 7.4907 17.0842 9.054C16.6249 10.8842 15.1613 12.4475 13.3631 13.0351C12.5904 13.2878 12.1204 13.3448 10.7637 13.3448C10.1085 13.3448 9.72044 13.3591 9.674 13.3839C9.61712 13.4123 8.42768 14.8723 7.69058 15.8161L7.61228 15.9194L7.51616 15.8339C7.4663 15.7876 7.1423 15.3959 6.80048 14.965C6.12044 14.1176 5.86394 13.8256 5.72516 13.7543C5.6753 13.7295 5.5043 13.6831 5.3441 13.6476C3.3677 13.2487 1.70126 11.7459 1.04606 9.7803C0.807564 9.06822 0.761304 8.75124 0.761304 7.91442C0.761304 7.27344 0.771924 7.11324 0.843204 6.79284C1.01762 5.97024 1.32398 5.24736 1.77974 4.56012C2.14658 4.01166 2.85866 3.30318 3.41054 2.93634C4.16546 2.43774 4.98446 2.12796 5.84972 2.0106C5.9102 1.99998 7.3844 1.99638 9.12572 1.99998C12.27 2.0034 12.2984 2.007 12.658 2.0853Z" fill="#FF877F"/>
<path d="M3.74227 5.47166C3.36121 5.61044 3.08347 5.87054 2.89843 6.25862C2.79511 6.47228 2.78809 6.51854 2.78809 6.86756C2.78809 7.2272 2.79169 7.25204 2.92345 7.51214C3.07663 7.82552 3.30451 8.0534 3.61789 8.20658C3.82093 8.3063 3.82435 8.3063 4.70041 8.32412L5.57989 8.34194L5.68663 8.44526C5.85763 8.60906 5.92171 8.82272 5.92171 9.2144C5.92171 9.39962 5.90029 9.6203 5.87545 9.7058C5.81497 9.90524 5.64397 10.0939 5.48377 10.1401C5.40907 10.1616 4.91407 10.1758 4.33357 10.1758C3.31873 10.1758 3.31513 10.1758 3.24043 10.2577C3.14071 10.361 3.14071 10.4962 3.23683 10.6173L3.31153 10.7134L4.49377 10.7028C5.84683 10.6922 5.82199 10.6956 6.12817 10.3538C6.37387 10.0831 6.44515 9.8588 6.46639 9.31394C6.48061 8.92586 6.46999 8.82974 6.40591 8.61608C6.29557 8.24582 6.14599 8.04638 5.87527 7.90742L5.64739 7.78988H4.89247C4.04863 7.78988 3.89905 7.76486 3.66397 7.57982C3.46813 7.42322 3.32215 7.12046 3.32215 6.86414C3.32215 6.60782 3.46813 6.30506 3.66397 6.14846C3.90247 5.95982 4.03783 5.9384 5.01703 5.9384C5.50123 5.9384 5.92513 5.92778 5.95717 5.91698C6.11737 5.8529 6.12817 5.5217 5.97499 5.4398C5.93575 5.41838 5.49781 5.40416 4.91749 5.40416C4.04485 5.40758 3.90607 5.41478 3.74227 5.47166Z" fill="#FF877F"/>
<path d="M8.59125 5.45041C8.17113 5.59279 7.85415 5.86711 7.67253 6.25159L7.55859 6.49009V8.05699V9.62371L7.67253 9.86221C7.81851 10.1756 8.07483 10.4319 8.38821 10.5779C8.60907 10.6846 8.65533 10.6918 9.00075 10.6918C9.34617 10.6918 9.39243 10.6846 9.61329 10.5779C9.92667 10.4319 10.183 10.1756 10.329 9.86221L10.4429 9.62371V8.05699V6.49027L10.329 6.25177C10.183 5.93839 9.92667 5.68207 9.61329 5.53609C9.41025 5.43997 9.32835 5.42215 9.05421 5.41495C8.85837 5.40757 8.68035 5.42179 8.59125 5.45041ZM9.44229 6.07357C9.61671 6.16969 9.72363 6.28363 9.84117 6.50809C9.90525 6.62203 9.90885 6.73597 9.90885 8.05699C9.90885 9.37801 9.90525 9.49195 9.84117 9.60589C9.72021 9.83377 9.61689 9.94411 9.42447 10.051C9.15393 10.197 8.84757 10.197 8.57703 10.051C8.38479 9.94429 8.28147 9.83377 8.16033 9.60589C8.09985 9.49195 8.09265 9.37081 8.08203 8.21719C8.07483 7.52275 8.07843 6.87115 8.09265 6.77143C8.12469 6.49729 8.29911 6.23017 8.53419 6.09139C8.63751 6.03091 8.76567 5.97025 8.81913 5.96323C8.99733 5.93101 9.26787 5.98087 9.44229 6.07357Z" fill="#FF877F"/>
<path d="M12.5375 5.45743C11.8645 5.66389 11.4051 6.40459 11.5262 7.08481C11.6117 7.56901 11.9428 8.00713 12.3737 8.20999C12.5731 8.30251 12.6088 8.30611 13.3637 8.32393C13.9975 8.33815 14.1685 8.35597 14.254 8.40223C14.5816 8.58025 14.7382 9.00037 14.6635 9.52039C14.6456 9.66997 14.5922 9.85519 14.5495 9.92989C14.4178 10.1684 14.3785 10.1756 13.168 10.1756C12.5377 10.1756 12.0677 10.1898 12.0286 10.2112C11.8612 10.3003 11.8933 10.6492 12.0713 10.692C12.1175 10.7026 12.673 10.7098 13.3104 10.7026L14.4712 10.692L14.6456 10.5995C14.8557 10.4928 15.0195 10.2897 15.1264 10.0084C15.2225 9.75565 15.2618 9.14671 15.2011 8.86177C15.112 8.44867 14.8485 8.08543 14.5031 7.90381C14.3287 7.81129 14.3036 7.80769 13.5239 7.78987C12.6336 7.76845 12.5625 7.75063 12.3274 7.49791C12.1352 7.29487 12.0817 7.15969 12.0817 6.86413C12.0817 6.67189 12.1031 6.56137 12.1494 6.47245C12.2385 6.29803 12.4129 6.12343 12.5803 6.03451C12.7157 5.95981 12.7762 5.95621 13.7091 5.94541L14.6991 5.93479L14.7704 5.84227C14.8629 5.72473 14.8595 5.61799 14.7668 5.49685L14.6955 5.40433L13.6913 5.40793C12.9648 5.40757 12.6444 5.42179 12.5375 5.45743Z" fill="#FF877F"/>
</svg>
