<svg width="14" height="14" viewBox="0 0 14 14" fill="none" xmlns="http://www.w3.org/2000/svg">
<g clip-path="url(#clip0)">
<path d="M9.96648 11.7542C10.2112 11.7542 10.4095 11.5405 10.4095 11.2768C10.4095 11.0132 10.2112 10.7995 9.96648 10.7995C9.7218 10.7995 9.52344 11.0132 9.52344 11.2768C9.52344 11.5405 9.7218 11.7542 9.96648 11.7542Z" fill="#FF877F"/>
<path d="M4.76781 9.51035C4.55629 9.29883 4.3019 9.16449 4.03321 9.16449C3.75595 9.16449 3.4987 9.29883 3.29004 9.51892C3.69021 9.43317 4.199 9.38744 4.76781 9.51035Z" fill="#FF877F"/>
<path d="M13.9887 12.8547C13.6457 10.488 12.2565 8.48711 10.3443 7.39807C10.4329 8.06407 10.5215 9.19884 10.31 10.1993C10.733 10.3536 11.0446 10.7766 11.0446 11.2769C11.0446 11.9114 10.5672 12.4088 9.96697 12.4088C9.36672 12.4088 8.88937 11.9 8.88937 11.2769C8.88937 10.7338 9.24381 10.2879 9.72401 10.165C10.0127 8.98732 9.77832 7.46382 9.71258 7.07508C9.6354 7.04078 9.55823 7.00934 9.47819 6.97504C8.83506 7.64103 7.96612 8.05264 7 8.05264C6.05674 8.05264 5.1878 7.65247 4.55611 7.00934C4.45606 7.23229 4.26741 7.77538 4.30171 8.58715C5.24497 8.7758 5.96813 9.93058 5.96813 11.3197C5.96813 11.8314 5.86809 12.343 5.67944 12.7746C5.57654 13.1005 5.14493 13.232 4.94484 13.232C4.64472 13.232 4.40176 12.9776 4.40176 12.6546C4.40176 12.3316 4.64757 12.0772 4.94484 12.0772C5.03345 12.0772 5.15636 12.1001 5.2907 12.1544C5.51937 11.4941 5.34501 10.5994 5.2364 10.2993C4.17023 9.81053 3.19267 10.145 2.83538 10.2993C2.73534 10.5994 2.54383 11.4169 2.78107 12.1544C2.91541 12.1001 3.03546 12.0772 3.12693 12.0772C3.42706 12.0772 3.67002 12.3316 3.67002 12.6546C3.67002 12.9776 3.4242 13.232 3.12693 13.232C2.93828 13.232 2.51524 13.1091 2.40377 12.8089C2.20368 12.3659 2.10364 11.8542 2.10364 11.3197C2.10364 9.94201 2.81537 8.79867 3.73576 8.58715C3.71289 8.05264 3.78149 7.60959 3.85867 7.2866C1.8321 8.35562 0.365759 10.4108 0.011323 12.8547C-0.077286 13.4549 0.365759 13.998 0.934572 13.998H13.0569C13.6342 13.998 14.0773 13.4549 13.9887 12.8547Z" fill="#FF877F"/>
<path d="M6.99918 7.55529C8.6656 7.55529 10.0205 6.12326 10.0205 4.35393C10.0205 4.10812 9.99759 3.87659 9.94328 3.6422C9.94328 3.6422 8.52268 3.19916 6.99918 3.19916C5.47853 3.19916 4.06651 3.6422 4.06651 3.6422C4.02077 3.87659 3.98933 4.10812 3.98933 4.35393C3.9779 6.13183 5.33276 7.55529 6.99918 7.55529Z" fill="#FF877F"/>
<path d="M9.70156 2.95619C9.91308 2.12155 10.1132 1.27833 10.3132 0.443691C8.14375 -0.14513 5.85707 -0.14513 3.69043 0.443691C3.89051 1.27833 4.10203 2.12155 4.30212 2.95619C6.06573 2.47598 7.93509 2.47598 9.70156 2.95619ZM6.18864 1.03251H6.75459V0.432258H7.24337V1.03251H7.80932V1.54416H7.24337V2.14441H6.75459V1.54416H6.18864V1.03251Z" fill="#FF877F"/>
</g>
<defs>
<clipPath id="clip0">
<rect width="14" height="14" fill="white"/>
</clipPath>
</defs>
</svg>
