<svg width="685" height="437" viewBox="0 0 685 437" fill="none" xmlns="http://www.w3.org/2000/svg">
<path opacity="0.69" d="M536.566 417.715C536.566 417.715 122.121 417.715 122.007 417.715C56.8743 417.715 5.65415 372.679 0.428891 310.138C-4.6075 249.861 35.117 195.092 98.2608 185.032C98.3616 185.02 98.4623 184.996 98.5504 184.984C116.644 182.151 131.728 170.105 137.368 153.326C143.286 135.699 150.111 117.951 159.466 103.073C194.192 47.7712 251.883 13.2925 318.011 3.70438C470.526 -18.4138 637.999 59.5506 678.39 209.862C704.303 306.252 652.34 417.715 536.566 417.715Z" fill="#F7DEEB"/>
<path opacity="0.89" d="M599.973 206.86C599.797 206.63 599.608 206.4 599.444 206.158C599.218 206.4 598.979 206.618 598.752 206.86H507.933C501.65 206.86 496.299 202.078 496.274 196.037C496.274 196 496.274 195.952 496.274 195.916C496.274 182.587 507.518 171.776 521.38 171.776C521.96 171.776 522.539 171.824 523.105 171.861C526.014 151.098 544.46 135.082 566.846 135.082C585.582 135.082 601.547 146.304 607.981 162.127C613.408 158.507 620.006 156.401 627.132 156.473C645.339 156.655 659.843 170.759 659.843 188.265C659.843 192.441 658.987 196.436 657.464 200.08C655.714 204.233 651.395 206.86 646.736 206.86H599.973Z" fill="white"/>
<path opacity="0.51" d="M167.612 207.223C167.537 207.114 167.448 207.005 167.36 206.896C167.26 207.005 167.146 207.114 167.033 207.223H124.815C121.894 207.223 119.414 204.995 119.389 202.187C119.389 202.162 119.389 202.15 119.389 202.126C119.389 195.928 124.614 190.904 131.06 190.904C131.338 190.904 131.602 190.928 131.866 190.94C133.214 181.291 141.788 173.846 152.201 173.846C160.901 173.846 168.33 179.064 171.314 186.412C173.832 184.729 176.904 183.749 180.216 183.785C188.677 183.87 195.426 190.432 195.426 198.567C195.426 200.516 195.035 202.368 194.318 204.063C193.512 205.988 191.497 207.211 189.332 207.211H167.612V207.223Z" fill="white"/>
<path d="M151.622 293.105C153.146 306.301 146.107 326.93 146.107 326.93C146.107 326.93 134.549 308.286 133.038 295.078C131.514 281.882 135.48 279.667 140.605 279.122C145.742 278.577 150.099 279.897 151.622 293.105Z" fill="white"/>
<path d="M125.143 298.831C135.128 308.008 143.526 328.152 143.526 328.152C143.526 328.152 122.209 321.01 112.225 311.833C102.24 302.657 103.789 298.528 107.352 294.933C110.928 291.349 115.146 289.667 125.143 298.831Z" fill="white"/>
<path d="M108.687 319.593C122.474 320.441 142.368 330.683 142.368 330.683C142.368 330.683 121.265 338.382 107.478 337.535C93.6908 336.687 92.1169 332.547 92.4568 327.596C92.7842 322.644 94.8995 318.746 108.687 319.593Z" fill="white"/>
<path d="M109.958 345.658C121.088 337.789 143.185 333.334 143.185 333.334C143.185 333.334 132.168 352.28 121.038 360.137C109.907 368.006 105.941 365.815 102.881 361.808C99.8218 357.825 98.8271 353.527 109.958 345.658Z" fill="white"/>
<path d="M128.367 364.847C131.64 351.941 145.578 334.871 145.578 334.871C145.578 334.871 149.796 356.191 146.535 369.096C143.262 382.001 138.767 382.776 133.743 381.602C128.732 380.427 125.093 377.752 128.367 364.847Z" fill="white"/>
<path d="M155.286 368.164C149.167 356.263 148.437 334.569 148.437 334.569C148.437 334.569 165.925 348.297 172.045 360.198C178.164 372.098 175.23 375.476 170.609 377.679C165.976 379.883 161.405 380.076 155.286 368.164Z" fill="white"/>
<path d="M178.139 354.072C165.485 348.733 150.426 332.571 150.426 332.571C150.426 332.571 173.001 332.281 185.643 337.607C198.297 342.946 198.297 347.341 196.232 351.893C194.154 356.433 190.78 359.411 178.139 354.072Z" fill="white"/>
<path d="M186.209 329.157C172.951 332.886 150.615 329.811 150.615 329.811C150.615 329.811 167.701 315.635 180.959 311.906C194.217 308.177 197.164 311.543 198.612 316.3C200.06 321.07 199.468 325.429 186.209 329.157Z" fill="white"/>
<path d="M175.734 305.078C168.078 316.131 148.902 327.583 148.902 327.583C148.902 327.583 152.516 306.155 160.184 295.114C167.839 284.061 172.347 284.812 176.653 287.572C180.946 290.32 183.402 294.025 175.734 305.078Z" fill="white"/>
<g opacity="0.55">
<path opacity="0.55" d="M150.187 303.238C151.282 312.79 146.195 327.705 146.195 327.705C146.195 327.705 137.835 314.218 136.74 304.666C135.644 295.114 138.502 293.516 142.217 293.129C145.931 292.742 149.091 293.698 150.187 303.238Z" fill="#E5E2E1"/>
<path opacity="0.55" d="M131.036 307.39C138.263 314.024 144.332 328.6 144.332 328.6C144.332 328.6 128.908 323.431 121.693 316.797C114.466 310.163 115.587 307.172 118.168 304.569C120.749 301.967 123.808 300.756 131.036 307.39Z" fill="#E5E2E1"/>
<path opacity="0.55" d="M119.125 322.402C129.097 323.019 143.488 330.428 143.488 330.428C143.488 330.428 128.228 335.997 118.256 335.38C108.284 334.763 107.151 331.772 107.39 328.189C107.629 324.605 109.165 321.785 119.125 322.402Z" fill="#E5E2E1"/>
<path opacity="0.55" d="M120.056 341.264C128.102 335.574 144.092 332.353 144.092 332.353C144.092 332.353 136.122 346.058 128.077 351.748C120.031 357.438 117.16 355.852 114.944 352.958C112.716 350.053 111.998 346.954 120.056 341.264Z" fill="#E5E2E1"/>
<path opacity="0.55" d="M133.365 355.137C135.732 345.803 145.818 333.455 145.818 333.455C145.818 333.455 148.877 348.878 146.51 358.212C144.143 367.546 140.895 368.103 137.256 367.256C133.63 366.408 130.998 364.471 133.365 355.137Z" fill="#E5E2E1"/>
<path opacity="0.55" d="M152.843 357.547C148.411 348.939 147.882 333.249 147.882 333.249C147.882 333.249 160.536 343.176 164.955 351.784C169.387 360.391 167.259 362.837 163.91 364.435C160.574 366.009 157.262 366.154 152.843 357.547Z" fill="#E5E2E1"/>
<path opacity="0.55" d="M169.362 347.341C160.209 343.479 149.317 331.784 149.317 331.784C149.317 331.784 165.648 331.566 174.789 335.428C183.943 339.29 183.943 342.474 182.444 345.755C180.946 349.06 178.516 351.203 169.362 347.341Z" fill="#E5E2E1"/>
<path opacity="0.55" d="M175.205 329.327C165.61 332.027 149.456 329.799 149.456 329.799C149.456 329.799 161.82 319.545 171.402 316.845C180.996 314.146 183.124 316.579 184.169 320.029C185.227 323.467 184.799 326.627 175.205 329.327Z" fill="#E5E2E1"/>
<path opacity="0.55" d="M167.637 311.906C162.097 319.896 148.222 328.189 148.222 328.189C148.222 328.189 150.841 312.693 156.381 304.703C161.921 296.712 165.182 297.257 168.292 299.243C171.39 301.228 173.177 303.916 167.637 311.906Z" fill="#E5E2E1"/>
</g>
<path d="M151.221 339.24C156 336.775 157.797 331.051 155.233 326.455C152.669 321.859 146.716 320.132 141.936 322.598C137.156 325.063 135.36 330.787 137.924 335.382C140.488 339.978 146.441 341.705 151.221 339.24Z" fill="#F7A459"/>
<path opacity="0.32" d="M151.635 322.874C152.667 324.182 153.36 325.768 153.561 327.523C154.153 332.704 150.275 337.365 144.886 337.946C142.658 338.189 140.53 337.68 138.742 336.639C140.756 339.206 144.08 340.719 147.644 340.343C153.032 339.774 156.923 335.101 156.319 329.92C155.979 326.869 154.153 324.339 151.635 322.874Z" fill="#F7A459"/>
<path d="M170.029 248.723C171.93 251.617 172.723 257.149 172.723 257.149C172.723 257.149 167.863 254.086 165.962 251.205C164.061 248.312 164.715 247.379 165.836 246.689C166.957 245.999 168.128 245.83 170.029 248.723Z" fill="white"/>
<path d="M164.577 252.924C167.964 253.965 172.27 257.706 172.27 257.706C172.27 257.706 166.503 258.372 163.116 257.331C159.729 256.29 159.603 255.164 160.006 253.953C160.409 252.73 161.19 251.883 164.577 252.924Z" fill="white"/>
<path d="M163.205 259.51C166.491 258.215 172.295 258.42 172.295 258.42C172.295 258.42 168.317 262.488 165.03 263.796C161.744 265.091 160.888 264.316 160.384 263.13C159.893 261.943 159.918 260.805 163.205 259.51Z" fill="white"/>
<path d="M166.566 265.406C168.216 262.379 172.811 258.953 172.811 258.953C172.811 258.953 172.484 264.534 170.835 267.561C169.185 270.587 168.014 270.515 166.831 269.921C165.647 269.316 164.917 268.432 166.566 265.406Z" fill="white"/>
<path d="M173.076 267.839C172.32 264.498 173.542 259.038 173.542 259.038C173.542 259.038 177.017 263.517 177.785 266.846C178.553 270.176 177.596 270.853 176.299 271.132C174.99 271.41 173.831 271.18 173.076 267.839Z" fill="white"/>
<path d="M179.699 265.684C176.878 263.59 174.171 258.65 174.171 258.65C174.171 258.65 179.825 259.922 182.645 262.016C185.465 264.11 185.176 265.2 184.37 266.217C183.539 267.234 182.507 267.778 179.699 265.684Z" fill="white"/>
<path d="M183.324 259.946C179.774 260.079 174.385 257.984 174.385 257.984C174.385 257.984 179.572 255.466 183.123 255.321C186.674 255.176 187.19 256.193 187.253 257.476C187.303 258.747 186.875 259.8 183.324 259.946Z" fill="white"/>
<path d="M182.267 253.299C179.635 255.6 174.108 257.319 174.108 257.319C174.108 257.319 176.399 252.186 179.031 249.885C181.663 247.585 182.733 248.045 183.627 248.99C184.521 249.934 184.898 250.999 182.267 253.299Z" fill="white"/>
<path d="M177.016 248.868C176.538 252.258 173.453 256.992 173.453 256.992C173.453 256.992 171.779 251.641 172.244 248.251C172.723 244.861 173.856 244.547 175.166 244.716C176.488 244.886 177.495 245.479 177.016 248.868Z" fill="white"/>
<g opacity="0.55">
<path opacity="0.55" d="M170.884 251.217C172.257 253.311 172.836 257.307 172.836 257.307C172.836 257.307 169.323 255.091 167.938 253.009C166.566 250.914 167.031 250.236 167.85 249.74C168.668 249.256 169.512 249.135 170.884 251.217Z" fill="#E5E2E1"/>
<path opacity="0.55" d="M166.944 254.256C169.399 255.006 172.509 257.718 172.509 257.718C172.509 257.718 168.329 258.202 165.886 257.452C163.431 256.701 163.343 255.89 163.632 255.006C163.922 254.123 164.489 253.505 166.944 254.256Z" fill="#E5E2E1"/>
<path opacity="0.55" d="M165.949 259.026C168.328 258.081 172.534 258.239 172.534 258.239C172.534 258.239 169.651 261.181 167.271 262.125C164.891 263.069 164.274 262.5 163.909 261.641C163.557 260.781 163.569 259.97 165.949 259.026Z" fill="#E5E2E1"/>
<path opacity="0.55" d="M168.379 263.287C169.575 261.096 172.887 258.614 172.887 258.614C172.887 258.614 172.647 262.645 171.464 264.837C170.268 267.028 169.424 266.967 168.568 266.544C167.712 266.12 167.183 265.478 168.379 263.287Z" fill="#E5E2E1"/>
<path opacity="0.55" d="M173.088 265.055C172.534 262.633 173.428 258.687 173.428 258.687C173.428 258.687 175.946 261.919 176.5 264.34C177.054 266.762 176.361 267.234 175.417 267.44C174.473 267.633 173.642 267.464 173.088 265.055Z" fill="#E5E2E1"/>
<path opacity="0.55" d="M177.873 263.493C175.833 261.98 173.869 258.408 173.869 258.408C173.869 258.408 177.961 259.328 180.001 260.842C182.041 262.355 181.839 263.154 181.247 263.88C180.668 264.619 179.913 265.006 177.873 263.493Z" fill="#E5E2E1"/>
<path opacity="0.55" d="M180.504 259.34C177.936 259.437 174.045 257.924 174.045 257.924C174.045 257.924 177.797 256.096 180.366 255.999C182.934 255.902 183.312 256.629 183.35 257.561C183.387 258.481 183.073 259.244 180.504 259.34Z" fill="#E5E2E1"/>
<path opacity="0.55" d="M179.736 254.534C177.835 256.205 173.831 257.44 173.831 257.44C173.831 257.44 175.493 253.723 177.394 252.065C179.296 250.394 180.076 250.733 180.718 251.411C181.373 252.089 181.637 252.876 179.736 254.534Z" fill="#E5E2E1"/>
<path opacity="0.55" d="M175.946 251.326C175.606 253.772 173.365 257.198 173.365 257.198C173.365 257.198 172.144 253.324 172.497 250.878C172.836 248.433 173.655 248.203 174.612 248.324C175.556 248.445 176.286 248.881 175.946 251.326Z" fill="#E5E2E1"/>
</g>
<path d="M175.443 256.725C176.186 257.863 175.833 259.365 174.662 260.079C173.479 260.793 171.917 260.454 171.175 259.328C170.432 258.19 170.784 256.689 171.955 255.975C173.139 255.249 174.7 255.587 175.443 256.725Z" fill="#F7A459"/>
<path opacity="0.32" d="M173.529 255.6C173.919 255.793 174.272 256.084 174.523 256.459C175.266 257.597 174.914 259.098 173.743 259.813C173.252 260.115 172.698 260.224 172.169 260.176C172.937 260.551 173.881 260.539 174.662 260.067C175.846 259.353 176.198 257.851 175.443 256.713C175.002 256.06 174.284 255.672 173.529 255.6Z" fill="#F7A459"/>
<path d="M421.094 389.459C421.094 389.459 346.731 322.753 374.998 249.68C403.265 176.606 541.954 115.143 556.648 51.8389C556.648 51.8389 594.257 157.781 511.774 234.329C429.278 310.865 406.425 352.486 421.094 389.459Z" fill="#2A725A"/>
<path opacity="0.3" d="M401.326 324.872C389.83 295.889 400.986 256.035 400.986 256.035C398.392 274.437 401.817 293.783 405.405 307.475C408.175 299.557 412.116 291.773 417.052 284.037C408.515 255.684 418.449 220.189 418.449 220.189C415.667 239.898 419.784 260.708 423.637 274.473C429.265 266.883 435.762 259.316 442.952 251.689C436.933 224.39 445.722 193.046 445.722 193.046C443.14 211.375 446.515 230.636 450.103 244.317C455.618 238.76 461.46 233.167 467.567 227.501C461.611 200.238 470.362 169.016 470.362 169.016C467.743 187.574 471.243 207.09 474.87 220.794C479.251 216.811 483.746 212.792 488.342 208.712C483.935 179.536 498.755 145.759 498.755 145.759C493.038 165.553 494.449 187.441 496.413 201.569C499.233 199.075 502.091 196.569 504.962 194.027C507.871 191.461 510.616 188.882 513.234 186.303C508.009 156.776 523.395 121.728 523.395 121.728C517.604 141.776 519.127 163.979 521.129 178.071C577.474 115.482 556.636 51.8389 556.636 51.8389C556.636 51.8389 594.245 157.781 511.761 234.329C429.278 310.877 406.425 352.486 421.081 389.471C404.549 366.057 398.946 344.908 401.326 324.872Z" fill="#2A725A"/>
<path d="M420.086 414.955C420.086 414.955 392.5 347.826 435.435 307.73C478.37 267.634 591.059 268.917 621.718 231.206C621.718 231.206 611.872 313.287 531.655 339.17C451.438 365.053 422.491 385.828 420.086 414.955Z" fill="#246652"/>
<path opacity="0.3" d="M428.195 365.864C430.084 343.043 450.658 319.872 450.658 319.872C442.864 331.349 438.759 345.283 436.644 355.513C441.101 351.082 446.301 347.087 452.131 343.431C455.782 321.93 474.102 301.301 474.102 301.301C465.754 313.589 461.637 328.721 459.673 339.06C465.931 335.719 472.755 332.644 480.058 329.763C485.044 309.727 501.223 291.519 501.223 291.519C493.467 302.947 489.362 316.809 487.247 327.027C492.762 325.005 498.491 323.056 504.434 321.143C509.458 301.155 525.574 283.008 525.574 283.008C517.717 294.582 513.613 308.649 511.51 318.903C515.741 317.584 520.072 316.276 524.466 314.957C531.152 294.17 552.154 276.168 552.154 276.168C541.816 287.621 535.546 302.645 532.197 312.656C534.904 311.857 537.624 311.046 540.381 310.235C543.164 309.412 545.846 308.528 548.439 307.608C554.684 286.325 576.492 267.657 576.492 267.657C566.029 279.255 559.721 294.521 556.409 304.521C614.592 279.969 621.681 231.193 621.681 231.193C621.681 231.193 611.835 313.274 531.618 339.157C451.401 365.04 422.454 385.827 420.036 414.942C416.775 394.313 420.011 378.502 428.195 365.864Z" fill="#246652"/>
<path d="M513.423 264.934L501.336 224.147L466.887 223.445L435.372 189.887L424.707 202.477C424.707 202.477 447.975 233.239 458.64 238.372C469.304 243.505 495.481 249.099 495.481 249.099L513.423 264.934Z" fill="#DB0044"/>
<path opacity="0.36" d="M513.423 264.934L501.336 224.147L466.887 223.445L435.372 189.887L424.707 202.477C424.707 202.477 447.975 233.239 458.64 238.372C469.304 243.505 495.481 249.099 495.481 249.099L513.423 264.934Z" fill="#DB0044"/>
<path d="M430.184 385.064C420.779 351.227 422.907 297.608 422.907 297.608C423.272 299.279 422.982 297.548 422.982 297.548C422.982 297.548 467.139 239.244 472.427 198.954C479.188 147.466 457.721 70.4947 358.164 68.2066C358.164 68.2066 282.882 62.6862 253.167 111.257C223.453 159.827 245.248 193.168 239.305 211.254C233.362 229.353 211.517 243.033 215.873 250.031C220.242 257.028 236.459 259.377 238.272 264.679C239.317 267.73 229.446 272.645 233.186 276.568C236.484 280.018 241.181 281.459 236.094 286.362C231.007 291.253 246.28 294.751 246.28 297.548C246.28 300.344 246.305 322.693 254.275 329.012C262.51 335.537 270.568 337.535 292.275 337.716C298.885 337.765 304.111 343.067 303.405 349.399C301.907 362.861 299.88 375.803 298.281 385.076H215.823V410.245H501.6V385.064H430.184Z" fill="#80BEFF"/>
<path opacity="0.57" d="M509.696 431.165C568.526 431.165 616.216 426.07 616.216 419.785C616.216 413.5 568.526 408.405 509.696 408.405C450.867 408.405 403.177 413.5 403.177 419.785C403.177 426.07 450.867 431.165 509.696 431.165Z" fill="url(#paint0_radial)"/>
<path opacity="0.47" d="M257.184 437C316.013 437 363.704 431.905 363.704 425.62C363.704 419.335 316.013 414.24 257.184 414.24C198.355 414.24 150.664 419.335 150.664 425.62C150.664 431.905 198.355 437 257.184 437Z" fill="url(#paint1_radial)"/>
<path opacity="0.47" d="M189.81 437C248.639 437 296.329 431.905 296.329 425.62C296.329 419.335 248.639 414.24 189.81 414.24C130.981 414.24 83.29 419.335 83.29 425.62C83.29 431.905 130.981 437 189.81 437Z" fill="url(#paint2_radial)"/>
<path d="M460.302 204.705C467.063 153.217 445.596 76.2452 346.039 73.9571C346.039 73.9571 270.757 68.4366 241.042 117.007C211.328 165.577 233.123 198.918 227.18 217.005C221.237 235.104 199.392 248.784 203.748 255.769C208.117 262.767 224.334 265.115 226.147 270.418C227.192 273.468 217.321 278.384 221.061 282.306C224.359 285.756 229.056 287.197 223.969 292.1C218.882 296.991 234.155 300.49 234.155 303.286C234.155 306.083 234.18 328.431 242.15 334.75C250.385 341.276 258.443 343.273 280.15 343.455C286.76 343.503 291.986 348.806 291.28 355.137C288.422 380.863 283.6 404.676 283.6 404.676H423.221C407.949 374.604 410.782 303.347 410.782 303.347C411.147 305.017 410.857 303.286 410.857 303.286C410.857 303.286 455.001 244.982 460.302 204.705Z" fill="#80BEFF"/>
<path d="M489.463 390.802H203.685V415.971H489.463V390.802Z" fill="#80BEFF"/>
<path d="M432.791 157.03C431.506 146.837 424.972 138.484 416.095 134.186C417.48 130.179 417.996 125.82 417.43 121.353C415.39 105.155 400.092 93.6055 383.232 95.5668C381.356 95.7847 379.543 96.1721 377.806 96.6805C369.697 87.3224 356.98 81.9835 343.47 83.5573C330.804 85.0222 320.328 92.2254 314.486 102.14C309.764 100.264 304.501 99.4892 299.074 100.119C284.922 101.765 274.195 112.407 272.319 125.372C269.12 124.404 265.658 124.041 262.12 124.452C248.799 126.002 239.305 137.636 240.917 150.445C242.528 163.253 254.628 172.381 267.949 170.831C268.101 170.819 268.252 170.783 268.39 170.759C272.596 184.294 286.433 193.361 301.504 191.606C311.829 190.407 320.328 184.415 324.898 176.231C329.897 188.446 342.992 196.376 357.182 194.729C366.927 193.603 375.048 188.192 379.77 180.71C385.776 186.921 394.464 190.565 403.806 190.105C409.271 198.422 403.705 217.55 403.705 217.55C415.05 203.3 419.822 192.114 421.408 183.725C429.467 177.514 434.113 167.587 432.791 157.03ZM326.422 151.401C326.372 151.292 326.321 151.171 326.271 151.062C326.359 151.122 326.435 151.171 326.523 151.219C326.485 151.28 326.447 151.34 326.422 151.401Z" fill="#80BEFF"/>
<path d="M283.349 344.036L377.705 314.521L289.103 377.752L290.865 360.053C291.394 356.409 291.419 352.643 289.506 349.46C287.831 346.699 287.617 343.479 283.349 344.036Z" fill="#80BEFF"/>
<path d="M323.123 60.7855C321.688 65.3858 316.337 71.2816 316.337 71.2816C316.337 71.2816 315.229 63.5094 316.664 58.9211C318.1 54.3207 319.736 54.127 321.524 54.6355C323.287 55.156 324.546 56.1972 323.123 60.7855Z" fill="white"/>
<path d="M313.466 59.1027C315.442 63.5094 315.279 71.3421 315.279 71.3421C315.279 71.3421 309.235 66.0759 307.258 61.6692C305.282 57.2625 306.402 56.1003 308.114 55.3861C309.839 54.6839 311.489 54.696 313.466 59.1027Z" fill="white"/>
<path d="M304.955 63.7757C309.412 65.9306 314.536 72.0322 314.536 72.0322C314.536 72.0322 306.39 71.7295 301.933 69.5867C297.476 67.4318 297.551 65.8459 298.395 64.2479C299.226 62.6377 300.498 61.6329 304.955 63.7757Z" fill="white"/>
<path d="M301.555 72.6254C306.415 71.5237 314.41 73.0249 314.41 73.0249C314.41 73.0249 307.964 77.8311 303.116 78.9328C298.256 80.0344 297.261 78.7754 296.833 77.0321C296.405 75.2888 296.695 73.7271 301.555 72.6254Z" fill="white"/>
<path d="M304.867 81.4993C307.851 77.6495 314.99 73.8602 314.99 73.8602C314.99 73.8602 313.265 81.5235 310.293 85.3733C307.309 89.2231 305.698 88.872 304.212 87.7946C302.701 86.7292 301.882 85.3491 304.867 81.4993Z" fill="white"/>
<path d="M313.328 86.2571C313.038 81.463 315.972 74.1508 315.972 74.1508C315.972 74.1508 319.774 81.0877 320.064 85.8697C320.354 90.6638 318.88 91.3901 317.017 91.487C315.166 91.5959 313.617 91.0391 313.328 86.2571Z" fill="white"/>
<path d="M322.998 84.659C319.573 81.1724 316.929 73.7513 316.929 73.7513C316.929 73.7513 324.483 76.7173 327.908 80.2039C331.333 83.6905 330.691 85.1554 329.331 86.3902C327.971 87.6251 326.422 88.1456 322.998 84.659Z" fill="white"/>
<path d="M329.331 77.4679C324.37 76.911 317.395 72.8554 317.395 72.8554C317.395 72.8554 325.163 70.4584 330.111 71.0153C335.072 71.5721 335.551 73.0854 335.337 74.865C335.123 76.6568 334.292 78.0248 329.331 77.4679Z" fill="white"/>
<path d="M329.381 68.0371C325.213 70.6763 317.155 71.8869 317.155 71.8869C317.155 71.8869 321.499 65.2527 325.666 62.6135C329.834 59.9743 331.219 60.8339 332.251 62.3351C333.271 63.8363 333.548 65.398 329.381 68.0371Z" fill="white"/>
<g opacity="0.55">
<path opacity="0.55" d="M321.159 63.9694C320.127 67.2986 316.249 71.56 316.249 71.56C316.249 71.56 315.443 65.9427 316.475 62.6135C317.508 59.2843 318.691 59.1511 319.988 59.5143C321.272 59.8896 322.192 60.6402 321.159 63.9694Z" fill="#E5E2E1"/>
<path opacity="0.55" d="M314.171 62.7467C315.606 65.9306 315.48 71.6084 315.48 71.6084C315.48 71.6084 311.111 67.795 309.676 64.611C308.241 61.4271 309.059 60.5796 310.293 60.0712C311.527 59.5627 312.748 59.5627 314.171 62.7467Z" fill="#E5E2E1"/>
<path opacity="0.55" d="M308.014 66.1243C311.237 67.686 314.939 72.0927 314.939 72.0927C314.939 72.0927 309.046 71.8748 305.823 70.3252C302.6 68.7635 302.663 67.6255 303.267 66.4633C303.871 65.3011 304.791 64.5747 308.014 66.1243Z" fill="#E5E2E1"/>
<path opacity="0.55" d="M305.559 72.5285C309.072 71.7295 314.864 72.8191 314.864 72.8191C314.864 72.8191 310.205 76.2936 306.692 77.0926C303.179 77.8916 302.462 76.9715 302.147 75.7125C301.832 74.4534 302.046 73.3275 305.559 72.5285Z" fill="#E5E2E1"/>
<path opacity="0.55" d="M307.951 78.9448C310.104 76.1604 315.267 73.4244 315.267 73.4244C315.267 73.4244 314.02 78.9691 311.867 81.7535C309.714 84.5379 308.543 84.2837 307.46 83.5089C306.39 82.7341 305.798 81.7293 307.951 78.9448Z" fill="#E5E2E1"/>
<path opacity="0.55" d="M314.071 82.383C313.857 78.9206 315.985 73.6302 315.985 73.6302C315.985 73.6302 318.742 78.6422 318.943 82.1046C319.158 85.567 318.087 86.0876 316.74 86.1723C315.405 86.2449 314.285 85.8454 314.071 82.383Z" fill="#E5E2E1"/>
<path opacity="0.55" d="M321.058 81.2329C318.578 78.7148 316.677 73.3396 316.677 73.3396C316.677 73.3396 322.141 75.4824 324.609 78.0006C327.089 80.5187 326.624 81.584 325.642 82.4678C324.672 83.3757 323.539 83.751 321.058 81.2329Z" fill="#E5E2E1"/>
<path opacity="0.55" d="M325.655 76.0272C322.066 75.6277 317.017 72.698 317.017 72.698C317.017 72.698 322.633 70.9668 326.221 71.3663C329.81 71.7658 330.162 72.8675 329.998 74.1508C329.835 75.434 329.23 76.4389 325.655 76.0272Z" fill="#E5E2E1"/>
<path opacity="0.55" d="M325.679 69.2114C322.67 71.1242 316.84 71.9958 316.84 71.9958C316.84 71.9958 319.988 67.2018 322.997 65.289C326.007 63.3762 327.014 64.0057 327.757 65.0832C328.5 66.1727 328.701 67.2986 325.679 69.2114Z" fill="#E5E2E1"/>
</g>
<path d="M319.283 73.6665C318.716 75.4704 316.74 76.4994 314.863 75.9546C312.987 75.4098 311.917 73.5092 312.484 71.7053C313.05 69.9015 315.027 68.8725 316.903 69.4172C318.779 69.962 319.85 71.8627 319.283 73.6665Z" fill="#F7A459"/>
<path opacity="0.32" d="M318.754 70.6884C318.905 71.2695 318.905 71.8869 318.717 72.4922C318.15 74.2961 316.173 75.3251 314.297 74.7803C313.517 74.5624 312.887 74.1024 312.446 73.5092C312.736 74.635 313.63 75.5914 314.864 75.9425C316.74 76.4873 318.717 75.4583 319.283 73.6544C319.611 72.6133 319.384 71.5237 318.754 70.6884Z" fill="#F7A459"/>
<path d="M405.254 72.5891L407.42 72.2985V72.3227L405.254 72.5891Z" fill="#0A4056"/>
<path d="M411.727 71.7537L416.033 71.2332L416.045 71.33L411.739 71.8143L411.727 71.7537Z" fill="#0A4056"/>
<path d="M420.351 70.7368L424.669 70.2526L424.682 70.4463L420.363 70.8821L420.351 70.7368Z" fill="#0A4056"/>
<path d="M428.989 69.8167L433.308 69.393L433.333 69.6594L429.014 70.0347L428.989 69.8167Z" fill="#0A4056"/>
<path d="M437.639 69.0056L441.97 68.6545L441.995 69.0056L437.664 69.3204L437.639 69.0056Z" fill="#0A4056"/>
<path d="M446.301 68.3277L450.633 68.0492L450.658 68.4851L446.326 68.7272L446.301 68.3277Z" fill="#0A4056"/>
<path d="M454.976 67.8071L459.319 67.6255L459.345 68.1461L455.001 68.2914L454.976 67.8071Z" fill="#0A4056"/>
<path d="M463.665 67.4802L468.021 67.4076V68.0129L463.677 68.0492L463.665 67.4802Z" fill="#0A4056"/>
<path d="M472.364 67.4076L476.721 67.4802L476.696 68.1703L472.364 68.0492V67.4076Z" fill="#0A4056"/>
<path d="M481.078 67.6739L485.422 68.0008L485.346 68.7272L481.027 68.3882L481.078 67.6739Z" fill="#0A4056"/>
<path d="M489.753 68.5092L494.059 69.2598L493.883 69.9862L489.64 69.2356L489.753 68.5092Z" fill="#0A4056"/>
<path d="M498.289 70.3978C499.674 70.8821 501.034 71.4632 502.268 72.3106L501.79 72.9402C500.656 72.1533 499.359 71.5843 498.012 71.1242L498.289 70.3978Z" fill="#0A4056"/>
<path d="M504.837 75.9183C505.064 77.4679 504.422 78.9327 503.616 80.1313L502.911 79.6833C503.666 78.5696 504.208 77.2863 504.019 76.0272L504.837 75.9183Z" fill="#0A4056"/>
<path d="M500.694 83.3394L497.295 86.0028L496.778 85.3249L500.115 82.7341L500.694 83.3394Z" fill="#0A4056"/>
<path d="M493.668 88.3514L489.916 90.4943L489.476 89.7437L493.19 87.6251L493.668 88.3514Z" fill="#0A4056"/>
<path d="M486.089 92.4918L482.211 94.3804L481.795 93.5692L485.673 91.7049L486.089 92.4918Z" fill="#0A4056"/>
<path d="M478.27 96.1721L474.316 97.8912L473.926 97.0437L477.879 95.3489L478.27 96.1721Z" fill="#0A4056"/>
<path d="M470.312 99.5497L466.296 101.148L465.931 100.252L469.935 98.6781L470.312 99.5497Z" fill="#0A4056"/>
<path d="M462.267 102.685L458.213 104.199L457.848 103.278L461.902 101.789L462.267 102.685Z" fill="#0A4056"/>
<path d="M454.132 105.663L450.053 107.092L449.7 106.136L453.78 104.719L454.132 105.663Z" fill="#0A4056"/>
<path d="M445.961 108.484L441.856 109.852L441.504 108.859L445.609 107.516L445.961 108.484Z" fill="#0A4056"/>
<path d="M437.739 111.184L433.609 112.491L433.269 111.474L437.386 110.179L437.739 111.184Z" fill="#0A4056"/>
<path d="M429.467 113.775L425.325 115.034L424.985 113.993L429.127 112.746L429.467 113.775Z" fill="#0A4056"/>
<path d="M421.182 116.269L417.027 117.491L416.688 116.402L420.843 115.203L421.182 116.269Z" fill="#0A4056"/>
<path d="M412.859 118.678L408.692 119.852L408.364 118.738L412.532 117.588L412.859 118.678Z" fill="#0A4056"/>
<path d="M404.511 121.002L400.331 122.14L400.004 120.99L404.184 119.876L404.511 121.002Z" fill="#0A4056"/>
<path d="M396.152 123.254L391.959 124.355L391.632 123.181L395.825 122.092L396.152 123.254Z" fill="#0A4056"/>
<path d="M387.753 125.433L383.547 126.498L383.232 125.288L387.425 124.247L387.753 125.433Z" fill="#0A4056"/>
<path d="M379.342 127.539L375.137 128.568L374.822 127.334L379.028 126.329L379.342 127.539Z" fill="#0A4056"/>
<path d="M370.931 129.585L366.713 130.59L366.386 129.319L370.604 128.338L370.931 129.585Z" fill="#0A4056"/>
<path d="M362.483 131.571L358.265 132.539L357.951 131.244L362.169 130.288L362.483 131.571Z" fill="#0A4056"/>
<path d="M354.034 133.496L349.791 134.428L349.489 133.108L353.719 132.176L354.034 133.496Z" fill="#0A4056"/>
<path d="M345.56 135.348L341.317 136.256L341.002 134.9L345.245 134.016L345.56 135.348Z" fill="#0A4056"/>
<path d="M337.062 137.152L332.819 138.011L332.517 136.668L336.76 135.784L337.062 137.152Z" fill="#0A4056"/>
<path d="M328.563 138.871L324.295 139.706L324.018 138.375L328.273 137.527L328.563 138.871Z" fill="#0A4056"/>
<path d="M320.038 140.529L315.77 141.328L315.505 140.033L319.761 139.21L320.038 140.529Z" fill="#0A4056"/>
<path d="M311.502 142.128L307.233 142.902L306.981 141.631L311.25 140.844L311.502 142.128Z" fill="#0A4056"/>
<path d="M302.965 143.665L298.684 144.403L298.445 143.157L302.726 142.406L302.965 143.665Z" fill="#0A4056"/>
<path d="M294.404 145.13L290.123 145.844L289.909 144.634L294.177 143.907L294.404 145.13Z" fill="#0A4056"/>
<path d="M285.841 146.546L281.548 147.224L281.346 146.038L285.627 145.336L285.841 146.546Z" fill="#0A4056"/>
<path d="M277.254 147.89L272.961 148.532L272.772 147.37L277.066 146.716L277.254 147.89Z" fill="#0A4056"/>
<path d="M268.667 149.161L264.361 149.767L264.185 148.629L268.479 148.011L268.667 149.161Z" fill="#0A4056"/>
<path d="M260.056 150.348L255.75 150.917L255.599 149.815L259.892 149.234L260.056 150.348Z" fill="#0A4056"/>
<path d="M251.443 151.474L247.136 151.994L246.985 150.917L251.291 150.372L251.443 151.474Z" fill="#0A4056"/>
<path d="M242.818 152.503L238.499 152.975L238.374 151.921L242.68 151.425L242.818 152.503Z" fill="#0A4056"/>
<path d="M234.181 153.435L229.85 153.858L229.749 152.829L234.055 152.394L234.181 153.435Z" fill="#0A4056"/>
<path d="M225.518 154.258L221.187 154.633L221.099 153.628L225.43 153.253L225.518 154.258Z" fill="#0A4056"/>
<path d="M216.855 154.972L212.524 155.275L212.448 154.306L216.78 153.98L216.855 154.972Z" fill="#0A4056"/>
<path d="M208.18 155.541L203.836 155.759L203.786 154.815L208.117 154.585L208.18 155.541Z" fill="#0A4056"/>
<path d="M199.493 155.941L195.137 156.074L195.111 155.154L199.455 155.009L199.493 155.941Z" fill="#0A4056"/>
<path d="M190.792 156.134H186.436V155.251L190.779 155.239L190.792 156.134Z" fill="#0A4056"/>
<path d="M182.08 156.062L177.723 155.88L177.774 155.033L182.105 155.19L182.08 156.062Z" fill="#0A4056"/>
<path d="M173.379 155.59L169.035 155.13L169.136 154.306L173.455 154.742L173.379 155.59Z" fill="#0A4056"/>
<path d="M164.716 154.464L160.448 153.459L160.7 152.684L164.88 153.665L164.716 154.464Z" fill="#0A4056"/>
<path d="M156.356 151.849C155.072 151.147 153.787 150.251 153.044 148.883L153.762 148.532C154.379 149.67 155.537 150.505 156.759 151.159L156.356 151.849Z" fill="#0A4056"/>
<path d="M153.095 144.525C153.737 143.193 154.682 142.079 155.702 141.05L156.256 141.571C155.273 142.551 154.38 143.629 153.813 144.839L153.095 144.525Z" fill="#0A4056"/>
<path d="M159.013 138.266L162.589 135.844L162.992 136.438L159.479 138.847L159.013 138.266Z" fill="#0A4056"/>
<path d="M166.303 133.653L170.118 131.643L170.433 132.225L166.668 134.258L166.303 133.653Z" fill="#0A4056"/>
<path d="M173.996 129.755L177.924 127.963L178.176 128.472L174.286 130.3L173.996 129.755Z" fill="#0A4056"/>
<path d="M181.891 126.244L185.882 124.598L186.071 125.046L182.105 126.728L181.891 126.244Z" fill="#0A4056"/>
<path d="M189.898 123.012L193.94 121.474L194.091 121.85L190.074 123.423L189.898 123.012Z" fill="#0A4056"/>
<path d="M197.995 119.985L202.062 118.532L202.187 118.835L198.133 120.312L197.995 119.985Z" fill="#0A4056"/>
<path d="M206.153 117.116L210.258 115.736L210.334 115.954L206.254 117.382L206.153 117.116Z" fill="#0A4056"/>
<path d="M214.363 114.392L218.48 113.072L218.53 113.218L214.426 114.574L214.363 114.392Z" fill="#0A4056"/>
<path d="M222.622 111.789L226.751 110.518L226.777 110.579L222.647 111.886L222.622 111.789Z" fill="#0A4056"/>
<path d="M231.033 109.247L233.123 108.629L231.045 109.271L231.033 109.247Z" fill="#0A4056"/>
<path d="M364.069 69.6472L365.97 68.8603L365.983 68.8845L364.069 69.6472Z" fill="#0A4056"/>
<path d="M369.772 67.3228L373.574 65.8095L373.612 65.9064L369.797 67.3834L369.772 67.3228Z" fill="#0A4056"/>
<path d="M377.402 64.3205L381.23 62.8556L381.293 63.0251L377.453 64.4536L377.402 64.3205Z" fill="#0A4056"/>
<path d="M385.071 61.415L388.924 60.0107L389.025 60.2649L385.159 61.6329L385.071 61.415Z" fill="#0A4056"/>
<path d="M392.789 58.6426L396.679 57.311L396.793 57.6378L392.902 58.9332L392.789 58.6426Z" fill="#0A4056"/>
<path d="M400.57 56.0035L404.486 54.7565L404.625 55.1681L400.696 56.3788L400.57 56.0035Z" fill="#0A4056"/>
<path d="M408.414 53.5459L412.355 52.3958L412.506 52.8922L408.553 54.0059L408.414 53.5459Z" fill="#0A4056"/>
<path d="M416.333 51.2941L420.312 50.2772L420.463 50.8583L416.485 51.8389L416.333 51.2941Z" fill="#0A4056"/>
<path d="M424.329 49.345L428.383 48.5218L428.509 49.1755L424.48 49.9745L424.329 49.345Z" fill="#0A4056"/>
<path d="M432.463 47.8438L436.568 47.3475L436.643 48.0375L432.564 48.5218L432.463 47.8438Z" fill="#0A4056"/>
<path d="M440.71 47.1054C442.095 47.0811 443.493 47.1296 444.878 47.2869L444.789 48.0133C443.455 47.8559 442.082 47.8075 440.723 47.8196L440.71 47.1054Z" fill="#0A4056"/>
<path d="M448.97 48.3039C450.267 48.8487 451.513 49.793 452.118 51.1246L451.4 51.4273C450.896 50.3135 449.851 49.4903 448.655 48.9697L448.97 48.3039Z" fill="#0A4056"/>
<path d="M452.318 55.2529C451.978 56.5846 451.399 57.8315 450.732 59.0058L450.014 58.6305C450.656 57.4925 451.223 56.3061 451.538 55.0713L452.318 55.2529Z" fill="#0A4056"/>
<path d="M448.491 62.3835L445.935 65.5311L445.292 64.9984L447.823 61.9234L448.491 62.3835Z" fill="#0A4056"/>
<path d="M443.191 68.4971L440.307 71.3542L439.69 70.7489L442.561 67.9402L443.191 68.4971Z" fill="#0A4056"/>
<path d="M437.336 74.1023L434.289 76.7778L433.685 76.1362L436.719 73.4849L437.336 74.1023Z" fill="#0A4056"/>
<path d="M431.178 79.3928L428.018 81.9472L427.426 81.2571L430.574 78.7269L431.178 79.3928Z" fill="#0A4056"/>
<path d="M424.821 84.4532L421.598 86.9229L421.006 86.1844L424.229 83.739L424.821 84.4532Z" fill="#0A4056"/>
<path d="M418.322 89.3442L415.036 91.7291L414.444 90.9543L417.731 88.5936L418.322 89.3442Z" fill="#0A4056"/>
<path d="M411.726 94.0777L408.376 96.4021L407.785 95.6031L411.121 93.2908L411.726 94.0777Z" fill="#0A4056"/>
<path d="M405.028 98.7023L401.641 100.966L401.049 100.131L404.423 97.8791L405.028 98.7023Z" fill="#0A4056"/>
<path d="M398.241 103.218L394.829 105.433L394.224 104.574L397.636 102.37L398.241 103.218Z" fill="#0A4056"/>
<path d="M391.392 107.637L387.954 109.816L387.35 108.92L390.787 106.753L391.392 107.637Z" fill="#0A4056"/>
<path d="M384.503 111.971L381.028 114.101L380.411 113.181L383.886 111.051L384.503 111.971Z" fill="#0A4056"/>
<path d="M377.541 116.22L374.041 118.327L373.424 117.37L376.924 115.276L377.541 116.22Z" fill="#0A4056"/>
<path d="M370.541 120.409L367.015 122.467L366.398 121.486L369.924 119.428L370.541 120.409Z" fill="#0A4056"/>
<path d="M363.489 124.525L359.951 126.547L359.322 125.53L362.86 123.508L363.489 124.525Z" fill="#0A4056"/>
<path d="M356.401 128.568L352.838 130.566L352.208 129.513L355.772 127.527L356.401 128.568Z" fill="#0A4056"/>
<path d="M349.274 132.539L345.698 134.513L345.056 133.423L348.632 131.474L349.274 132.539Z" fill="#0A4056"/>
<path d="M342.11 136.462L338.509 138.399L337.867 137.285L341.468 135.36L342.11 136.462Z" fill="#0A4056"/>
<path d="M334.908 140.324L331.282 142.224L330.64 141.086L334.254 139.186L334.908 140.324Z" fill="#0A4056"/>
<path d="M327.668 144.113L324.029 145.989L323.387 144.827L327.013 142.963L327.668 144.113Z" fill="#0A4056"/>
<path d="M320.378 147.842L316.727 149.682L316.11 148.532L319.749 146.692L320.378 147.842Z" fill="#0A4056"/>
<path d="M313.063 151.498L309.386 153.302L308.794 152.176L312.458 150.36L313.063 151.498Z" fill="#0A4056"/>
<path d="M305.709 155.093L302.02 156.873L301.454 155.771L305.13 153.98L305.709 155.093Z" fill="#0A4056"/>
<path d="M298.331 158.628L294.63 160.372L294.076 159.294L297.765 157.539L298.331 158.628Z" fill="#0A4056"/>
<path d="M290.915 162.103L287.2 163.81L286.671 162.757L290.373 161.025L290.915 162.103Z" fill="#0A4056"/>
<path d="M283.474 165.505L279.734 167.187L279.23 166.146L282.957 164.464L283.474 165.505Z" fill="#0A4056"/>
<path d="M275.983 168.846L272.23 170.492L271.752 169.476L275.491 167.817L275.983 168.846Z" fill="#0A4056"/>
<path d="M268.466 172.115L264.701 173.713L264.248 172.72L268 171.11L268.466 172.115Z" fill="#0A4056"/>
<path d="M260.923 175.299L257.134 176.86L256.693 175.892L260.47 174.318L260.923 175.299Z" fill="#0A4056"/>
<path d="M253.331 178.41L249.516 179.923L249.113 178.967L252.903 177.441L253.331 178.41Z" fill="#0A4056"/>
<path d="M245.701 181.424L241.874 182.889L241.483 181.957L245.298 180.48L245.701 181.424Z" fill="#0A4056"/>
<path d="M238.032 184.342L234.18 185.758L233.814 184.838L237.655 183.422L238.032 184.342Z" fill="#0A4056"/>
<path d="M230.315 187.139L226.437 188.495L226.097 187.611L229.962 186.243L230.315 187.139Z" fill="#0A4056"/>
<path d="M222.546 189.814L218.63 191.097L218.328 190.226L222.219 188.942L222.546 189.814Z" fill="#0A4056"/>
<path d="M214.714 192.344L210.773 193.531L210.509 192.683L214.425 191.485L214.714 192.344Z" fill="#0A4056"/>
<path d="M206.82 194.681L202.854 195.758L202.615 194.935L206.568 193.833L206.82 194.681Z" fill="#0A4056"/>
<path d="M198.862 196.775L194.833 197.695L194.644 196.896L198.635 195.952L198.862 196.775Z" fill="#0A4056"/>
<path d="M190.792 198.531L186.712 199.233L186.586 198.446L190.628 197.732L190.792 198.531Z" fill="#0A4056"/>
<path d="M182.607 199.765L178.465 200.068L178.439 199.293L182.519 198.991L182.607 199.765Z" fill="#0A4056"/>
<path d="M174.297 199.995C172.912 199.874 171.515 199.669 170.167 199.233L170.419 198.531C171.678 198.93 173.026 199.136 174.373 199.245L174.297 199.995Z" fill="#0A4056"/>
<path d="M166.604 196.933C166.415 196.63 166.189 196.339 166.05 196C165.899 195.674 165.798 195.335 165.723 194.983C165.584 194.281 165.584 193.579 165.685 192.901L166.428 192.998C166.34 193.628 166.34 194.257 166.466 194.85C166.529 195.153 166.617 195.443 166.743 195.722C166.856 196 167.058 196.255 167.209 196.509L166.604 196.933Z" fill="#0A4056"/>
<path d="M167.007 189.039C167.624 187.829 168.354 186.691 169.147 185.601L169.739 185.988C168.971 187.066 168.266 188.18 167.674 189.354L167.007 189.039Z" fill="#0A4056"/>
<path d="M171.653 182.429L174.373 179.427L174.864 179.875L172.195 182.853L171.653 182.429Z" fill="#0A4056"/>
<path d="M177.244 176.57L180.216 173.822L180.619 174.233L177.697 177.006L177.244 176.57Z" fill="#0A4056"/>
<path d="M183.262 171.146L186.372 168.543L186.7 168.907L183.627 171.534L183.262 171.146Z" fill="#0A4056"/>
<path d="M189.532 166.001L192.743 163.507L192.995 163.822L189.822 166.34L189.532 166.001Z" fill="#0A4056"/>
<path d="M195.979 161.062L199.253 158.653L199.442 158.907L196.206 161.34L195.979 161.062Z" fill="#0A4056"/>
<path d="M202.552 156.28L205.876 153.943L206.014 154.125L202.715 156.498L202.552 156.28Z" fill="#0A4056"/>
<path d="M209.225 151.631L212.599 149.355L212.688 149.476L209.338 151.788L209.225 151.631Z" fill="#0A4056"/>
<path d="M215.986 147.103L219.398 144.888L219.436 144.936L216.049 147.2L215.986 147.103Z" fill="#0A4056"/>
<path d="M222.923 142.612L224.648 141.51L222.936 142.624L222.923 142.612Z" fill="#0A4056"/>
<path d="M466.598 137.297L468.436 138.435L468.423 138.459L466.598 137.297Z" fill="#0A4056"/>
<path d="M472.099 140.747L475.713 143.132L475.637 143.241L472.049 140.82L472.099 140.747Z" fill="#0A4056"/>
<path d="M479.289 145.578L482.815 148.096L482.651 148.29L479.176 145.735L479.289 145.578Z" fill="#0A4056"/>
<path d="M486.252 150.723L489.588 153.471L489.324 153.737L486.05 150.953L486.252 150.723Z" fill="#0A4056"/>
<path d="M492.748 156.401L495.644 159.597L495.254 159.875L492.446 156.679L492.748 156.401Z" fill="#0A4056"/>
<path d="M497.874 163.301C498.126 163.979 498.302 164.706 498.289 165.456C498.277 165.832 498.226 166.207 498.1 166.57C497.987 166.945 497.748 167.248 497.559 167.587L497.068 167.236C497.219 166.957 497.433 166.703 497.534 166.389C497.647 166.086 497.697 165.759 497.71 165.432C497.735 164.778 497.584 164.113 497.357 163.471L497.874 163.301Z" fill="#0A4056"/>
<path d="M493.655 169.754C492.207 170.105 490.721 170.263 489.248 170.323L489.223 169.633C490.659 169.585 492.106 169.451 493.491 169.137L493.655 169.754Z" fill="#0A4056"/>
<path d="M484.842 170.299L480.46 169.936L480.548 169.185L484.879 169.572L484.842 170.299Z" fill="#0A4056"/>
<path d="M476.104 169.367L471.772 168.664L471.936 167.853L476.23 168.592L476.104 169.367Z" fill="#0A4056"/>
<path d="M467.465 167.853L463.185 166.945L463.386 166.086L467.654 167.018L467.465 167.853Z" fill="#0A4056"/>
<path d="M458.917 165.965L454.661 164.924L454.913 164.004L459.144 165.069L458.917 165.965Z" fill="#0A4056"/>
<path d="M450.43 163.822L446.212 162.684L446.502 161.715L450.707 162.878L450.43 163.822Z" fill="#0A4056"/>
<path d="M442.007 161.498L437.814 160.275L438.142 159.246L442.322 160.505L442.007 161.498Z" fill="#0A4056"/>
<path d="M433.622 159.016L429.454 157.72L429.819 156.643L433.974 157.963L433.622 159.016Z" fill="#0A4056"/>
<path d="M425.286 156.401L421.131 155.045L421.534 153.919L425.676 155.299L425.286 156.401Z" fill="#0A4056"/>
<path d="M417.001 153.653L412.872 152.248L413.3 151.11L417.417 152.527L417.001 153.653Z" fill="#0A4056"/>
<path d="M408.754 150.808L404.637 149.355L405.078 148.205L409.183 149.67L408.754 150.808Z" fill="#0A4056"/>
<path d="M400.532 147.866L396.44 146.365L396.906 145.203L400.986 146.716L400.532 147.866Z" fill="#0A4056"/>
<path d="M392.348 144.839L388.269 143.302L388.747 142.128L392.826 143.677L392.348 144.839Z" fill="#0A4056"/>
<path d="M384.202 141.74L380.135 140.166L380.638 138.968L384.693 140.554L384.202 141.74Z" fill="#0A4056"/>
<path d="M376.081 138.568L372.04 136.946L372.556 135.735L376.597 137.358L376.081 138.568Z" fill="#0A4056"/>
<path d="M367.997 135.312L363.955 133.653L364.509 132.443L368.526 134.101L367.997 135.312Z" fill="#0A4056"/>
<path d="M359.939 131.995L355.91 130.3L356.477 129.065L360.493 130.76L359.939 131.995Z" fill="#0A4056"/>
<path d="M351.906 128.605L347.902 126.886L348.481 125.627L352.485 127.358L351.906 128.605Z" fill="#0A4056"/>
<path d="M343.898 125.142L339.919 123.387L340.524 122.128L344.503 123.883L343.898 125.142Z" fill="#0A4056"/>
<path d="M335.941 121.619L331.975 119.816L332.592 118.569L336.558 120.348L335.941 121.619Z" fill="#0A4056"/>
<path d="M328.008 118L324.067 116.172L324.684 114.949L328.625 116.765L328.008 118Z" fill="#0A4056"/>
<path d="M320.126 114.319L316.185 112.455L316.815 111.244L320.743 113.109L320.126 114.319Z" fill="#0A4056"/>
<path d="M312.27 110.566L308.354 108.666L308.984 107.479L312.887 109.38L312.27 110.566Z" fill="#0A4056"/>
<path d="M304.451 106.729L300.561 104.792L301.19 103.63L305.081 105.567L304.451 106.729Z" fill="#0A4056"/>
<path d="M296.682 102.818L292.816 100.833L293.446 99.7071L297.311 101.68L296.682 102.818Z" fill="#0A4056"/>
<path d="M288.964 98.8234L285.124 96.7895L285.753 95.6879L289.593 97.7096L288.964 98.8234Z" fill="#0A4056"/>
<path d="M281.296 94.7193L277.481 92.6371L278.123 91.5596L281.926 93.6419L281.296 94.7193Z" fill="#0A4056"/>
<path d="M273.678 90.5185L269.901 88.3757L270.556 87.3345L274.333 89.4652L273.678 90.5185Z" fill="#0A4056"/>
<path d="M266.148 86.1965L262.409 83.9932L263.063 82.9763L266.803 85.1675L266.148 86.1965Z" fill="#0A4056"/>
<path d="M258.695 81.7414L255.006 79.4412L255.673 78.4606L259.362 80.7366L258.695 81.7414Z" fill="#0A4056"/>
<path d="M251.367 77.0926L247.753 74.6835L248.408 73.7755L252.022 76.1483L251.367 77.0926Z" fill="#0A4056"/>
<path d="M244.178 72.2138L240.677 69.6715L241.332 68.8361L244.845 71.3421L244.178 72.2138Z" fill="#0A4056"/>
<path d="M237.227 67.0202L233.89 64.26L234.57 63.5336L237.894 66.2454L237.227 67.0202Z" fill="#0A4056"/>
<path d="M230.705 61.3303L227.746 58.1463L228.502 57.5773L231.397 60.6644L230.705 61.3303Z" fill="#0A4056"/>
<path d="M225.341 54.5023C225.027 53.8365 224.762 53.1343 224.649 52.3716C224.536 51.621 224.586 50.8099 224.901 50.0714L225.719 50.3983C225.228 51.5484 225.581 52.9285 226.172 54.127L225.341 54.5023Z" fill="#0A4056"/>
<path d="M228.528 47.3233C229.976 46.8754 231.462 46.6938 232.935 46.5969L232.985 47.3838C231.55 47.4807 230.114 47.6744 228.78 48.0981L228.528 47.3233Z" fill="#0A4056"/>
<path d="M237.366 46.5969L241.748 46.9359L241.672 47.6623L237.328 47.3475L237.366 46.5969Z" fill="#0A4056"/>
<path d="M246.104 47.4928L250.423 48.2192L250.309 48.8487L245.991 48.1828L246.104 47.4928Z" fill="#0A4056"/>
<path d="M254.729 49.0545L259.01 49.9867L258.884 50.5072L254.604 49.6356L254.729 49.0545Z" fill="#0A4056"/>
<path d="M263.265 50.9915L267.508 52.069L267.395 52.4685L263.139 51.4636L263.265 50.9915Z" fill="#0A4056"/>
<path d="M271.727 53.1948L275.932 54.3691L275.844 54.6718L271.626 53.5459L271.727 53.1948Z" fill="#0A4056"/>
<path d="M280.125 55.5919L284.306 56.8509L284.255 57.0325L280.05 55.834L280.125 55.5919Z" fill="#0A4056"/>
<path d="M288.473 58.1463L292.641 59.4659L292.616 59.5506L288.436 58.2795L288.473 58.1463Z" fill="#0A4056"/>
<path d="M296.884 60.8581L298.936 61.5482L296.871 60.8823L296.884 60.8581Z" fill="#0A4056"/>
<path d="M274.963 50.1319C274.056 53.0253 270.682 56.7419 270.682 56.7419C270.682 56.7419 269.99 51.851 270.883 48.9576C271.79 46.0642 272.822 45.9432 273.943 46.2579C275.064 46.5848 275.857 47.2385 274.963 50.1319Z" fill="white"/>
<path d="M268.882 49.0787C270.129 51.851 270.028 56.7904 270.028 56.7904C270.028 56.7904 266.225 53.4733 264.979 50.7009C263.732 47.9286 264.437 47.1901 265.52 46.7422C266.591 46.2942 267.636 46.3063 268.882 49.0787Z" fill="white"/>
<path d="M263.518 52.0205C266.326 53.3764 269.549 57.2262 269.549 57.2262C269.549 57.2262 264.412 57.0325 261.604 55.6766C258.796 54.3207 258.846 53.3159 259.375 52.3111C259.904 51.3062 260.71 50.6646 263.518 52.0205Z" fill="white"/>
<path d="M261.377 57.5894C264.437 56.8872 269.473 57.8436 269.473 57.8436C269.473 57.8436 265.419 60.8702 262.36 61.5724C259.3 62.2745 258.67 61.4755 258.406 60.3738C258.129 59.2722 258.318 58.2916 261.377 57.5894Z" fill="white"/>
<path d="M263.455 63.1825C265.331 60.7612 269.826 58.3763 269.826 58.3763C269.826 58.3763 268.743 63.2067 266.867 65.628C264.991 68.0492 263.971 67.8313 263.027 67.1533C262.095 66.4754 261.579 65.6037 263.455 63.1825Z" fill="white"/>
<path d="M268.793 66.1727C268.604 63.1583 270.455 58.5458 270.455 58.5458C270.455 58.5458 272.848 62.9161 273.036 65.9306C273.225 68.9451 272.294 69.4051 271.123 69.4656C269.952 69.5383 268.97 69.1993 268.793 66.1727Z" fill="white"/>
<path d="M274.875 65.18C272.722 62.9767 271.06 58.3036 271.06 58.3036C271.06 58.3036 275.819 60.168 277.972 62.3714C280.126 64.5747 279.723 65.4948 278.866 66.2696C278.023 67.0323 277.041 67.3712 274.875 65.18Z" fill="white"/>
<path d="M278.879 60.6402C275.757 60.2891 271.362 57.7347 271.362 57.7347C271.362 57.7347 276.248 56.2214 279.37 56.5725C282.493 56.9235 282.795 57.8799 282.669 59.0058C282.531 60.1317 282.002 60.9913 278.879 60.6402Z" fill="white"/>
<path d="M278.904 54.7081C276.272 56.3667 271.198 57.1294 271.198 57.1294C271.198 57.1294 273.93 52.9527 276.562 51.2941C279.193 49.6356 280.062 50.1804 280.704 51.1246C281.359 52.0568 281.535 53.0374 278.904 54.7081Z" fill="white"/>
<g opacity="0.55">
<path opacity="0.55" d="M273.716 52.1416C273.062 54.236 270.619 56.9235 270.619 56.9235C270.619 56.9235 270.115 53.3885 270.77 51.2941C271.425 49.1997 272.168 49.115 272.986 49.345C273.805 49.575 274.371 50.0472 273.716 52.1416Z" fill="#E5E2E1"/>
<path opacity="0.55" d="M269.323 51.3668C270.229 53.3764 270.154 56.9477 270.154 56.9477C270.154 56.9477 267.396 54.5507 266.502 52.5411C265.596 50.5314 266.112 49.9987 266.893 49.684C267.673 49.3571 268.429 49.3692 269.323 51.3668Z" fill="#E5E2E1"/>
<path opacity="0.55" d="M265.445 53.4975C267.472 54.4781 269.814 57.2625 269.814 57.2625C269.814 57.2625 266.099 57.1293 264.072 56.1487C262.045 55.1681 262.083 54.4417 262.461 53.7154C262.826 52.9769 263.418 52.5168 265.445 53.4975Z" fill="#E5E2E1"/>
<path opacity="0.55" d="M263.896 57.5288C266.112 57.0204 269.751 57.7104 269.751 57.7104C269.751 57.7104 266.817 59.9017 264.601 60.4101C262.385 60.9186 261.932 60.3375 261.743 59.5385C261.541 58.7516 261.68 58.0373 263.896 57.5288Z" fill="#E5E2E1"/>
<path opacity="0.55" d="M265.407 61.5723C266.767 59.8169 270.015 58.0978 270.015 58.0978C270.015 58.0978 269.234 61.5844 267.875 63.3399C266.515 65.0953 265.784 64.9379 265.105 64.4415C264.412 63.9573 264.047 63.3277 265.407 61.5723Z" fill="#E5E2E1"/>
<path opacity="0.55" d="M269.26 63.7394C269.121 61.5602 270.469 58.2189 270.469 58.2189C270.469 58.2189 272.206 61.3786 272.332 63.5578C272.471 65.7369 271.791 66.0759 270.947 66.1122C270.104 66.1727 269.398 65.9185 269.26 63.7394Z" fill="#E5E2E1"/>
<path opacity="0.55" d="M273.667 63.013C272.105 61.4271 270.909 58.0373 270.909 58.0373C270.909 58.0373 274.347 59.3811 275.908 60.9791C277.469 62.5651 277.179 63.2309 276.563 63.7999C275.946 64.3689 275.228 64.611 273.667 63.013Z" fill="#E5E2E1"/>
<path opacity="0.55" d="M276.55 59.7322C274.296 59.478 271.11 57.6378 271.11 57.6378C271.11 57.6378 274.648 56.5483 276.902 56.8025C279.156 57.0567 279.383 57.7468 279.282 58.5579C279.194 59.369 278.816 59.9864 276.55 59.7322Z" fill="#E5E2E1"/>
<path opacity="0.55" d="M276.575 55.4466C274.674 56.6451 271.01 57.202 271.01 57.202C271.01 57.202 272.987 54.1754 274.888 52.9769C276.79 51.7784 277.419 52.1658 277.885 52.8558C278.351 53.5217 278.477 54.2359 276.575 55.4466Z" fill="#E5E2E1"/>
</g>
<path d="M272.546 58.2431C272.193 59.3811 270.947 60.0227 269.763 59.6838C268.58 59.3448 267.913 58.1463 268.265 57.0083C268.618 55.8703 269.864 55.2287 271.048 55.5676C272.231 55.9187 272.899 57.1172 272.546 58.2431Z" fill="#F7A459"/>
<path opacity="0.32" d="M272.207 56.3788C272.308 56.742 272.308 57.1294 272.182 57.5168C271.829 58.6547 270.583 59.2964 269.399 58.9574C268.908 58.8121 268.505 58.5337 268.228 58.1584C268.417 58.8727 268.971 59.4659 269.752 59.6959C270.935 60.0349 272.182 59.3932 272.534 58.2552C272.748 57.5773 272.61 56.8993 272.207 56.3788Z" fill="#F7A459"/>
<path d="M341.178 110.409C343.772 120.554 340.511 137.321 340.511 137.321C340.511 137.321 329.506 123.932 326.9 113.787C324.306 103.642 327.152 101.535 331.093 100.603C335.034 99.6708 338.572 100.264 341.178 110.409Z" fill="white"/>
<path d="M321.146 117.503C329.922 123.665 338.622 138.544 338.622 138.544C338.622 138.544 321.234 135.082 312.471 128.92C303.695 122.757 304.463 119.38 306.868 116.22C309.26 113.072 312.37 111.341 321.146 117.503Z" fill="white"/>
<path d="M310.544 135.312C321.385 134.609 337.992 140.626 337.992 140.626C337.992 140.626 322.367 148.725 311.526 149.428C300.685 150.13 299.023 147.067 298.746 143.169C298.469 139.27 299.703 136.014 310.544 135.312Z" fill="white"/>
<path d="M314.321 155.517C322.153 148.277 338.899 142.624 338.899 142.624C338.899 142.624 332.339 158.483 324.508 165.723C316.676 172.962 313.339 171.643 310.532 168.822C307.724 166.001 306.49 162.744 314.321 155.517Z" fill="white"/>
<path d="M330.728 168.652C331.886 158.265 340.939 143.58 340.939 143.58C340.939 143.58 346.517 159.791 345.359 170.166C344.2 180.553 340.763 181.594 336.734 181.182C332.705 180.771 329.569 179.027 330.728 168.652Z" fill="white"/>
<path d="M352.082 168.568C346.038 159.887 343.142 143.048 343.142 143.048C343.142 143.048 358.251 152.018 364.295 160.686C370.339 169.367 368.425 172.284 365.05 174.463C361.676 176.642 358.125 177.248 352.082 168.568Z" fill="white"/>
<path d="M368.374 155.311C357.936 152.406 344.464 141.292 344.464 141.292C344.464 141.292 362.028 138.822 372.466 141.728C382.904 144.633 383.383 148.06 382.249 151.812C381.129 155.565 378.812 158.217 368.374 155.311Z" fill="white"/>
<path d="M372.001 135.082C362.067 139.307 344.313 139.125 344.313 139.125C344.313 139.125 356.124 126.377 366.058 122.152C375.992 117.927 378.649 120.264 380.299 123.835C381.935 127.406 381.948 130.869 372.001 135.082Z" fill="white"/>
<path d="M361.261 117.346C356.476 126.716 342.752 137.551 342.752 137.551C342.752 137.551 343.268 120.494 348.065 111.111C352.85 101.741 356.451 101.874 360.09 103.593C363.741 105.324 366.045 107.976 361.261 117.346Z" fill="white"/>
<g opacity="0.55">
<path opacity="0.55" d="M341.141 118.448C343.017 125.784 340.65 137.914 340.65 137.914C340.65 137.914 332.692 128.229 330.804 120.893C328.927 113.557 330.98 112.031 333.838 111.353C336.696 110.687 339.265 111.123 341.141 118.448Z" fill="#E5E2E1"/>
<path opacity="0.55" d="M326.648 123.581C332.994 128.036 339.29 138.798 339.29 138.798C339.29 138.798 326.711 136.292 320.366 131.837C314.02 127.382 314.574 124.937 316.311 122.661C318.061 120.385 320.315 119.126 326.648 123.581Z" fill="#E5E2E1"/>
<path opacity="0.55" d="M318.981 136.474C326.825 135.965 338.837 140.312 338.837 140.312C338.837 140.312 327.53 146.171 319.698 146.679C311.854 147.188 310.645 144.972 310.457 142.152C310.255 139.331 311.149 136.982 318.981 136.474Z" fill="#E5E2E1"/>
<path opacity="0.55" d="M321.725 151.086C327.391 145.856 339.504 141.752 339.504 141.752C339.504 141.752 334.757 153.229 329.091 158.459C323.425 163.689 321.02 162.744 318.981 160.698C316.941 158.653 316.06 156.316 321.725 151.086Z" fill="#E5E2E1"/>
<path opacity="0.55" d="M333.586 160.577C334.43 153.072 340.964 142.442 340.964 142.442C340.964 142.442 344.993 154.161 344.162 161.679C343.319 169.185 340.838 169.948 337.917 169.645C335.009 169.342 332.742 168.095 333.586 160.577Z" fill="#E5E2E1"/>
<path opacity="0.55" d="M349.035 160.529C344.654 154.258 342.563 142.067 342.563 142.067C342.563 142.067 353.492 148.556 357.862 154.827C362.243 161.098 360.846 163.217 358.403 164.79C355.96 166.364 353.404 166.8 349.035 160.529Z" fill="#E5E2E1"/>
<path opacity="0.55" d="M360.821 150.941C353.279 148.834 343.533 140.796 343.533 140.796C343.533 140.796 356.238 139.016 363.792 141.111C371.347 143.205 371.687 145.687 370.868 148.411C370.037 151.122 368.375 153.035 360.821 150.941Z" fill="#E5E2E1"/>
<path opacity="0.55" d="M363.439 136.304C356.25 139.355 343.407 139.222 343.407 139.222C343.407 139.222 351.944 129.997 359.133 126.946C366.323 123.895 368.249 125.578 369.433 128.157C370.629 130.748 370.629 133.254 363.439 136.304Z" fill="#E5E2E1"/>
<path opacity="0.55" d="M355.671 123.472C352.208 130.251 342.287 138.084 342.287 138.084C342.287 138.084 342.664 125.748 346.127 118.956C349.589 112.177 352.196 112.273 354.827 113.52C357.459 114.779 359.133 116.692 355.671 123.472Z" fill="#E5E2E1"/>
</g>
<path d="M348.795 138.629C349.815 142.612 347.284 146.631 343.142 147.612C338.999 148.592 334.819 146.159 333.799 142.176C332.779 138.193 335.31 134.174 339.452 133.193C343.582 132.225 347.775 134.658 348.795 138.629Z" fill="#F7A459"/>
<path opacity="0.32" d="M344.376 133.617C345.321 134.537 346.038 135.699 346.378 137.043C347.398 141.026 344.867 145.045 340.725 146.026C339.012 146.437 337.3 146.244 335.802 145.614C337.653 147.418 340.397 148.265 343.142 147.612C347.285 146.631 349.815 142.612 348.796 138.629C348.191 136.304 346.504 134.501 344.376 133.617Z" fill="#F7A459"/>
<path d="M275.441 92.0923C274.182 98.896 267.521 108.194 267.521 108.194C267.521 108.194 264.6 97.2496 265.859 90.4458C267.118 83.6421 269.435 83.0973 272.079 83.5574C274.723 84.0053 276.7 85.2886 275.441 92.0923Z" fill="white"/>
<path d="M261.339 91.2085C264.927 97.2011 266.035 108.436 266.035 108.436C266.035 108.436 256.491 101.862 252.903 95.8694C249.314 89.8768 250.725 88.0367 253.054 86.7413C255.383 85.458 257.75 85.2159 261.339 91.2085Z" fill="white"/>
<path d="M249.956 99.2471C256.705 101.62 265.078 109.55 265.078 109.55C265.078 109.55 253.369 110.409 246.62 108.036C239.871 105.663 239.72 103.375 240.639 100.954C241.558 98.5207 243.208 96.8743 249.956 99.2471Z" fill="white"/>
<path d="M246.607 112.431C253.369 110.082 265.078 110.978 265.078 110.978C265.078 110.978 256.68 118.871 249.931 121.232C243.17 123.581 241.533 121.934 240.614 119.501C239.682 117.08 239.846 114.792 246.607 112.431Z" fill="white"/>
<path d="M252.865 124.61C256.466 118.629 266.035 112.08 266.035 112.08C266.035 112.08 264.889 123.314 261.276 129.295C257.675 135.275 255.308 135.021 252.978 133.726C250.662 132.442 249.251 130.59 252.865 124.61Z" fill="white"/>
<path d="M265.796 130.082C264.562 123.278 267.508 112.346 267.508 112.346C267.508 112.346 274.144 121.668 275.378 128.472C276.612 135.275 274.635 136.547 271.991 136.994C269.334 137.43 267.03 136.885 265.796 130.082Z" fill="white"/>
<path d="M279.344 126.268C273.842 121.813 268.805 111.62 268.805 111.62C268.805 111.62 280.112 114.658 285.614 119.113C291.116 123.569 290.449 125.76 288.712 127.733C286.987 129.706 284.846 130.723 279.344 126.268Z" fill="white"/>
<path d="M287.188 114.973C279.999 114.961 269.322 110.264 269.322 110.264C269.322 110.264 280.024 105.603 287.214 105.615C294.403 105.627 295.36 107.721 295.36 110.3C295.347 112.891 294.378 114.985 287.188 114.973Z" fill="white"/>
<path d="M285.639 101.475C280.125 105.906 268.805 108.92 268.805 108.92C268.805 108.92 273.879 98.7386 279.394 94.3077C284.909 89.8768 287.037 90.8817 288.762 92.8671C290.487 94.8525 291.154 97.0438 285.639 101.475Z" fill="white"/>
<g opacity="0.55">
<path opacity="0.55" d="M273.175 96.9469C272.268 101.874 267.446 108.593 267.446 108.593C267.446 108.593 265.33 100.676 266.25 95.7605C267.156 90.8332 268.831 90.4458 270.744 90.7727C272.646 91.0996 274.081 92.0196 273.175 96.9469Z" fill="#E5E2E1"/>
<path opacity="0.55" d="M262.976 96.3053C265.569 100.639 266.375 108.775 266.375 108.775C266.375 108.775 259.463 104.017 256.882 99.6829C254.288 95.3489 255.308 94.0172 256.995 93.085C258.67 92.1528 260.382 91.9712 262.976 96.3053Z" fill="#E5E2E1"/>
<path opacity="0.55" d="M254.741 102.116C259.626 103.835 265.683 109.562 265.683 109.562C265.683 109.562 257.209 110.191 252.324 108.472C247.438 106.753 247.325 105.107 247.992 103.351C248.66 101.596 249.856 100.409 254.741 102.116Z" fill="#E5E2E1"/>
<path opacity="0.55" d="M252.311 111.668C257.196 109.961 265.67 110.615 265.67 110.615C265.67 110.615 259.601 116.329 254.703 118.036C249.818 119.743 248.622 118.544 247.967 116.789C247.313 115.022 247.426 113.363 252.311 111.668Z" fill="#E5E2E1"/>
<path opacity="0.55" d="M256.844 120.469C259.45 116.147 266.375 111.402 266.375 111.402C266.375 111.402 265.544 119.537 262.938 123.859C260.332 128.181 258.619 127.999 256.932 127.067C255.245 126.135 254.238 124.803 256.844 120.469Z" fill="#E5E2E1"/>
<path opacity="0.55" d="M266.199 124.428C265.305 119.501 267.446 111.595 267.446 111.595C267.446 111.595 272.243 118.339 273.137 123.266C274.031 128.193 272.595 129.113 270.682 129.428C268.755 129.743 267.093 129.343 266.199 124.428Z" fill="#E5E2E1"/>
<path opacity="0.55" d="M275.995 121.668C272.016 118.448 268.365 111.075 268.365 111.075C268.365 111.075 276.549 113.278 280.528 116.499C284.506 119.719 284.028 121.305 282.769 122.733C281.522 124.162 279.974 124.888 275.995 121.668Z" fill="#E5E2E1"/>
<path opacity="0.55" d="M281.673 113.496C276.473 113.484 268.742 110.094 268.742 110.094C268.742 110.094 276.486 106.717 281.686 106.729C286.886 106.741 287.578 108.254 287.578 110.119C287.566 111.995 286.873 113.508 281.673 113.496Z" fill="#E5E2E1"/>
<path opacity="0.55" d="M280.552 103.739C276.561 106.947 268.377 109.126 268.377 109.126C268.377 109.126 272.054 101.765 276.045 98.557C280.036 95.3489 281.572 96.0874 282.819 97.5159C284.065 98.9323 284.544 100.53 280.552 103.739Z" fill="#E5E2E1"/>
</g>
<path d="M272.155 111.123C271.664 113.799 269.007 115.578 266.237 115.094C263.454 114.622 261.603 112.068 262.107 109.392C262.598 106.717 265.255 104.937 268.037 105.421C270.807 105.906 272.658 108.448 272.155 111.123Z" fill="#F7A459"/>
<path opacity="0.32" d="M270.895 106.947C271.21 107.746 271.311 108.629 271.147 109.537C270.656 112.213 268 113.993 265.217 113.508C264.071 113.315 263.089 112.758 262.346 111.995C262.963 113.557 264.386 114.792 266.224 115.094C269.007 115.566 271.651 113.787 272.142 111.123C272.444 109.562 271.928 108.036 270.895 106.947Z" fill="#F7A459"/>
<path d="M523.596 393.587L525.661 407.279C525.661 407.279 528.594 418.55 526.391 419.954C524.2 421.359 476.593 421.71 476.959 420.305C477.324 418.901 479.149 416.431 493.44 413.623C507.718 410.802 509.922 403.768 509.922 403.768L523.596 393.587Z" fill="white"/>
<path opacity="0.41" d="M523.596 393.587L525.661 407.279C525.661 407.279 528.594 418.55 526.391 419.954C524.2 421.359 476.593 421.71 476.959 420.305C477.324 418.901 479.149 416.431 493.44 413.623C507.718 410.802 509.922 403.768 509.922 403.768L523.596 393.587Z" fill="#D3D1D1"/>
<path d="M502.896 196.315L511.168 198.034C511.168 198.034 508.096 208.337 509.897 214.136C510.325 215.528 510.904 216.738 511.659 217.61L501.335 224.135L494.02 222.562C494.02 222.562 497.432 208.724 494.687 203.833C491.942 198.942 502.896 196.315 502.896 196.315Z" fill="#F7A459"/>
<path d="M500.201 205.964C500.201 205.964 505.074 200.322 505.54 202.114C507.718 210.504 495.115 216.799 495.115 216.799L495.958 208.409L500.201 205.964Z" fill="#F7A459"/>
<path d="M519.478 275.999L521.656 285.09C521.656 285.09 519.478 317.608 518.382 326.688C517.287 335.779 518.017 338.576 518.017 338.576C518.017 338.576 519.478 355.452 521.291 370.04C523.104 384.725 526.012 404.652 526.012 404.652L506.018 406.395L488.567 345.912L490.745 311.301L501.284 281.931L519.478 275.999Z" fill="#274869"/>
<path opacity="0.13" d="M519.478 275.999L521.656 285.09C521.656 285.09 519.478 317.608 518.382 326.688C517.287 335.779 518.017 338.576 518.017 338.576C518.017 338.576 519.478 355.452 521.291 370.04C523.104 384.725 526.012 404.652 526.012 404.652L506.018 406.395L488.567 345.912L490.745 311.301L501.284 281.931L519.478 275.999Z" fill="#274869"/>
<path d="M485.269 404.458L490.028 407.279C490.028 407.279 492.962 418.55 490.758 419.954C488.568 421.359 440.961 421.71 441.326 420.305C441.691 418.901 443.517 416.431 457.808 413.623C472.086 410.802 474.289 403.768 474.289 403.768L485.269 404.458Z" fill="white"/>
<path opacity="0.13" d="M491.917 317.668L510.338 302.741L501.675 331.554C501.675 331.554 509.62 358.285 496.626 378.079L491.917 317.668Z" fill="#274869"/>
<path d="M512.692 198.337C509.544 208.155 499.207 213.821 491.501 211.811C486.503 210.516 482.146 198.567 485.294 188.737C488.442 178.906 496.928 174.185 504.571 176.449C512.201 178.713 515.84 188.519 512.692 198.337Z" fill="#F7A459"/>
<path d="M515.474 279.497C515.474 279.497 517.652 281.241 512.931 296.277C508.209 311.313 494.749 325.646 494.749 332.983C494.749 340.319 499.244 347.753 498.779 358.975C498.061 375.984 491.123 408.841 491.123 408.841L469.668 407.436C469.668 407.436 466.155 345.707 466.886 337.16C468.825 314.315 480.459 281.689 480.459 281.689L515.474 279.497Z" fill="#274869"/>
<path d="M509.897 214.136C509.897 214.136 506.925 219.184 494.574 219.365C494.574 219.365 489.852 221.29 485.659 228.978C481.479 236.665 480.938 272.5 479.112 277.403C477.299 282.294 477.299 289.291 477.299 289.291C477.299 289.291 485.118 292.439 500.202 290.514C509.078 289.388 515.135 289.279 518.597 289.388C522.186 289.497 525.396 287.076 525.988 283.674C526.316 281.822 526.215 276.664 525.296 273.735C522.211 263.941 522.022 252.755 520.75 244.547C519.479 236.314 517.3 214.293 509.897 214.136Z" fill="#DB0044"/>
<path d="M449.926 240.648C449.926 240.648 445.393 239.498 444.449 236.52C443.492 233.542 440.395 227.126 439.45 228.954C438.493 230.782 440.52 233.336 439.715 234.196C438.909 235.055 435.547 231.895 430.813 230.431C426.079 228.966 424.643 231.811 426.973 236.617C429.302 241.423 435.61 244.583 439.274 245.793C442.938 246.992 446.69 248.711 446.69 248.711L449.926 240.648Z" fill="#F7A459"/>
<path d="M489.399 246.847L506.888 243.929C506.888 243.929 489.437 273.928 479.125 277.403L482.537 252.404L489.399 246.847Z" fill="#DB0044"/>
<path d="M491.917 228.724L474.151 246.992L446.979 236.92L441.427 248.312C441.427 248.312 463.965 265.866 475.12 265.636C482.222 265.49 503.148 247.246 506.875 243.941C507.252 243.602 507.529 243.191 507.693 242.719L510.916 233.203C511.118 232.598 511.118 231.956 510.904 231.363L509.557 227.598C509.078 226.242 507.643 225.443 506.17 225.685L493.579 227.864C492.949 227.961 492.357 228.264 491.917 228.724Z" fill="#DB0044"/>
<path d="M504.029 192.005C499.66 190.698 503.123 183.41 499.371 183.047C498.791 182.986 498.237 182.998 497.784 183.119C495.367 183.749 486.88 184.088 486.88 179.851C486.88 175.626 490.658 172.841 495.707 173.265C500.768 173.689 506.51 169.548 511.735 172.998C516.154 175.928 514.568 178.253 516.985 180.577C519.403 182.901 521.82 183.507 522.236 188.022C522.739 193.506 520.171 193.737 521.266 197.332C522.362 200.928 524.678 203.01 523.482 207.441C522.148 212.332 518.761 212.078 520.083 215.177C521.959 219.547 513.775 227.997 505.54 220.891C499.748 215.903 503.299 209.935 504.394 208.01C506.107 204.995 508.663 204.935 505.666 200.262C502.669 195.589 503.148 197.175 505.792 195.48C506.875 194.766 505.868 192.562 504.029 192.005Z" fill="#274869"/>
<path d="M502.669 191.969C503.79 190.31 505.465 190.093 507.127 191.485C509.431 193.41 509.582 199.463 504.055 199.269C498.514 199.087 501.637 193.494 502.669 191.969Z" fill="#F7A459"/>
<g opacity="0.29">
<path opacity="0.29" d="M499.358 183.047C499.446 183.059 499.522 183.083 499.598 183.095C499.358 182.211 498.867 181.521 497.772 181.231C497.205 181.085 496.664 181.001 496.198 181.049C494.334 181.231 489.172 180.698 486.969 178.676C486.906 179.052 486.855 179.451 486.855 179.851C486.855 184.076 495.342 183.749 497.759 183.119C498.238 182.998 498.779 182.986 499.358 183.047Z" fill="#274869"/>
<path opacity="0.29" d="M521.266 197.332C520.171 193.737 522.74 193.506 522.236 188.022C521.82 183.507 519.403 182.901 516.985 180.577C514.568 178.253 516.154 175.928 511.735 172.998C511.257 172.684 510.791 172.454 510.3 172.26C510.791 172.551 511.269 172.877 511.722 173.301C515.575 176.897 513.611 178.931 515.588 181.618C517.577 184.294 519.856 185.274 519.478 189.802C519.025 195.286 516.457 195.105 516.91 198.821C517.376 202.538 519.302 204.971 517.338 209.136C515.172 213.748 511.874 212.949 512.654 216.218C513.196 218.482 511.168 221.315 508.159 222.634C515.412 226.218 521.757 219.063 520.07 215.165C518.736 212.078 522.135 212.332 523.47 207.429C524.691 203.01 522.374 200.928 521.266 197.332Z" fill="#274869"/>
</g>
<path opacity="0.39" d="M351.919 194.56C352.07 193.022 350.886 191.666 349.287 191.521C349.262 191.521 349.237 191.521 349.224 191.521C347.651 191.424 346.278 192.538 346.127 194.063L343.055 226.557L285.716 218.482L288.423 189.838C288.574 188.301 287.39 186.945 285.791 186.8C284.192 186.594 282.782 187.792 282.631 189.33L279.848 218.845C279.445 219.244 279.156 219.777 279.067 220.37C278.954 221.072 279.143 221.75 279.521 222.295L277.758 241.024C277.582 241.314 277.456 241.641 277.405 241.992C277.33 242.452 277.393 242.888 277.544 243.3L260.596 422.739C260.445 424.276 261.629 425.632 263.228 425.777C263.253 425.777 263.278 425.777 263.291 425.777C264.865 425.874 266.237 424.76 266.388 423.235L268.907 396.613L326.246 404.688L324.093 427.46C323.942 428.998 325.125 430.354 326.724 430.499C326.75 430.499 326.775 430.499 326.787 430.499C328.361 430.596 329.734 429.482 329.885 427.957L332.025 405.318C333.184 405.088 334.128 404.192 334.317 402.993C334.518 401.698 333.738 400.475 332.529 400.003L334.077 383.587C335.06 383.248 335.815 382.425 335.979 381.36C336.155 380.197 335.551 379.096 334.556 378.539L336.142 361.808C336.936 361.408 337.515 360.658 337.653 359.75C337.804 358.733 337.364 357.764 336.583 357.171L338.207 339.944C338.787 339.52 339.202 338.879 339.315 338.128C339.441 337.268 339.152 336.457 338.585 335.864L340.272 317.959C340.637 317.572 340.889 317.075 340.977 316.506C341.078 315.84 340.914 315.211 340.587 314.678L342.388 295.683C342.513 295.441 342.614 295.175 342.652 294.884C342.715 294.485 342.677 294.098 342.576 293.722L351.919 194.56ZM281.107 267.197L338.447 275.272L336.936 291.265L279.596 283.19L281.107 267.197ZM338.975 269.691L281.636 261.616L283.147 245.624L340.486 253.699L338.975 269.691ZM272.961 353.479L330.3 361.554L328.789 377.546L271.45 369.471L272.961 353.479ZM273.49 347.898L275.001 331.905L332.34 339.98L330.829 355.973L273.49 347.898ZM275.529 326.324L277.04 310.332L334.38 318.407L332.869 334.399L275.529 326.324ZM277.569 304.751L279.08 288.759L336.419 296.834L334.908 312.826L277.569 304.751ZM342.526 232.126L341.015 248.118L283.676 240.043L285.187 224.051L342.526 232.126ZM269.41 391.032L270.921 375.04L328.26 383.115L326.75 399.107L269.41 391.032Z" fill="#80BEFF"/>
<path opacity="0.89" d="M120.648 130.518C120.824 130.288 121 130.058 121.176 129.815C121.403 130.058 121.642 130.275 121.869 130.518H212.373C218.643 130.518 223.969 125.748 223.994 119.731C223.994 119.695 223.994 119.658 223.994 119.61C223.994 106.329 212.788 95.5547 198.976 95.5547C198.397 95.5547 197.83 95.6031 197.251 95.6394C194.355 74.9498 175.972 58.9816 153.661 58.9816C134.989 58.9816 119.074 70.1678 112.665 85.9302C107.251 82.3225 100.678 80.2281 93.5771 80.3007C75.4335 80.4823 60.979 94.5377 60.979 111.983C60.979 116.147 61.8226 120.118 63.3587 123.762C65.0963 127.903 69.4024 130.518 74.0484 130.518H120.648Z" fill="white"/>
<path d="M284.343 188.93L191.258 425.729" stroke="#274869" stroke-width="4.6205" stroke-miterlimit="10" stroke-linecap="round"/>
<path d="M347.361 188.93L254.276 425.729" stroke="#274869" stroke-width="4.6205" stroke-miterlimit="10" stroke-linecap="round"/>
<path d="M332.328 224.825L271.866 220.673" stroke="#274869" stroke-width="4.6205" stroke-miterlimit="10" stroke-linecap="round"/>
<path d="M324.093 246.726L263.707 242.585" stroke="#274869" stroke-width="4.6205" stroke-miterlimit="10" stroke-linecap="round"/>
<path d="M315.845 268.638L254.767 264.449" stroke="#274869" stroke-width="4.6205" stroke-miterlimit="10" stroke-linecap="round"/>
<path d="M307.611 290.55L246.52 286.35" stroke="#274869" stroke-width="4.6205" stroke-miterlimit="10" stroke-linecap="round"/>
<path d="M298.823 312.414L238.285 308.262" stroke="#274869" stroke-width="4.6205" stroke-miterlimit="10" stroke-linecap="round"/>
<path d="M290.223 334.302L230.038 330.174" stroke="#274869" stroke-width="4.6205" stroke-miterlimit="10" stroke-linecap="round"/>
<path d="M281.611 356.191L221.804 352.074" stroke="#274869" stroke-width="4.6205" stroke-miterlimit="10" stroke-linecap="round"/>
<path d="M273.011 378.067L213.557 373.987" stroke="#274869" stroke-width="4.6205" stroke-miterlimit="10" stroke-linecap="round"/>
<path d="M264.412 399.955L205.31 395.899" stroke="#274869" stroke-width="4.6205" stroke-miterlimit="10" stroke-linecap="round"/>
<path opacity="0.89" d="M511.131 124.828C511.207 124.731 511.282 124.634 511.358 124.537C511.459 124.634 511.559 124.731 511.648 124.828H549.798C552.442 124.828 554.684 122.818 554.696 120.276C554.696 120.264 554.696 120.239 554.696 120.227C554.696 114.622 549.974 110.082 544.145 110.082C543.906 110.082 543.666 110.106 543.415 110.119C542.193 101.402 534.437 94.6709 525.032 94.6709C517.162 94.6709 510.451 99.3924 507.757 106.039C505.478 104.513 502.708 103.63 499.711 103.666C492.069 103.739 485.962 109.671 485.962 117.019C485.962 118.774 486.314 120.445 486.969 121.983C487.699 123.726 489.513 124.828 491.477 124.828H511.131Z" fill="white"/>
<defs>
<radialGradient id="paint0_radial" cx="0" cy="0" r="1" gradientUnits="userSpaceOnUse" gradientTransform="translate(509.695 419.784) scale(99.3536 10.4126)">
<stop/>
<stop offset="1" stop-color="white" stop-opacity="0"/>
</radialGradient>
<radialGradient id="paint1_radial" cx="0" cy="0" r="1" gradientUnits="userSpaceOnUse" gradientTransform="translate(257.185 425.62) scale(99.3536 10.4126)">
<stop/>
<stop offset="1" stop-color="white" stop-opacity="0"/>
</radialGradient>
<radialGradient id="paint2_radial" cx="0" cy="0" r="1" gradientUnits="userSpaceOnUse" gradientTransform="translate(189.809 425.62) scale(99.3536 10.4126)">
<stop/>
<stop offset="1" stop-color="white" stop-opacity="0"/>
</radialGradient>
</defs>
</svg>
