<svg width="24" height="24" viewBox="0 0 24 24" fill="none" xmlns="http://www.w3.org/2000/svg">
<path d="M2.80038 22.3991H3.60039C3.82118 22.3991 4.00038 22.2199 4.00038 21.9991C4.00038 21.7783 3.82118 21.5991 3.60039 21.5991H2.80038C2.57959 21.5991 2.40039 21.7783 2.40039 21.9991C2.40039 22.2199 2.57959 22.3991 2.80038 22.3991Z" fill="#FF877F"/>
<path d="M7.60116 22.3991H8.40117C8.62195 22.3991 8.80116 22.2199 8.80116 21.9991C8.80116 21.7783 8.62195 21.5991 8.40117 21.5991H7.60116C7.38037 21.5991 7.20117 21.7783 7.20117 21.9991C7.20117 22.2199 7.38037 22.3991 7.60116 22.3991Z" fill="#FF877F"/>
<path d="M7.60116 7.99913H8.40117C8.62195 7.99913 8.80116 7.81992 8.80116 7.59914C8.80116 7.37836 8.62195 7.19916 8.40117 7.19916H7.60116C7.38037 7.19916 7.20117 7.37836 7.20117 7.59914C7.20117 7.81992 7.38037 7.99913 7.60116 7.99913Z" fill="#FF877F"/>
<path d="M9.99959 22.3991H10.7996C11.0204 22.3991 11.1996 22.2199 11.1996 21.9991C11.1996 21.7783 11.0204 21.5991 10.7996 21.5991H9.99959C9.77881 21.5991 9.59961 21.7783 9.59961 21.9991C9.59961 22.2199 9.77881 22.3991 9.99959 22.3991Z" fill="#FF877F"/>
<path d="M5.19882 7.99913H5.99884C6.21962 7.99913 6.39882 7.81992 6.39882 7.59914C6.39882 7.37836 6.21962 7.19916 5.99884 7.19916H5.19882C4.97803 7.19916 4.79883 7.37836 4.79883 7.59914C4.79883 7.81992 4.97803 7.99913 5.19882 7.99913Z" fill="#FF877F"/>
<path d="M2.80038 7.99913H3.60039C3.82118 7.99913 4.00038 7.81992 4.00038 7.59914C4.00038 7.37836 3.82118 7.19916 3.60039 7.19916H2.80038C2.57959 7.19916 2.40039 7.37836 2.40039 7.59914C2.40039 7.81992 2.57959 7.99913 2.80038 7.99913Z" fill="#FF877F"/>
<path d="M22.8 17.5987C22.5792 17.5987 22.4 17.7779 22.4 17.9987V21.9987C22.4 22.6603 21.8616 23.1987 21.2 23.1987H2.00002C1.33842 23.1987 0.800016 22.6603 0.800016 21.9987V5.99867C0.800016 5.27108 1.47642 4.75546 2.11481 4.58188L14.1496 0.969878C14.3916 0.872284 15.1804 0.659471 15.6156 0.953893C15.8708 1.1263 16 1.47791 16 1.99869C16 2.21947 16.1792 2.39867 16.4 2.39867C16.6208 2.39867 16.8 2.21947 16.8 1.99869C16.8 1.19591 16.552 0.621081 16.0632 0.291081C15.2028 -0.290122 13.9864 0.173096 13.8852 0.215471L1.8952 3.81266C0.951609 4.06907 0 4.84466 0 5.99867V21.9987C0 23.1014 0.897187 23.9987 2.00002 23.9987H21.2C22.3028 23.9987 23.2 23.1015 23.2 21.9987V17.9987C23.2 17.7779 23.0208 17.5987 22.8 17.5987Z" fill="#FF877F"/>
<path d="M9.99959 7.99913H10.7996C11.0204 7.99913 11.1996 7.81992 11.1996 7.59914C11.1996 7.37836 11.0204 7.19916 10.7996 7.19916H9.99959C9.77881 7.19916 9.59961 7.37836 9.59961 7.59914C9.59961 7.81992 9.77881 7.99913 9.99959 7.99913Z" fill="#FF877F"/>
<path d="M5.19882 22.3991H5.99884C6.21962 22.3991 6.39882 22.2199 6.39882 21.9991C6.39882 21.7783 6.21962 21.5991 5.99884 21.5991H5.19882C4.97803 21.5991 4.79883 21.7783 4.79883 21.9991C4.79883 22.2199 4.97803 22.3991 5.19882 22.3991Z" fill="#FF877F"/>
<path d="M23.1997 12.7991V7.59909C23.1997 6.49631 22.3025 5.59908 21.1997 5.59908H6.23736L18.8825 3.19069C18.8865 3.18947 19.3409 3.10111 19.651 3.35428C19.8826 3.54347 19.9998 3.89508 19.9998 4.39908C19.9998 4.61986 20.179 4.79906 20.3997 4.79906C20.6205 4.79906 20.7997 4.61986 20.7997 4.39908C20.7997 3.63787 20.5805 3.07547 20.1485 2.72747C19.5373 2.23589 18.7474 2.40108 18.7249 2.40628L1.92495 5.6063C1.72217 5.64469 1.58215 5.83148 1.60137 6.0367C1.62096 6.24192 1.79337 6.39909 1.99976 6.39909H21.1998C21.8614 6.39909 22.3998 6.9375 22.3998 7.59909V12.7991H14.3997C13.9586 12.7991 13.5997 13.1579 13.5997 13.5991V15.9991C13.5997 16.4403 13.9585 16.7991 14.3997 16.7991H23.1997C23.6409 16.7991 23.9997 16.4403 23.9997 15.9991V13.5991C23.9997 13.1579 23.641 12.7991 23.1997 12.7991ZM14.3997 15.9991V13.5991H23.1997L23.2001 15.9991H14.3997Z" fill="#FF877F"/>
<path d="M17.9988 7.99913C18.2196 7.99913 18.3988 7.81992 18.3988 7.59914C18.3988 7.37836 18.2196 7.19916 17.9988 7.19916H17.1988C16.978 7.19916 16.7988 7.37836 16.7988 7.59914C16.7988 7.81992 16.978 7.99913 17.1988 7.99913H17.9988Z" fill="#FF877F"/>
<path d="M15.6004 7.99913C15.8212 7.99913 16.0004 7.81992 16.0004 7.59914C16.0004 7.37836 15.8212 7.19916 15.6004 7.19916H14.8004C14.5796 7.19916 14.4004 7.37836 14.4004 7.59914C14.4004 7.81992 14.5796 7.99913 14.8004 7.99913H15.6004Z" fill="#FF877F"/>
<path d="M20.4012 7.99913C20.622 7.99913 20.8012 7.81992 20.8012 7.59914C20.8012 7.37836 20.622 7.19916 20.4012 7.19916H19.6012C19.3804 7.19916 19.2012 7.37836 19.2012 7.59914C19.2012 7.81992 19.3804 7.99913 19.6012 7.99913H20.4012Z" fill="#FF877F"/>
<path d="M15.611 14.399H15.607C15.3862 14.399 15.209 14.5782 15.209 14.799C15.209 15.0198 15.3902 15.199 15.611 15.199C15.8322 15.199 16.011 15.0198 16.011 14.799C16.011 14.5782 15.8322 14.399 15.611 14.399Z" fill="#FF877F"/>
<path d="M15.6004 22.3991C15.8212 22.3991 16.0004 22.2199 16.0004 21.9991C16.0004 21.7783 15.8212 21.5991 15.6004 21.5991H14.8004C14.5796 21.5991 14.4004 21.7783 14.4004 21.9991C14.4004 22.2199 14.5796 22.3991 14.8004 22.3991H15.6004Z" fill="#FF877F"/>
<path d="M20.4012 22.3991C20.622 22.3991 20.8012 22.2199 20.8012 21.9991C20.8012 21.7783 20.622 21.5991 20.4012 21.5991H19.6012C19.3804 21.5991 19.2012 21.7783 19.2012 21.9991C19.2012 22.2199 19.3804 22.3991 19.6012 22.3991H20.4012Z" fill="#FF877F"/>
<path d="M12.4 7.99913H13.2C13.4208 7.99913 13.6 7.81992 13.6 7.59914C13.6 7.37836 13.4208 7.19916 13.2 7.19916H12.4C12.1792 7.19916 12 7.37836 12 7.59914C12 7.81992 12.1792 7.99913 12.4 7.99913Z" fill="#FF877F"/>
<path d="M12.4 22.3991H13.2C13.4208 22.3991 13.6 22.2199 13.6 21.9991C13.6 21.7783 13.4208 21.5991 13.2 21.5991H12.4C12.1792 21.5991 12 21.7783 12 21.9991C12 22.2199 12.1792 22.3991 12.4 22.3991Z" fill="#FF877F"/>
<path d="M17.9988 22.3991C18.2196 22.3991 18.3988 22.2199 18.3988 21.9991C18.3988 21.7783 18.2196 21.5991 17.9988 21.5991H17.1988C16.978 21.5991 16.7988 21.7783 16.7988 21.9991C16.7988 22.2199 16.978 22.3991 17.1988 22.3991H17.9988Z" fill="#FF877F"/>
</svg>
