<svg width="16" height="16" viewBox="0 0 16 16" fill="none" xmlns="http://www.w3.org/2000/svg">
<path d="M1.86627 14.9327H2.39961C2.5468 14.9327 2.66627 14.8132 2.66627 14.666C2.66627 14.5189 2.5468 14.3994 2.39961 14.3994H1.86627C1.71908 14.3994 1.59961 14.5189 1.59961 14.666C1.59961 14.8132 1.71908 14.9327 1.86627 14.9327Z" fill="#FF877F"/>
<path d="M5.06744 14.9327H5.60078C5.74797 14.9327 5.86744 14.8132 5.86744 14.666C5.86744 14.5189 5.74797 14.3994 5.60078 14.3994H5.06744C4.92025 14.3994 4.80078 14.5189 4.80078 14.666C4.80078 14.8132 4.92025 14.9327 5.06744 14.9327Z" fill="#FF877F"/>
<path d="M5.06744 5.33275H5.60078C5.74797 5.33275 5.86744 5.21328 5.86744 5.0661C5.86744 4.91891 5.74797 4.79944 5.60078 4.79944H5.06744C4.92025 4.79944 4.80078 4.91891 4.80078 5.0661C4.80078 5.21328 4.92025 5.33275 5.06744 5.33275Z" fill="#FF877F"/>
<path d="M6.66705 14.9327H7.20039C7.34758 14.9327 7.46705 14.8132 7.46705 14.666C7.46705 14.5189 7.34758 14.3994 7.20039 14.3994H6.66705C6.51986 14.3994 6.40039 14.5189 6.40039 14.666C6.40039 14.8132 6.51986 14.9327 6.66705 14.9327Z" fill="#FF877F"/>
<path d="M3.46588 5.33275H3.99922C4.14641 5.33275 4.26588 5.21328 4.26588 5.0661C4.26588 4.91891 4.14641 4.79944 3.99922 4.79944H3.46588C3.31869 4.79944 3.19922 4.91891 3.19922 5.0661C3.19922 5.21328 3.31869 5.33275 3.46588 5.33275Z" fill="#FF877F"/>
<path d="M1.86627 5.33275H2.39961C2.5468 5.33275 2.66627 5.21328 2.66627 5.0661C2.66627 4.91891 2.5468 4.79944 2.39961 4.79944H1.86627C1.71908 4.79944 1.59961 4.91891 1.59961 5.0661C1.59961 5.21328 1.71908 5.33275 1.86627 5.33275Z" fill="#FF877F"/>
<path d="M15.2 11.7326C15.0528 11.7326 14.9333 11.8521 14.9333 11.9993V14.6659C14.9333 15.107 14.5744 15.4659 14.1333 15.4659H1.33334C0.892281 15.4659 0.533344 15.107 0.533344 14.6659V3.99927C0.533344 3.51421 0.984281 3.17046 1.40988 3.05474L9.43306 0.646738C9.59441 0.581675 10.1202 0.4398 10.4104 0.636082C10.5805 0.751019 10.6667 0.985425 10.6667 1.33261C10.6667 1.4798 10.7862 1.59927 10.9333 1.59927C11.0805 1.59927 11.2 1.4798 11.2 1.33261C11.2 0.797425 11.0347 0.414207 10.7088 0.194207C10.1352 -0.193262 9.32428 0.11555 9.25681 0.1438L1.26347 2.54193C0.634406 2.71286 0 3.22993 0 3.99927V14.6659C0 15.4011 0.598125 15.9993 1.33334 15.9993H14.1333C14.8685 15.9993 15.4667 15.4011 15.4667 14.6659V11.9993C15.4667 11.8521 15.3472 11.7326 15.2 11.7326Z" fill="#FF877F"/>
<path d="M6.66705 5.33275H7.20039C7.34758 5.33275 7.46705 5.21328 7.46705 5.0661C7.46705 4.91891 7.34758 4.79944 7.20039 4.79944H6.66705C6.51986 4.79944 6.40039 4.91891 6.40039 5.0661C6.40039 5.21328 6.51986 5.33275 6.66705 5.33275Z" fill="#FF877F"/>
<path d="M3.46588 14.9327H3.99922C4.14641 14.9327 4.26588 14.8132 4.26588 14.666C4.26588 14.5189 4.14641 14.3994 3.99922 14.3994H3.46588C3.31869 14.3994 3.19922 14.5189 3.19922 14.666C3.19922 14.8132 3.31869 14.9327 3.46588 14.9327Z" fill="#FF877F"/>
<path d="M15.4665 8.53271V5.06602C15.4665 4.33083 14.8684 3.73268 14.1331 3.73268H4.15824L12.5884 2.12708C12.591 2.12627 12.894 2.06736 13.1006 2.23615C13.255 2.36227 13.3332 2.59668 13.3332 2.93268C13.3332 3.07986 13.4526 3.19933 13.5998 3.19933C13.747 3.19933 13.8665 3.07986 13.8665 2.93268C13.8665 2.42521 13.7204 2.05027 13.4324 1.81827C13.0249 1.49055 12.4982 1.60068 12.4833 1.60415L1.2833 3.73749C1.14811 3.76308 1.05477 3.88761 1.06758 4.02443C1.08064 4.16124 1.19558 4.26602 1.33317 4.26602H14.1332C14.5742 4.26602 14.9332 4.62496 14.9332 5.06602V8.53268H9.59983C9.30571 8.53268 9.06649 8.77186 9.06649 9.06602V10.666C9.06649 10.9601 9.30567 11.1994 9.59983 11.1994H15.4665C15.7606 11.1994 15.9998 10.9602 15.9998 10.666V9.06602C15.9998 8.77189 15.7606 8.53271 15.4665 8.53271ZM9.59983 10.666V9.06602H15.4665L15.4668 10.666H9.59983Z" fill="#FF877F"/>
<path d="M11.9992 5.33275C12.1464 5.33275 12.2659 5.21328 12.2659 5.0661C12.2659 4.91891 12.1464 4.79944 11.9992 4.79944H11.4659C11.3187 4.79944 11.1992 4.91891 11.1992 5.0661C11.1992 5.21328 11.3187 5.33275 11.4659 5.33275H11.9992Z" fill="#FF877F"/>
<path d="M10.3996 5.33275C10.5468 5.33275 10.6663 5.21328 10.6663 5.0661C10.6663 4.91891 10.5468 4.79944 10.3996 4.79944H9.86627C9.71908 4.79944 9.59961 4.91891 9.59961 5.0661C9.59961 5.21328 9.71908 5.33275 9.86627 5.33275H10.3996Z" fill="#FF877F"/>
<path d="M13.6008 5.33275C13.748 5.33275 13.8674 5.21328 13.8674 5.0661C13.8674 4.91891 13.748 4.79944 13.6008 4.79944H13.0674C12.9202 4.79944 12.8008 4.91891 12.8008 5.0661C12.8008 5.21328 12.9202 5.33275 13.0674 5.33275H13.6008Z" fill="#FF877F"/>
<path d="M10.4076 9.59927H10.405C10.2578 9.59927 10.1396 9.71874 10.1396 9.86593C10.1396 10.0131 10.2605 10.1326 10.4076 10.1326C10.5551 10.1326 10.6743 10.0131 10.6743 9.86593C10.6743 9.71874 10.5551 9.59927 10.4076 9.59927Z" fill="#FF877F"/>
<path d="M10.3996 14.9327C10.5468 14.9327 10.6663 14.8132 10.6663 14.666C10.6663 14.5189 10.5468 14.3994 10.3996 14.3994H9.86627C9.71908 14.3994 9.59961 14.5189 9.59961 14.666C9.59961 14.8132 9.71908 14.9327 9.86627 14.9327H10.3996Z" fill="#FF877F"/>
<path d="M13.6008 14.9327C13.748 14.9327 13.8674 14.8132 13.8674 14.666C13.8674 14.5189 13.748 14.3994 13.6008 14.3994H13.0674C12.9202 14.3994 12.8008 14.5189 12.8008 14.666C12.8008 14.8132 12.9202 14.9327 13.0674 14.9327H13.6008Z" fill="#FF877F"/>
<path d="M8.26666 5.33275H8.8C8.94719 5.33275 9.06666 5.21328 9.06666 5.0661C9.06666 4.91891 8.94719 4.79944 8.8 4.79944H8.26666C8.11947 4.79944 8 4.91891 8 5.0661C8 5.21328 8.11947 5.33275 8.26666 5.33275Z" fill="#FF877F"/>
<path d="M8.26666 14.9327H8.8C8.94719 14.9327 9.06666 14.8132 9.06666 14.666C9.06666 14.5189 8.94719 14.3994 8.8 14.3994H8.26666C8.11947 14.3994 8 14.5189 8 14.666C8 14.8132 8.11947 14.9327 8.26666 14.9327Z" fill="#FF877F"/>
<path d="M11.9992 14.9327C12.1464 14.9327 12.2659 14.8132 12.2659 14.666C12.2659 14.5189 12.1464 14.3994 11.9992 14.3994H11.4659C11.3187 14.3994 11.1992 14.5189 11.1992 14.666C11.1992 14.8132 11.3187 14.9327 11.4659 14.9327H11.9992Z" fill="#FF877F"/>
</svg>
