<svg width="223" height="162" viewBox="0 0 223 162" fill="none" xmlns="http://www.w3.org/2000/svg">
<path d="M108.311 155.601L8.1168 98.5231C4.9279 96.7981 2.19058 93.9609 5.30143 92.1071L105.858 36.2223C107.369 35.3196 109.66 34.7285 111.193 35.5883L216.371 94.4338C219.56 96.2178 220.134 101.204 216.928 102.994L121.535 155.509C119.529 156.633 117.255 157.232 114.935 157.248C112.616 157.264 110.333 156.696 108.311 155.601Z" fill="#DD6F31"/>
<path style="mix-blend-mode:multiply" opacity="0.91" d="M119.711 120.904L149.554 140.082L198.201 113.322L172.584 97.932" fill="url(#paint0_linear)"/>
<path style="mix-blend-mode:multiply" opacity="0.33" d="M61.2852 94.3747L104.441 118.765L126.033 103.365L86.8911 83.848" fill="url(#paint1_linear)"/>
<path style="mix-blend-mode:multiply" opacity="0.91" d="M26.6035 100.533L55.6493 116.793L67.0724 109.297L35.2392 96.9755" fill="url(#paint2_linear)"/>
<path d="M178.539 66.7924C185.48 63.9713 185.998 57.8723 185.998 57.8723V66.4055" fill="#A568FF"/>
<path d="M132.165 50.6181C132.165 50.6181 136.068 56.1528 136.391 56.529C136.715 56.9051 141.81 61.8649 142.278 62.1121C142.747 62.3592 144.871 63.133 144.726 63.5683C144.581 64.0035 142.212 63.0309 142.496 63.5683C142.78 64.1056 144.726 66.1476 144.057 66.916C143.628 67.4211 141.554 66.8676 141.03 66.2497C140.634 65.7876 140.126 63.7241 139.915 63.622C139.703 63.5199 134.429 59.8605 133.292 59.0706C132.154 58.2807 129.088 53.0469 128.887 52.6224C128.687 52.1979 132.165 50.6181 132.165 50.6181Z" fill="#FFC6B2"/>
<path d="M131.67 45.5347C131.67 45.5347 134.123 46.9963 134.787 53.7401C134.787 53.7401 129.931 55.2393 128.426 54.5784" fill="#A568FF"/>
<path d="M112.146 97.0454C111.906 101.199 111.822 105.433 111.822 105.433C113.495 107.045 115.725 105.788 115.725 105.788C115.725 105.788 116.338 101.371 117.04 96.954C115.415 97.1238 113.777 97.1543 112.146 97.0454Z" fill="#FFC6B2"/>
<path d="M128.225 74.3207C128.225 74.3207 128.465 81.2741 128.225 83.5686C127.985 85.8631 126.954 100.382 126.954 100.382C126.468 100.785 125.849 101.006 125.209 101.006C124.568 101.006 123.949 100.785 123.464 100.382C123.464 100.382 122.31 93.1979 122.449 91.8223C122.589 90.4467 122.828 73.0956 122.828 73.0956" fill="#FFC6B2"/>
<path d="M125.404 39.9623C125.404 40.0053 115.369 45.8732 117.426 49.0114C119.484 52.1495 123.604 49.135 123.604 49.135L126.341 40.8651" fill="#F18F22"/>
<path d="M118.307 111.463C118.443 111.838 118.458 112.243 118.35 112.627C118.243 113.01 118.018 113.354 117.705 113.612C116.59 114.547 115.346 113.913 114.287 113.3C113.228 112.688 110.385 109.716 110.87 109.044C111.355 108.373 111.823 105.444 111.823 105.444" fill="white"/>
<path d="M115.871 104.644C115.871 104.644 116.105 107.475 116.73 108.437C117.354 109.399 118.837 111.769 118.229 112.295C117.622 112.822 117.382 111.06 116.434 111.468C115.486 111.876 115.648 113.134 115.018 112.827C114.388 112.521 111.562 109.899 111.366 108.378C111.171 106.857 112.197 104.305 112.197 104.305" fill="#A568FF"/>
<path d="M132.35 104.461C132.35 104.461 132.473 106.127 130.906 106.444C129.34 106.761 127.394 105.842 126.519 105.455C125.643 105.068 122.443 102.473 122.443 102.473L122.822 98.8455" fill="white"/>
<path d="M127.109 98.5929C127.109 98.5929 128.046 100.839 129.74 101.683C131.435 102.526 132.751 104.16 132.372 104.461C131.993 104.762 131.179 103.676 130.744 103.977C130.309 104.278 130.309 105.589 129.774 105.272C129.239 104.955 128.101 105.81 126.546 104.762C124.99 103.714 125.481 103.311 124.165 102.827C122.85 102.344 122.85 98.8401 122.85 98.8401C122.85 98.8401 126.144 99.5548 127.109 98.5929Z" fill="#A568FF"/>
<path d="M128.52 61.6875C129.303 63.9445 129.755 66.2957 129.864 68.6731C130.109 72.886 128.33 97.5343 128.33 97.5343C125.721 98.4701 122.877 98.6144 120.18 97.9481V103.58C120.18 103.58 115.681 104.987 110.764 101.967C110.764 101.967 111.879 65.7929 117.197 61.3705" fill="#FFD008"/>
<path d="M119.801 46.115C120.972 43.8743 125.086 43.7453 129.546 44.6857C130.307 44.8247 131.03 45.1137 131.67 45.5347C132.785 48.0011 131.871 50.9082 131.14 53.38C130.321 56.1474 129.289 61.1555 128.71 62.9879C124.289 64.2614 118.234 61.7842 117.197 61.3758C117.197 61.3597 118.636 48.3558 119.801 46.115Z" fill="#A568FF"/>
<path d="M126.826 42.3106L126.162 44.503C126.162 44.503 127.561 45.7389 129.078 45.3466L129.541 43.9817" fill="#FFB39C"/>
<path d="M130.377 42.3106C133.917 43.3853 134.185 40.4997 134.185 40.4997C135.919 34.7124 129.168 34.6479 129.168 34.6479C129.168 34.6479 124.022 34.8629 125.917 41.3111" fill="#F18F22"/>
<path d="M133.945 38.2858C133.945 38.2858 132.273 45.5078 129.212 44.5997C126.151 43.6916 126.837 41.2359 126.837 41.2359C126.837 41.2359 127.283 36.62 130.026 36.2331C132.769 35.8462 133.945 38.2858 133.945 38.2858Z" fill="#FFC6B2"/>
<path d="M133.945 38.2858C133.945 38.2858 131.637 40.5534 129.44 39.9516C127.244 39.3498 126.826 42.3106 126.826 42.3106C126.211 41.8188 125.756 41.1679 125.513 40.4348C125.27 39.7017 125.25 38.9169 125.454 38.173C125.789 36.5609 128.61 34.3739 130.739 34.8897C132.869 35.4056 134.725 36.8994 133.945 38.2858Z" fill="#F18F22"/>
<path d="M122.17 70.4464C122.209 70.1078 122.766 70.1025 122.727 70.4464C121.686 79.8895 120.867 89.3505 120.268 98.8294C120.268 99.1733 119.711 99.1733 119.711 98.8294C120.309 89.3505 121.129 79.8895 122.17 70.4464Z" fill="#842E13"/>
<path d="M121.34 44.7448C121.217 44.8039 119.377 45.6476 118.652 48.4418C117.928 51.236 120.977 55.2071 120.977 55.2071L126.156 52.0689L121.34 44.7448Z" fill="#A568FF"/>
<path d="M120.978 55.2178L117.287 60.6021L118.692 50.5912L120.978 55.2178Z" fill="#4FCCE0"/>
<path d="M120.977 55.2178L126.161 52.0797L119.6 57.2275" fill="#4FCCE0"/>
<path d="M126.162 52.0796L124.238 49.1564L126.775 52.0796H126.162Z" fill="#4FCCE0"/>
<path d="M125.503 52.4773C125.503 52.4773 129.406 58.0121 129.729 58.3882C130.052 58.7644 135.148 63.7241 135.616 63.9713C136.085 64.2185 138.209 64.9923 138.064 65.4275C137.919 65.8628 135.549 64.8902 135.834 65.4275C136.118 65.9649 138.064 68.0068 137.395 68.7752C136.965 69.2804 134.892 68.7269 134.368 68.1089C133.972 67.6468 133.464 65.5834 133.253 65.4813C133.041 65.3792 127.767 61.7198 126.629 60.9299C125.492 60.14 122.426 54.9062 122.225 54.4817C122.024 54.0571 125.503 52.4773 125.503 52.4773Z" fill="#FFC6B2"/>
<path d="M165.152 76.1638C165.152 76.1638 179.993 68.7054 183.717 63.6059C187.441 58.5064 186.505 53.9335 181.71 51.5208C176.057 48.646 168.397 52.6278 168.397 52.6278" fill="#A568FF"/>
<path opacity="0.36" d="M165.152 76.1638C165.152 76.1638 179.993 68.7054 183.717 63.6059C187.441 58.5064 186.505 53.9335 181.71 51.5208C176.057 48.646 168.397 52.6278 168.397 52.6278" fill="black"/>
<path d="M118.391 82.956V119.002C118.39 119.423 118.505 119.838 118.723 120.204C118.941 120.569 119.254 120.874 119.632 121.086C120.01 121.299 120.439 121.412 120.877 121.415C121.314 121.418 121.745 121.31 122.126 121.103L168.398 95.9223V52.6546L120.587 79.259C119.917 79.6357 119.361 80.1755 118.976 80.8243C118.59 81.4732 118.389 82.2083 118.391 82.956Z" fill="#A568FF"/>
<path opacity="0.36" d="M118.391 82.956V119.002C118.39 119.423 118.505 119.838 118.723 120.204C118.941 120.569 119.254 120.874 119.632 121.086C120.01 121.299 120.439 121.412 120.877 121.415C121.314 121.418 121.745 121.31 122.126 121.103L168.398 95.9223V52.6546L120.587 79.259C119.917 79.6357 119.361 80.1755 118.976 80.8243C118.59 81.4732 118.389 82.2083 118.391 82.956Z" fill="black"/>
<path d="M180.345 63.8477C181.822 62.413 183.35 60.8869 183.907 58.8718C184.543 56.5666 183.166 54.7825 181.12 53.7401C173.984 50.1506 167.667 55.3521 165.175 56.7654C162.683 58.1786 121.724 80.9892 121.411 82.2896C121.099 83.59 120.893 121.414 120.893 121.414C120.893 121.414 118.412 121.312 118.412 119.002V82.956C118.425 82.2112 118.633 81.4817 119.017 80.8353C119.401 80.189 119.949 79.6467 120.609 79.259L126.446 76.0348L138.259 69.42L151.739 61.8971L162.499 55.911C165.582 54.1968 168.515 52.0582 171.977 51.0748C173.748 50.5366 175.614 50.3514 177.462 50.5306C179.31 50.7099 181.101 51.2497 182.725 52.1173C185.334 53.5466 186.806 55.9325 186.015 58.8234C185.301 61.4242 183.484 63.4071 181.61 65.3039" fill="#2E3192"/>
<path d="M173.162 72.8826C175.984 63.1536 170.801 53.2533 161.584 50.7698C152.368 48.2863 142.61 54.1599 139.787 63.8889C136.965 73.618 142.149 83.5182 151.365 86.0017C160.581 88.4853 170.34 82.6116 173.162 72.8826Z" fill="#F2AE16"/>
<path d="M175.322 72.8788C178.144 63.1498 172.961 53.2495 163.745 50.766C154.529 48.2825 144.77 54.1561 141.948 63.8851C139.126 73.6142 144.309 83.5144 153.525 85.9979C162.741 88.4815 172.5 82.6078 175.322 72.8788Z" fill="#FFD008"/>
<path d="M173.26 72.3232C175.733 63.7974 171.19 55.1214 163.112 52.9447C155.035 50.768 146.482 55.915 144.009 64.4407C141.536 72.9665 146.079 81.6425 154.157 83.8192C162.234 85.9959 170.787 80.849 173.26 72.3232Z" stroke="#F7931E" stroke-width="1.015" stroke-miterlimit="10"/>
<path d="M141.086 65.1427C141.086 65.1427 141.404 69.9037 137.562 70.1938C137.562 70.1938 140.813 71.4942 141.354 73.9875C141.354 73.9875 141.755 70.5109 145.055 70.1509C143.888 69.9003 142.849 69.2605 142.123 68.3444C141.397 67.4282 141.03 66.2944 141.086 65.1427Z" fill="white"/>
<path d="M133.582 92.3435V128.389C133.582 128.811 133.696 129.225 133.914 129.591C134.132 129.957 134.446 130.261 134.824 130.474C135.201 130.686 135.631 130.8 136.068 130.803C136.506 130.806 136.936 130.698 137.317 130.49L183.59 105.31V62.0422L135.812 88.6519C135.137 89.024 134.575 89.5612 134.183 90.2093C133.792 90.8574 133.584 91.5936 133.582 92.3435Z" fill="#2E3192"/>
<path d="M136.029 93.2463V129.292C136.029 129.714 136.144 130.128 136.362 130.494C136.579 130.86 136.893 131.164 137.271 131.377C137.649 131.589 138.078 131.703 138.515 131.705C138.953 131.708 139.384 131.601 139.765 131.393L183.132 107.792C184.014 107.312 184.748 106.615 185.258 105.772C185.769 104.929 186.037 103.97 186.037 102.994V62.9449L138.259 89.5547C137.584 89.9268 137.022 90.464 136.63 91.1121C136.239 91.7602 136.032 92.4963 136.029 93.2463Z" fill="#A568FF"/>
<path d="M177.841 63.896C177.789 63.896 177.739 63.8821 177.695 63.8559C177.651 63.8297 177.615 63.7921 177.592 63.7475C177.569 63.7029 177.559 63.6529 177.564 63.6032C177.568 63.5535 177.587 63.5061 177.618 63.4661C177.726 63.3264 177.832 63.1831 177.936 63.0363C177.957 63.0059 177.985 62.9801 178.017 62.9604C178.049 62.9407 178.085 62.9275 178.123 62.9217C178.16 62.9159 178.199 62.9176 178.236 62.9267C178.272 62.9357 178.307 62.952 178.337 62.9744C178.367 62.9968 178.392 63.0249 178.411 63.057C178.429 63.0891 178.44 63.1245 178.444 63.161C178.448 63.1975 178.444 63.2344 178.432 63.2693C178.42 63.3042 178.402 63.3365 178.376 63.364L178.048 63.81C178.022 63.8434 177.988 63.8705 177.949 63.8892C177.91 63.9078 177.868 63.9175 177.825 63.9175L177.841 63.896Z" fill="#2E3192"/>
<path d="M141.309 91.4999C141.249 91.4997 141.191 91.4809 141.143 91.4461C141.095 91.4113 141.059 91.3625 141.043 91.3069C141.026 91.2513 141.028 91.1919 141.049 91.1376C141.07 91.0833 141.108 91.037 141.159 91.0055L142.079 90.4359C142.143 90.4003 142.219 90.3908 142.291 90.4094C142.363 90.428 142.424 90.4733 142.461 90.5353C142.497 90.5973 142.507 90.6709 142.488 90.74C142.469 90.809 142.422 90.8678 142.357 90.9034L141.443 91.4838C141.398 91.5117 141.346 91.5266 141.293 91.5267L141.309 91.4999ZM144.052 89.8502C143.993 89.8489 143.935 89.8292 143.888 89.7941C143.841 89.7589 143.806 89.71 143.79 89.6547C143.774 89.5993 143.777 89.5404 143.798 89.4867C143.819 89.4329 143.857 89.387 143.907 89.3558L144.833 88.8185C144.896 88.7807 144.971 88.7686 145.043 88.7847C145.116 88.8008 145.178 88.8439 145.217 88.9045C145.257 88.965 145.269 89.0381 145.252 89.1077C145.236 89.1772 145.191 89.2375 145.128 89.2752L144.203 89.8126C144.161 89.8222 144.117 89.8222 144.074 89.8126L144.052 89.8502ZM146.868 88.1629C146.806 88.1635 146.746 88.1446 146.697 88.1091C146.648 88.0736 146.613 88.0235 146.596 87.9666C146.58 87.9097 146.583 87.8491 146.606 87.7943C146.629 87.7394 146.67 87.6933 146.723 87.6632L147.654 87.1258C147.717 87.0909 147.792 87.0815 147.863 87.0995C147.934 87.1176 147.994 87.1616 148.031 87.2222C148.069 87.2828 148.08 87.3551 148.062 87.4235C148.045 87.4919 148 87.551 147.938 87.5879L147.007 88.1253C146.963 88.1504 146.913 88.1634 146.862 88.1629H146.868ZM149.655 86.5509C149.594 86.5503 149.535 86.5305 149.487 86.4946C149.439 86.4587 149.405 86.4086 149.389 86.3519C149.373 86.2953 149.377 86.2353 149.4 86.1809C149.423 86.1266 149.463 86.081 149.516 86.0511L150.452 85.5138C150.516 85.4789 150.591 85.4694 150.662 85.4875C150.732 85.5055 150.793 85.5496 150.83 85.6102C150.867 85.6708 150.878 85.743 150.861 85.8114C150.843 85.8799 150.799 85.9389 150.737 85.9759L149.8 86.5132C149.758 86.5374 149.71 86.5504 149.661 86.5509H149.655ZM152.482 84.9388C152.421 84.9382 152.362 84.9184 152.314 84.8825C152.266 84.8466 152.231 84.7965 152.215 84.7399C152.199 84.6833 152.203 84.6232 152.226 84.5689C152.249 84.5146 152.29 84.469 152.342 84.4391L153.284 83.9017C153.349 83.8661 153.425 83.8565 153.497 83.8752C153.568 83.8938 153.629 83.9391 153.666 84.0011C153.703 84.0631 153.713 84.1367 153.694 84.2058C153.674 84.2748 153.627 84.3336 153.563 84.3692L152.621 84.9066C152.579 84.9307 152.531 84.9437 152.482 84.9442V84.9388ZM155.319 83.3858C155.257 83.3874 155.195 83.3686 155.145 83.3323C155.095 83.2961 155.059 83.2447 155.043 83.1863C155.027 83.1279 155.031 83.066 155.056 83.0106C155.081 82.9551 155.125 82.9094 155.18 82.8807L156.128 82.3434C156.161 82.3279 156.196 82.3187 156.233 82.3165C156.27 82.3144 156.306 82.3191 156.341 82.3306C156.376 82.3421 156.408 82.36 156.435 82.3834C156.463 82.4068 156.485 82.4352 156.501 82.467C156.517 82.4987 156.527 82.5332 156.529 82.5685C156.531 82.6038 156.526 82.6392 156.514 82.6726C156.503 82.706 156.484 82.7369 156.46 82.7634C156.435 82.7898 156.406 82.8115 156.373 82.827L155.425 83.3643C155.382 83.3866 155.334 83.3977 155.286 83.3966L155.319 83.3858ZM158.157 81.8383C158.094 81.8398 158.033 81.821 157.983 81.7848C157.933 81.7486 157.897 81.6971 157.88 81.6387C157.864 81.5804 157.869 81.5184 157.894 81.463C157.919 81.4076 157.962 81.3618 158.018 81.3332L158.971 80.7958C159.037 80.7644 159.114 80.7599 159.184 80.783C159.254 80.8062 159.312 80.8553 159.344 80.9194C159.377 80.9835 159.382 81.0575 159.358 81.125C159.334 81.1925 159.283 81.2481 159.216 81.2794L158.268 81.8168C158.226 81.8391 158.178 81.8502 158.129 81.849L158.157 81.8383ZM161 80.3014C160.938 80.3017 160.878 80.282 160.828 80.2454C160.779 80.2087 160.744 80.1573 160.729 80.0992C160.713 80.0412 160.719 79.9798 160.743 79.9249C160.768 79.8701 160.812 79.8248 160.866 79.7963L161.82 79.259C161.884 79.2286 161.957 79.223 162.025 79.2433C162.093 79.2635 162.151 79.3082 162.186 79.3681C162.221 79.428 162.231 79.4985 162.213 79.5651C162.196 79.6318 162.153 79.6895 162.093 79.7265L161.14 80.2638C161.098 80.2852 161.052 80.2963 161.006 80.2961L161 80.3014ZM163.86 78.7646C163.798 78.7649 163.738 78.7452 163.688 78.7085C163.639 78.6719 163.604 78.6205 163.589 78.5624C163.573 78.5043 163.578 78.443 163.603 78.3881C163.628 78.3332 163.672 78.288 163.726 78.2595L164.674 77.7221C164.738 77.6918 164.812 77.6861 164.88 77.7064C164.948 77.7267 165.005 77.7714 165.04 77.8313C165.075 77.8911 165.085 77.9616 165.068 78.0283C165.051 78.095 165.007 78.1527 164.947 78.1896L163.994 78.727C163.953 78.7484 163.907 78.7595 163.86 78.7592V78.7646ZM166.692 77.2385C166.63 77.2401 166.568 77.2212 166.518 77.185C166.468 77.1488 166.432 77.0974 166.416 77.039C166.4 76.9806 166.404 76.9187 166.429 76.8633C166.454 76.8078 166.498 76.7621 166.553 76.7334L167.501 76.1961C167.565 76.1657 167.638 76.16 167.706 76.1803C167.774 76.2006 167.832 76.2453 167.867 76.3052C167.902 76.3651 167.912 76.4356 167.894 76.5022C167.877 76.5689 167.834 76.6266 167.774 76.6636L166.826 77.2009C166.783 77.2232 166.735 77.2343 166.687 77.2332L166.692 77.2385ZM169.536 75.6909C169.473 75.6925 169.411 75.6736 169.361 75.6374C169.311 75.6012 169.275 75.5498 169.259 75.4914C169.243 75.433 169.248 75.3711 169.273 75.3157C169.297 75.2602 169.341 75.2145 169.396 75.1858L170.344 74.6485C170.408 74.6128 170.485 74.6033 170.556 74.622C170.628 74.6406 170.689 74.6859 170.726 74.7479C170.763 74.8099 170.773 74.8835 170.753 74.9525C170.734 75.0216 170.687 75.0804 170.623 75.116L169.675 75.6533C169.632 75.6756 169.584 75.6867 169.536 75.6856V75.6909ZM172.373 74.1219C172.312 74.1213 172.253 74.1015 172.205 74.0656C172.157 74.0297 172.123 73.9796 172.107 73.923C172.091 73.8663 172.095 73.8063 172.118 73.752C172.141 73.6977 172.181 73.6521 172.234 73.6221L173.176 73.0848C173.24 73.0492 173.317 73.0396 173.388 73.0583C173.46 73.0769 173.521 73.1222 173.558 73.1842C173.595 73.2462 173.605 73.3198 173.585 73.3888C173.566 73.4579 173.519 73.5167 173.455 73.5523L172.513 74.0896C172.47 74.1138 172.422 74.1268 172.373 74.1273V74.1219ZM175.205 72.5689C175.143 72.5692 175.083 72.5495 175.033 72.5128C174.984 72.4762 174.949 72.4248 174.934 72.3667C174.918 72.3087 174.924 72.2473 174.949 72.1924C174.974 72.1375 175.017 72.0923 175.071 72.0638L176.03 71.5587C176.095 71.5245 176.172 71.5166 176.243 71.5368C176.278 71.5467 176.311 71.5633 176.34 71.5855C176.368 71.6077 176.392 71.6351 176.409 71.6662C176.427 71.6972 176.438 71.7313 176.442 71.7665C176.446 71.8016 176.443 71.8372 176.432 71.8711C176.422 71.9051 176.405 71.9367 176.382 71.9642C176.359 71.9917 176.33 72.0146 176.298 72.0316L175.345 72.5367C175.304 72.5581 175.258 72.5691 175.211 72.5689H175.205ZM178.082 71.0643C178.019 71.0659 177.958 71.047 177.908 71.0108C177.858 70.9746 177.822 70.9232 177.805 70.8648C177.789 70.8064 177.794 70.7445 177.819 70.6891C177.844 70.6336 177.887 70.5879 177.943 70.5592L178.885 70.0219C178.948 69.9945 179.019 69.9905 179.085 70.0108C179.15 70.0311 179.206 70.0742 179.241 70.1317C179.275 70.1892 179.287 70.257 179.272 70.3221C179.258 70.3872 179.219 70.4449 179.164 70.484L178.216 71.0213C178.173 71.0436 178.125 71.0547 178.076 71.0536L178.082 71.0643ZM180.869 69.4523C180.809 69.4533 180.75 69.4353 180.701 69.4009C180.652 69.3666 180.616 69.3177 180.598 69.2619C180.58 69.206 180.582 69.1461 180.603 69.0912C180.624 69.0364 180.662 68.9896 180.713 68.9579C181.014 68.7645 181.31 68.5674 181.6 68.3668L181.639 68.34C181.702 68.3051 181.778 68.2956 181.848 68.3137C181.919 68.3317 181.979 68.3757 182.017 68.4363C182.054 68.4969 182.065 68.5692 182.048 68.6376C182.03 68.706 181.985 68.7651 181.923 68.8021C181.63 69.0099 181.328 69.2105 181.02 69.4039C180.974 69.4329 180.919 69.4478 180.864 69.4469L180.869 69.4523ZM183.456 67.5393C183.4 67.5386 183.346 67.5217 183.3 67.4908C183.254 67.4599 183.219 67.4164 183.199 67.3659C183.179 67.3155 183.176 67.2605 183.189 67.208C183.202 67.1555 183.231 67.1081 183.272 67.0718C183.54 66.8425 183.8 66.6061 184.053 66.3625C184.105 66.3119 184.176 66.2835 184.251 66.2835C184.325 66.2835 184.396 66.3119 184.449 66.3625C184.501 66.4131 184.531 66.4817 184.531 66.5533C184.531 66.6248 184.501 66.6934 184.449 66.744C184.188 66.9948 183.921 67.2384 183.646 67.4748C183.595 67.519 183.53 67.5438 183.462 67.5447L183.456 67.5393Z" fill="#2E3192"/>
<path d="M138.889 93.4881C138.853 93.4822 138.818 93.4695 138.787 93.4506C138.756 93.4318 138.729 93.4071 138.707 93.3782C138.686 93.3492 138.671 93.3164 138.663 93.2818C138.655 93.2472 138.654 93.2114 138.66 93.1764L138.778 92.5316L139.335 92.1716L139.38 92.1447C139.412 92.1252 139.448 92.1123 139.486 92.1068C139.524 92.1013 139.562 92.1034 139.599 92.1129C139.636 92.1223 139.671 92.1391 139.701 92.1619C139.731 92.1848 139.755 92.2134 139.773 92.2459C139.791 92.2784 139.802 92.3141 139.805 92.3508C139.808 92.3875 139.804 92.4245 139.791 92.4593C139.779 92.4942 139.759 92.5262 139.734 92.5534C139.708 92.5807 139.677 92.6025 139.642 92.6176L139.279 92.8486L139.201 93.2624C139.191 93.3251 139.158 93.3821 139.108 93.4234C139.057 93.4647 138.994 93.4876 138.928 93.4881H138.889Z" fill="#2E3192"/>
<path d="M138.961 128.905C138.471 128.722 138.186 128.443 138.186 128.137V127.868C138.186 127.797 138.216 127.728 138.268 127.678C138.32 127.628 138.391 127.599 138.465 127.599C138.539 127.599 138.61 127.628 138.662 127.678C138.714 127.728 138.744 127.797 138.744 127.868V128.131C138.744 128.174 138.872 128.298 139.162 128.405C139.201 128.409 139.239 128.42 139.274 128.438C139.308 128.457 139.339 128.482 139.362 128.512C139.386 128.542 139.404 128.577 139.413 128.614C139.422 128.651 139.423 128.689 139.416 128.727C139.409 128.764 139.394 128.8 139.372 128.831C139.35 128.863 139.322 128.89 139.288 128.91C139.255 128.93 139.217 128.944 139.178 128.949C139.139 128.955 139.1 128.953 139.062 128.943C139.026 128.937 138.992 128.924 138.961 128.905ZM141.225 128.765C141.166 128.765 141.109 128.748 141.062 128.715C141.014 128.682 140.979 128.635 140.96 128.582C140.942 128.528 140.941 128.47 140.959 128.417C140.976 128.363 141.011 128.316 141.057 128.282L141.197 128.19L142.133 127.803C142.201 127.775 142.278 127.774 142.347 127.8C142.416 127.826 142.472 127.878 142.501 127.943C142.531 128.009 142.532 128.083 142.505 128.149C142.478 128.216 142.424 128.269 142.356 128.298L141.448 128.674L141.392 128.717C141.344 128.752 141.285 128.771 141.225 128.771V128.765ZM144.012 127.277C143.996 127.245 143.987 127.211 143.984 127.175C143.982 127.14 143.987 127.105 143.999 127.071C144.011 127.038 144.029 127.007 144.054 126.98C144.078 126.954 144.107 126.932 144.14 126.917L145.138 126.428C145.171 126.412 145.207 126.402 145.243 126.399C145.28 126.396 145.316 126.4 145.351 126.41C145.386 126.421 145.419 126.438 145.447 126.461C145.475 126.484 145.498 126.512 145.515 126.543C145.532 126.575 145.542 126.609 145.545 126.644C145.548 126.679 145.544 126.715 145.533 126.749C145.522 126.782 145.504 126.814 145.48 126.841C145.456 126.868 145.427 126.89 145.395 126.906L144.386 127.4C144.353 127.416 144.317 127.425 144.28 127.427C144.244 127.43 144.207 127.425 144.172 127.413C144.138 127.402 144.106 127.384 144.078 127.361C144.051 127.337 144.028 127.309 144.012 127.277ZM138.437 125.987C138.364 125.989 138.294 125.962 138.24 125.914C138.187 125.866 138.156 125.8 138.153 125.729V124.655C138.153 124.583 138.182 124.515 138.235 124.465C138.287 124.414 138.358 124.386 138.432 124.386C138.506 124.386 138.576 124.414 138.629 124.465C138.681 124.515 138.71 124.583 138.71 124.655V125.729C138.711 125.765 138.705 125.8 138.691 125.833C138.678 125.865 138.658 125.895 138.633 125.921C138.607 125.946 138.577 125.967 138.543 125.981C138.51 125.995 138.474 126.003 138.437 126.003V125.987ZM147.251 125.885C147.19 125.885 147.132 125.865 147.083 125.829C147.035 125.793 147.001 125.743 146.985 125.686C146.969 125.63 146.973 125.57 146.996 125.515C147.019 125.461 147.06 125.415 147.112 125.385L148.076 124.848C148.14 124.811 148.216 124.8 148.288 124.817C148.361 124.834 148.423 124.878 148.461 124.939C148.5 125.001 148.511 125.074 148.493 125.144C148.476 125.213 148.43 125.273 148.366 125.31L147.391 125.847C147.349 125.872 147.3 125.885 147.251 125.885ZM150.134 124.187C150.073 124.187 150.015 124.168 149.967 124.133C149.919 124.098 149.884 124.05 149.867 123.994C149.85 123.938 149.852 123.879 149.873 123.825C149.894 123.77 149.933 123.724 149.983 123.693L150.931 123.112C150.993 123.078 151.066 123.068 151.135 123.085C151.205 123.101 151.265 123.143 151.303 123.2C151.342 123.258 151.356 123.328 151.343 123.396C151.329 123.463 151.29 123.524 151.232 123.564L150.284 124.149C150.239 124.177 150.187 124.192 150.134 124.192V124.187ZM138.354 122.731C138.281 122.735 138.21 122.713 138.155 122.668C138.1 122.622 138.065 122.558 138.058 122.489L138.019 121.414C138.018 121.379 138.023 121.344 138.036 121.311C138.049 121.278 138.068 121.247 138.093 121.221C138.118 121.195 138.148 121.174 138.181 121.159C138.214 121.145 138.25 121.136 138.287 121.135C138.36 121.135 138.43 121.161 138.484 121.209C138.538 121.257 138.571 121.323 138.577 121.393L138.616 122.468C138.617 122.503 138.611 122.538 138.599 122.571C138.586 122.604 138.567 122.635 138.542 122.661C138.517 122.687 138.487 122.708 138.454 122.722C138.421 122.737 138.385 122.746 138.348 122.747L138.354 122.731ZM152.977 122.441C152.917 122.441 152.858 122.422 152.81 122.387C152.762 122.352 152.727 122.303 152.71 122.248C152.693 122.192 152.695 122.133 152.716 122.078C152.737 122.024 152.776 121.978 152.826 121.946L153.774 121.361C153.836 121.327 153.909 121.317 153.979 121.333C154.048 121.349 154.108 121.391 154.147 121.449C154.185 121.507 154.199 121.576 154.186 121.644C154.173 121.712 154.133 121.772 154.075 121.812L153.127 122.392C153.083 122.421 153.03 122.435 152.977 122.435V122.441ZM155.831 120.684C155.771 120.683 155.713 120.665 155.665 120.63C155.617 120.595 155.581 120.546 155.564 120.491C155.548 120.435 155.55 120.376 155.571 120.321C155.592 120.267 155.63 120.221 155.681 120.189L156.634 119.609C156.665 119.59 156.7 119.578 156.736 119.572C156.772 119.566 156.809 119.567 156.845 119.575C156.881 119.583 156.914 119.598 156.944 119.618C156.974 119.639 156.999 119.665 157.019 119.695C157.038 119.725 157.051 119.758 157.057 119.793C157.063 119.828 157.062 119.864 157.054 119.898C157.045 119.932 157.03 119.965 157.009 119.994C156.988 120.022 156.961 120.047 156.93 120.066L155.976 120.641C155.931 120.668 155.879 120.683 155.826 120.684H155.831ZM138.259 119.474C138.187 119.479 138.115 119.456 138.06 119.411C138.005 119.366 137.97 119.302 137.963 119.233L137.919 118.158C137.917 118.123 137.923 118.087 137.936 118.054C137.948 118.021 137.968 117.991 137.992 117.965C138.017 117.939 138.047 117.918 138.081 117.903C138.114 117.888 138.15 117.88 138.186 117.879C138.26 117.877 138.331 117.903 138.385 117.951C138.439 117.999 138.472 118.066 138.476 118.136L138.521 119.211C138.522 119.246 138.517 119.282 138.504 119.315C138.491 119.348 138.472 119.378 138.447 119.404C138.422 119.43 138.392 119.451 138.359 119.466C138.326 119.481 138.29 119.489 138.253 119.491L138.259 119.474ZM158.73 118.937C158.669 118.938 158.609 118.919 158.56 118.883C158.511 118.848 158.476 118.798 158.459 118.741C158.443 118.684 158.446 118.623 158.469 118.568C158.492 118.514 158.533 118.468 158.585 118.437L159.55 117.9C159.613 117.865 159.688 117.856 159.759 117.874C159.83 117.892 159.89 117.936 159.928 117.996C159.965 118.057 159.976 118.129 159.958 118.198C159.941 118.266 159.896 118.325 159.834 118.362L158.87 118.9C158.826 118.925 158.776 118.938 158.725 118.937H158.73ZM161.64 117.282C161.58 117.281 161.521 117.262 161.472 117.226C161.424 117.19 161.39 117.14 161.374 117.083C161.358 117.027 161.362 116.966 161.385 116.912C161.408 116.858 161.449 116.812 161.501 116.782L162.477 116.245C162.541 116.215 162.614 116.209 162.682 116.229C162.75 116.25 162.808 116.294 162.843 116.354C162.878 116.414 162.888 116.484 162.87 116.551C162.853 116.618 162.81 116.676 162.75 116.712L161.774 117.25C161.732 117.274 161.684 117.287 161.635 117.287L161.64 117.282ZM138.119 116.207C138.046 116.21 137.975 116.186 137.921 116.138C137.867 116.091 137.834 116.025 137.83 115.955L137.785 114.88C137.783 114.845 137.789 114.81 137.802 114.776C137.815 114.743 137.834 114.713 137.859 114.687C137.884 114.661 137.913 114.64 137.947 114.625C137.98 114.61 138.016 114.602 138.053 114.601C138.088 114.6 138.124 114.606 138.158 114.619C138.191 114.631 138.221 114.65 138.247 114.674C138.273 114.698 138.294 114.727 138.308 114.758C138.323 114.79 138.331 114.824 138.331 114.859L138.376 115.933C138.377 115.969 138.372 116.004 138.359 116.037C138.346 116.07 138.327 116.101 138.302 116.127C138.277 116.152 138.247 116.173 138.214 116.188C138.181 116.203 138.145 116.211 138.108 116.213L138.119 116.207ZM164.578 115.67C164.516 115.67 164.456 115.651 164.407 115.614C164.357 115.577 164.322 115.526 164.307 115.468C164.292 115.41 164.297 115.348 164.322 115.294C164.347 115.239 164.39 115.193 164.445 115.165L165.431 114.628C165.496 114.593 165.573 114.585 165.644 114.606C165.679 114.616 165.712 114.632 165.741 114.654C165.769 114.677 165.793 114.704 165.81 114.735C165.828 114.766 165.839 114.8 165.843 114.835C165.847 114.87 165.844 114.906 165.833 114.94C165.823 114.974 165.806 115.006 165.783 115.033C165.76 115.061 165.731 115.084 165.699 115.1L164.712 115.638C164.671 115.659 164.625 115.67 164.578 115.67ZM167.55 114.112C167.488 114.112 167.427 114.092 167.378 114.056C167.329 114.019 167.294 113.968 167.278 113.909C167.263 113.851 167.268 113.79 167.293 113.735C167.318 113.68 167.361 113.635 167.416 113.607L168.408 113.069H168.442C168.476 113.052 168.512 113.042 168.55 113.039C168.588 113.036 168.626 113.041 168.662 113.053C168.698 113.065 168.732 113.084 168.76 113.108C168.788 113.133 168.81 113.163 168.826 113.197C168.842 113.23 168.85 113.266 168.851 113.303C168.851 113.34 168.844 113.376 168.829 113.41C168.815 113.444 168.793 113.474 168.766 113.5C168.738 113.525 168.706 113.545 168.67 113.558L167.678 114.096C167.637 114.117 167.591 114.128 167.544 114.128L167.55 114.112ZM138.002 112.951H137.975C137.905 112.95 137.839 112.924 137.788 112.878C137.738 112.833 137.707 112.77 137.701 112.704L137.668 111.629C137.667 111.594 137.674 111.559 137.687 111.526C137.7 111.493 137.72 111.463 137.746 111.438C137.771 111.412 137.801 111.392 137.835 111.378C137.868 111.363 137.904 111.356 137.941 111.355C138.015 111.355 138.085 111.382 138.138 111.432C138.191 111.481 138.223 111.548 138.225 111.618L138.259 112.693C138.26 112.728 138.255 112.764 138.242 112.797C138.229 112.83 138.21 112.86 138.185 112.886C138.16 112.912 138.13 112.933 138.097 112.948C138.064 112.963 138.028 112.971 137.991 112.973L138.002 112.951ZM170.527 112.575C170.465 112.574 170.406 112.553 170.357 112.516C170.309 112.479 170.275 112.428 170.26 112.37C170.246 112.312 170.251 112.251 170.276 112.197C170.301 112.143 170.344 112.098 170.399 112.07L171.391 111.559H171.424C171.458 111.542 171.495 111.532 171.533 111.529C171.571 111.526 171.609 111.531 171.645 111.543C171.681 111.555 171.714 111.574 171.742 111.598C171.77 111.623 171.793 111.653 171.809 111.687C171.824 111.72 171.833 111.756 171.833 111.793C171.834 111.83 171.827 111.866 171.812 111.9C171.797 111.934 171.776 111.964 171.748 111.99C171.721 112.015 171.689 112.035 171.653 112.048L170.661 112.559C170.621 112.579 170.577 112.591 170.533 112.591L170.527 112.575ZM173.493 111.092C173.419 111.106 173.342 111.091 173.279 111.051C173.217 111.011 173.173 110.948 173.158 110.877C173.144 110.806 173.159 110.732 173.201 110.671C173.242 110.611 173.307 110.569 173.381 110.554L174.374 110.017C174.438 109.989 174.511 109.986 174.578 110.008C174.645 110.03 174.7 110.076 174.734 110.136C174.767 110.196 174.775 110.266 174.757 110.331C174.739 110.397 174.696 110.454 174.636 110.49L173.643 111.027C173.602 111.049 173.556 111.06 173.51 111.06L173.493 111.092ZM137.874 109.716C137.838 109.715 137.801 109.708 137.768 109.694C137.734 109.68 137.704 109.659 137.679 109.634C137.653 109.608 137.633 109.578 137.62 109.545C137.607 109.512 137.6 109.477 137.601 109.442V108.367C137.601 108.296 137.63 108.228 137.683 108.177C137.735 108.127 137.806 108.099 137.88 108.099C137.916 108.099 137.951 108.107 137.984 108.121C138.017 108.135 138.046 108.155 138.071 108.18C138.096 108.205 138.116 108.234 138.129 108.266C138.142 108.298 138.148 108.333 138.147 108.367V109.442C138.148 109.477 138.142 109.512 138.128 109.545C138.115 109.578 138.095 109.608 138.07 109.634C138.044 109.659 138.014 109.68 137.98 109.694C137.947 109.708 137.911 109.715 137.874 109.716ZM176.459 109.544C176.397 109.545 176.336 109.525 176.287 109.488C176.238 109.451 176.203 109.4 176.187 109.342C176.172 109.284 176.177 109.223 176.202 109.168C176.227 109.113 176.27 109.068 176.325 109.039L177.312 108.502C177.377 108.468 177.453 108.46 177.524 108.48C177.56 108.49 177.592 108.506 177.621 108.529C177.649 108.551 177.673 108.578 177.691 108.609C177.708 108.64 177.719 108.674 177.723 108.71C177.727 108.745 177.724 108.78 177.714 108.814C177.703 108.848 177.686 108.88 177.663 108.907C177.64 108.935 177.612 108.958 177.579 108.975L176.593 109.512C176.551 109.533 176.505 109.544 176.459 109.544ZM179.419 107.981C179.356 107.982 179.295 107.963 179.245 107.927C179.195 107.891 179.159 107.839 179.143 107.781C179.126 107.723 179.131 107.661 179.156 107.605C179.181 107.55 179.224 107.504 179.28 107.475L180.255 106.938C180.287 106.92 180.322 106.909 180.359 106.904C180.395 106.9 180.432 106.902 180.468 106.912C180.503 106.921 180.536 106.937 180.565 106.958C180.594 106.98 180.619 107.007 180.637 107.037C180.655 107.068 180.667 107.102 180.672 107.137C180.677 107.172 180.674 107.208 180.665 107.242C180.655 107.276 180.639 107.308 180.616 107.336C180.594 107.364 180.566 107.388 180.534 107.406L179.553 107.943C179.51 107.965 179.462 107.976 179.413 107.975L179.419 107.981ZM137.869 106.481C137.795 106.481 137.724 106.453 137.671 106.403C137.619 106.352 137.59 106.284 137.59 106.213V105.138C137.596 105.068 137.629 105.004 137.681 104.955C137.733 104.907 137.802 104.878 137.874 104.875C137.911 104.875 137.947 104.883 137.98 104.897C138.014 104.911 138.044 104.932 138.07 104.957C138.095 104.983 138.115 105.013 138.128 105.045C138.142 105.078 138.148 105.113 138.147 105.149V106.223C138.147 106.295 138.118 106.363 138.066 106.413C138.013 106.464 137.943 106.492 137.869 106.492V106.481ZM182.346 106.385C182.285 106.384 182.226 106.364 182.178 106.328C182.13 106.292 182.095 106.242 182.08 106.186C182.064 106.129 182.068 106.069 182.091 106.015C182.113 105.96 182.154 105.915 182.207 105.885L183.171 105.347C183.235 105.313 183.31 105.303 183.38 105.321C183.451 105.339 183.512 105.383 183.549 105.444C183.586 105.504 183.597 105.577 183.58 105.645C183.562 105.714 183.518 105.773 183.455 105.81L182.485 106.347C182.443 106.371 182.395 106.384 182.346 106.385ZM137.924 103.257C137.888 103.256 137.852 103.247 137.818 103.233C137.785 103.218 137.755 103.197 137.73 103.171C137.706 103.145 137.686 103.115 137.674 103.081C137.661 103.048 137.655 103.013 137.657 102.978C137.686 102.62 137.701 102.261 137.701 101.903C137.701 101.832 137.731 101.763 137.783 101.713C137.835 101.663 137.906 101.634 137.98 101.634C138.054 101.634 138.125 101.663 138.177 101.713C138.229 101.763 138.259 101.832 138.259 101.903C138.229 102.261 138.214 102.62 138.214 102.978C138.211 103.047 138.181 103.113 138.129 103.161C138.077 103.209 138.008 103.236 137.935 103.236L137.924 103.257ZM138.103 99.974C138.03 99.9685 137.962 99.9355 137.914 99.8822C137.866 99.8289 137.842 99.7596 137.846 99.6892C137.872 99.3309 137.902 98.9727 137.935 98.6145C137.944 98.5446 137.98 98.4806 138.036 98.4356C138.092 98.3906 138.164 98.368 138.237 98.3726C138.31 98.3795 138.377 98.4138 138.424 98.4681C138.471 98.5224 138.494 98.5924 138.487 98.6628C138.454 99.021 138.424 99.3793 138.398 99.7375C138.393 99.805 138.361 99.8679 138.309 99.9138C138.257 99.9596 138.19 99.9849 138.119 99.9847L138.103 99.974ZM138.409 96.7498C138.336 96.7405 138.27 96.7035 138.225 96.6471C138.18 96.5907 138.16 96.5194 138.17 96.4489C138.214 96.0907 138.263 95.7325 138.315 95.3742C138.326 95.3043 138.364 95.2413 138.423 95.1982C138.481 95.1551 138.554 95.1354 138.627 95.1432C138.7 95.1525 138.766 95.1895 138.811 95.2459C138.856 95.3023 138.876 95.3735 138.867 95.4441C138.818 95.8023 138.772 96.1605 138.727 96.5188C138.719 96.5843 138.686 96.6446 138.635 96.6882C138.583 96.7319 138.517 96.7557 138.448 96.7552L138.409 96.7498Z" fill="#2E3192"/>
<path d="M152.804 109.772C153.783 107.539 153.494 105.287 152.158 104.743C150.822 104.199 148.946 105.569 147.966 107.802C146.987 110.035 147.276 112.287 148.612 112.831C149.948 113.375 151.825 112.006 152.804 109.772Z" fill="#2E3192"/>
<path d="M72.3848 97.3355C80.8428 97.3355 87.6994 93.4645 87.6994 88.6895C87.6994 83.9144 80.8428 80.0435 72.3848 80.0435C63.9269 80.0435 57.0703 83.9144 57.0703 88.6895C57.0703 93.4645 63.9269 97.3355 72.3848 97.3355Z" fill="#FF912E"/>
<path d="M72.9591 96.0835C81.417 96.0835 88.2736 92.2125 88.2736 87.4375C88.2736 82.6624 81.417 78.7915 72.9591 78.7915C64.5011 78.7915 57.6445 82.6624 57.6445 87.4375C57.6445 92.2125 64.5011 96.0835 72.9591 96.0835Z" fill="#FFB92C"/>
<path d="M72.9881 95.1861C65.6403 95.1861 59.7363 91.7632 59.7363 87.5503C59.7363 83.3375 65.6793 79.9253 72.9881 79.9253C80.2969 79.9253 86.2399 83.3482 86.2399 87.5611C86.2399 91.7739 80.2802 95.1861 72.9881 95.1861ZM72.9881 80.6776C66.1197 80.6776 60.528 83.7566 60.528 87.5557C60.528 91.3548 66.103 94.4338 72.9881 94.4338C79.8732 94.4338 85.4482 91.3548 85.4482 87.5557C85.4482 83.7566 79.8565 80.6722 72.9881 80.6722V80.6776Z" fill="#F7931E"/>
<path d="M80.3516 35.325C83.05 34.321 85.9164 33.8019 88.8088 33.7935C93.4305 33.8258 83.323 41.7786 83.323 41.7786" fill="#F2AE16"/>
<path d="M86.0497 62.133C93.2437 61.541 98.5304 54.9053 97.8578 47.3119C97.1851 39.7184 90.8079 34.0426 83.6139 34.6346C76.4198 35.2266 71.1332 41.8623 71.8058 49.4558C72.4784 57.0492 78.8556 62.725 86.0497 62.133Z" fill="#F2AE16"/>
<path d="M89.9696 61.3524C97.1637 60.7604 102.45 54.1247 101.778 46.5312C101.105 38.9378 94.7279 33.262 87.5338 33.854C80.3397 34.446 75.0531 41.0817 75.7257 48.6751C76.3983 56.2686 82.7755 61.9444 89.9696 61.3524Z" fill="#FFD008"/>
<path d="M89.8198 59.6551C96.1241 59.1363 100.757 53.3199 100.167 46.6637C99.5777 40.0076 93.989 35.0323 87.6846 35.5512C81.3802 36.07 76.7475 41.8864 77.3371 48.5425C77.9267 55.1986 83.5154 60.1739 89.8198 59.6551Z" stroke="#F7931E" stroke-width="1.015" stroke-miterlimit="10"/>
<path d="M22.8565 87.1097C22.8565 87.1097 20.7101 101.258 29.9535 101.307C38.8344 101.355 36.5431 86.9377 36.5431 86.9377C36.5431 86.9377 30.104 81.5373 22.8565 87.1097Z" fill="#A568FF"/>
<path opacity="0.15" d="M22.8565 87.1097C22.8565 87.1097 20.7101 101.258 29.9535 101.307C38.8344 101.355 36.5431 86.9377 36.5431 86.9377C36.5431 86.9377 30.104 81.5373 22.8565 87.1097Z" fill="black"/>
<path d="M29.6982 89.8287C33.4731 89.8287 36.5332 88.6114 36.5332 87.1097C36.5332 85.6081 33.4731 84.3907 29.6982 84.3907C25.9234 84.3907 22.8633 85.6081 22.8633 87.1097C22.8633 88.6114 25.9234 89.8287 29.6982 89.8287Z" fill="#A568FF"/>
<path opacity="0.7" d="M29.6982 89.8287C33.4731 89.8287 36.5332 88.6114 36.5332 87.1097C36.5332 85.6081 33.4731 84.3907 29.6982 84.3907C25.9234 84.3907 22.8633 85.6081 22.8633 87.1097C22.8633 88.6114 25.9234 89.8287 29.6982 89.8287Z" fill="black"/>
<path d="M18.9541 66.4485C18.9541 66.4485 14.1931 65.3469 16.0217 61.5263C16.0105 61.5263 19.2886 62.155 18.9541 66.4485Z" fill="#938F05"/>
<path d="M21.8422 70.3013C21.8422 70.3013 21.1844 67.0288 23.8269 65.7231C23.8269 65.7231 25.951 69.1406 21.8422 70.3013Z" fill="#938F05"/>
<path d="M24.8087 75.3041C24.8087 75.3041 24.017 71.3975 27.1836 69.8231C27.1836 69.8231 29.7258 73.9123 24.8087 75.3041Z" fill="#938F05"/>
<path d="M27.1114 80.7582C27.1114 80.7582 26.3197 76.8516 29.4863 75.2772C29.4863 75.2772 32.0286 79.3879 27.1114 80.7582Z" fill="#938F05"/>
<path d="M21.5534 70.3873C21.5534 70.3873 19.8809 67.4856 16.9707 68.1196C16.9707 68.1035 17.6341 72.0584 21.5534 70.3873Z" fill="#938F05"/>
<path d="M24.5635 75.4223C24.5635 75.4223 22.4116 72.0316 18.9551 72.9397C18.9551 72.9397 19.9586 77.5932 24.5635 75.4223Z" fill="#938F05"/>
<path d="M26.8485 80.8012C26.8485 80.8012 24.323 77.6523 21.0059 78.9097C21.0059 78.9097 22.5167 83.4503 26.8485 80.8012Z" fill="#938F05"/>
<path d="M28.6272 89.8663H28.6941C28.9182 89.8604 29.1423 89.8766 29.3631 89.9147C29.3653 89.8932 29.3653 89.8716 29.3631 89.8502C28.323 81.1166 24.7656 72.8385 19.0939 65.9541C18.7984 65.5941 18.2744 66.1046 18.5699 66.4592C24.1073 73.2026 27.5826 81.3015 28.6049 89.8448L28.6272 89.8663Z" fill="#42352F"/>
<path d="M39.8999 72.6818C39.8999 72.6818 43.9863 71.736 42.4142 68.4582C42.4142 68.4636 39.5821 68.9955 39.8999 72.6818Z" fill="#938F05"/>
<path d="M37.4143 75.9865C37.4143 75.9865 37.9718 73.1869 35.7139 72.0584C35.7084 72.0584 33.8853 74.987 37.4143 75.9865Z" fill="#938F05"/>
<path d="M34.8657 80.2799C34.8657 80.2799 35.5402 76.9322 32.8308 75.5781C32.8308 75.5781 30.6621 79.087 34.8657 80.2799Z" fill="#938F05"/>
<path d="M32.8916 84.9549C32.8916 84.9549 33.5661 81.6072 30.8567 80.2531C30.8567 80.2531 28.6713 83.762 32.8916 84.9549Z" fill="#938F05"/>
<path d="M37.6582 76.0617C37.6582 76.0617 39.0965 73.5738 41.5886 74.1165C41.5886 74.1165 41.0199 77.4911 37.6582 76.0617Z" fill="#938F05"/>
<path d="M35.0781 80.382C35.0781 80.382 36.9235 77.4696 39.8726 78.2326C39.8726 78.238 39.0252 82.2466 35.0781 80.382Z" fill="#938F05"/>
<path d="M33.1211 84.9979C33.1211 84.9979 35.2842 82.3111 38.1386 83.3858C38.1274 83.3697 36.834 87.2655 33.1211 84.9979Z" fill="#938F05"/>
<path d="M39.7668 72.2626C35.5473 77.3724 32.6777 83.3929 31.4043 89.8072C31.6217 89.775 31.8447 89.7427 32.0621 89.7212C33.3196 83.5001 36.1071 77.6605 40.1905 72.6925C40.4692 72.4023 40.0232 71.9564 39.7668 72.2626Z" fill="#42352F"/>
<defs>
<linearGradient id="paint0_linear" x1="175.06" y1="130.098" x2="149.802" y2="108.172" gradientUnits="userSpaceOnUse">
<stop stop-color="white" stop-opacity="0"/>
<stop offset="0.99" stop-color="#808080"/>
</linearGradient>
<linearGradient id="paint1_linear" x1="-60647.8" y1="7333.7" x2="-59124.3" y2="4970.59" gradientUnits="userSpaceOnUse">
<stop stop-color="white" stop-opacity="0"/>
<stop offset="0.99" stop-color="#808080"/>
</linearGradient>
<linearGradient id="paint2_linear" x1="3431.66" y1="3953.47" x2="2907.07" y2="3139.23" gradientUnits="userSpaceOnUse">
<stop stop-color="white" stop-opacity="0"/>
<stop offset="0.99" stop-color="#808080"/>
</linearGradient>
</defs>
</svg>
